<svg id="mermaid-1772557674309" width="100%" xmlns="http://www.w3.org/2000/svg" xmlns:xlink="http://www.w3.org/1999/xlink" style="max-width: 2828.796875px;" viewBox="-7.5 -8 2828.796875 995.15234375" role="graphics-document document" aria-roledescription="flowchart-v2"><style>#mermaid-1772557674309{font-family:"trebuchet ms",verdana,arial,sans-serif;font-size:16px;fill:#000000;}#mermaid-1772557674309 .error-icon{fill:#552222;}#mermaid-1772557674309 .error-text{fill:#552222;stroke:#552222;}#mermaid-1772557674309 .edge-thickness-normal{stroke-width:2px;}#mermaid-1772557674309 .edge-thickness-thick{stroke-width:3.5px;}#mermaid-1772557674309 .edge-pattern-solid{stroke-dasharray:0;}#mermaid-1772557674309 .edge-pattern-dashed{stroke-dasharray:3;}#mermaid-1772557674309 .edge-pattern-dotted{stroke-dasharray:2;}#mermaid-1772557674309 .marker{fill:#666;stroke:#666;}#mermaid-1772557674309 .marker.cross{stroke:#666;}#mermaid-1772557674309 svg{font-family:"trebuchet ms",verdana,arial,sans-serif;font-size:16px;}#mermaid-1772557674309 .label{font-family:"trebuchet ms",verdana,arial,sans-serif;color:#000000;}#mermaid-1772557674309 .cluster-label text{fill:#333;}#mermaid-1772557674309 .cluster-label span,#mermaid-1772557674309 p{color:#333;}#mermaid-1772557674309 .label text,#mermaid-1772557674309 span,#mermaid-1772557674309 p{fill:#000000;color:#000000;}#mermaid-1772557674309 .node rect,#mermaid-1772557674309 .node circle,#mermaid-1772557674309 .node ellipse,#mermaid-1772557674309 .node polygon,#mermaid-1772557674309 .node path{fill:#eee;stroke:#999;stroke-width:1px;}#mermaid-1772557674309 .flowchart-label text{text-anchor:middle;}#mermaid-1772557674309 .node .katex path{fill:#000;stroke:#000;stroke-width:1px;}#mermaid-1772557674309 .node .label{text-align:center;}#mermaid-1772557674309 .node.clickable{cursor:pointer;}#mermaid-1772557674309 .arrowheadPath{fill:#333333;}#mermaid-1772557674309 .edgePath .path{stroke:#666;stroke-width:2.0px;}#mermaid-1772557674309 .flowchart-link{stroke:#666;fill:none;}#mermaid-1772557674309 .edgeLabel{background-color:white;text-align:center;}#mermaid-1772557674309 .edgeLabel rect{opacity:0.5;background-color:white;fill:white;}#mermaid-1772557674309 .labelBkg{background-color:rgba(255, 255, 255, 0.5);}#mermaid-1772557674309 .cluster rect{fill:hsl(0, 0%, 98.9215686275%);stroke:#707070;stroke-width:1px;}#mermaid-1772557674309 .cluster text{fill:#333;}#mermaid-1772557674309 .cluster span,#mermaid-1772557674309 p{color:#333;}#mermaid-1772557674309 div.mermaidTooltip{position:absolute;text-align:center;max-width:200px;padding:2px;font-family:"trebuchet ms",verdana,arial,sans-serif;font-size:12px;background:hsl(-160, 0%, 93.3333333333%);border:1px solid #707070;border-radius:2px;pointer-events:none;z-index:100;}#mermaid-1772557674309 .flowchartTitleText{text-anchor:middle;font-size:18px;fill:#000000;}#mermaid-1772557674309 :root{--mermaid-font-family:"trebuchet ms",verdana,arial,sans-serif;}#mermaid-1772557674309 .dev&gt;*{fill:#4dabf7!important;stroke:#1864ab!important;stroke-width:2px!important;color:#000!important;}#mermaid-1772557674309 .dev span{fill:#4dabf7!important;stroke:#1864ab!important;stroke-width:2px!important;color:#000!important;}#mermaid-1772557674309 .dev tspan{fill:#000!important;}#mermaid-1772557674309 .build&gt;*{fill:#ffd43b!important;stroke:#f08c00!important;stroke-width:2px!important;color:#000!important;}#mermaid-1772557674309 .build span{fill:#ffd43b!important;stroke:#f08c00!important;stroke-width:2px!important;color:#000!important;}#mermaid-1772557674309 .build tspan{fill:#000!important;}#mermaid-1772557674309 .test&gt;*{fill:#51cf66!important;stroke:#2f9e44!important;stroke-width:2px!important;color:#000!important;}#mermaid-1772557674309 .test span{fill:#51cf66!important;stroke:#2f9e44!important;stroke-width:2px!important;color:#000!important;}#mermaid-1772557674309 .test tspan{fill:#000!important;}#mermaid-1772557674309 .security&gt;*{fill:#ff6b6b!important;stroke:#c92a2a!important;stroke-width:3px!important;color:#fff!important;font-weight:bold!important;}#mermaid-1772557674309 .security span{fill:#ff6b6b!important;stroke:#c92a2a!important;stroke-width:3px!important;color:#fff!important;font-weight:bold!important;}#mermaid-1772557674309 .security tspan{fill:#fff!important;}#mermaid-1772557674309 .deploy&gt;*{fill:#9775fa!important;stroke:#5f3dc4!important;stroke-width:2px!important;color:#fff!important;}#mermaid-1772557674309 .deploy span{fill:#9775fa!important;stroke:#5f3dc4!important;stroke-width:2px!important;color:#fff!important;}#mermaid-1772557674309 .deploy tspan{fill:#fff!important;}#mermaid-1772557674309 .approval&gt;*{fill:#ff922b!important;stroke:#d9480f!important;stroke-width:2px!important;color:#fff!important;}#mermaid-1772557674309 .approval span{fill:#ff922b!important;stroke:#d9480f!important;stroke-width:2px!important;color:#fff!important;}#mermaid-1772557674309 .approval tspan{fill:#fff!important;}#mermaid-1772557674309 .monitor&gt;*{fill:#20c997!important;stroke:#0ca678!important;stroke-width:2px!important;color:#000!important;}#mermaid-1772557674309 .monitor span{fill:#20c997!important;stroke:#0ca678!important;stroke-width:2px!important;color:#000!important;}#mermaid-1772557674309 .monitor tspan{fill:#000!important;}#mermaid-1772557674309 .gate&gt;*{fill:#fab005!important;stroke:#f76707!important;stroke-width:3px!important;color:#000!important;font-weight:bold!important;}#mermaid-1772557674309 .gate span{fill:#fab005!important;stroke:#f76707!important;stroke-width:3px!important;color:#000!important;font-weight:bold!important;}#mermaid-1772557674309 .gate tspan{fill:#000!important;}#mermaid-1772557674309 .fail&gt;*{fill:#e03131!important;stroke:#c92a2a!important;stroke-width:2px!important;color:#fff!important;}#mermaid-1772557674309 .fail span{fill:#e03131!important;stroke:#c92a2a!important;stroke-width:2px!important;color:#fff!important;}#mermaid-1772557674309 .fail tspan{fill:#fff!important;}</style><g><marker id="mermaid-1772557674309_flowchart-pointEnd" class="marker flowchart" viewBox="0 0 10 10" refX="6" refY="5" markerUnits="userSpaceOnUse" markerWidth="12" markerHeight="12" orient="auto"><path d="M 0 0 L 10 5 L 0 10 z" class="arrowMarkerPath" style="stroke-width: 1; stroke-dasharray: 1, 0;"></path></marker><marker id="mermaid-1772557674309_flowchart-pointStart" class="marker flowchart" viewBox="0 0 10 10" refX="4.5" refY="5" markerUnits="userSpaceOnUse" markerWidth="12" markerHeight="12" orient="auto"><path d="M 0 5 L 10 10 L 10 0 z" class="arrowMarkerPath" style="stroke-width: 1; stroke-dasharray: 1, 0;"></path></marker><marker id="mermaid-1772557674309_flowchart-circleEnd" class="marker flowchart" viewBox="0 0 10 10" refX="11" refY="5" markerUnits="userSpaceOnUse" markerWidth="11" markerHeight="11" orient="auto"><circle cx="5" cy="5" r="5" class="arrowMarkerPath" style="stroke-width: 1; stroke-dasharray: 1, 0;"></circle></marker><marker id="mermaid-1772557674309_flowchart-circleStart" class="marker flowchart" viewBox="0 0 10 10" refX="-1" refY="5" markerUnits="userSpaceOnUse" markerWidth="11" markerHeight="11" orient="auto"><circle cx="5" cy="5" r="5" class="arrowMarkerPath" style="stroke-width: 1; stroke-dasharray: 1, 0;"></circle></marker><marker id="mermaid-1772557674309_flowchart-crossEnd" class="marker cross flowchart" viewBox="0 0 11 11" refX="12" refY="5.2" markerUnits="userSpaceOnUse" markerWidth="11" markerHeight="11" orient="auto"><path d="M 1,1 l 9,9 M 10,1 l -9,9" class="arrowMarkerPath" style="stroke-width: 2; stroke-dasharray: 1, 0;"></path></marker><marker id="mermaid-1772557674309_flowchart-crossStart" class="marker cross flowchart" viewBox="0 0 11 11" refX="-1" refY="5.2" markerUnits="userSpaceOnUse" markerWidth="11" markerHeight="11" orient="auto"><path d="M 1,1 l 9,9 M 10,1 l -9,9" class="arrowMarkerPath" style="stroke-width: 2; stroke-dasharray: 1, 0;"></path></marker><g class="root"><g class="clusters"><g class="cluster default flowchart-label" id="CD_Delivery"><rect style="" rx="0" ry="0" x="898.40625" y="466" width="1482.453125" height="143"></rect><g class="cluster-label" transform="translate(1556.015625, 466)"><foreignObject width="167.234375" height="26"><div xmlns="http://www.w3.org/1999/xhtml" style="display: inline-block; white-space: nowrap;"><span class="nodeLabel">🧪 Continuous Delivery</span></div></foreignObject></g></g><g class="cluster default flowchart-label" id="CI"><rect style="" rx="0" ry="0" x="718.5625" y="638.12890625" width="1432.53125" height="133"></rect><g class="cluster-label" transform="translate(1340.8828125, 638.12890625)"><foreignObject width="187.890625" height="26"><div xmlns="http://www.w3.org/1999/xhtml" style="display: inline-block; white-space: nowrap;"><span class="nodeLabel">⚙️ Continuous Integration</span></div></foreignObject></g></g></g><g class="edgePaths"><path d="M848.406,706.4L852.573,706.938C856.74,707.476,865.073,708.553,873.406,709.091C881.74,709.629,890.073,709.629,897.523,709.629C904.973,709.629,911.54,709.629,914.823,709.629L918.106,709.629" id="L-C1-C2-0" class=" edge-thickness-normal edge-pattern-solid flowchart-link LS-C1 LE-C2" style="fill:none;" marker-end="url(#mermaid-1772557674309_flowchart-pointEnd)"></path><path d="M1079,709.629L1083.167,709.629C1087.333,709.629,1095.667,709.629,1114.815,709.629C1133.962,709.629,1163.925,709.629,1178.906,709.629L1193.888,709.629" id="L-C2-C3-0" class=" edge-thickness-normal edge-pattern-solid flowchart-link LS-C2 LE-C3" style="fill:none;" marker-end="url(#mermaid-1772557674309_flowchart-pointEnd)"></path><path d="M1305.891,709.629L1321.755,709.629C1337.62,709.629,1369.349,709.629,1389.332,709.629C1409.314,709.629,1417.55,709.629,1421.668,709.629L1425.786,709.629" id="L-C3-C4-0" class=" edge-thickness-normal edge-pattern-solid flowchart-link LS-C3 LE-C4" style="fill:none;" marker-end="url(#mermaid-1772557674309_flowchart-pointEnd)"></path><path d="M1617.039,709.629L1622.04,709.629C1627.042,709.629,1637.044,709.629,1645.329,709.629C1653.614,709.629,1660.18,709.629,1663.464,709.629L1666.747,709.629" id="L-C4-C5-0" class=" edge-thickness-normal edge-pattern-solid flowchart-link LS-C4 LE-C5" style="fill:none;" marker-end="url(#mermaid-1772557674309_flowchart-pointEnd)"></path><path d="M1887.203,709.629L1891.37,709.629C1895.536,709.629,1903.87,709.629,1911.32,709.629C1918.77,709.629,1925.336,709.629,1928.62,709.629L1931.903,709.629" id="L-C5-C6-0" class=" edge-thickness-normal edge-pattern-solid flowchart-link LS-C5 LE-C6" style="fill:none;" marker-end="url(#mermaid-1772557674309_flowchart-pointEnd)"></path><path d="M1071.219,544.311L1076.682,544.843C1082.146,545.374,1093.073,546.437,1110.027,546.969C1126.981,547.5,1149.961,547.5,1161.452,547.5L1172.942,547.5" id="L-CD1-CD2-0" class=" edge-thickness-normal edge-pattern-solid flowchart-link LS-CD1 LE-CD2" style="fill:none;" marker-end="url(#mermaid-1772557674309_flowchart-pointEnd)"></path><path d="M1326.836,547.5L1339.21,547.5C1351.583,547.5,1376.331,547.5,1391.988,547.5C1407.645,547.5,1414.211,547.5,1417.495,547.5L1420.778,547.5" id="L-CD2-CD3-0" class=" edge-thickness-normal edge-pattern-solid flowchart-link LS-CD2 LE-CD3" style="fill:none;" marker-end="url(#mermaid-1772557674309_flowchart-pointEnd)"></path><path d="M1622.047,547.5L1626.214,547.5C1630.38,547.5,1638.714,547.5,1653.463,547.5C1668.212,547.5,1689.378,547.5,1699.961,547.5L1710.544,547.5" id="L-CD3-CD4-0" class=" edge-thickness-normal edge-pattern-solid flowchart-link LS-CD3 LE-CD4" style="fill:none;" marker-end="url(#mermaid-1772557674309_flowchart-pointEnd)"></path><path d="M1843.406,547.5L1854.872,547.5C1866.339,547.5,1889.271,547.5,1907.095,547.5C1924.918,547.5,1937.633,547.5,1943.991,547.5L1950.348,547.5" id="L-CD4-CD5-0" class=" edge-thickness-normal edge-pattern-solid flowchart-link LS-CD4 LE-CD5" style="fill:none;" marker-end="url(#mermaid-1772557674309_flowchart-pointEnd)"></path><path d="M2107.648,541.137L2114.889,540.531C2122.13,539.925,2136.612,538.712,2148.02,538.106C2159.427,537.5,2167.76,537.5,2175.96,537.5C2184.16,537.5,2192.227,537.5,2196.26,537.5L2200.294,537.5" id="L-CD5-CD6-0" class=" edge-thickness-normal edge-pattern-solid flowchart-link LS-CD5 LE-CD6" style="fill:none;" marker-end="url(#mermaid-1772557674309_flowchart-pointEnd)"></path><path d="M2126.094,709.629L2130.26,709.629C2134.427,709.629,2142.76,709.629,2151.094,709.629C2159.427,709.629,2167.76,709.629,2177.398,709.701C2187.036,709.772,2197.977,709.916,2203.448,709.988L2208.919,710.059" id="L-C6-FailGate1-0" class=" edge-thickness-normal edge-pattern-solid flowchart-link LS-C6 LE-FailGate1" style="fill:none;" marker-end="url(#mermaid-1772557674309_flowchart-pointEnd)"></path><path d="M2351.359,537.5L2356.276,537.5C2361.193,537.5,2371.026,537.5,2382.284,537.5C2393.542,537.5,2406.224,537.5,2419.641,537.574C2433.059,537.648,2447.212,537.796,2454.288,537.87L2461.364,537.945" id="L-CD6-FailGate2-0" class=" edge-thickness-normal edge-pattern-solid flowchart-link LS-CD6 LE-FailGate2" style="fill:none;" marker-end="url(#mermaid-1772557674309_flowchart-pointEnd)"></path><path d="M2107.648,560.703L2114.889,561.961C2122.13,563.218,2136.612,565.734,2148.02,566.992C2159.427,568.25,2167.76,568.25,2185.785,613.208C2203.809,658.166,2231.525,748.081,2245.382,793.039L2259.24,837.997" id="L-CD5-FailGate3-0" class=" edge-thickness-normal edge-pattern-solid flowchart-link LS-CD5 LE-FailGate3" style="fill:none;" marker-end="url(#mermaid-1772557674309_flowchart-pointEnd)"></path><path d="M2343.734,710.129L2349.922,710.046C2356.109,709.962,2368.484,709.796,2381.013,709.712C2393.542,709.629,2406.224,709.629,2418.023,709.629C2429.822,709.629,2440.737,709.629,2446.195,709.629L2451.653,709.629" id="L-FailGate1-Notify1-0" class=" edge-thickness-normal edge-pattern-dotted flowchart-link LS-FailGate1 LE-Notify1" style="fill:none;stroke-width:2px;stroke-dasharray:3;" marker-end="url(#mermaid-1772557674309_flowchart-pointEnd)"></path><path d="M2588.367,538L2596.16,537.917C2603.953,537.833,2619.539,537.667,2632.79,537.583C2646.041,537.5,2656.956,537.5,2662.414,537.5L2667.872,537.5" id="L-FailGate2-Notify2-0" class=" edge-thickness-normal edge-pattern-dotted flowchart-link LS-FailGate2 LE-Notify2" style="fill:none;stroke-width:2px;stroke-dasharray:3;" marker-end="url(#mermaid-1772557674309_flowchart-pointEnd)"></path><path d="M2356.359,902.27L2360.443,902.186C2364.526,902.103,2372.693,901.936,2383.117,901.853C2393.542,901.77,2406.224,901.77,2418.023,901.77C2429.822,901.77,2440.737,901.77,2446.195,901.77L2451.653,901.77" id="L-FailGate3-Notify3-0" class=" edge-thickness-normal edge-pattern-dotted flowchart-link LS-FailGate3 LE-Notify3" style="fill:none;stroke-width:2px;stroke-dasharray:3;" marker-end="url(#mermaid-1772557674309_flowchart-pointEnd)"></path><path d="M668.563,699.629L672.729,699.629C676.896,699.629,685.229,699.629,692.679,699.629C700.129,699.629,706.696,699.629,709.979,699.629L713.263,699.629" id="L-DEV-CI-0" class=" edge-thickness-normal edge-pattern-solid flowchart-link LS-DEV LE-CI" style="fill:none;" marker-end="url(#mermaid-1772557674309_flowchart-pointEnd)"></path><path d="M919.586,638.129L945.436,612.716" id="L-CI-CD_Delivery-0" class=" edge-thickness-normal edge-pattern-solid flowchart-link LS-CI LE-CD_Delivery" style="fill:none;" marker-end="url(#mermaid-1772557674309_flowchart-pointEnd)"></path><path d="M1121.85,466L1139.927,435.557" id="L-CD_Delivery-CD_Deploy-0" class=" edge-thickness-normal edge-pattern-solid flowchart-link LS-CD_Delivery LE-CD_Deploy" style="fill:none;" marker-end="url(#mermaid-1772557674309_flowchart-pointEnd)"></path><path d="M1129,215.5L1124.833,215.5C1120.667,215.5,1112.333,215.5,1091.034,215.5C1069.734,215.5,1035.469,215.5,1001.203,215.5C966.938,215.5,932.672,215.5,911.372,215.5C890.073,215.5,881.74,215.5,864.669,215.5C847.599,215.5,821.792,215.5,795.984,215.5C770.177,215.5,744.37,215.5,727.299,215.5C710.229,215.5,701.896,215.5,671.495,215.5C641.094,215.5,588.625,215.5,527.232,215.5C465.839,215.5,395.521,215.5,347.83,230.81C300.14,246.12,275.077,276.739,262.545,292.049L250.013,307.359" id="L-CD_Deploy-MONITOR-0" class=" edge-thickness-normal edge-pattern-solid flowchart-link LS-CD_Deploy LE-MONITOR" style="fill:none;" marker-end="url(#mermaid-1772557674309_flowchart-pointEnd)"></path><path d="M246.656,607.221L259.747,622.622C272.839,638.024,299.021,668.826,324.32,684.228C349.619,699.629,374.034,699.629,386.242,699.629L398.45,699.629" id="L-MONITOR-DEV-0" class=" edge-thickness-normal edge-pattern-dotted flowchart-link LS-MONITOR LE-DEV" style="fill:none;stroke-width:2px;stroke-dasharray:3;" marker-end="url(#mermaid-1772557674309_flowchart-pointEnd)"></path></g><g class="edgeLabels"><g class="edgeLabel"><g class="label" transform="translate(0, 0)"><foreignObject width="0" height="0"><div xmlns="http://www.w3.org/1999/xhtml" style="display: inline-block; white-space: nowrap;"><span class="edgeLabel"></span></div></foreignObject></g></g><g class="edgeLabel"><g class="label" transform="translate(0, 0)"><foreignObject width="0" height="0"><div xmlns="http://www.w3.org/1999/xhtml" style="display: inline-block; white-space: nowrap;"><span class="edgeLabel"></span></div></foreignObject></g></g><g class="edgeLabel"><g class="label" transform="translate(0, 0)"><foreignObject width="0" height="0"><div xmlns="http://www.w3.org/1999/xhtml" style="display: inline-block; white-space: nowrap;"><span class="edgeLabel"></span></div></foreignObject></g></g><g class="edgeLabel"><g class="label" transform="translate(0, 0)"><foreignObject width="0" height="0"><div xmlns="http://www.w3.org/1999/xhtml" style="display: inline-block; white-space: nowrap;"><span class="edgeLabel"></span></div></foreignObject></g></g><g class="edgeLabel"><g class="label" transform="translate(0, 0)"><foreignObject width="0" height="0"><div xmlns="http://www.w3.org/1999/xhtml" style="display: inline-block; white-space: nowrap;"><span class="edgeLabel"></span></div></foreignObject></g></g><g class="edgeLabel"><g class="label" transform="translate(0, 0)"><foreignObject width="0" height="0"><div xmlns="http://www.w3.org/1999/xhtml" style="display: inline-block; white-space: nowrap;"><span class="edgeLabel"></span></div></foreignObject></g></g><g class="edgeLabel"><g class="label" transform="translate(0, 0)"><foreignObject width="0" height="0"><div xmlns="http://www.w3.org/1999/xhtml" style="display: inline-block; white-space: nowrap;"><span class="edgeLabel"></span></div></foreignObject></g></g><g class="edgeLabel"><g class="label" transform="translate(0, 0)"><foreignObject width="0" height="0"><div xmlns="http://www.w3.org/1999/xhtml" style="display: inline-block; white-space: nowrap;"><span class="edgeLabel"></span></div></foreignObject></g></g><g class="edgeLabel"><g class="label" transform="translate(0, 0)"><foreignObject width="0" height="0"><div xmlns="http://www.w3.org/1999/xhtml" style="display: inline-block; white-space: nowrap;"><span class="edgeLabel"></span></div></foreignObject></g></g><g class="edgeLabel"><g class="label" transform="translate(0, 0)"><foreignObject width="0" height="0"><div xmlns="http://www.w3.org/1999/xhtml" style="display: inline-block; white-space: nowrap;"><span class="edgeLabel"></span></div></foreignObject></g></g><g class="edgeLabel"><g class="label" transform="translate(0, 0)"><foreignObject width="0" height="0"><div xmlns="http://www.w3.org/1999/xhtml" style="display: inline-block; white-space: nowrap;"><span class="edgeLabel"></span></div></foreignObject></g></g><g class="edgeLabel"><g class="label" transform="translate(0, 0)"><foreignObject width="0" height="0"><div xmlns="http://www.w3.org/1999/xhtml" style="display: inline-block; white-space: nowrap;"><span class="edgeLabel"></span></div></foreignObject></g></g><g class="edgeLabel"><g class="label" transform="translate(0, 0)"><foreignObject width="0" height="0"><div xmlns="http://www.w3.org/1999/xhtml" style="display: inline-block; white-space: nowrap;"><span class="edgeLabel"></span></div></foreignObject></g></g><g class="edgeLabel" transform="translate(2418.90625, 709.62890625)"><g class="label" transform="translate(-13.046875, -9.5)"><foreignObject width="26.09375" height="19"><div xmlns="http://www.w3.org/1999/xhtml" style="display: inline-block; white-space: nowrap;"><span class="edgeLabel">Fail</span></div></foreignObject></g></g><g class="edgeLabel" transform="translate(2635.125, 537.5)"><g class="label" transform="translate(-13.046875, -9.5)"><foreignObject width="26.09375" height="19"><div xmlns="http://www.w3.org/1999/xhtml" style="display: inline-block; white-space: nowrap;"><span class="edgeLabel">Fail</span></div></foreignObject></g></g><g class="edgeLabel" transform="translate(2418.90625, 901.76953125)"><g class="label" transform="translate(-13.046875, -9.5)"><foreignObject width="26.09375" height="19"><div xmlns="http://www.w3.org/1999/xhtml" style="display: inline-block; white-space: nowrap;"><span class="edgeLabel">Fail</span></div></foreignObject></g></g><g class="edgeLabel"><g class="label" transform="translate(0, 0)"><foreignObject width="0" height="0"><div xmlns="http://www.w3.org/1999/xhtml" style="display: inline-block; white-space: nowrap;"><span class="edgeLabel"></span></div></foreignObject></g></g><g class="edgeLabel"><g class="label" transform="translate(0, 0)"><foreignObject width="0" height="0"><div xmlns="http://www.w3.org/1999/xhtml" style="display: inline-block; white-space: nowrap;"><span class="edgeLabel"></span></div></foreignObject></g></g><g class="edgeLabel"><g class="label" transform="translate(0, 0)"><foreignObject width="0" height="0"><div xmlns="http://www.w3.org/1999/xhtml" style="display: inline-block; white-space: nowrap;"><span class="edgeLabel"></span></div></foreignObject></g></g><g class="edgeLabel"><g class="label" transform="translate(0, 0)"><foreignObject width="0" height="0"><div xmlns="http://www.w3.org/1999/xhtml" style="display: inline-block; white-space: nowrap;"><span class="edgeLabel"></span></div></foreignObject></g></g><g class="edgeLabel" transform="translate(325.203125, 699.62890625)"><g class="label" transform="translate(-53.546875, -9.5)"><foreignObject width="107.09375" height="19"><div xmlns="http://www.w3.org/1999/xhtml" style="display: inline-block; white-space: nowrap;"><span class="edgeLabel">Feedback Loop</span></div></foreignObject></g></g></g><g class="nodes"><g class="root" transform="translate(-7.5, 248.12890625)"><g class="clusters"><g class="cluster default flowchart-label" id="MONITOR"><rect style="" rx="0" ry="0" x="8" y="8" width="246.65625" height="412"></rect><g class="cluster-label" transform="translate(39.09375, 8)"><foreignObject width="184.46875" height="26"><div xmlns="http://www.w3.org/1999/xhtml" style="display: inline-block; white-space: nowrap;"><span class="nodeLabel">📊 Continuous Monitoring</span></div></foreignObject></g></g></g><g class="edgePaths"><path d="M131.328,86L131.328,90.167C131.328,94.333,131.328,102.667,131.328,111C131.328,119.333,131.328,127.667,131.328,131.833L131.328,136" id="L-M1-M2-0" class=" edge-thickness-thick edge-pattern-solid flowchart-link LS-M1 LE-M2" style="stroke-width: 0;fill:none;"></path><path d="M131.328,189L131.328,193.167C131.328,197.333,131.328,205.667,131.328,214C131.328,222.333,131.328,230.667,131.328,234.833L131.328,239" id="L-M2-M3-0" class=" edge-thickness-thick edge-pattern-solid flowchart-link LS-M2 LE-M3" style="stroke-width: 0;fill:none;"></path><path d="M131.328,292L131.328,296.167C131.328,300.333,131.328,308.667,131.328,317C131.328,325.333,131.328,333.667,131.328,337.833L131.328,342" id="L-M3-M4-0" class=" edge-thickness-thick edge-pattern-solid flowchart-link LS-M3 LE-M4" style="stroke-width: 0;fill:none;"></path></g><g class="edgeLabels"><g class="edgeLabel"><g class="label" transform="translate(0, 0)"><foreignObject width="0" height="0"><div xmlns="http://www.w3.org/1999/xhtml" style="display: inline-block; white-space: nowrap;"><span class="edgeLabel"></span></div></foreignObject></g></g><g class="edgeLabel"><g class="label" transform="translate(0, 0)"><foreignObject width="0" height="0"><div xmlns="http://www.w3.org/1999/xhtml" style="display: inline-block; white-space: nowrap;"><span class="edgeLabel"></span></div></foreignObject></g></g><g class="edgeLabel"><g class="label" transform="translate(0, 0)"><foreignObject width="0" height="0"><div xmlns="http://www.w3.org/1999/xhtml" style="display: inline-block; white-space: nowrap;"><span class="edgeLabel"></span></div></foreignObject></g></g></g><g class="nodes"><g class="node default monitor flowchart-label" id="flowchart-M1-39" data-node="true" data-id="M1" transform="translate(131.328125, 59.5)"><rect class="basic label-container" style="" rx="0" ry="0" x="-88.328125" y="-26.5" width="176.65625" height="53"></rect><g class="label" style="" transform="translate(-80.828125, -19)"><rect></rect><foreignObject width="161.65625" height="38"><div xmlns="http://www.w3.org/1999/xhtml" style="display: inline-block; white-space: nowrap;"><span class="nodeLabel">Application Monitoring<br>New Relic/Datadog</span></div></foreignObject></g></g><g class="node default security flowchart-label" id="flowchart-M2-40" data-node="true" data-id="M2" transform="translate(131.328125, 162.5)"><rect class="basic label-container" style="" rx="0" ry="0" x="-80.5078125" y="-26.5" width="161.015625" height="53"></rect><g class="label" style="" transform="translate(-73.0078125, -19)"><rect></rect><foreignObject width="146.015625" height="38"><div xmlns="http://www.w3.org/1999/xhtml" style="display: inline-block; white-space: nowrap;"><span class="nodeLabel">Security Monitoring<br>SIEM - Splunk</span></div></foreignObject></g></g><g class="node default monitor flowchart-label" id="flowchart-M3-41" data-node="true" data-id="M3" transform="translate(131.328125, 265.5)"><rect class="basic label-container" style="" rx="0" ry="0" x="-64.390625" y="-26.5" width="128.78125" height="53"></rect><g class="label" style="" transform="translate(-56.890625, -19)"><rect></rect><foreignObject width="113.78125" height="38"><div xmlns="http://www.w3.org/1999/xhtml" style="display: inline-block; white-space: nowrap;"><span class="nodeLabel">Log Aggregation<br>ELK Stack</span></div></foreignObject></g></g><g class="node default security flowchart-label" id="flowchart-M4-42" data-node="true" data-id="M4" transform="translate(131.328125, 368.5)"><rect class="basic label-container" style="" rx="0" ry="0" x="-75.359375" y="-26.5" width="150.71875" height="53"></rect><g class="label" style="" transform="translate(-67.859375, -19)"><rect></rect><foreignObject width="135.71875" height="38"><div xmlns="http://www.w3.org/1999/xhtml" style="display: inline-block; white-space: nowrap;"><span class="nodeLabel">Incident Response<br>SOAR Platform</span></div></foreignObject></g></g></g></g><g class="root" transform="translate(1121.5, -8)"><g class="clusters"><g class="cluster default flowchart-label" id="CD_Deploy"><rect style="" rx="0" ry="0" x="8" y="8" width="247.078125" height="431"></rect><g class="cluster-label" transform="translate(34.296875, 8)"><foreignObject width="194.484375" height="26"><div xmlns="http://www.w3.org/1999/xhtml" style="display: inline-block; white-space: nowrap;"><span class="nodeLabel">🚀 Continuous Deployment</span></div></foreignObject></g></g></g><g class="edgePaths"><path d="M131.539,86L131.539,90.167C131.539,94.333,131.539,102.667,131.539,110.117C131.539,117.567,131.539,124.133,131.539,127.417L131.539,130.7" id="L-P1-P2-0" class=" edge-thickness-normal edge-pattern-solid flowchart-link LS-P1 LE-P2" style="fill:none;" marker-end="url(#mermaid-1772557674309_flowchart-pointEnd)"></path><path d="M131.539,189L131.539,193.167C131.539,197.333,131.539,205.667,131.539,213.117C131.539,220.567,131.539,227.133,131.539,230.417L131.539,233.7" id="L-P2-P3-0" class=" edge-thickness-normal edge-pattern-solid flowchart-link LS-P2 LE-P3" style="fill:none;" marker-end="url(#mermaid-1772557674309_flowchart-pointEnd)"></path><path d="M131.539,292L131.539,297.75C131.539,303.5,131.539,315,131.539,325.617C131.539,336.233,131.539,345.967,131.539,350.833L131.539,355.7" id="L-P3-P4-0" class=" edge-thickness-normal edge-pattern-dotted flowchart-link LS-P3 LE-P4" style="fill:none;stroke-width:2px;stroke-dasharray:3;" marker-end="url(#mermaid-1772557674309_flowchart-pointEnd)"></path></g><g class="edgeLabels"><g class="edgeLabel"><g class="label" transform="translate(0, 0)"><foreignObject width="0" height="0"><div xmlns="http://www.w3.org/1999/xhtml" style="display: inline-block; white-space: nowrap;"><span class="edgeLabel"></span></div></foreignObject></g></g><g class="edgeLabel"><g class="label" transform="translate(0, 0)"><foreignObject width="0" height="0"><div xmlns="http://www.w3.org/1999/xhtml" style="display: inline-block; white-space: nowrap;"><span class="edgeLabel"></span></div></foreignObject></g></g><g class="edgeLabel" transform="translate(131.5390625, 326.5)"><g class="label" transform="translate(-24.890625, -9.5)"><foreignObject width="49.78125" height="19"><div xmlns="http://www.w3.org/1999/xhtml" style="display: inline-block; white-space: nowrap;"><span class="edgeLabel">Failure</span></div></foreignObject></g></g></g><g class="nodes"><g class="node default approval flowchart-label" id="flowchart-P1-30" data-node="true" data-id="P1" transform="translate(131.5390625, 59.5)"><rect class="basic label-container" style="" rx="0" ry="0" x="-88.5390625" y="-26.5" width="177.078125" height="53"></rect><g class="label" style="" transform="translate(-81.0390625, -19)"><rect></rect><foreignObject width="162.078125" height="38"><div xmlns="http://www.w3.org/1999/xhtml" style="display: inline-block; white-space: nowrap;"><span class="nodeLabel">Manual Approval Gate<br>Change Advisory Board</span></div></foreignObject></g></g><g class="node default deploy flowchart-label" id="flowchart-P2-31" data-node="true" data-id="P2" transform="translate(131.5390625, 162.5)"><rect class="basic label-container" style="" rx="0" ry="0" x="-85.7734375" y="-26.5" width="171.546875" height="53"></rect><g class="label" style="" transform="translate(-78.2734375, -19)"><rect></rect><foreignObject width="156.546875" height="38"><div xmlns="http://www.w3.org/1999/xhtml" style="display: inline-block; white-space: nowrap;"><span class="nodeLabel">Deploy to Production<br>Blue/Green or Canary</span></div></foreignObject></g></g><g class="node default test flowchart-label" id="flowchart-P3-32" data-node="true" data-id="P3" transform="translate(131.5390625, 265.5)"><rect class="basic label-container" style="" rx="0" ry="0" x="-58.3671875" y="-26.5" width="116.734375" height="53"></rect><g class="label" style="" transform="translate(-50.8671875, -19)"><rect></rect><foreignObject width="101.734375" height="38"><div xmlns="http://www.w3.org/1999/xhtml" style="display: inline-block; white-space: nowrap;"><span class="nodeLabel">Health Checks<br>Smoke Tests</span></div></foreignObject></g></g><g class="node default deploy flowchart-label" id="flowchart-P4-33" data-node="true" data-id="P4" transform="translate(131.5390625, 387.5)"><rect class="basic label-container" style="" rx="0" ry="0" x="-75.875" y="-26.5" width="151.75" height="53"></rect><g class="label" style="" transform="translate(-68.375, -19)"><rect></rect><foreignObject width="136.75" height="38"><div xmlns="http://www.w3.org/1999/xhtml" style="display: inline-block; white-space: nowrap;"><span class="nodeLabel">Rollback on Failure<br>Automated</span></div></foreignObject></g></g></g></g><g class="node default deploy flowchart-label" id="flowchart-CD1-18" data-node="true" data-id="CD1" transform="translate(1001.203125, 537.5)"><rect class="basic label-container" style="" rx="0" ry="0" x="-70.015625" y="-26.5" width="140.03125" height="53"></rect><g class="label" style="" transform="translate(-62.515625, -19)"><rect></rect><foreignObject width="125.03125" height="38"><div xmlns="http://www.w3.org/1999/xhtml" style="display: inline-block; white-space: nowrap;"><span class="nodeLabel">Deploy to Staging<br>Environment</span></div></foreignObject></g></g><g class="node default test flowchart-label" id="flowchart-CD2-19" data-node="true" data-id="CD2" transform="translate(1252.5390625, 547.5)"><rect class="basic label-container" style="" rx="0" ry="0" x="-74.296875" y="-26.5" width="148.59375" height="53"></rect><g class="label" style="" transform="translate(-66.796875, -19)"><rect></rect><foreignObject width="133.59375" height="38"><div xmlns="http://www.w3.org/1999/xhtml" style="display: inline-block; white-space: nowrap;"><span class="nodeLabel">Integration Tests<br>Selenium/Postman</span></div></foreignObject></g></g><g class="node default security flowchart-label" id="flowchart-CD3-20" data-node="true" data-id="CD3" transform="translate(1524.0625, 547.5)"><rect class="basic label-container" style="" rx="0" ry="0" x="-97.984375" y="-26.5" width="195.96875" height="53"></rect><g class="label" style="" transform="translate(-90.484375, -19)"><rect></rect><foreignObject width="180.96875" height="38"><div xmlns="http://www.w3.org/1999/xhtml" style="display: inline-block; white-space: nowrap;"><span class="nodeLabel">DAST - Dynamic Analysis<br>OWASP ZAP/Burp Suite</span></div></foreignObject></g></g><g class="node default security flowchart-label" id="flowchart-CD4-21" data-node="true" data-id="CD4" transform="translate(1779.625, 547.5)"><rect class="basic label-container" style="" rx="0" ry="0" x="-63.78125" y="-26.5" width="127.5625" height="53"></rect><g class="label" style="" transform="translate(-56.28125, -19)"><rect></rect><foreignObject width="112.5625" height="38"><div xmlns="http://www.w3.org/1999/xhtml" style="display: inline-block; white-space: nowrap;"><span class="nodeLabel">Container Scan<br>Trivy/Clair</span></div></foreignObject></g></g><g class="node default security flowchart-label" id="flowchart-CD5-22" data-node="true" data-id="CD5" transform="translate(2031.6484375, 547.5)"><rect class="basic label-container" style="" rx="0" ry="0" x="-76" y="-26.5" width="152" height="53"></rect><g class="label" style="" transform="translate(-68.5, -19)"><rect></rect><foreignObject width="137" height="38"><div xmlns="http://www.w3.org/1999/xhtml" style="display: inline-block; white-space: nowrap;"><span class="nodeLabel">Compliance Check<br>CIS Benchmarks</span></div></foreignObject></g></g><g class="node default test flowchart-label" id="flowchart-CD6-23" data-node="true" data-id="CD6" transform="translate(2278.4765625, 537.5)"><rect class="basic label-container" style="" rx="0" ry="0" x="-72.8828125" y="-26.5" width="145.765625" height="53"></rect><g class="label" style="" transform="translate(-65.3828125, -19)"><rect></rect><foreignObject width="130.765625" height="38"><div xmlns="http://www.w3.org/1999/xhtml" style="display: inline-block; white-space: nowrap;"><span class="nodeLabel">Performance Tests<br>JMeter/Gatling</span></div></foreignObject></g></g><g class="node default build flowchart-label" id="flowchart-C1-6" data-node="true" data-id="C1" transform="translate(795.984375, 699.62890625)"><rect class="basic label-container" style="" rx="0" ry="0" x="-52.421875" y="-26.5" width="104.84375" height="53"></rect><g class="label" style="" transform="translate(-44.921875, -19)"><rect></rect><foreignObject width="89.84375" height="38"><div xmlns="http://www.w3.org/1999/xhtml" style="display: inline-block; white-space: nowrap;"><span class="nodeLabel">Build Trigger<br>Automated</span></div></foreignObject></g></g><g class="node default build flowchart-label" id="flowchart-C2-7" data-node="true" data-id="C2" transform="translate(1001.203125, 709.62890625)"><rect class="basic label-container" style="" rx="0" ry="0" x="-77.796875" y="-26.5" width="155.59375" height="53"></rect><g class="label" style="" transform="translate(-70.296875, -19)"><rect></rect><foreignObject width="140.59375" height="38"><div xmlns="http://www.w3.org/1999/xhtml" style="display: inline-block; white-space: nowrap;"><span class="nodeLabel">Compile &amp; Build<br>Maven/Gradle/npm</span></div></foreignObject></g></g><g class="node default test flowchart-label" id="flowchart-C3-8" data-node="true" data-id="C3" transform="translate(1252.5390625, 709.62890625)"><rect class="basic label-container" style="" rx="0" ry="0" x="-53.3515625" y="-26.5" width="106.703125" height="53"></rect><g class="label" style="" transform="translate(-45.8515625, -19)"><rect></rect><foreignObject width="91.703125" height="38"><div xmlns="http://www.w3.org/1999/xhtml" style="display: inline-block; white-space: nowrap;"><span class="nodeLabel">Unit Tests<br>JUnit/PyTest</span></div></foreignObject></g></g><g class="node default security flowchart-label" id="flowchart-C4-9" data-node="true" data-id="C4" transform="translate(1524.0625, 709.62890625)"><rect class="basic label-container" style="" rx="0" ry="0" x="-92.9765625" y="-26.5" width="185.953125" height="53"></rect><g class="label" style="" transform="translate(-85.4765625, -19)"><rect></rect><foreignObject width="170.953125" height="38"><div xmlns="http://www.w3.org/1999/xhtml" style="display: inline-block; white-space: nowrap;"><span class="nodeLabel">SAST - Static Analysis<br>SonarQube/Checkmarx</span></div></foreignObject></g></g><g class="node default security flowchart-label" id="flowchart-C5-10" data-node="true" data-id="C5" transform="translate(1779.625, 709.62890625)"><rect class="basic label-container" style="" rx="0" ry="0" x="-107.578125" y="-26.5" width="215.15625" height="53"></rect><g class="label" style="" transform="translate(-100.078125, -19)"><rect></rect><foreignObject width="200.15625" height="38"><div xmlns="http://www.w3.org/1999/xhtml" style="display: inline-block; white-space: nowrap;"><span class="nodeLabel">Dependency Scan<br>OWASP Dependency-Check</span></div></foreignObject></g></g><g class="node default security flowchart-label" id="flowchart-C6-11" data-node="true" data-id="C6" transform="translate(2031.6484375, 709.62890625)"><rect class="basic label-container" style="" rx="0" ry="0" x="-94.4453125" y="-26.5" width="188.890625" height="53"></rect><g class="label" style="" transform="translate(-86.9453125, -19)"><rect></rect><foreignObject width="173.890625" height="38"><div xmlns="http://www.w3.org/1999/xhtml" style="display: inline-block; white-space: nowrap;"><span class="nodeLabel">Secret Detection<br>GitGuardian/TruffleHog</span></div></foreignObject></g></g><g class="root" transform="translate(396.25, 546.62890625)"><g class="clusters"><g class="cluster default flowchart-label" id="DEV"><rect style="" rx="0" ry="0" x="8" y="8" width="264.8125" height="290"></rect><g class="cluster-label" transform="translate(58.1171875, 8)"><foreignObject width="164.578125" height="26"><div xmlns="http://www.w3.org/1999/xhtml" style="display: inline-block; white-space: nowrap;"><span class="nodeLabel">👨‍💻 Development Phase</span></div></foreignObject></g></g></g><g class="edgePaths"><path d="M140.406,67L140.406,71.167C140.406,75.333,140.406,83.667,140.406,91.117C140.406,98.567,140.406,105.133,140.406,108.417L140.406,111.7" id="L-D1-D2-0" class=" edge-thickness-normal edge-pattern-solid flowchart-link LS-D1 LE-D2" style="fill:none;" marker-end="url(#mermaid-1772557674309_flowchart-pointEnd)"></path><path d="M140.406,170L140.406,174.167C140.406,178.333,140.406,186.667,140.406,194.117C140.406,201.567,140.406,208.133,140.406,211.417L140.406,214.7" id="L-D2-D3-0" class=" edge-thickness-normal edge-pattern-solid flowchart-link LS-D2 LE-D3" style="fill:none;" marker-end="url(#mermaid-1772557674309_flowchart-pointEnd)"></path></g><g class="edgeLabels"><g class="edgeLabel"><g class="label" transform="translate(0, 0)"><foreignObject width="0" height="0"><div xmlns="http://www.w3.org/1999/xhtml" style="display: inline-block; white-space: nowrap;"><span class="edgeLabel"></span></div></foreignObject></g></g><g class="edgeLabel"><g class="label" transform="translate(0, 0)"><foreignObject width="0" height="0"><div xmlns="http://www.w3.org/1999/xhtml" style="display: inline-block; white-space: nowrap;"><span class="edgeLabel"></span></div></foreignObject></g></g></g><g class="nodes"><g class="node default dev flowchart-label" id="flowchart-D1-0" data-node="true" data-id="D1" transform="translate(140.40625, 50)"><rect class="basic label-container" style="" rx="0" ry="0" x="-97.40625" y="-17" width="194.8125" height="34"></rect><g class="label" style="" transform="translate(-89.90625, -9.5)"><rect></rect><foreignObject width="179.8125" height="19"><div xmlns="http://www.w3.org/1999/xhtml" style="display: inline-block; white-space: nowrap;"><span class="nodeLabel">Developer Commits Code</span></div></foreignObject></g></g><g class="node default dev flowchart-label" id="flowchart-D2-1" data-node="true" data-id="D2" transform="translate(140.40625, 143.5)"><rect class="basic label-container" style="" rx="0" ry="0" x="-62.1328125" y="-26.5" width="124.265625" height="53"></rect><g class="label" style="" transform="translate(-54.6328125, -19)"><rect></rect><foreignObject width="109.265625" height="38"><div xmlns="http://www.w3.org/1999/xhtml" style="display: inline-block; white-space: nowrap;"><span class="nodeLabel">Version Control<br>Git/GitHub</span></div></foreignObject></g></g><g class="node default security flowchart-label" id="flowchart-D3-2" data-node="true" data-id="D3" transform="translate(140.40625, 246.5)"><rect class="basic label-container" style="" rx="0" ry="0" x="-85.671875" y="-26.5" width="171.34375" height="53"></rect><g class="label" style="" transform="translate(-78.171875, -19)"><rect></rect><foreignObject width="156.34375" height="38"><div xmlns="http://www.w3.org/1999/xhtml" style="display: inline-block; white-space: nowrap;"><span class="nodeLabel">Pre-commit Hooks<br>Linting, Secrets Scan</span></div></foreignObject></g></g></g></g><g class="node default gate flowchart-label" id="flowchart-FailGate1-54" data-node="true" data-id="FailGate1" transform="translate(2278.4765625, 709.62890625)"><polygon points="64.7578125,0 129.515625,-64.7578125 64.7578125,-129.515625 0,-64.7578125" class="label-container" transform="translate(-64.7578125,64.7578125)" style=""></polygon><g class="label" style="" transform="translate(-30.7578125, -19)"><rect></rect><foreignObject width="61.515625" height="38"><div xmlns="http://www.w3.org/1999/xhtml" style="display: inline-block; white-space: nowrap;"><span class="nodeLabel">Security<br>Gate</span></div></foreignObject></g></g><g class="node default gate flowchart-label" id="flowchart-FailGate2-55" data-node="true" data-id="FailGate2" transform="translate(2527.015625, 537.5)"><polygon points="60.8515625,0 121.703125,-60.8515625 60.8515625,-121.703125 0,-60.8515625" class="label-container" transform="translate(-60.8515625,60.8515625)" style=""></polygon><g class="label" style="" transform="translate(-26.8515625, -19)"><rect></rect><foreignObject width="53.703125" height="38"><div xmlns="http://www.w3.org/1999/xhtml" style="display: inline-block; white-space: nowrap;"><span class="nodeLabel">Quality<br>Gate</span></div></foreignObject></g></g><g class="node default gate flowchart-label" id="flowchart-FailGate3-56" data-node="true" data-id="FailGate3" transform="translate(2278.4765625, 901.76953125)"><polygon points="77.3828125,0 154.765625,-77.3828125 77.3828125,-154.765625 0,-77.3828125" class="label-container" transform="translate(-77.3828125,77.3828125)" style=""></polygon><g class="label" style="" transform="translate(-43.3828125, -19)"><rect></rect><foreignObject width="86.765625" height="38"><div xmlns="http://www.w3.org/1999/xhtml" style="display: inline-block; white-space: nowrap;"><span class="nodeLabel">Compliance<br>Gate</span></div></foreignObject></g></g><g class="node default fail flowchart-label" id="flowchart-Notify1-64" data-node="true" data-id="Notify1" transform="translate(2527.015625, 709.62890625)"><rect class="basic label-container" style="" rx="0" ry="0" x="-70.0625" y="-30" width="140.125" height="60"></rect><g class="label" style="" transform="translate(-62.5625, -22.5)"><rect></rect><foreignObject width="125.125" height="45"><div xmlns="http://www.w3.org/1999/xhtml" style="display: inline-block; white-space: nowrap;"><span class="nodeLabel">❌ Block Pipeline<br>Notify Team</span></div></foreignObject></g></g><g class="node default fail flowchart-label" id="flowchart-Notify2-66" data-node="true" data-id="Notify2" transform="translate(2743.234375, 537.5)"><rect class="basic label-container" style="" rx="0" ry="0" x="-70.0625" y="-30" width="140.125" height="60"></rect><g class="label" style="" transform="translate(-62.5625, -22.5)"><rect></rect><foreignObject width="125.125" height="45"><div xmlns="http://www.w3.org/1999/xhtml" style="display: inline-block; white-space: nowrap;"><span class="nodeLabel">❌ Block Pipeline<br>Notify Team</span></div></foreignObject></g></g><g class="node default fail flowchart-label" id="flowchart-Notify3-68" data-node="true" data-id="Notify3" transform="translate(2527.015625, 901.76953125)"><rect class="basic label-container" style="" rx="0" ry="0" x="-70.0625" y="-30" width="140.125" height="60"></rect><g class="label" style="" transform="translate(-62.5625, -22.5)"><rect></rect><foreignObject width="125.125" height="45"><div xmlns="http://www.w3.org/1999/xhtml" style="display: inline-block; white-space: nowrap;"><span class="nodeLabel">❌ Block Pipeline<br>Notify Team</span></div></foreignObject></g></g></g></g></g></svg>