<svg id="mermaid-1772557654312" width="100%" xmlns="http://www.w3.org/2000/svg" xmlns:xlink="http://www.w3.org/1999/xlink" style="max-width: 1331.70703125px;" viewBox="-8 -8 1331.70703125 1695.46875" role="graphics-document document" aria-roledescription="flowchart-v2"><style>#mermaid-1772557654312{font-family:"trebuchet ms",verdana,arial,sans-serif;font-size:16px;fill:#000000;}#mermaid-1772557654312 .error-icon{fill:#552222;}#mermaid-1772557654312 .error-text{fill:#552222;stroke:#552222;}#mermaid-1772557654312 .edge-thickness-normal{stroke-width:2px;}#mermaid-1772557654312 .edge-thickness-thick{stroke-width:3.5px;}#mermaid-1772557654312 .edge-pattern-solid{stroke-dasharray:0;}#mermaid-1772557654312 .edge-pattern-dashed{stroke-dasharray:3;}#mermaid-1772557654312 .edge-pattern-dotted{stroke-dasharray:2;}#mermaid-1772557654312 .marker{fill:#666;stroke:#666;}#mermaid-1772557654312 .marker.cross{stroke:#666;}#mermaid-1772557654312 svg{font-family:"trebuchet ms",verdana,arial,sans-serif;font-size:16px;}#mermaid-1772557654312 .label{font-family:"trebuchet ms",verdana,arial,sans-serif;color:#000000;}#mermaid-1772557654312 .cluster-label text{fill:#333;}#mermaid-1772557654312 .cluster-label span,#mermaid-1772557654312 p{color:#333;}#mermaid-1772557654312 .label text,#mermaid-1772557654312 span,#mermaid-1772557654312 p{fill:#000000;color:#000000;}#mermaid-1772557654312 .node rect,#mermaid-1772557654312 .node circle,#mermaid-1772557654312 .node ellipse,#mermaid-1772557654312 .node polygon,#mermaid-1772557654312 .node path{fill:#eee;stroke:#999;stroke-width:1px;}#mermaid-1772557654312 .flowchart-label text{text-anchor:middle;}#mermaid-1772557654312 .node .katex path{fill:#000;stroke:#000;stroke-width:1px;}#mermaid-1772557654312 .node .label{text-align:center;}#mermaid-1772557654312 .node.clickable{cursor:pointer;}#mermaid-1772557654312 .arrowheadPath{fill:#333333;}#mermaid-1772557654312 .edgePath .path{stroke:#666;stroke-width:2.0px;}#mermaid-1772557654312 .flowchart-link{stroke:#666;fill:none;}#mermaid-1772557654312 .edgeLabel{background-color:white;text-align:center;}#mermaid-1772557654312 .edgeLabel rect{opacity:0.5;background-color:white;fill:white;}#mermaid-1772557654312 .labelBkg{background-color:rgba(255, 255, 255, 0.5);}#mermaid-1772557654312 .cluster rect{fill:hsl(0, 0%, 98.9215686275%);stroke:#707070;stroke-width:1px;}#mermaid-1772557654312 .cluster text{fill:#333;}#mermaid-1772557654312 .cluster span,#mermaid-1772557654312 p{color:#333;}#mermaid-1772557654312 div.mermaidTooltip{position:absolute;text-align:center;max-width:200px;padding:2px;font-family:"trebuchet ms",verdana,arial,sans-serif;font-size:12px;background:hsl(-160, 0%, 93.3333333333%);border:1px solid #707070;border-radius:2px;pointer-events:none;z-index:100;}#mermaid-1772557654312 .flowchartTitleText{text-anchor:middle;font-size:18px;fill:#000000;}#mermaid-1772557654312 :root{--mermaid-font-family:"trebuchet ms",verdana,arial,sans-serif;}</style><g><marker id="mermaid-1772557654312_flowchart-pointEnd" class="marker flowchart" viewBox="0 0 10 10" refX="6" refY="5" markerUnits="userSpaceOnUse" markerWidth="12" markerHeight="12" orient="auto"><path d="M 0 0 L 10 5 L 0 10 z" class="arrowMarkerPath" style="stroke-width: 1; stroke-dasharray: 1, 0;"></path></marker><marker id="mermaid-1772557654312_flowchart-pointStart" class="marker flowchart" viewBox="0 0 10 10" refX="4.5" refY="5" markerUnits="userSpaceOnUse" markerWidth="12" markerHeight="12" orient="auto"><path d="M 0 5 L 10 10 L 10 0 z" class="arrowMarkerPath" style="stroke-width: 1; stroke-dasharray: 1, 0;"></path></marker><marker id="mermaid-1772557654312_flowchart-circleEnd" class="marker flowchart" viewBox="0 0 10 10" refX="11" refY="5" markerUnits="userSpaceOnUse" markerWidth="11" markerHeight="11" orient="auto"><circle cx="5" cy="5" r="5" class="arrowMarkerPath" style="stroke-width: 1; stroke-dasharray: 1, 0;"></circle></marker><marker id="mermaid-1772557654312_flowchart-circleStart" class="marker flowchart" viewBox="0 0 10 10" refX="-1" refY="5" markerUnits="userSpaceOnUse" markerWidth="11" markerHeight="11" orient="auto"><circle cx="5" cy="5" r="5" class="arrowMarkerPath" style="stroke-width: 1; stroke-dasharray: 1, 0;"></circle></marker><marker id="mermaid-1772557654312_flowchart-crossEnd" class="marker cross flowchart" viewBox="0 0 11 11" refX="12" refY="5.2" markerUnits="userSpaceOnUse" markerWidth="11" markerHeight="11" orient="auto"><path d="M 1,1 l 9,9 M 10,1 l -9,9" class="arrowMarkerPath" style="stroke-width: 2; stroke-dasharray: 1, 0;"></path></marker><marker id="mermaid-1772557654312_flowchart-crossStart" class="marker cross flowchart" viewBox="0 0 11 11" refX="-1" refY="5.2" markerUnits="userSpaceOnUse" markerWidth="11" markerHeight="11" orient="auto"><path d="M 1,1 l 9,9 M 10,1 l -9,9" class="arrowMarkerPath" style="stroke-width: 2; stroke-dasharray: 1, 0;"></path></marker><g class="root"><g class="clusters"></g><g class="edgePaths"><path d="M884.73,269.453L884.647,273.536C884.564,277.62,884.397,285.786,884.38,293.237C884.363,300.687,884.495,307.42,884.561,310.787L884.627,314.154" id="L-Start-Q1-0" class=" edge-thickness-normal edge-pattern-solid flowchart-link LS-Start LE-Q1" style="fill:none;" marker-end="url(#mermaid-1772557654312_flowchart-pointEnd)"></path><path d="M825.416,404.905L754.369,420.457C683.322,436.009,541.227,467.114,470.18,487.533C399.133,507.952,399.133,517.685,399.133,522.552L399.133,527.419" id="L-Q1-Local-0" class=" edge-thickness-normal edge-pattern-solid flowchart-link LS-Q1 LE-Local" style="fill:none;" marker-end="url(#mermaid-1772557654312_flowchart-pointEnd)"></path><path d="M915.977,432.972L924.217,443.846C932.457,454.721,948.938,476.47,957.178,495.928C965.418,515.385,965.418,532.552,965.418,548.135C965.418,563.719,965.418,577.719,965.418,600.186C965.418,622.653,965.418,653.586,965.418,669.053L965.418,684.52" id="L-Q1-Remote-0" class=" edge-thickness-normal edge-pattern-solid flowchart-link LS-Q1 LE-Remote" style="fill:none;" marker-end="url(#mermaid-1772557654312_flowchart-pointEnd)"></path><path d="M938.941,410.008L982.965,424.71C1026.988,439.412,1115.035,468.815,1159.059,488.384C1203.082,507.952,1203.082,517.685,1203.082,522.552L1203.082,527.419" id="L-Q1-NoAccess-0" class=" edge-thickness-normal edge-pattern-solid flowchart-link LS-Q1 LE-NoAccess" style="fill:none;" marker-end="url(#mermaid-1772557654312_flowchart-pointEnd)"></path><path d="M399.133,566.719L399.133,570.885C399.133,575.052,399.133,583.385,399.199,590.919C399.265,598.452,399.397,605.186,399.463,608.553L399.529,611.92" id="L-Local-L1-0" class=" edge-thickness-normal edge-pattern-solid flowchart-link LS-Local LE-L1" style="fill:none;" marker-end="url(#mermaid-1772557654312_flowchart-pointEnd)"></path><path d="M336.889,734.678L299.634,750.802C262.379,766.926,187.869,799.174,150.614,832.043C113.359,864.913,113.359,898.404,113.359,915.15L113.359,931.895" id="L-L1-VSS-0" class=" edge-thickness-normal edge-pattern-solid flowchart-link LS-L1 LE-VSS" style="fill:none;" marker-end="url(#mermaid-1772557654312_flowchart-pointEnd)"></path><path d="M399.633,797.422L399.549,803.089C399.466,808.755,399.299,820.089,399.216,842.501C399.133,864.913,399.133,898.404,399.133,915.15L399.133,931.895" id="L-L1-NTDSUtil-0" class=" edge-thickness-normal edge-pattern-solid flowchart-link LS-L1 LE-NTDSUtil" style="fill:none;" marker-end="url(#mermaid-1772557654312_flowchart-pointEnd)"></path><path d="M461.896,735.158L497.884,751.202C533.871,767.246,605.846,799.334,641.833,835.84C677.82,872.346,677.82,913.271,677.82,954.195C677.82,995.12,677.82,1036.044,677.82,1061.373C677.82,1086.702,677.82,1096.435,677.82,1101.302L677.82,1106.169" id="L-L1-Mimikatz-0" class=" edge-thickness-normal edge-pattern-solid flowchart-link LS-L1 LE-Mimikatz" style="fill:none;" marker-end="url(#mermaid-1772557654312_flowchart-pointEnd)"></path><path d="M113.359,971.195L113.359,988.824C113.359,1006.453,113.359,1041.711,113.359,1064.207C113.359,1086.702,113.359,1096.435,113.359,1101.302L113.359,1106.169" id="L-VSS-VSS1-0" class=" edge-thickness-normal edge-pattern-solid flowchart-link LS-VSS LE-VSS1" style="fill:none;" marker-end="url(#mermaid-1772557654312_flowchart-pointEnd)"></path><path d="M113.359,1145.469L113.359,1149.635C113.359,1153.802,113.359,1162.135,113.359,1169.585C113.359,1177.035,113.359,1183.602,113.359,1186.885L113.359,1190.169" id="L-VSS1-VSS2-0" class=" edge-thickness-normal edge-pattern-solid flowchart-link LS-VSS1 LE-VSS2" style="fill:none;" marker-end="url(#mermaid-1772557654312_flowchart-pointEnd)"></path><path d="M113.359,1229.469L113.359,1233.635C113.359,1237.802,113.359,1246.135,113.359,1256.752C113.359,1267.369,113.359,1280.269,113.359,1286.719L113.359,1293.169" id="L-VSS2-VSS3-0" class=" edge-thickness-normal edge-pattern-solid flowchart-link LS-VSS2 LE-VSS3" style="fill:none;" marker-end="url(#mermaid-1772557654312_flowchart-pointEnd)"></path><path d="M113.359,1332.469L113.359,1339.802C113.359,1347.135,113.359,1361.802,113.359,1374.002C113.359,1386.202,113.359,1395.935,113.359,1400.802L113.359,1405.669" id="L-VSS3-VSS4-0" class=" edge-thickness-normal edge-pattern-solid flowchart-link LS-VSS3 LE-VSS4" style="fill:none;" marker-end="url(#mermaid-1772557654312_flowchart-pointEnd)"></path><path d="M113.359,1444.969L113.359,1450.719C113.359,1456.469,113.359,1467.969,113.359,1477.002C113.359,1486.035,113.359,1492.602,113.359,1495.885L113.359,1499.169" id="L-VSS4-VSS_Result-0" class=" edge-thickness-normal edge-pattern-solid flowchart-link LS-VSS4 LE-VSS_Result" style="fill:none;" marker-end="url(#mermaid-1772557654312_flowchart-pointEnd)"></path><path d="M399.133,971.195L399.133,988.824C399.133,1006.453,399.133,1041.711,399.133,1064.207C399.133,1086.702,399.133,1096.435,399.133,1101.302L399.133,1106.169" id="L-NTDSUtil-NU1-0" class=" edge-thickness-normal edge-pattern-solid flowchart-link LS-NTDSUtil LE-NU1" style="fill:none;" marker-end="url(#mermaid-1772557654312_flowchart-pointEnd)"></path><path d="M399.133,1145.469L399.133,1149.635C399.133,1153.802,399.133,1162.135,399.133,1169.585C399.133,1177.035,399.133,1183.602,399.133,1186.885L399.133,1190.169" id="L-NU1-NU2-0" class=" edge-thickness-normal edge-pattern-solid flowchart-link LS-NU1 LE-NU2" style="fill:none;" marker-end="url(#mermaid-1772557654312_flowchart-pointEnd)"></path><path d="M399.133,1229.469L399.133,1233.635C399.133,1237.802,399.133,1246.135,399.133,1256.752C399.133,1267.369,399.133,1280.269,399.133,1286.719L399.133,1293.169" id="L-NU2-NU3-0" class=" edge-thickness-normal edge-pattern-solid flowchart-link LS-NU2 LE-NU3" style="fill:none;" marker-end="url(#mermaid-1772557654312_flowchart-pointEnd)"></path><path d="M399.133,1332.469L399.133,1339.802C399.133,1347.135,399.133,1361.802,399.133,1374.002C399.133,1386.202,399.133,1395.935,399.133,1400.802L399.133,1405.669" id="L-NU3-NU4-0" class=" edge-thickness-normal edge-pattern-solid flowchart-link LS-NU3 LE-NU4" style="fill:none;" marker-end="url(#mermaid-1772557654312_flowchart-pointEnd)"></path><path d="M399.133,1444.969L399.133,1450.719C399.133,1456.469,399.133,1467.969,399.133,1477.002C399.133,1486.035,399.133,1492.602,399.133,1495.885L399.133,1499.169" id="L-NU4-NU_Result-0" class=" edge-thickness-normal edge-pattern-solid flowchart-link LS-NU4 LE-NU_Result" style="fill:none;" marker-end="url(#mermaid-1772557654312_flowchart-pointEnd)"></path><path d="M677.82,1145.469L677.82,1149.635C677.82,1153.802,677.82,1162.135,677.82,1169.585C677.82,1177.035,677.82,1183.602,677.82,1186.885L677.82,1190.169" id="L-Mimikatz-M1-0" class=" edge-thickness-normal edge-pattern-solid flowchart-link LS-Mimikatz LE-M1" style="fill:none;" marker-end="url(#mermaid-1772557654312_flowchart-pointEnd)"></path><path d="M677.82,1229.469L677.82,1233.635C677.82,1237.802,677.82,1246.135,677.82,1256.752C677.82,1267.369,677.82,1280.269,677.82,1286.719L677.82,1293.169" id="L-M1-M2-0" class=" edge-thickness-normal edge-pattern-solid flowchart-link LS-M1 LE-M2" style="fill:none;" marker-end="url(#mermaid-1772557654312_flowchart-pointEnd)"></path><path d="M677.82,1332.469L677.82,1339.802C677.82,1347.135,677.82,1361.802,677.82,1374.002C677.82,1386.202,677.82,1395.935,677.82,1400.802L677.82,1405.669" id="L-M2-M3-0" class=" edge-thickness-normal edge-pattern-solid flowchart-link LS-M2 LE-M3" style="fill:none;" marker-end="url(#mermaid-1772557654312_flowchart-pointEnd)"></path><path d="M677.82,1444.969L677.82,1450.719C677.82,1456.469,677.82,1467.969,677.82,1477.002C677.82,1486.035,677.82,1492.602,677.82,1495.885L677.82,1499.169" id="L-M3-M_Result-0" class=" edge-thickness-normal edge-pattern-solid flowchart-link LS-M3 LE-M_Result" style="fill:none;" marker-end="url(#mermaid-1772557654312_flowchart-pointEnd)"></path><path d="M965.418,723.82L965.418,741.754C965.418,759.688,965.418,795.555,965.489,818.438C965.559,841.322,965.701,851.222,965.772,856.172L965.842,861.122" id="L-Remote-R1-0" class=" edge-thickness-normal edge-pattern-solid flowchart-link LS-Remote LE-R1" style="fill:none;" marker-end="url(#mermaid-1772557654312_flowchart-pointEnd)"></path><path d="M930.78,1007.831L923.022,1019.354C915.264,1030.877,899.747,1053.923,900.307,1070.723C900.868,1087.522,917.505,1098.076,925.824,1103.353L934.143,1108.63" id="L-R1-DCSync_Method-0" class=" edge-thickness-normal edge-pattern-solid flowchart-link LS-R1 LE-DCSync_Method" style="fill:none;" marker-end="url(#mermaid-1772557654312_flowchart-pointEnd)"></path><path d="M1026.391,982.496L1060.739,998.241C1095.087,1013.987,1163.784,1045.478,1198.132,1066.09C1232.48,1086.702,1232.48,1096.435,1232.48,1101.302L1232.48,1106.169" id="L-R1-R2-0" class=" edge-thickness-normal edge-pattern-solid flowchart-link LS-R1 LE-R2" style="fill:none;" marker-end="url(#mermaid-1772557654312_flowchart-pointEnd)"></path><path d="M965.418,1145.469L965.418,1149.635C965.418,1153.802,965.418,1162.135,965.418,1169.585C965.418,1177.035,965.418,1183.602,965.418,1186.885L965.418,1190.169" id="L-DCSync_Method-DC1-0" class=" edge-thickness-normal edge-pattern-solid flowchart-link LS-DCSync_Method LE-DC1" style="fill:none;" marker-end="url(#mermaid-1772557654312_flowchart-pointEnd)"></path><path d="M965.418,1229.469L965.418,1233.635C965.418,1237.802,965.418,1246.135,965.418,1253.585C965.418,1261.035,965.418,1267.602,965.418,1270.885L965.418,1274.169" id="L-DC1-DC2-0" class=" edge-thickness-normal edge-pattern-solid flowchart-link LS-DC1 LE-DC2" style="fill:none;" marker-end="url(#mermaid-1772557654312_flowchart-pointEnd)"></path><path d="M965.418,1351.469L965.418,1355.635C965.418,1359.802,965.418,1368.135,965.418,1375.585C965.418,1383.035,965.418,1389.602,965.418,1392.885L965.418,1396.169" id="L-DC2-DC3-0" class=" edge-thickness-normal edge-pattern-solid flowchart-link LS-DC2 LE-DC3" style="fill:none;" marker-end="url(#mermaid-1772557654312_flowchart-pointEnd)"></path><path d="M965.418,1454.469L965.418,1458.635C965.418,1462.802,965.418,1471.135,965.418,1478.585C965.418,1486.035,965.418,1492.602,965.418,1495.885L965.418,1499.169" id="L-DC3-DC_Result-0" class=" edge-thickness-normal edge-pattern-solid flowchart-link LS-DC3 LE-DC_Result" style="fill:none;" marker-end="url(#mermaid-1772557654312_flowchart-pointEnd)"></path><path d="M1203.082,566.719L1203.082,570.885C1203.082,575.052,1203.082,583.385,1203.082,601.436C1203.082,619.486,1203.082,647.253,1203.082,661.137L1203.082,675.02" id="L-NoAccess-NA1-0" class=" edge-thickness-normal edge-pattern-solid flowchart-link LS-NoAccess LE-NA1" style="fill:none;" marker-end="url(#mermaid-1772557654312_flowchart-pointEnd)"></path><path d="M1203.082,733.32L1203.082,749.671C1203.082,766.021,1203.082,798.721,1203.082,830.234C1203.082,861.746,1203.082,892.071,1203.082,907.233L1203.082,922.395" id="L-NA1-NA2-0" class=" edge-thickness-normal edge-pattern-solid flowchart-link LS-NA1 LE-NA2" style="fill:none;" marker-end="url(#mermaid-1772557654312_flowchart-pointEnd)"></path><path d="M1185.558,980.695L1174.948,996.741C1164.337,1012.786,1143.116,1044.878,1115.874,1066.397C1088.631,1087.916,1055.368,1098.864,1038.736,1104.338L1022.105,1109.812" id="L-NA2-DCSync_Method-0" class=" edge-thickness-normal edge-pattern-solid flowchart-link LS-NA2 LE-DCSync_Method" style="fill:none;" marker-end="url(#mermaid-1772557654312_flowchart-pointEnd)"></path><path d="M113.359,1595.469L113.359,1599.635C113.359,1603.802,113.359,1612.135,158.09,1621.379C202.821,1630.624,292.283,1640.778,337.015,1645.856L381.746,1650.933" id="L-VSS_Result-Final-0" class=" edge-thickness-normal edge-pattern-solid flowchart-link LS-VSS_Result LE-Final" style="fill:none;" marker-end="url(#mermaid-1772557654312_flowchart-pointEnd)"></path><path d="M399.133,1595.469L399.133,1599.635C399.133,1603.802,399.133,1612.135,406.699,1620.075C414.266,1628.014,429.399,1635.559,436.965,1639.331L444.532,1643.104" id="L-NU_Result-Final-0" class=" edge-thickness-normal edge-pattern-solid flowchart-link LS-NU_Result LE-Final" style="fill:none;" marker-end="url(#mermaid-1772557654312_flowchart-pointEnd)"></path><path d="M677.82,1595.469L677.82,1599.635C677.82,1603.802,677.82,1612.135,659.393,1620.282C640.966,1628.429,604.112,1636.389,585.684,1640.37L567.257,1644.35" id="L-M_Result-Final-0" class=" edge-thickness-normal edge-pattern-solid flowchart-link LS-M_Result LE-Final" style="fill:none;" marker-end="url(#mermaid-1772557654312_flowchart-pointEnd)"></path><path d="M965.418,1595.469L965.418,1599.635C965.418,1603.802,965.418,1612.135,902.017,1621.826C838.615,1631.517,711.813,1642.565,648.412,1648.089L585.01,1653.613" id="L-DC_Result-Final-0" class=" edge-thickness-normal edge-pattern-solid flowchart-link LS-DC_Result LE-Final" style="fill:none;" marker-end="url(#mermaid-1772557654312_flowchart-pointEnd)"></path></g><g class="edgeLabels"><g class="edgeLabel"><g class="label" transform="translate(0, 0)"><foreignObject width="0" height="0"><div xmlns="http://www.w3.org/1999/xhtml" style="display: inline-block; white-space: nowrap;"><span class="edgeLabel"></span></div></foreignObject></g></g><g class="edgeLabel" transform="translate(399.1328125, 498.21875)"><g class="label" transform="translate(-55.40625, -9.5)"><foreignObject width="110.8125" height="19"><div xmlns="http://www.w3.org/1999/xhtml" style="display: inline-block; white-space: nowrap;"><span class="edgeLabel">Local DC Admin</span></div></foreignObject></g></g><g class="edgeLabel" transform="translate(965.41796875, 549.71875)"><g class="label" transform="translate(-64.71875, -9.5)"><foreignObject width="129.4375" height="19"><div xmlns="http://www.w3.org/1999/xhtml" style="display: inline-block; white-space: nowrap;"><span class="edgeLabel">Remote DC Access</span></div></foreignObject></g></g><g class="edgeLabel" transform="translate(1203.08203125, 498.21875)"><g class="label" transform="translate(-46.953125, -9.5)"><foreignObject width="93.90625" height="19"><div xmlns="http://www.w3.org/1999/xhtml" style="display: inline-block; white-space: nowrap;"><span class="edgeLabel">No DC Access</span></div></foreignObject></g></g><g class="edgeLabel"><g class="label" transform="translate(0, 0)"><foreignObject width="0" height="0"><div xmlns="http://www.w3.org/1999/xhtml" style="display: inline-block; white-space: nowrap;"><span class="edgeLabel"></span></div></foreignObject></g></g><g class="edgeLabel" transform="translate(113.359375, 831.421875)"><g class="label" transform="translate(-24.6796875, -9.5)"><foreignObject width="49.359375" height="19"><div xmlns="http://www.w3.org/1999/xhtml" style="display: inline-block; white-space: nowrap;"><span class="edgeLabel">Offline</span></div></foreignObject></g></g><g class="edgeLabel" transform="translate(399.1328125, 831.421875)"><g class="label" transform="translate(-14.6171875, -9.5)"><foreignObject width="29.234375" height="19"><div xmlns="http://www.w3.org/1999/xhtml" style="display: inline-block; white-space: nowrap;"><span class="edgeLabel">Live</span></div></foreignObject></g></g><g class="edgeLabel" transform="translate(677.8203125, 954.1953125)"><g class="label" transform="translate(-28.03125, -9.5)"><foreignObject width="56.0625" height="19"><div xmlns="http://www.w3.org/1999/xhtml" style="display: inline-block; white-space: nowrap;"><span class="edgeLabel">Memory</span></div></foreignObject></g></g><g class="edgeLabel"><g class="label" transform="translate(0, 0)"><foreignObject width="0" height="0"><div xmlns="http://www.w3.org/1999/xhtml" style="display: inline-block; white-space: nowrap;"><span class="edgeLabel"></span></div></foreignObject></g></g><g class="edgeLabel"><g class="label" transform="translate(0, 0)"><foreignObject width="0" height="0"><div xmlns="http://www.w3.org/1999/xhtml" style="display: inline-block; white-space: nowrap;"><span class="edgeLabel"></span></div></foreignObject></g></g><g class="edgeLabel"><g class="label" transform="translate(0, 0)"><foreignObject width="0" height="0"><div xmlns="http://www.w3.org/1999/xhtml" style="display: inline-block; white-space: nowrap;"><span class="edgeLabel"></span></div></foreignObject></g></g><g class="edgeLabel"><g class="label" transform="translate(0, 0)"><foreignObject width="0" height="0"><div xmlns="http://www.w3.org/1999/xhtml" style="display: inline-block; white-space: nowrap;"><span class="edgeLabel"></span></div></foreignObject></g></g><g class="edgeLabel"><g class="label" transform="translate(0, 0)"><foreignObject width="0" height="0"><div xmlns="http://www.w3.org/1999/xhtml" style="display: inline-block; white-space: nowrap;"><span class="edgeLabel"></span></div></foreignObject></g></g><g class="edgeLabel"><g class="label" transform="translate(0, 0)"><foreignObject width="0" height="0"><div xmlns="http://www.w3.org/1999/xhtml" style="display: inline-block; white-space: nowrap;"><span class="edgeLabel"></span></div></foreignObject></g></g><g class="edgeLabel"><g class="label" transform="translate(0, 0)"><foreignObject width="0" height="0"><div xmlns="http://www.w3.org/1999/xhtml" style="display: inline-block; white-space: nowrap;"><span class="edgeLabel"></span></div></foreignObject></g></g><g class="edgeLabel"><g class="label" transform="translate(0, 0)"><foreignObject width="0" height="0"><div xmlns="http://www.w3.org/1999/xhtml" style="display: inline-block; white-space: nowrap;"><span class="edgeLabel"></span></div></foreignObject></g></g><g class="edgeLabel"><g class="label" transform="translate(0, 0)"><foreignObject width="0" height="0"><div xmlns="http://www.w3.org/1999/xhtml" style="display: inline-block; white-space: nowrap;"><span class="edgeLabel"></span></div></foreignObject></g></g><g class="edgeLabel"><g class="label" transform="translate(0, 0)"><foreignObject width="0" height="0"><div xmlns="http://www.w3.org/1999/xhtml" style="display: inline-block; white-space: nowrap;"><span class="edgeLabel"></span></div></foreignObject></g></g><g class="edgeLabel"><g class="label" transform="translate(0, 0)"><foreignObject width="0" height="0"><div xmlns="http://www.w3.org/1999/xhtml" style="display: inline-block; white-space: nowrap;"><span class="edgeLabel"></span></div></foreignObject></g></g><g class="edgeLabel"><g class="label" transform="translate(0, 0)"><foreignObject width="0" height="0"><div xmlns="http://www.w3.org/1999/xhtml" style="display: inline-block; white-space: nowrap;"><span class="edgeLabel"></span></div></foreignObject></g></g><g class="edgeLabel"><g class="label" transform="translate(0, 0)"><foreignObject width="0" height="0"><div xmlns="http://www.w3.org/1999/xhtml" style="display: inline-block; white-space: nowrap;"><span class="edgeLabel"></span></div></foreignObject></g></g><g class="edgeLabel"><g class="label" transform="translate(0, 0)"><foreignObject width="0" height="0"><div xmlns="http://www.w3.org/1999/xhtml" style="display: inline-block; white-space: nowrap;"><span class="edgeLabel"></span></div></foreignObject></g></g><g class="edgeLabel"><g class="label" transform="translate(0, 0)"><foreignObject width="0" height="0"><div xmlns="http://www.w3.org/1999/xhtml" style="display: inline-block; white-space: nowrap;"><span class="edgeLabel"></span></div></foreignObject></g></g><g class="edgeLabel" transform="translate(884.23046875, 1076.96875)"><g class="label" transform="translate(-11.328125, -9.5)"><foreignObject width="22.65625" height="19"><div xmlns="http://www.w3.org/1999/xhtml" style="display: inline-block; white-space: nowrap;"><span class="edgeLabel">Yes</span></div></foreignObject></g></g><g class="edgeLabel" transform="translate(1232.48046875, 1076.96875)"><g class="label" transform="translate(-9.3984375, -9.5)"><foreignObject width="18.796875" height="19"><div xmlns="http://www.w3.org/1999/xhtml" style="display: inline-block; white-space: nowrap;"><span class="edgeLabel">No</span></div></foreignObject></g></g><g class="edgeLabel"><g class="label" transform="translate(0, 0)"><foreignObject width="0" height="0"><div xmlns="http://www.w3.org/1999/xhtml" style="display: inline-block; white-space: nowrap;"><span class="edgeLabel"></span></div></foreignObject></g></g><g class="edgeLabel"><g class="label" transform="translate(0, 0)"><foreignObject width="0" height="0"><div xmlns="http://www.w3.org/1999/xhtml" style="display: inline-block; white-space: nowrap;"><span class="edgeLabel"></span></div></foreignObject></g></g><g class="edgeLabel"><g class="label" transform="translate(0, 0)"><foreignObject width="0" height="0"><div xmlns="http://www.w3.org/1999/xhtml" style="display: inline-block; white-space: nowrap;"><span class="edgeLabel"></span></div></foreignObject></g></g><g class="edgeLabel"><g class="label" transform="translate(0, 0)"><foreignObject width="0" height="0"><div xmlns="http://www.w3.org/1999/xhtml" style="display: inline-block; white-space: nowrap;"><span class="edgeLabel"></span></div></foreignObject></g></g><g class="edgeLabel"><g class="label" transform="translate(0, 0)"><foreignObject width="0" height="0"><div xmlns="http://www.w3.org/1999/xhtml" style="display: inline-block; white-space: nowrap;"><span class="edgeLabel"></span></div></foreignObject></g></g><g class="edgeLabel"><g class="label" transform="translate(0, 0)"><foreignObject width="0" height="0"><div xmlns="http://www.w3.org/1999/xhtml" style="display: inline-block; white-space: nowrap;"><span class="edgeLabel"></span></div></foreignObject></g></g><g class="edgeLabel"><g class="label" transform="translate(0, 0)"><foreignObject width="0" height="0"><div xmlns="http://www.w3.org/1999/xhtml" style="display: inline-block; white-space: nowrap;"><span class="edgeLabel"></span></div></foreignObject></g></g><g class="edgeLabel"><g class="label" transform="translate(0, 0)"><foreignObject width="0" height="0"><div xmlns="http://www.w3.org/1999/xhtml" style="display: inline-block; white-space: nowrap;"><span class="edgeLabel"></span></div></foreignObject></g></g><g class="edgeLabel"><g class="label" transform="translate(0, 0)"><foreignObject width="0" height="0"><div xmlns="http://www.w3.org/1999/xhtml" style="display: inline-block; white-space: nowrap;"><span class="edgeLabel"></span></div></foreignObject></g></g><g class="edgeLabel"><g class="label" transform="translate(0, 0)"><foreignObject width="0" height="0"><div xmlns="http://www.w3.org/1999/xhtml" style="display: inline-block; white-space: nowrap;"><span class="edgeLabel"></span></div></foreignObject></g></g><g class="edgeLabel"><g class="label" transform="translate(0, 0)"><foreignObject width="0" height="0"><div xmlns="http://www.w3.org/1999/xhtml" style="display: inline-block; white-space: nowrap;"><span class="edgeLabel"></span></div></foreignObject></g></g></g><g class="nodes"><g class="node default default flowchart-label" id="flowchart-Start-0" data-node="true" data-id="Start" transform="translate(884.23046875, 134.4765625)"><polygon points="134.4765625,0 268.953125,-134.4765625 134.4765625,-268.953125 0,-134.4765625" class="label-container" transform="translate(-134.4765625,134.4765625)" style=""></polygon><g class="label" style="" transform="translate(-100.4765625, -19)"><rect></rect><foreignObject width="200.953125" height="38"><div xmlns="http://www.w3.org/1999/xhtml" style="display: inline-block; white-space: nowrap;"><span class="nodeLabel">Need NTDS.dit<br>Domain Controller Database</span></div></foreignObject></g></g><g class="node default default flowchart-label" id="flowchart-Q1-2" data-node="true" data-id="Q1" transform="translate(884.23046875, 391.3359375)"><polygon points="72.3828125,0 144.765625,-72.3828125 72.3828125,-144.765625 0,-72.3828125" class="label-container" transform="translate(-72.3828125,72.3828125)" style=""></polygon><g class="label" style="" transform="translate(-47.8828125, -9.5)"><rect></rect><foreignObject width="95.765625" height="19"><div xmlns="http://www.w3.org/1999/xhtml" style="display: inline-block; white-space: nowrap;"><span class="nodeLabel">Access Level?</span></div></foreignObject></g></g><g class="node default default flowchart-label" id="flowchart-Local-4" data-node="true" data-id="Local" transform="translate(399.1328125, 549.71875)"><rect class="basic label-container" style="" rx="0" ry="0" x="-97.6171875" y="-17" width="195.234375" height="34"></rect><g class="label" style="" transform="translate(-90.1171875, -9.5)"><rect></rect><foreignObject width="180.234375" height="19"><div xmlns="http://www.w3.org/1999/xhtml" style="display: inline-block; white-space: nowrap;"><span class="nodeLabel">Local Extraction Methods</span></div></foreignObject></g></g><g class="node default default flowchart-label" id="flowchart-Remote-6" data-node="true" data-id="Remote" transform="translate(965.41796875, 706.8203125)"><rect class="basic label-container" style="" rx="0" ry="0" x="-105.9140625" y="-17" width="211.828125" height="34"></rect><g class="label" style="" transform="translate(-98.4140625, -9.5)"><rect></rect><foreignObject width="196.828125" height="19"><div xmlns="http://www.w3.org/1999/xhtml" style="display: inline-block; white-space: nowrap;"><span class="nodeLabel">Remote Extraction Methods</span></div></foreignObject></g></g><g class="node default default flowchart-label" id="flowchart-NoAccess-8" data-node="true" data-id="NoAccess" transform="translate(1203.08203125, 549.71875)"><rect class="basic label-container" style="" rx="0" ry="0" x="-75.3203125" y="-17" width="150.640625" height="34"></rect><g class="label" style="" transform="translate(-67.8203125, -9.5)"><rect></rect><foreignObject width="135.640625" height="19"><div xmlns="http://www.w3.org/1999/xhtml" style="display: inline-block; white-space: nowrap;"><span class="nodeLabel">DCSync Alternative</span></div></foreignObject></g></g><g class="node default default flowchart-label" id="flowchart-L1-10" data-node="true" data-id="L1" transform="translate(399.1328125, 706.8203125)"><polygon points="90.1015625,0 180.203125,-90.1015625 90.1015625,-180.203125 0,-90.1015625" class="label-container" transform="translate(-90.1015625,90.1015625)" style=""></polygon><g class="label" style="" transform="translate(-65.6015625, -9.5)"><rect></rect><foreignObject width="131.203125" height="19"><div xmlns="http://www.w3.org/1999/xhtml" style="display: inline-block; white-space: nowrap;"><span class="nodeLabel">Preferred Method?</span></div></foreignObject></g></g><g class="node default default flowchart-label" id="flowchart-VSS-12" data-node="true" data-id="VSS" transform="translate(113.359375, 954.1953125)"><rect class="basic label-container" style="fill:#99ccff;" rx="0" ry="0" x="-83.140625" y="-17" width="166.28125" height="34"></rect><g class="label" style="" transform="translate(-75.640625, -9.5)"><rect></rect><foreignObject width="151.28125" height="19"><div xmlns="http://www.w3.org/1999/xhtml" style="display: inline-block; white-space: nowrap;"><span class="nodeLabel">Volume Shadow Copy</span></div></foreignObject></g></g><g class="node default default flowchart-label" id="flowchart-NTDSUtil-14" data-node="true" data-id="NTDSUtil" transform="translate(399.1328125, 954.1953125)"><rect class="basic label-container" style="fill:#99ff99;" rx="0" ry="0" x="-53.515625" y="-17" width="107.03125" height="34"></rect><g class="label" style="" transform="translate(-46.015625, -9.5)"><rect></rect><foreignObject width="92.03125" height="19"><div xmlns="http://www.w3.org/1999/xhtml" style="display: inline-block; white-space: nowrap;"><span class="nodeLabel">NTDSUtil IFM</span></div></foreignObject></g></g><g class="node default default flowchart-label" id="flowchart-Mimikatz-16" data-node="true" data-id="Mimikatz" transform="translate(677.8203125, 1128.46875)"><rect class="basic label-container" style="fill:#ff9999;" rx="0" ry="0" x="-76.9609375" y="-17" width="153.921875" height="34"></rect><g class="label" style="" transform="translate(-69.4609375, -9.5)"><rect></rect><foreignObject width="138.921875" height="19"><div xmlns="http://www.w3.org/1999/xhtml" style="display: inline-block; white-space: nowrap;"><span class="nodeLabel">Mimikatz LSA Dump</span></div></foreignObject></g></g><g class="node default default flowchart-label" id="flowchart-VSS1-18" data-node="true" data-id="VSS1" transform="translate(113.359375, 1128.46875)"><rect class="basic label-container" style="" rx="0" ry="0" x="-107.046875" y="-17" width="214.09375" height="34"></rect><g class="label" style="" transform="translate(-99.546875, -9.5)"><rect></rect><foreignObject width="199.09375" height="19"><div xmlns="http://www.w3.org/1999/xhtml" style="display: inline-block; white-space: nowrap;"><span class="nodeLabel">1. wmic shadowcopy create</span></div></foreignObject></g></g><g class="node default default flowchart-label" id="flowchart-VSS2-20" data-node="true" data-id="VSS2" transform="translate(113.359375, 1212.46875)"><rect class="basic label-container" style="" rx="0" ry="0" x="-113.359375" y="-17" width="226.71875" height="34"></rect><g class="label" style="" transform="translate(-105.859375, -9.5)"><rect></rect><foreignObject width="211.71875" height="19"><div xmlns="http://www.w3.org/1999/xhtml" style="display: inline-block; white-space: nowrap;"><span class="nodeLabel">2. Copy ntds.dit from shadow</span></div></foreignObject></g></g><g class="node default default flowchart-label" id="flowchart-VSS3-22" data-node="true" data-id="VSS3" transform="translate(113.359375, 1315.46875)"><rect class="basic label-container" style="" rx="0" ry="0" x="-81.140625" y="-17" width="162.28125" height="34"></rect><g class="label" style="" transform="translate(-73.640625, -9.5)"><rect></rect><foreignObject width="147.28125" height="19"><div xmlns="http://www.w3.org/1999/xhtml" style="display: inline-block; white-space: nowrap;"><span class="nodeLabel">3. Copy SYSTEM hive</span></div></foreignObject></g></g><g class="node default default flowchart-label" id="flowchart-VSS4-24" data-node="true" data-id="VSS4" transform="translate(113.359375, 1427.96875)"><rect class="basic label-container" style="" rx="0" ry="0" x="-99.75" y="-17" width="199.5" height="34"></rect><g class="label" style="" transform="translate(-92.25, -9.5)"><rect></rect><foreignObject width="184.5" height="19"><div xmlns="http://www.w3.org/1999/xhtml" style="display: inline-block; white-space: nowrap;"><span class="nodeLabel">4. secretsdump.py offline</span></div></foreignObject></g></g><g class="node default default flowchart-label" id="flowchart-VSS_Result-26" data-node="true" data-id="VSS_Result" transform="translate(113.359375, 1549.96875)"><rect class="basic label-container" style="" rx="0" ry="0" x="-100.2890625" y="-45.5" width="200.578125" height="91"></rect><g class="label" style="" transform="translate(-92.7890625, -38)"><rect></rect><foreignObject width="185.578125" height="76"><div xmlns="http://www.w3.org/1999/xhtml" style="display: inline-block; white-space: nowrap;"><span class="nodeLabel">✓ All domain hashes<br>✓ Works while DC running<br>✗ Event ID 8222<br>✗ Requires local admin</span></div></foreignObject></g></g><g class="node default default flowchart-label" id="flowchart-NU1-28" data-node="true" data-id="NU1" transform="translate(399.1328125, 1128.46875)"><rect class="basic label-container" style="" rx="0" ry="0" x="-128.7265625" y="-17" width="257.453125" height="34"></rect><g class="label" style="" transform="translate(-121.2265625, -9.5)"><rect></rect><foreignObject width="242.453125" height="19"><div xmlns="http://www.w3.org/1999/xhtml" style="display: inline-block; white-space: nowrap;"><span class="nodeLabel">1. ntdsutil 'activate instance ntds'</span></div></foreignObject></g></g><g class="node default default flowchart-label" id="flowchart-NU2-30" data-node="true" data-id="NU2" transform="translate(399.1328125, 1212.46875)"><rect class="basic label-container" style="" rx="0" ry="0" x="-97.328125" y="-17" width="194.65625" height="34"></rect><g class="label" style="" transform="translate(-89.828125, -9.5)"><rect></rect><foreignObject width="179.65625" height="19"><div xmlns="http://www.w3.org/1999/xhtml" style="display: inline-block; white-space: nowrap;"><span class="nodeLabel">2. 'ifm' create full export</span></div></foreignObject></g></g><g class="node default default flowchart-label" id="flowchart-NU3-32" data-node="true" data-id="NU3" transform="translate(399.1328125, 1315.46875)"><rect class="basic label-container" style="" rx="0" ry="0" x="-138.5546875" y="-17" width="277.109375" height="34"></rect><g class="label" style="" transform="translate(-131.0546875, -9.5)"><rect></rect><foreignObject width="262.109375" height="19"><div xmlns="http://www.w3.org/1999/xhtml" style="display: inline-block; white-space: nowrap;"><span class="nodeLabel">3. Export includes ntds.dit + SYSTEM</span></div></foreignObject></g></g><g class="node default default flowchart-label" id="flowchart-NU4-34" data-node="true" data-id="NU4" transform="translate(399.1328125, 1427.96875)"><rect class="basic label-container" style="" rx="0" ry="0" x="-108.46875" y="-17" width="216.9375" height="34"></rect><g class="label" style="" transform="translate(-100.96875, -9.5)"><rect></rect><foreignObject width="201.9375" height="19"><div xmlns="http://www.w3.org/1999/xhtml" style="display: inline-block; white-space: nowrap;"><span class="nodeLabel">4. Transfer &amp; extract offline</span></div></foreignObject></g></g><g class="node default default flowchart-label" id="flowchart-NU_Result-36" data-node="true" data-id="NU_Result" transform="translate(399.1328125, 1549.96875)"><rect class="basic label-container" style="" rx="0" ry="0" x="-94.3359375" y="-45.5" width="188.671875" height="91"></rect><g class="label" style="" transform="translate(-86.8359375, -38)"><rect></rect><foreignObject width="173.671875" height="76"><div xmlns="http://www.w3.org/1999/xhtml" style="display: inline-block; white-space: nowrap;"><span class="nodeLabel">✓ Official Microsoft tool<br>✓ Clean export<br>✗ Service interruption<br>✗ Large file size</span></div></foreignObject></g></g><g class="node default default flowchart-label" id="flowchart-M1-38" data-node="true" data-id="M1" transform="translate(677.8203125, 1212.46875)"><rect class="basic label-container" style="" rx="0" ry="0" x="-75.734375" y="-17" width="151.46875" height="34"></rect><g class="label" style="" transform="translate(-68.234375, -9.5)"><rect></rect><foreignObject width="136.46875" height="19"><div xmlns="http://www.w3.org/1999/xhtml" style="display: inline-block; white-space: nowrap;"><span class="nodeLabel">1. privilege::debug</span></div></foreignObject></g></g><g class="node default default flowchart-label" id="flowchart-M2-40" data-node="true" data-id="M2" transform="translate(677.8203125, 1315.46875)"><rect class="basic label-container" style="" rx="0" ry="0" x="-90.1328125" y="-17" width="180.265625" height="34"></rect><g class="label" style="" transform="translate(-82.6328125, -9.5)"><rect></rect><foreignObject width="165.265625" height="19"><div xmlns="http://www.w3.org/1999/xhtml" style="display: inline-block; white-space: nowrap;"><span class="nodeLabel">2. lsadump::lsa /inject</span></div></foreignObject></g></g><g class="node default default flowchart-label" id="flowchart-M3-42" data-node="true" data-id="M3" transform="translate(677.8203125, 1427.96875)"><rect class="basic label-container" style="" rx="0" ry="0" x="-109.6328125" y="-17" width="219.265625" height="34"></rect><g class="label" style="" transform="translate(-102.1328125, -9.5)"><rect></rect><foreignObject width="204.265625" height="19"><div xmlns="http://www.w3.org/1999/xhtml" style="display: inline-block; white-space: nowrap;"><span class="nodeLabel">3. Real-time hash extraction</span></div></foreignObject></g></g><g class="node default default flowchart-label" id="flowchart-M_Result-44" data-node="true" data-id="M_Result" transform="translate(677.8203125, 1549.96875)"><rect class="basic label-container" style="" rx="0" ry="0" x="-102.6640625" y="-45.5" width="205.328125" height="91"></rect><g class="label" style="" transform="translate(-95.1640625, -38)"><rect></rect><foreignObject width="190.328125" height="76"><div xmlns="http://www.w3.org/1999/xhtml" style="display: inline-block; white-space: nowrap;"><span class="nodeLabel">✓ No file transfer<br>✓ Fast extraction<br>✗ Very high detection<br>✗ Requires Mimikatz on DC</span></div></foreignObject></g></g><g class="node default default flowchart-label" id="flowchart-R1-46" data-node="true" data-id="R1" transform="translate(965.41796875, 954.1953125)"><polygon points="88.2734375,0 176.546875,-88.2734375 88.2734375,-176.546875 0,-88.2734375" class="label-container" transform="translate(-88.2734375,88.2734375)" style=""></polygon><g class="label" style="" transform="translate(-63.7734375, -9.5)"><rect></rect><foreignObject width="127.546875" height="19"><div xmlns="http://www.w3.org/1999/xhtml" style="display: inline-block; white-space: nowrap;"><span class="nodeLabel">Have Credentials?</span></div></foreignObject></g></g><g class="node default default flowchart-label" id="flowchart-DCSync_Method-48" data-node="true" data-id="DCSync_Method" transform="translate(965.41796875, 1128.46875)"><rect class="basic label-container" style="fill:#ffcc99;" rx="0" ry="0" x="-58.546875" y="-17" width="117.09375" height="34"></rect><g class="label" style="" transform="translate(-51.046875, -9.5)"><rect></rect><foreignObject width="102.09375" height="19"><div xmlns="http://www.w3.org/1999/xhtml" style="display: inline-block; white-space: nowrap;"><span class="nodeLabel">DCSync Attack</span></div></foreignObject></g></g><g class="node default default flowchart-label" id="flowchart-R2-50" data-node="true" data-id="R2" transform="translate(1232.48046875, 1128.46875)"><rect class="basic label-container" style="" rx="0" ry="0" x="-83.2265625" y="-17" width="166.453125" height="34"></rect><g class="label" style="" transform="translate(-75.7265625, -9.5)"><rect></rect><foreignObject width="151.453125" height="19"><div xmlns="http://www.w3.org/1999/xhtml" style="display: inline-block; white-space: nowrap;"><span class="nodeLabel">Gain credentials first</span></div></foreignObject></g></g><g class="node default default flowchart-label" id="flowchart-DC1-52" data-node="true" data-id="DC1" transform="translate(965.41796875, 1212.46875)"><rect class="basic label-container" style="" rx="0" ry="0" x="-109.484375" y="-17" width="218.96875" height="34"></rect><g class="label" style="" transform="translate(-101.984375, -9.5)"><rect></rect><foreignObject width="203.96875" height="19"><div xmlns="http://www.w3.org/1999/xhtml" style="display: inline-block; white-space: nowrap;"><span class="nodeLabel">mimikatz or secretsdump.py</span></div></foreignObject></g></g><g class="node default default flowchart-label" id="flowchart-DC2-54" data-node="true" data-id="DC2" transform="translate(965.41796875, 1315.46875)"><rect class="basic label-container" style="" rx="0" ry="0" x="-119.8125" y="-36" width="239.625" height="72"></rect><g class="label" style="" transform="translate(-112.3125, -28.5)"><rect></rect><foreignObject width="224.625" height="57"><div xmlns="http://www.w3.org/1999/xhtml" style="display: inline-block; white-space: nowrap;"><span class="nodeLabel">Replication permissions:<br>DS-Replication-Get-Changes<br>DS-Replication-Get-Changes-All</span></div></foreignObject></g></g><g class="node default default flowchart-label" id="flowchart-DC3-56" data-node="true" data-id="DC3" transform="translate(965.41796875, 1427.96875)"><rect class="basic label-container" style="" rx="0" ry="0" x="-95.5078125" y="-26.5" width="191.015625" height="53"></rect><g class="label" style="" transform="translate(-88.0078125, -19)"><rect></rect><foreignObject width="176.015625" height="38"><div xmlns="http://www.w3.org/1999/xhtml" style="display: inline-block; white-space: nowrap;"><span class="nodeLabel">Request replication data<br>via DRS protocol</span></div></foreignObject></g></g><g class="node default default flowchart-label" id="flowchart-DC_Result-58" data-node="true" data-id="DC_Result" transform="translate(965.41796875, 1549.96875)"><rect class="basic label-container" style="" rx="0" ry="0" x="-108.8515625" y="-45.5" width="217.703125" height="91"></rect><g class="label" style="" transform="translate(-101.3515625, -38)"><rect></rect><foreignObject width="202.703125" height="76"><div xmlns="http://www.w3.org/1999/xhtml" style="display: inline-block; white-space: nowrap;"><span class="nodeLabel">✓ No DC file access needed<br>✓ Network-based<br>✗ Requires replication rights<br>✗ Event ID 4662</span></div></foreignObject></g></g><g class="node default default flowchart-label" id="flowchart-NA1-60" data-node="true" data-id="NA1" transform="translate(1203.08203125, 706.8203125)"><rect class="basic label-container" style="" rx="0" ry="0" x="-81.75" y="-26.5" width="163.5" height="53"></rect><g class="label" style="" transform="translate(-74.25, -19)"><rect></rect><foreignObject width="148.5" height="38"><div xmlns="http://www.w3.org/1999/xhtml" style="display: inline-block; white-space: nowrap;"><span class="nodeLabel">Kerberoasting or<br>AS-REP Roasting first</span></div></foreignObject></g></g><g class="node default default flowchart-label" id="flowchart-NA2-62" data-node="true" data-id="NA2" transform="translate(1203.08203125, 954.1953125)"><rect class="basic label-container" style="" rx="0" ry="0" x="-68.953125" y="-26.5" width="137.90625" height="53"></rect><g class="label" style="" transform="translate(-61.453125, -19)"><rect></rect><foreignObject width="122.90625" height="38"><div xmlns="http://www.w3.org/1999/xhtml" style="display: inline-block; white-space: nowrap;"><span class="nodeLabel">Escalate to<br>replication rights</span></div></foreignObject></g></g><g class="node default default flowchart-label" id="flowchart-Final-69" data-node="true" data-id="Final" transform="translate(483.37109375, 1662.46875)"><rect class="basic label-container" style="fill:#ffffcc;" rx="0" ry="0" x="-96.359375" y="-17" width="192.71875" height="34"></rect><g class="label" style="" transform="translate(-88.859375, -9.5)"><rect></rect><foreignObject width="177.71875" height="19"><div xmlns="http://www.w3.org/1999/xhtml" style="display: inline-block; white-space: nowrap;"><span class="nodeLabel">Domain Hashes Obtained</span></div></foreignObject></g></g></g></g></g></svg>