<svg id="mermaid-1772557688891" width="100%" xmlns="http://www.w3.org/2000/svg" xmlns:xlink="http://www.w3.org/1999/xlink" style="max-width: 2200.0234375px;" viewBox="-42.7578125 -8 2200.0234375 699" role="graphics-document document" aria-roledescription="flowchart-v2"><style>#mermaid-1772557688891{font-family:"trebuchet ms",verdana,arial,sans-serif;font-size:16px;fill:#000000;}#mermaid-1772557688891 .error-icon{fill:#552222;}#mermaid-1772557688891 .error-text{fill:#552222;stroke:#552222;}#mermaid-1772557688891 .edge-thickness-normal{stroke-width:2px;}#mermaid-1772557688891 .edge-thickness-thick{stroke-width:3.5px;}#mermaid-1772557688891 .edge-pattern-solid{stroke-dasharray:0;}#mermaid-1772557688891 .edge-pattern-dashed{stroke-dasharray:3;}#mermaid-1772557688891 .edge-pattern-dotted{stroke-dasharray:2;}#mermaid-1772557688891 .marker{fill:#666;stroke:#666;}#mermaid-1772557688891 .marker.cross{stroke:#666;}#mermaid-1772557688891 svg{font-family:"trebuchet ms",verdana,arial,sans-serif;font-size:16px;}#mermaid-1772557688891 .label{font-family:"trebuchet ms",verdana,arial,sans-serif;color:#000000;}#mermaid-1772557688891 .cluster-label text{fill:#333;}#mermaid-1772557688891 .cluster-label span,#mermaid-1772557688891 p{color:#333;}#mermaid-1772557688891 .label text,#mermaid-1772557688891 span,#mermaid-1772557688891 p{fill:#000000;color:#000000;}#mermaid-1772557688891 .node rect,#mermaid-1772557688891 .node circle,#mermaid-1772557688891 .node ellipse,#mermaid-1772557688891 .node polygon,#mermaid-1772557688891 .node path{fill:#eee;stroke:#999;stroke-width:1px;}#mermaid-1772557688891 .flowchart-label text{text-anchor:middle;}#mermaid-1772557688891 .node .katex path{fill:#000;stroke:#000;stroke-width:1px;}#mermaid-1772557688891 .node .label{text-align:center;}#mermaid-1772557688891 .node.clickable{cursor:pointer;}#mermaid-1772557688891 .arrowheadPath{fill:#333333;}#mermaid-1772557688891 .edgePath .path{stroke:#666;stroke-width:2.0px;}#mermaid-1772557688891 .flowchart-link{stroke:#666;fill:none;}#mermaid-1772557688891 .edgeLabel{background-color:white;text-align:center;}#mermaid-1772557688891 .edgeLabel rect{opacity:0.5;background-color:white;fill:white;}#mermaid-1772557688891 .labelBkg{background-color:rgba(255, 255, 255, 0.5);}#mermaid-1772557688891 .cluster rect{fill:hsl(0, 0%, 98.9215686275%);stroke:#707070;stroke-width:1px;}#mermaid-1772557688891 .cluster text{fill:#333;}#mermaid-1772557688891 .cluster span,#mermaid-1772557688891 p{color:#333;}#mermaid-1772557688891 div.mermaidTooltip{position:absolute;text-align:center;max-width:200px;padding:2px;font-family:"trebuchet ms",verdana,arial,sans-serif;font-size:12px;background:hsl(-160, 0%, 93.3333333333%);border:1px solid #707070;border-radius:2px;pointer-events:none;z-index:100;}#mermaid-1772557688891 .flowchartTitleText{text-anchor:middle;font-size:18px;fill:#000000;}#mermaid-1772557688891 :root{--mermaid-font-family:"trebuchet ms",verdana,arial,sans-serif;}</style><g><marker id="mermaid-1772557688891_flowchart-pointEnd" class="marker flowchart" viewBox="0 0 10 10" refX="6" refY="5" markerUnits="userSpaceOnUse" markerWidth="12" markerHeight="12" orient="auto"><path d="M 0 0 L 10 5 L 0 10 z" class="arrowMarkerPath" style="stroke-width: 1; stroke-dasharray: 1, 0;"></path></marker><marker id="mermaid-1772557688891_flowchart-pointStart" class="marker flowchart" viewBox="0 0 10 10" refX="4.5" refY="5" markerUnits="userSpaceOnUse" markerWidth="12" markerHeight="12" orient="auto"><path d="M 0 5 L 10 10 L 10 0 z" class="arrowMarkerPath" style="stroke-width: 1; stroke-dasharray: 1, 0;"></path></marker><marker id="mermaid-1772557688891_flowchart-circleEnd" class="marker flowchart" viewBox="0 0 10 10" refX="11" refY="5" markerUnits="userSpaceOnUse" markerWidth="11" markerHeight="11" orient="auto"><circle cx="5" cy="5" r="5" class="arrowMarkerPath" style="stroke-width: 1; stroke-dasharray: 1, 0;"></circle></marker><marker id="mermaid-1772557688891_flowchart-circleStart" class="marker flowchart" viewBox="0 0 10 10" refX="-1" refY="5" markerUnits="userSpaceOnUse" markerWidth="11" markerHeight="11" orient="auto"><circle cx="5" cy="5" r="5" class="arrowMarkerPath" style="stroke-width: 1; stroke-dasharray: 1, 0;"></circle></marker><marker id="mermaid-1772557688891_flowchart-crossEnd" class="marker cross flowchart" viewBox="0 0 11 11" refX="12" refY="5.2" markerUnits="userSpaceOnUse" markerWidth="11" markerHeight="11" orient="auto"><path d="M 1,1 l 9,9 M 10,1 l -9,9" class="arrowMarkerPath" style="stroke-width: 2; stroke-dasharray: 1, 0;"></path></marker><marker id="mermaid-1772557688891_flowchart-crossStart" class="marker cross flowchart" viewBox="0 0 11 11" refX="-1" refY="5.2" markerUnits="userSpaceOnUse" markerWidth="11" markerHeight="11" orient="auto"><path d="M 1,1 l 9,9 M 10,1 l -9,9" class="arrowMarkerPath" style="stroke-width: 2; stroke-dasharray: 1, 0;"></path></marker><g class="root"><g class="clusters"><g class="cluster default flowchart-label" id="Defense"><rect style="fill:#c8e6c9;" rx="0" ry="0" x="-34.7578125" y="28.5" width="305.890625" height="654.5"></rect><g class="cluster-label" transform="translate(-34.7578125, 28.5)"><foreignObject width="305.890625" height="26"><div xmlns="http://www.w3.org/1999/xhtml" style="display: inline-block; white-space: nowrap;"><span class="nodeLabel">🛡️ Defensive Controls (Map to Each Stage)</span></div></foreignObject></g></g><g class="cluster default flowchart-label" id="Target"><rect style="" rx="0" ry="0" x="901.4375" y="20.25" width="1247.828125" height="661"></rect><g class="cluster-label" transform="translate(1442.984375, 20.25)"><foreignObject width="164.734375" height="26"><div xmlns="http://www.w3.org/1999/xhtml" style="display: inline-block; white-space: nowrap;"><span class="nodeLabel">🏢 Target Environment</span></div></foreignObject></g></g><g class="cluster default flowchart-label" id="Attacker"><rect style="" rx="0" ry="0" x="324.734375" y="0" width="471.9375" height="180"></rect><g class="cluster-label" transform="translate(482.640625, 0)"><foreignObject width="156.125" height="26"><div xmlns="http://www.w3.org/1999/xhtml" style="display: inline-block; white-space: nowrap;"><span class="nodeLabel">🎯 Attacker Activities</span></div></foreignObject></g></g></g><g class="edgePaths"><path d="M509.547,90L516.91,90C524.273,90,539,90,552.843,90C566.686,90,579.646,90,586.126,90L592.606,90" id="L-R-W-0" class=" edge-thickness-normal edge-pattern-solid flowchart-link LS-R LE-W" style="fill:none;" marker-end="url(#mermaid-1772557688891_flowchart-pointEnd)"></path><path d="M771.672,90L775.839,90C780.005,90,788.339,90,801.236,90C814.133,90,831.594,90,849.055,90C866.516,90,883.977,90,896.137,92.269C908.297,94.539,915.157,99.078,918.587,101.347L922.017,103.617" id="L-W-D-0" class=" edge-thickness-normal edge-pattern-solid flowchart-link LS-W LE-D" style="fill:none;" marker-end="url(#mermaid-1772557688891_flowchart-pointEnd)"></path><path d="M1057.047,149.75L1070.466,149.75C1083.885,149.75,1110.724,149.75,1136.718,153.628C1162.713,157.506,1187.863,165.262,1200.438,169.14L1213.013,173.018" id="L-D-E-0" class=" edge-thickness-normal edge-pattern-solid flowchart-link LS-D LE-E" style="fill:none;" marker-end="url(#mermaid-1772557688891_flowchart-pointEnd)"></path><path d="M1391.047,201.25L1395.214,201.25C1399.38,201.25,1407.714,201.25,1415.242,202.773C1422.771,204.296,1429.495,207.343,1432.857,208.866L1436.219,210.389" id="L-E-I-0" class=" edge-thickness-normal edge-pattern-solid flowchart-link LS-E LE-I" style="fill:none;" marker-end="url(#mermaid-1772557688891_flowchart-pointEnd)"></path><path d="M1618.391,252.75L1622.557,252.75C1626.724,252.75,1635.057,252.75,1642.576,254.156C1650.095,255.562,1656.799,258.373,1660.151,259.779L1663.503,261.185" id="L-I-C-0" class=" edge-thickness-normal edge-pattern-solid flowchart-link LS-I LE-C" style="fill:none;" marker-end="url(#mermaid-1772557688891_flowchart-pointEnd)"></path><path d="M1863.984,304.25L1868.151,304.25C1872.318,304.25,1880.651,304.25,1888.163,305.574C1895.675,306.898,1902.366,309.545,1905.711,310.869L1909.056,312.193" id="L-C-A-0" class=" edge-thickness-normal edge-pattern-solid flowchart-link LS-C LE-A" style="fill:none;" marker-end="url(#mermaid-1772557688891_flowchart-pointEnd)"></path><path d="M173.523,90L183.999,90C194.474,90,215.424,90,233.263,90C251.102,90,265.828,90,280.555,90C295.281,90,310.008,90,320.654,90C331.301,90,337.868,90,341.151,90L344.434,90" id="L-D1-R-0" class=" edge-thickness-normal edge-pattern-dotted flowchart-link LS-D1 LE-R" style="fill:none;stroke-width:2px;stroke-dasharray:3;" marker-end="url(#mermaid-1772557688891_flowchart-pointEnd)"></path><path d="M176.922,209.5L186.831,209.5C196.74,209.5,216.557,209.5,233.829,209.5C251.102,209.5,265.828,209.5,280.555,209.5C295.281,209.5,310.008,209.5,334.855,209.5C359.703,209.5,394.672,209.5,432.837,209.5C471.003,209.5,512.365,209.5,554.889,209.5C597.414,209.5,641.102,209.5,681.592,209.5C722.083,209.5,759.378,209.5,786.755,209.5C814.133,209.5,831.594,209.5,849.055,209.5C866.516,209.5,883.977,209.5,896.137,207.231C908.297,204.961,915.157,200.422,918.587,198.153L922.017,195.883" id="L-D2-D-0" class=" edge-thickness-normal edge-pattern-dotted flowchart-link LS-D2 LE-D" style="fill:none;stroke-width:2px;stroke-dasharray:3;" marker-end="url(#mermaid-1772557688891_flowchart-pointEnd)"></path><path d="M193.273,312.5L200.457,312.5C207.641,312.5,222.008,312.5,236.555,312.5C251.102,312.5,265.828,312.5,280.555,312.5C295.281,312.5,310.008,312.5,334.855,312.5C359.703,312.5,394.672,312.5,432.837,312.5C471.003,312.5,512.365,312.5,554.889,312.5C597.414,312.5,641.102,312.5,681.592,312.5C722.083,312.5,759.378,312.5,786.755,312.5C814.133,312.5,831.594,312.5,849.055,312.5C866.516,312.5,883.977,312.5,907.758,312.5C931.539,312.5,961.641,312.5,1000.995,312.5C1040.349,312.5,1088.956,312.5,1126.597,303.615C1164.238,294.729,1190.914,276.959,1204.252,268.074L1217.59,259.188" id="L-D3-E-0" class=" edge-thickness-normal edge-pattern-dotted flowchart-link LS-D3 LE-E" style="fill:none;stroke-width:2px;stroke-dasharray:3;" marker-end="url(#mermaid-1772557688891_flowchart-pointEnd)"></path><path d="M211.375,415.5L215.542,415.5C219.708,415.5,228.042,415.5,239.572,415.5C251.102,415.5,265.828,415.5,280.555,415.5C295.281,415.5,310.008,415.5,334.855,415.5C359.703,415.5,394.672,415.5,432.837,415.5C471.003,415.5,512.365,415.5,554.889,415.5C597.414,415.5,641.102,415.5,681.592,415.5C722.083,415.5,759.378,415.5,786.755,415.5C814.133,415.5,831.594,415.5,849.055,415.5C866.516,415.5,883.977,415.5,907.758,415.5C931.539,415.5,961.641,415.5,1000.995,415.5C1040.349,415.5,1088.956,415.5,1141.092,415.5C1193.229,415.5,1248.896,415.5,1295.31,415.5C1341.724,415.5,1378.885,415.5,1409.503,398.266C1440.121,381.032,1464.195,346.563,1476.232,329.329L1488.269,312.095" id="L-D4-I-0" class=" edge-thickness-normal edge-pattern-dotted flowchart-link LS-D4 LE-I" style="fill:none;stroke-width:2px;stroke-dasharray:3;" marker-end="url(#mermaid-1772557688891_flowchart-pointEnd)"></path><path d="M207.227,518.5L212.085,518.5C216.943,518.5,226.659,518.5,238.88,518.5C251.102,518.5,265.828,518.5,280.555,518.5C295.281,518.5,310.008,518.5,334.855,518.5C359.703,518.5,394.672,518.5,432.837,518.5C471.003,518.5,512.365,518.5,554.889,518.5C597.414,518.5,641.102,518.5,681.592,518.5C722.083,518.5,759.378,518.5,786.755,518.5C814.133,518.5,831.594,518.5,849.055,518.5C866.516,518.5,883.977,518.5,907.758,518.5C931.539,518.5,961.641,518.5,1000.995,518.5C1040.349,518.5,1088.956,518.5,1141.092,518.5C1193.229,518.5,1248.896,518.5,1295.31,518.5C1341.724,518.5,1378.885,518.5,1416.411,518.5C1453.938,518.5,1491.828,518.5,1529.719,518.5C1567.609,518.5,1605.5,518.5,1639.218,492.725C1672.937,466.949,1702.483,415.399,1717.256,389.624L1732.029,363.848" id="L-D5-C-0" class=" edge-thickness-normal edge-pattern-dotted flowchart-link LS-D5 LE-C" style="fill:none;stroke-width:2px;stroke-dasharray:3;" marker-end="url(#mermaid-1772557688891_flowchart-pointEnd)"></path><path d="M172.086,621.5L182.801,621.5C193.516,621.5,214.945,621.5,233.023,621.5C251.102,621.5,265.828,621.5,280.555,621.5C295.281,621.5,310.008,621.5,334.855,621.5C359.703,621.5,394.672,621.5,432.837,621.5C471.003,621.5,512.365,621.5,554.889,621.5C597.414,621.5,641.102,621.5,681.592,621.5C722.083,621.5,759.378,621.5,786.755,621.5C814.133,621.5,831.594,621.5,849.055,621.5C866.516,621.5,883.977,621.5,907.758,621.5C931.539,621.5,961.641,621.5,1000.995,621.5C1040.349,621.5,1088.956,621.5,1141.092,621.5C1193.229,621.5,1248.896,621.5,1295.31,621.5C1341.724,621.5,1378.885,621.5,1416.411,621.5C1453.938,621.5,1491.828,621.5,1529.719,621.5C1567.609,621.5,1605.5,621.5,1644.911,621.5C1684.323,621.5,1725.255,621.5,1766.188,621.5C1807.12,621.5,1848.052,621.5,1885.331,587.168C1922.61,552.837,1956.235,484.173,1973.047,449.842L1989.86,415.51" id="L-D6-A-0" class=" edge-thickness-normal edge-pattern-dotted flowchart-link LS-D6 LE-A" style="fill:none;stroke-width:2px;stroke-dasharray:3;" marker-end="url(#mermaid-1772557688891_flowchart-pointEnd)"></path></g><g class="edgeLabels"><g class="edgeLabel"><g class="label" transform="translate(0, 0)"><foreignObject width="0" height="0"><div xmlns="http://www.w3.org/1999/xhtml" style="display: inline-block; white-space: nowrap;"><span class="edgeLabel"></span></div></foreignObject></g></g><g class="edgeLabel"><g class="label" transform="translate(0, 0)"><foreignObject width="0" height="0"><div xmlns="http://www.w3.org/1999/xhtml" style="display: inline-block; white-space: nowrap;"><span class="edgeLabel"></span></div></foreignObject></g></g><g class="edgeLabel"><g class="label" transform="translate(0, 0)"><foreignObject width="0" height="0"><div xmlns="http://www.w3.org/1999/xhtml" style="display: inline-block; white-space: nowrap;"><span class="edgeLabel"></span></div></foreignObject></g></g><g class="edgeLabel"><g class="label" transform="translate(0, 0)"><foreignObject width="0" height="0"><div xmlns="http://www.w3.org/1999/xhtml" style="display: inline-block; white-space: nowrap;"><span class="edgeLabel"></span></div></foreignObject></g></g><g class="edgeLabel"><g class="label" transform="translate(0, 0)"><foreignObject width="0" height="0"><div xmlns="http://www.w3.org/1999/xhtml" style="display: inline-block; white-space: nowrap;"><span class="edgeLabel"></span></div></foreignObject></g></g><g class="edgeLabel"><g class="label" transform="translate(0, 0)"><foreignObject width="0" height="0"><div xmlns="http://www.w3.org/1999/xhtml" style="display: inline-block; white-space: nowrap;"><span class="edgeLabel"></span></div></foreignObject></g></g><g class="edgeLabel" transform="translate(280.5546875, 90)"><g class="label" transform="translate(-19.1796875, -9.5)"><foreignObject width="38.359375" height="19"><div xmlns="http://www.w3.org/1999/xhtml" style="display: inline-block; white-space: nowrap;"><span class="edgeLabel">Block</span></div></foreignObject></g></g><g class="edgeLabel" transform="translate(553.7265625, 209.5)"><g class="label" transform="translate(-19.1796875, -9.5)"><foreignObject width="38.359375" height="19"><div xmlns="http://www.w3.org/1999/xhtml" style="display: inline-block; white-space: nowrap;"><span class="edgeLabel">Block</span></div></foreignObject></g></g><g class="edgeLabel" transform="translate(684.7890625, 312.5)"><g class="label" transform="translate(-27.3828125, -9.5)"><foreignObject width="54.765625" height="19"><div xmlns="http://www.w3.org/1999/xhtml" style="display: inline-block; white-space: nowrap;"><span class="edgeLabel">Prevent</span></div></foreignObject></g></g><g class="edgeLabel" transform="translate(849.0546875, 415.5)"><g class="label" transform="translate(-27.3828125, -9.5)"><foreignObject width="54.765625" height="19"><div xmlns="http://www.w3.org/1999/xhtml" style="display: inline-block; white-space: nowrap;"><span class="edgeLabel">Prevent</span></div></foreignObject></g></g><g class="edgeLabel" transform="translate(991.7421875, 518.5)"><g class="label" transform="translate(-23.9375, -9.5)"><foreignObject width="47.875" height="19"><div xmlns="http://www.w3.org/1999/xhtml" style="display: inline-block; white-space: nowrap;"><span class="edgeLabel">Detect</span></div></foreignObject></g></g><g class="edgeLabel" transform="translate(1137.5625, 621.5)"><g class="label" transform="translate(-55.515625, -9.5)"><foreignObject width="111.03125" height="19"><div xmlns="http://www.w3.org/1999/xhtml" style="display: inline-block; white-space: nowrap;"><span class="edgeLabel">Detect/Prevent</span></div></foreignObject></g></g></g><g class="nodes"><g class="node default default flowchart-label" id="flowchart-D1-14" data-node="true" data-id="D1" transform="translate(118.1875, 90)"><rect class="basic label-container" style="" rx="0" ry="0" x="-55.3359375" y="-26.5" width="110.671875" height="53"></rect><g class="label" style="" transform="translate(-47.8359375, -19)"><rect></rect><foreignObject width="95.671875" height="38"><div xmlns="http://www.w3.org/1999/xhtml" style="display: inline-block; white-space: nowrap;"><span class="nodeLabel">Threat Intel<br>Web Filtering</span></div></foreignObject></g></g><g class="node default default flowchart-label" id="flowchart-D2-15" data-node="true" data-id="D2" transform="translate(118.1875, 209.5)"><rect class="basic label-container" style="" rx="0" ry="0" x="-58.734375" y="-26.5" width="117.46875" height="53"></rect><g class="label" style="" transform="translate(-51.234375, -19)"><rect></rect><foreignObject width="102.46875" height="38"><div xmlns="http://www.w3.org/1999/xhtml" style="display: inline-block; white-space: nowrap;"><span class="nodeLabel">Email Security<br>User Training</span></div></foreignObject></g></g><g class="node default default flowchart-label" id="flowchart-D3-16" data-node="true" data-id="D3" transform="translate(118.1875, 312.5)"><rect class="basic label-container" style="" rx="0" ry="0" x="-75.0859375" y="-26.5" width="150.171875" height="53"></rect><g class="label" style="" transform="translate(-67.5859375, -19)"><rect></rect><foreignObject width="135.171875" height="38"><div xmlns="http://www.w3.org/1999/xhtml" style="display: inline-block; white-space: nowrap;"><span class="nodeLabel">Patch Management<br>EDR/AV</span></div></foreignObject></g></g><g class="node default default flowchart-label" id="flowchart-D4-17" data-node="true" data-id="D4" transform="translate(118.1875, 415.5)"><rect class="basic label-container" style="" rx="0" ry="0" x="-93.1875" y="-26.5" width="186.375" height="53"></rect><g class="label" style="" transform="translate(-85.6875, -19)"><rect></rect><foreignObject width="171.375" height="38"><div xmlns="http://www.w3.org/1999/xhtml" style="display: inline-block; white-space: nowrap;"><span class="nodeLabel">Application Whitelisting<br>Least Privilege</span></div></foreignObject></g></g><g class="node default default flowchart-label" id="flowchart-D5-18" data-node="true" data-id="D5" transform="translate(118.1875, 518.5)"><rect class="basic label-container" style="" rx="0" ry="0" x="-89.0390625" y="-26.5" width="178.078125" height="53"></rect><g class="label" style="" transform="translate(-81.5390625, -19)"><rect></rect><foreignObject width="163.078125" height="38"><div xmlns="http://www.w3.org/1999/xhtml" style="display: inline-block; white-space: nowrap;"><span class="nodeLabel">Network Segmentation<br>Firewall Rules</span></div></foreignObject></g></g><g class="node default default flowchart-label" id="flowchart-D6-19" data-node="true" data-id="D6" transform="translate(118.1875, 621.5)"><rect class="basic label-container" style="" rx="0" ry="0" x="-53.8984375" y="-26.5" width="107.796875" height="53"></rect><g class="label" style="" transform="translate(-46.3984375, -19)"><rect></rect><foreignObject width="92.796875" height="38"><div xmlns="http://www.w3.org/1999/xhtml" style="display: inline-block; white-space: nowrap;"><span class="nodeLabel">DLP<br>SIEM Alerting</span></div></foreignObject></g></g><g class="node default default flowchart-label" id="flowchart-D-2" data-node="true" data-id="D" transform="translate(991.7421875, 149.75)"><rect class="basic label-container" style="fill:#ef9a9a;" rx="0" ry="0" x="-65.3046875" y="-64.5" width="130.609375" height="129"></rect><g class="label" style="" transform="translate(-57.8046875, -57)"><rect></rect><foreignObject width="115.609375" height="114"><div xmlns="http://www.w3.org/1999/xhtml" style="display: inline-block; white-space: nowrap;"><span class="nodeLabel">3. DELIVERY<br>--------<br>• Phishing Email<br>• Malicious Link<br>• USB Drop<br>• Watering Hole</span></div></foreignObject></g></g><g class="node default default flowchart-label" id="flowchart-E-3" data-node="true" data-id="E" transform="translate(1304.5625, 201.25)"><rect class="basic label-container" style="fill:#e57373;" rx="0" ry="0" x="-86.484375" y="-55" width="172.96875" height="110"></rect><g class="label" style="" transform="translate(-78.984375, -47.5)"><rect></rect><foreignObject width="157.96875" height="95"><div xmlns="http://www.w3.org/1999/xhtml" style="display: inline-block; white-space: nowrap;"><span class="nodeLabel">4. EXPLOITATION<br>--------<br>• Execute Code<br>• Trigger Vulnerability<br>• Gain Initial Access</span></div></foreignObject></g></g><g class="node default default flowchart-label" id="flowchart-I-4" data-node="true" data-id="I" transform="translate(1529.71875, 252.75)"><rect class="basic label-container" style="fill:#ef5350;" rx="0" ry="0" x="-88.671875" y="-55" width="177.34375" height="110"></rect><g class="label" style="" transform="translate(-81.171875, -47.5)"><rect></rect><foreignObject width="162.34375" height="95"><div xmlns="http://www.w3.org/1999/xhtml" style="display: inline-block; white-space: nowrap;"><span class="nodeLabel">5. INSTALLATION<br>--------<br>• Install Malware<br>• Create Backdoor<br>• Establish Persistence</span></div></foreignObject></g></g><g class="node default default flowchart-label" id="flowchart-C-5" data-node="true" data-id="C" transform="translate(1766.1875, 304.25)"><rect class="basic label-container" style="fill:#f44336;" rx="0" ry="0" x="-97.796875" y="-55" width="195.59375" height="110"></rect><g class="label" style="" transform="translate(-90.296875, -47.5)"><rect></rect><foreignObject width="180.59375" height="95"><div xmlns="http://www.w3.org/1999/xhtml" style="display: inline-block; white-space: nowrap;"><span class="nodeLabel">6. COMMAND &amp; CONTROL<br>--------<br>• Beacon to C2 Server<br>• Remote Access<br>• Await Instructions</span></div></foreignObject></g></g><g class="node default default flowchart-label" id="flowchart-A-6" data-node="true" data-id="A" transform="translate(2019.125, 355.75)"><rect class="basic label-container" style="fill:#d32f2f;" rx="0" ry="0" x="-105.140625" y="-55" width="210.28125" height="110"></rect><g class="label" style="" transform="translate(-97.640625, -47.5)"><rect></rect><foreignObject width="195.28125" height="95"><div xmlns="http://www.w3.org/1999/xhtml" style="display: inline-block; white-space: nowrap;"><span class="nodeLabel">7. ACTIONS ON OBJECTIVES<br>--------<br>• Data Exfiltration<br>• Lateral Movement<br>• Deploy Ransomware</span></div></foreignObject></g></g><g class="node default default flowchart-label" id="flowchart-R-0" data-node="true" data-id="R" transform="translate(429.640625, 90)"><rect class="basic label-container" style="fill:#ffebee;" rx="0" ry="0" x="-79.90625" y="-55" width="159.8125" height="110"></rect><g class="label" style="" transform="translate(-72.40625, -47.5)"><rect></rect><foreignObject width="144.8125" height="95"><div xmlns="http://www.w3.org/1999/xhtml" style="display: inline-block; white-space: nowrap;"><span class="nodeLabel">1. RECONNAISSANCE<br>--------<br>• OSINT Gathering<br>• Network Scanning<br>• Social Engineering</span></div></foreignObject></g></g><g class="node default default flowchart-label" id="flowchart-W-1" data-node="true" data-id="W" transform="translate(684.7890625, 90)"><rect class="basic label-container" style="fill:#ffcdd2;" rx="0" ry="0" x="-86.8828125" y="-55" width="173.765625" height="110"></rect><g class="label" style="" transform="translate(-79.3828125, -47.5)"><rect></rect><foreignObject width="158.765625" height="95"><div xmlns="http://www.w3.org/1999/xhtml" style="display: inline-block; white-space: nowrap;"><span class="nodeLabel">2. WEAPONIZATION<br>--------<br>• Create Exploit<br>• Couple with Payload<br>• Prepare Delivery</span></div></foreignObject></g></g></g></g></g></svg>