<svg id="mermaid-1772557692956" width="100%" xmlns="http://www.w3.org/2000/svg" xmlns:xlink="http://www.w3.org/1999/xlink" style="max-width: 5912.78125px;" viewBox="-7.5 -8 5912.78125 708" role="graphics-document document" aria-roledescription="flowchart-v2"><style>#mermaid-1772557692956{font-family:"trebuchet ms",verdana,arial,sans-serif;font-size:16px;fill:#000000;}#mermaid-1772557692956 .error-icon{fill:#552222;}#mermaid-1772557692956 .error-text{fill:#552222;stroke:#552222;}#mermaid-1772557692956 .edge-thickness-normal{stroke-width:2px;}#mermaid-1772557692956 .edge-thickness-thick{stroke-width:3.5px;}#mermaid-1772557692956 .edge-pattern-solid{stroke-dasharray:0;}#mermaid-1772557692956 .edge-pattern-dashed{stroke-dasharray:3;}#mermaid-1772557692956 .edge-pattern-dotted{stroke-dasharray:2;}#mermaid-1772557692956 .marker{fill:#666;stroke:#666;}#mermaid-1772557692956 .marker.cross{stroke:#666;}#mermaid-1772557692956 svg{font-family:"trebuchet ms",verdana,arial,sans-serif;font-size:16px;}#mermaid-1772557692956 .label{font-family:"trebuchet ms",verdana,arial,sans-serif;color:#000000;}#mermaid-1772557692956 .cluster-label text{fill:#333;}#mermaid-1772557692956 .cluster-label span,#mermaid-1772557692956 p{color:#333;}#mermaid-1772557692956 .label text,#mermaid-1772557692956 span,#mermaid-1772557692956 p{fill:#000000;color:#000000;}#mermaid-1772557692956 .node rect,#mermaid-1772557692956 .node circle,#mermaid-1772557692956 .node ellipse,#mermaid-1772557692956 .node polygon,#mermaid-1772557692956 .node path{fill:#eee;stroke:#999;stroke-width:1px;}#mermaid-1772557692956 .flowchart-label text{text-anchor:middle;}#mermaid-1772557692956 .node .katex path{fill:#000;stroke:#000;stroke-width:1px;}#mermaid-1772557692956 .node .label{text-align:center;}#mermaid-1772557692956 .node.clickable{cursor:pointer;}#mermaid-1772557692956 .arrowheadPath{fill:#333333;}#mermaid-1772557692956 .edgePath .path{stroke:#666;stroke-width:2.0px;}#mermaid-1772557692956 .flowchart-link{stroke:#666;fill:none;}#mermaid-1772557692956 .edgeLabel{background-color:white;text-align:center;}#mermaid-1772557692956 .edgeLabel rect{opacity:0.5;background-color:white;fill:white;}#mermaid-1772557692956 .labelBkg{background-color:rgba(255, 255, 255, 0.5);}#mermaid-1772557692956 .cluster rect{fill:hsl(0, 0%, 98.9215686275%);stroke:#707070;stroke-width:1px;}#mermaid-1772557692956 .cluster text{fill:#333;}#mermaid-1772557692956 .cluster span,#mermaid-1772557692956 p{color:#333;}#mermaid-1772557692956 div.mermaidTooltip{position:absolute;text-align:center;max-width:200px;padding:2px;font-family:"trebuchet ms",verdana,arial,sans-serif;font-size:12px;background:hsl(-160, 0%, 93.3333333333%);border:1px solid #707070;border-radius:2px;pointer-events:none;z-index:100;}#mermaid-1772557692956 .flowchartTitleText{text-anchor:middle;font-size:18px;fill:#000000;}#mermaid-1772557692956 :root{--mermaid-font-family:"trebuchet ms",verdana,arial,sans-serif;}</style><g><marker id="mermaid-1772557692956_flowchart-pointEnd" class="marker flowchart" viewBox="0 0 10 10" refX="6" refY="5" markerUnits="userSpaceOnUse" markerWidth="12" markerHeight="12" orient="auto"><path d="M 0 0 L 10 5 L 0 10 z" class="arrowMarkerPath" style="stroke-width: 1; stroke-dasharray: 1, 0;"></path></marker><marker id="mermaid-1772557692956_flowchart-pointStart" class="marker flowchart" viewBox="0 0 10 10" refX="4.5" refY="5" markerUnits="userSpaceOnUse" markerWidth="12" markerHeight="12" orient="auto"><path d="M 0 5 L 10 10 L 10 0 z" class="arrowMarkerPath" style="stroke-width: 1; stroke-dasharray: 1, 0;"></path></marker><marker id="mermaid-1772557692956_flowchart-circleEnd" class="marker flowchart" viewBox="0 0 10 10" refX="11" refY="5" markerUnits="userSpaceOnUse" markerWidth="11" markerHeight="11" orient="auto"><circle cx="5" cy="5" r="5" class="arrowMarkerPath" style="stroke-width: 1; stroke-dasharray: 1, 0;"></circle></marker><marker id="mermaid-1772557692956_flowchart-circleStart" class="marker flowchart" viewBox="0 0 10 10" refX="-1" refY="5" markerUnits="userSpaceOnUse" markerWidth="11" markerHeight="11" orient="auto"><circle cx="5" cy="5" r="5" class="arrowMarkerPath" style="stroke-width: 1; stroke-dasharray: 1, 0;"></circle></marker><marker id="mermaid-1772557692956_flowchart-crossEnd" class="marker cross flowchart" viewBox="0 0 11 11" refX="12" refY="5.2" markerUnits="userSpaceOnUse" markerWidth="11" markerHeight="11" orient="auto"><path d="M 1,1 l 9,9 M 10,1 l -9,9" class="arrowMarkerPath" style="stroke-width: 2; stroke-dasharray: 1, 0;"></path></marker><marker id="mermaid-1772557692956_flowchart-crossStart" class="marker cross flowchart" viewBox="0 0 11 11" refX="-1" refY="5.2" markerUnits="userSpaceOnUse" markerWidth="11" markerHeight="11" orient="auto"><path d="M 1,1 l 9,9 M 10,1 l -9,9" class="arrowMarkerPath" style="stroke-width: 2; stroke-dasharray: 1, 0;"></path></marker><g class="root"><g class="clusters"></g><g class="edgePaths"></g><g class="edgeLabels"></g><g class="nodes"><g class="root" transform="translate(-7.5, 193.72265625)"><g class="clusters"><g class="cluster default flowchart-label" id="Persistence"><rect style="" rx="0" ry="0" x="8" y="8" width="1532.140625" height="288.5546875"></rect><g class="cluster-label" transform="translate(701.28125, 8)"><foreignObject width="145.578125" height="19"><div xmlns="http://www.w3.org/1999/xhtml" style="display: inline-block; white-space: nowrap;"><span class="nodeLabel">Persistence Strategy</span></div></foreignObject></g></g></g><g class="edgePaths"><path d="M227.922,152.277L232.089,152.277C236.255,152.277,244.589,152.277,252.039,152.277C259.489,152.277,266.055,152.277,269.339,152.277L272.622,152.277" id="L-P1-P2-0" class=" edge-thickness-normal edge-pattern-solid flowchart-link LS-P1 LE-P2" style="fill:none;" marker-end="url(#mermaid-1772557692956_flowchart-pointEnd)"></path><path d="M505.813,152.277L509.979,152.277C514.146,152.277,522.479,152.277,530.013,152.343C537.546,152.409,544.28,152.541,547.647,152.607L551.014,152.673" id="L-P2-P3-0" class=" edge-thickness-normal edge-pattern-solid flowchart-link LS-P2 LE-P3" style="fill:none;" marker-end="url(#mermaid-1772557692956_flowchart-pointEnd)"></path><path d="M708.493,126.849L718.786,122.504C729.079,118.158,749.664,109.468,765.129,105.123C780.593,100.777,790.935,100.777,796.107,100.777L801.278,100.777" id="L-P3-P4-0" class=" edge-thickness-normal edge-pattern-solid flowchart-link LS-P3 LE-P4" style="fill:none;" marker-end="url(#mermaid-1772557692956_flowchart-pointEnd)"></path><path d="M1024.406,100.777L1028.573,100.777C1032.74,100.777,1041.073,100.777,1048.523,100.777C1055.973,100.777,1062.54,100.777,1065.823,100.777L1069.106,100.777" id="L-P4-P5-0" class=" edge-thickness-normal edge-pattern-solid flowchart-link LS-P4 LE-P5" style="fill:none;" marker-end="url(#mermaid-1772557692956_flowchart-pointEnd)"></path><path d="M1268.594,100.777L1272.76,100.777C1276.927,100.777,1285.26,100.777,1292.71,100.777C1300.16,100.777,1306.727,100.777,1310.01,100.777L1313.294,100.777" id="L-P5-P6-0" class=" edge-thickness-normal edge-pattern-solid flowchart-link LS-P5 LE-P6" style="fill:none;" marker-end="url(#mermaid-1772557692956_flowchart-pointEnd)"></path><path d="M708.493,178.706L718.786,182.884C729.079,187.063,749.664,195.42,770.088,199.599C790.512,203.777,810.774,203.777,820.905,203.777L831.036,203.777" id="L-P3-P7-0" class=" edge-thickness-normal edge-pattern-solid flowchart-link LS-P3 LE-P7" style="fill:none;" marker-end="url(#mermaid-1772557692956_flowchart-pointEnd)"></path></g><g class="edgeLabels"><g class="edgeLabel"><g class="label" transform="translate(0, 0)"><foreignObject width="0" height="0"><div xmlns="http://www.w3.org/1999/xhtml" style="display: inline-block; white-space: nowrap;"><span class="edgeLabel"></span></div></foreignObject></g></g><g class="edgeLabel"><g class="label" transform="translate(0, 0)"><foreignObject width="0" height="0"><div xmlns="http://www.w3.org/1999/xhtml" style="display: inline-block; white-space: nowrap;"><span class="edgeLabel"></span></div></foreignObject></g></g><g class="edgeLabel" transform="translate(770.25, 100.77734375)"><g class="label" transform="translate(-11.328125, -9.5)"><foreignObject width="22.65625" height="19"><div xmlns="http://www.w3.org/1999/xhtml" style="display: inline-block; white-space: nowrap;"><span class="edgeLabel">Yes</span></div></foreignObject></g></g><g class="edgeLabel"><g class="label" transform="translate(0, 0)"><foreignObject width="0" height="0"><div xmlns="http://www.w3.org/1999/xhtml" style="display: inline-block; white-space: nowrap;"><span class="edgeLabel"></span></div></foreignObject></g></g><g class="edgeLabel"><g class="label" transform="translate(0, 0)"><foreignObject width="0" height="0"><div xmlns="http://www.w3.org/1999/xhtml" style="display: inline-block; white-space: nowrap;"><span class="edgeLabel"></span></div></foreignObject></g></g><g class="edgeLabel" transform="translate(770.25, 203.77734375)"><g class="label" transform="translate(-9.3984375, -9.5)"><foreignObject width="18.796875" height="19"><div xmlns="http://www.w3.org/1999/xhtml" style="display: inline-block; white-space: nowrap;"><span class="edgeLabel">No</span></div></foreignObject></g></g></g><g class="nodes"><g class="node default default flowchart-label" id="flowchart-P1-43" data-node="true" data-id="P1" transform="translate(130.4609375, 152.27734375)"><rect class="basic label-container" style="" rx="0" ry="0" x="-97.4609375" y="-26.5" width="194.921875" height="53"></rect><g class="label" style="" transform="translate(-89.9609375, -19)"><rect></rect><foreignObject width="179.921875" height="38"><div xmlns="http://www.w3.org/1999/xhtml" style="display: inline-block; white-space: nowrap;"><span class="nodeLabel">Create backdoor account<br>BEFORE SDProp runs</span></div></foreignObject></g></g><g class="node default default flowchart-label" id="flowchart-P2-45" data-node="true" data-id="P2" transform="translate(391.8671875, 152.27734375)"><rect class="basic label-container" style="" rx="0" ry="0" x="-113.9453125" y="-17" width="227.890625" height="34"></rect><g class="label" style="" transform="translate(-106.4453125, -9.5)"><rect></rect><foreignObject width="212.890625" height="19"><div xmlns="http://www.w3.org/1999/xhtml" style="display: inline-block; white-space: nowrap;"><span class="nodeLabel">Exploit within 60-min window</span></div></foreignObject></g></g><g class="node default default flowchart-label" id="flowchart-P3-47" data-node="true" data-id="P3" transform="translate(644.8671875, 152.27734375)"><polygon points="89.0546875,0 178.109375,-89.0546875 89.0546875,-178.109375 0,-89.0546875" class="label-container" transform="translate(-89.0546875,89.0546875)" style=""></polygon><g class="label" style="" transform="translate(-64.5546875, -9.5)"><rect></rect><foreignObject width="129.109375" height="19"><div xmlns="http://www.w3.org/1999/xhtml" style="display: inline-block; white-space: nowrap;"><span class="nodeLabel">Need persistence?</span></div></foreignObject></g></g><g class="node default default flowchart-label" id="flowchart-P4-49" data-node="true" data-id="P4" transform="translate(915.4921875, 100.77734375)"><rect class="basic label-container" style="" rx="0" ry="0" x="-108.9140625" y="-26.5" width="217.828125" height="53"></rect><g class="label" style="" transform="translate(-101.4140625, -19)"><rect></rect><foreignObject width="202.828125" height="38"><div xmlns="http://www.w3.org/1999/xhtml" style="display: inline-block; white-space: nowrap;"><span class="nodeLabel">Add user to protected group<br>to inherit AdminCount</span></div></foreignObject></g></g><g class="node default default flowchart-label" id="flowchart-P5-51" data-node="true" data-id="P5" transform="translate(1171.5, 100.77734375)"><rect class="basic label-container" style="" rx="0" ry="0" x="-97.09375" y="-26.5" width="194.1875" height="53"></rect><g class="label" style="" transform="translate(-89.59375, -19)"><rect></rect><foreignObject width="179.1875" height="38"><div xmlns="http://www.w3.org/1999/xhtml" style="display: inline-block; white-space: nowrap;"><span class="nodeLabel">Remove from group later<br>keeps AdminCount=1</span></div></foreignObject></g></g><g class="node default default flowchart-label" id="flowchart-P6-53" data-node="true" data-id="P6" transform="translate(1416.8671875, 100.77734375)"><rect class="basic label-container" style="fill:#99ff99;" rx="0" ry="0" x="-98.2734375" y="-26.5" width="196.546875" height="53"></rect><g class="label" style="" transform="translate(-90.7734375, -19)"><rect></rect><foreignObject width="181.546875" height="38"><div xmlns="http://www.w3.org/1999/xhtml" style="display: inline-block; white-space: nowrap;"><span class="nodeLabel">SDProp won't reset ACL<br>if user has AdminCount=1</span></div></foreignObject></g></g><g class="node default default flowchart-label" id="flowchart-P7-55" data-node="true" data-id="P7" transform="translate(915.4921875, 203.77734375)"><rect class="basic label-container" style="" rx="0" ry="0" x="-79.15625" y="-26.5" width="158.3125" height="53"></rect><g class="label" style="" transform="translate(-71.65625, -19)"><rect></rect><foreignObject width="143.3125" height="38"><div xmlns="http://www.w3.org/1999/xhtml" style="display: inline-block; white-space: nowrap;"><span class="nodeLabel">Quick exploitation<br>then revert changes</span></div></foreignObject></g></g></g></g><g class="root" transform="translate(1597.953125, -8)"><g class="clusters"><g class="cluster default flowchart-label" id="Protected"><rect style="" rx="0" ry="0" x="-15.3125" y="8" width="244.8125" height="692"></rect><g class="cluster-label" transform="translate(-15.3125, 8)"><foreignObject width="244.8125" height="19"><div xmlns="http://www.w3.org/1999/xhtml" style="display: inline-block; white-space: nowrap;"><span class="nodeLabel">Protected Groups (AdminCount=1)</span></div></foreignObject></g></g></g><g class="edgePaths"></g><g class="edgeLabels"></g><g class="nodes"><g class="node default default flowchart-label" id="flowchart-PG1-35" data-node="true" data-id="PG1" transform="translate(107.09375, 60)"><rect class="basic label-container" style="" rx="0" ry="0" x="-61.875" y="-17" width="123.75" height="34"></rect><g class="label" style="" transform="translate(-54.375, -9.5)"><rect></rect><foreignObject width="108.75" height="19"><div xmlns="http://www.w3.org/1999/xhtml" style="display: inline-block; white-space: nowrap;"><span class="nodeLabel">Domain Admins</span></div></foreignObject></g></g><g class="node default default flowchart-label" id="flowchart-PG2-36" data-node="true" data-id="PG2" transform="translate(107.09375, 144)"><rect class="basic label-container" style="" rx="0" ry="0" x="-71.9296875" y="-17" width="143.859375" height="34"></rect><g class="label" style="" transform="translate(-64.4296875, -9.5)"><rect></rect><foreignObject width="128.859375" height="19"><div xmlns="http://www.w3.org/1999/xhtml" style="display: inline-block; white-space: nowrap;"><span class="nodeLabel">Enterprise Admins</span></div></foreignObject></g></g><g class="node default default flowchart-label" id="flowchart-PG3-37" data-node="true" data-id="PG3" transform="translate(107.09375, 228)"><rect class="basic label-container" style="" rx="0" ry="0" x="-62.5625" y="-17" width="125.125" height="34"></rect><g class="label" style="" transform="translate(-55.0625, -9.5)"><rect></rect><foreignObject width="110.125" height="19"><div xmlns="http://www.w3.org/1999/xhtml" style="display: inline-block; white-space: nowrap;"><span class="nodeLabel">Schema Admins</span></div></foreignObject></g></g><g class="node default default flowchart-label" id="flowchart-PG4-38" data-node="true" data-id="PG4" transform="translate(107.09375, 312)"><rect class="basic label-container" style="" rx="0" ry="0" x="-59.7890625" y="-17" width="119.578125" height="34"></rect><g class="label" style="" transform="translate(-52.2890625, -9.5)"><rect></rect><foreignObject width="104.578125" height="19"><div xmlns="http://www.w3.org/1999/xhtml" style="display: inline-block; white-space: nowrap;"><span class="nodeLabel">Administrators</span></div></foreignObject></g></g><g class="node default default flowchart-label" id="flowchart-PG5-39" data-node="true" data-id="PG5" transform="translate(107.09375, 396)"><rect class="basic label-container" style="" rx="0" ry="0" x="-74.09375" y="-17" width="148.1875" height="34"></rect><g class="label" style="" transform="translate(-66.59375, -9.5)"><rect></rect><foreignObject width="133.1875" height="19"><div xmlns="http://www.w3.org/1999/xhtml" style="display: inline-block; white-space: nowrap;"><span class="nodeLabel">Account Operators</span></div></foreignObject></g></g><g class="node default default flowchart-label" id="flowchart-PG6-40" data-node="true" data-id="PG6" transform="translate(107.09375, 480)"><rect class="basic label-container" style="" rx="0" ry="0" x="-70.8046875" y="-17" width="141.609375" height="34"></rect><g class="label" style="" transform="translate(-63.3046875, -9.5)"><rect></rect><foreignObject width="126.609375" height="19"><div xmlns="http://www.w3.org/1999/xhtml" style="display: inline-block; white-space: nowrap;"><span class="nodeLabel">Backup Operators</span></div></foreignObject></g></g><g class="node default default flowchart-label" id="flowchart-PG7-41" data-node="true" data-id="PG7" transform="translate(107.09375, 564)"><rect class="basic label-container" style="" rx="0" ry="0" x="-62.265625" y="-17" width="124.53125" height="34"></rect><g class="label" style="" transform="translate(-54.765625, -9.5)"><rect></rect><foreignObject width="109.53125" height="19"><div xmlns="http://www.w3.org/1999/xhtml" style="display: inline-block; white-space: nowrap;"><span class="nodeLabel">Print Operators</span></div></foreignObject></g></g><g class="node default default flowchart-label" id="flowchart-PG8-42" data-node="true" data-id="PG8" transform="translate(107.09375, 648)"><rect class="basic label-container" style="" rx="0" ry="0" x="-67.9609375" y="-17" width="135.921875" height="34"></rect><g class="label" style="" transform="translate(-60.4609375, -9.5)"><rect></rect><foreignObject width="120.921875" height="19"><div xmlns="http://www.w3.org/1999/xhtml" style="display: inline-block; white-space: nowrap;"><span class="nodeLabel">Server Operators</span></div></foreignObject></g></g></g></g><g class="root" transform="translate(1869.453125, 149.4765625)"><g class="clusters"><g class="cluster default flowchart-label" id="Time"><rect style="" rx="0" ry="0" x="8" y="8" width="4019.828125" height="377.046875"></rect><g class="cluster-label" transform="translate(1898.84375, 8)"><foreignObject width="238.140625" height="19"><div xmlns="http://www.w3.org/1999/xhtml" style="display: inline-block; white-space: nowrap;"><span class="nodeLabel">60-Minute Cycle (SDProp Process)</span></div></foreignObject></g></g></g><g class="edgePaths"><path d="M181.375,227.09L185.542,227.09C189.708,227.09,198.042,227.09,205.492,227.09C212.942,227.09,219.508,227.09,222.792,227.09L226.075,227.09" id="L-T0-A1-0" class=" edge-thickness-normal edge-pattern-solid flowchart-link LS-T0 LE-A1" style="fill:none;" marker-end="url(#mermaid-1772557692956_flowchart-pointEnd)"></path><path d="M404.734,227.09L408.901,227.09C413.068,227.09,421.401,227.09,428.851,227.09C436.301,227.09,442.868,227.09,446.151,227.09L449.434,227.09" id="L-A1-A2-0" class=" edge-thickness-normal edge-pattern-solid flowchart-link LS-A1 LE-A2" style="fill:none;" marker-end="url(#mermaid-1772557692956_flowchart-pointEnd)"></path><path d="M670.25,227.09L674.417,227.09C678.583,227.09,686.917,227.09,694.367,227.09C701.817,227.09,708.383,227.09,711.667,227.09L714.95,227.09" id="L-A2-T15-0" class=" edge-thickness-normal edge-pattern-solid flowchart-link LS-A2 LE-T15" style="fill:none;" marker-end="url(#mermaid-1772557692956_flowchart-pointEnd)"></path><path d="M877.016,227.09L881.182,227.09C885.349,227.09,893.682,227.09,901.132,227.09C908.582,227.09,915.149,227.09,918.432,227.09L921.716,227.09" id="L-T15-E1-0" class=" edge-thickness-normal edge-pattern-solid flowchart-link LS-T15 LE-E1" style="fill:none;" marker-end="url(#mermaid-1772557692956_flowchart-pointEnd)"></path><path d="M1093.328,227.09L1097.495,227.09C1101.661,227.09,1109.995,227.09,1117.445,227.09C1124.895,227.09,1131.461,227.09,1134.745,227.09L1138.028,227.09" id="L-E1-E2-0" class=" edge-thickness-normal edge-pattern-solid flowchart-link LS-E1 LE-E2" style="fill:none;" marker-end="url(#mermaid-1772557692956_flowchart-pointEnd)"></path><path d="M1346.875,227.09L1351.042,227.09C1355.208,227.09,1363.542,227.09,1370.992,227.09C1378.442,227.09,1385.008,227.09,1388.292,227.09L1391.575,227.09" id="L-E2-T60-0" class=" edge-thickness-normal edge-pattern-solid flowchart-link LS-E2 LE-T60" style="fill:none;" marker-end="url(#mermaid-1772557692956_flowchart-pointEnd)"></path><path d="M1564.609,227.09L1568.776,227.09C1572.943,227.09,1581.276,227.09,1588.81,227.156C1596.343,227.222,1603.077,227.354,1606.444,227.42L1609.81,227.486" id="L-T60-SDProp-0" class=" edge-thickness-normal edge-pattern-solid flowchart-link LS-T60 LE-SDProp" style="fill:none;" marker-end="url(#mermaid-1772557692956_flowchart-pointEnd)"></path><path d="M1808.889,190.541L1819.147,185.569C1829.405,180.597,1849.921,170.652,1863.463,165.679C1877.004,160.707,1883.571,160.707,1886.854,160.707L1890.138,160.707" id="L-SDProp-S1-0" class=" edge-thickness-normal edge-pattern-solid flowchart-link LS-SDProp LE-S1" style="fill:none;" marker-end="url(#mermaid-1772557692956_flowchart-pointEnd)"></path><path d="M2137.219,160.707L2141.385,160.707C2145.552,160.707,2153.885,160.707,2161.335,160.707C2168.785,160.707,2175.352,160.707,2178.635,160.707L2181.919,160.707" id="L-S1-S2-0" class=" edge-thickness-normal edge-pattern-solid flowchart-link LS-S1 LE-S2" style="fill:none;" marker-end="url(#mermaid-1772557692956_flowchart-pointEnd)"></path><path d="M2470.766,160.707L2474.932,160.707C2479.099,160.707,2487.432,160.707,2494.882,160.707C2502.332,160.707,2508.899,160.707,2512.182,160.707L2515.466,160.707" id="L-S2-S3-0" class=" edge-thickness-normal edge-pattern-solid flowchart-link LS-S2 LE-S3" style="fill:none;" marker-end="url(#mermaid-1772557692956_flowchart-pointEnd)"></path><path d="M2713.813,160.707L2717.979,160.707C2722.146,160.707,2730.479,160.707,2738.013,160.773C2745.546,160.839,2752.28,160.971,2755.647,161.037L2759.014,161.103" id="L-S3-S4-0" class=" edge-thickness-normal edge-pattern-solid flowchart-link LS-S3 LE-S4" style="fill:none;" marker-end="url(#mermaid-1772557692956_flowchart-pointEnd)"></path><path d="M2934.57,135.934L2944.754,132.271C2954.938,128.608,2975.305,121.283,2990.66,117.62C3006.015,113.957,3016.357,113.957,3021.529,113.957L3026.7,113.957" id="L-S4-S5-0" class=" edge-thickness-normal edge-pattern-solid flowchart-link LS-S4 LE-S5" style="fill:none;" marker-end="url(#mermaid-1772557692956_flowchart-pointEnd)"></path><path d="M2934.57,186.48L2944.754,189.977C2954.938,193.473,2975.305,200.465,2998.906,203.961C3022.507,207.457,3049.342,207.457,3062.759,207.457L3076.177,207.457" id="L-S4-S6-0" class=" edge-thickness-normal edge-pattern-solid flowchart-link LS-S4 LE-S6" style="fill:none;" marker-end="url(#mermaid-1772557692956_flowchart-pointEnd)"></path><path d="M3271.703,113.957L3275.87,113.957C3280.036,113.957,3288.37,113.957,3295.82,113.957C3303.27,113.957,3309.836,113.957,3313.12,113.957L3316.403,113.957" id="L-S5-S7-0" class=" edge-thickness-normal edge-pattern-solid flowchart-link LS-S5 LE-S7" style="fill:none;" marker-end="url(#mermaid-1772557692956_flowchart-pointEnd)"></path><path d="M3573.156,113.957L3577.323,113.957C3581.49,113.957,3589.823,113.957,3597.273,113.957C3604.723,113.957,3611.29,113.957,3614.573,113.957L3617.856,113.957" id="L-S7-S8-0" class=" edge-thickness-normal edge-pattern-solid flowchart-link LS-S7 LE-S8" style="fill:none;" marker-end="url(#mermaid-1772557692956_flowchart-pointEnd)"></path><path d="M3787.672,113.957L3791.839,113.957C3796.005,113.957,3804.339,113.957,3821.626,127.756C3838.914,141.554,3865.157,169.152,3878.278,182.95L3891.399,196.749" id="L-S8-T120-0" class=" edge-thickness-normal edge-pattern-solid flowchart-link LS-S8 LE-T120" style="fill:none;" marker-end="url(#mermaid-1772557692956_flowchart-pointEnd)"></path><path d="M3881.063,253.59L3869.665,261.298C3858.266,269.007,3835.469,284.423,3806.194,292.132C3776.919,299.84,3741.167,299.84,3705.414,299.84C3669.661,299.84,3633.909,299.84,3590.911,299.84C3547.914,299.84,3497.672,299.84,3447.43,299.84C3397.188,299.84,3346.945,299.84,3297.682,299.84C3248.419,299.84,3200.135,299.84,3149.964,299.84C3099.792,299.84,3047.732,299.84,2999.353,299.84C2950.974,299.84,2906.276,299.84,2863.466,299.84C2820.656,299.84,2779.734,299.84,2739.02,299.84C2698.305,299.84,2657.797,299.84,2617.289,299.84C2576.781,299.84,2536.273,299.84,2488.224,299.84C2440.174,299.84,2384.583,299.84,2328.992,299.84C2273.401,299.84,2217.81,299.84,2165.699,299.84C2113.589,299.84,2064.958,299.84,2016.328,299.84C1967.698,299.84,1919.068,299.84,1884.89,294.767C1850.712,289.694,1830.987,279.549,1821.124,274.476L1811.261,269.403" id="L-T120-SDProp-0" class=" edge-thickness-normal edge-pattern-dotted flowchart-link LS-T120 LE-SDProp" style="fill:none;stroke-width:2px;stroke-dasharray:3;" marker-end="url(#mermaid-1772557692956_flowchart-pointEnd)"></path></g><g class="edgeLabels"><g class="edgeLabel"><g class="label" transform="translate(0, 0)"><foreignObject width="0" height="0"><div xmlns="http://www.w3.org/1999/xhtml" style="display: inline-block; white-space: nowrap;"><span class="edgeLabel"></span></div></foreignObject></g></g><g class="edgeLabel"><g class="label" transform="translate(0, 0)"><foreignObject width="0" height="0"><div xmlns="http://www.w3.org/1999/xhtml" style="display: inline-block; white-space: nowrap;"><span class="edgeLabel"></span></div></foreignObject></g></g><g class="edgeLabel"><g class="label" transform="translate(0, 0)"><foreignObject width="0" height="0"><div xmlns="http://www.w3.org/1999/xhtml" style="display: inline-block; white-space: nowrap;"><span class="edgeLabel"></span></div></foreignObject></g></g><g class="edgeLabel"><g class="label" transform="translate(0, 0)"><foreignObject width="0" height="0"><div xmlns="http://www.w3.org/1999/xhtml" style="display: inline-block; white-space: nowrap;"><span class="edgeLabel"></span></div></foreignObject></g></g><g class="edgeLabel"><g class="label" transform="translate(0, 0)"><foreignObject width="0" height="0"><div xmlns="http://www.w3.org/1999/xhtml" style="display: inline-block; white-space: nowrap;"><span class="edgeLabel"></span></div></foreignObject></g></g><g class="edgeLabel"><g class="label" transform="translate(0, 0)"><foreignObject width="0" height="0"><div xmlns="http://www.w3.org/1999/xhtml" style="display: inline-block; white-space: nowrap;"><span class="edgeLabel"></span></div></foreignObject></g></g><g class="edgeLabel"><g class="label" transform="translate(0, 0)"><foreignObject width="0" height="0"><div xmlns="http://www.w3.org/1999/xhtml" style="display: inline-block; white-space: nowrap;"><span class="edgeLabel"></span></div></foreignObject></g></g><g class="edgeLabel"><g class="label" transform="translate(0, 0)"><foreignObject width="0" height="0"><div xmlns="http://www.w3.org/1999/xhtml" style="display: inline-block; white-space: nowrap;"><span class="edgeLabel"></span></div></foreignObject></g></g><g class="edgeLabel"><g class="label" transform="translate(0, 0)"><foreignObject width="0" height="0"><div xmlns="http://www.w3.org/1999/xhtml" style="display: inline-block; white-space: nowrap;"><span class="edgeLabel"></span></div></foreignObject></g></g><g class="edgeLabel"><g class="label" transform="translate(0, 0)"><foreignObject width="0" height="0"><div xmlns="http://www.w3.org/1999/xhtml" style="display: inline-block; white-space: nowrap;"><span class="edgeLabel"></span></div></foreignObject></g></g><g class="edgeLabel"><g class="label" transform="translate(0, 0)"><foreignObject width="0" height="0"><div xmlns="http://www.w3.org/1999/xhtml" style="display: inline-block; white-space: nowrap;"><span class="edgeLabel"></span></div></foreignObject></g></g><g class="edgeLabel" transform="translate(2995.671875, 113.95703125)"><g class="label" transform="translate(-11.328125, -9.5)"><foreignObject width="22.65625" height="19"><div xmlns="http://www.w3.org/1999/xhtml" style="display: inline-block; white-space: nowrap;"><span class="edgeLabel">Yes</span></div></foreignObject></g></g><g class="edgeLabel" transform="translate(2995.671875, 207.45703125)"><g class="label" transform="translate(-9.3984375, -9.5)"><foreignObject width="18.796875" height="19"><div xmlns="http://www.w3.org/1999/xhtml" style="display: inline-block; white-space: nowrap;"><span class="edgeLabel">No</span></div></foreignObject></g></g><g class="edgeLabel"><g class="label" transform="translate(0, 0)"><foreignObject width="0" height="0"><div xmlns="http://www.w3.org/1999/xhtml" style="display: inline-block; white-space: nowrap;"><span class="edgeLabel"></span></div></foreignObject></g></g><g class="edgeLabel"><g class="label" transform="translate(0, 0)"><foreignObject width="0" height="0"><div xmlns="http://www.w3.org/1999/xhtml" style="display: inline-block; white-space: nowrap;"><span class="edgeLabel"></span></div></foreignObject></g></g><g class="edgeLabel"><g class="label" transform="translate(0, 0)"><foreignObject width="0" height="0"><div xmlns="http://www.w3.org/1999/xhtml" style="display: inline-block; white-space: nowrap;"><span class="edgeLabel"></span></div></foreignObject></g></g><g class="edgeLabel"><g class="label" transform="translate(0, 0)"><foreignObject width="0" height="0"><div xmlns="http://www.w3.org/1999/xhtml" style="display: inline-block; white-space: nowrap;"><span class="edgeLabel"></span></div></foreignObject></g></g></g><g class="nodes"><g class="node default default flowchart-label" id="flowchart-T0-0" data-node="true" data-id="T0" transform="translate(107.1875, 227.08984375)"><rect class="basic label-container" style="" rx="0" ry="0" x="-74.1875" y="-26.5" width="148.375" height="53"></rect><g class="label" style="" transform="translate(-66.6875, -19)"><rect></rect><foreignObject width="133.375" height="38"><div xmlns="http://www.w3.org/1999/xhtml" style="display: inline-block; white-space: nowrap;"><span class="nodeLabel">Time: T+0 minutes<br>Attacker Action</span></div></foreignObject></g></g><g class="node default default flowchart-label" id="flowchart-A1-2" data-node="true" data-id="A1" transform="translate(318.0546875, 227.08984375)"><rect class="basic label-container" style="" rx="0" ry="0" x="-86.6796875" y="-26.5" width="173.359375" height="53"></rect><g class="label" style="" transform="translate(-79.1796875, -19)"><rect></rect><foreignObject width="158.359375" height="38"><div xmlns="http://www.w3.org/1999/xhtml" style="display: inline-block; white-space: nowrap;"><span class="nodeLabel">Attacker modifies ACL<br>on privileged account</span></div></foreignObject></g></g><g class="node default default flowchart-label" id="flowchart-A2-4" data-node="true" data-id="A2" transform="translate(562.4921875, 227.08984375)"><rect class="basic label-container" style="" rx="0" ry="0" x="-107.7578125" y="-26.5" width="215.515625" height="53"></rect><g class="label" style="" transform="translate(-100.2578125, -19)"><rect></rect><foreignObject width="200.515625" height="38"><div xmlns="http://www.w3.org/1999/xhtml" style="display: inline-block; white-space: nowrap;"><span class="nodeLabel">Example: Add GenericAll<br>permission for low-priv user</span></div></foreignObject></g></g><g class="node default default flowchart-label" id="flowchart-T15-6" data-node="true" data-id="T15" transform="translate(798.6328125, 227.08984375)"><rect class="basic label-container" style="" rx="0" ry="0" x="-78.3828125" y="-26.5" width="156.765625" height="53"></rect><g class="label" style="" transform="translate(-70.8828125, -19)"><rect></rect><foreignObject width="141.765625" height="38"><div xmlns="http://www.w3.org/1999/xhtml" style="display: inline-block; white-space: nowrap;"><span class="nodeLabel">Time: T+15 minutes<br>Permissions Active</span></div></foreignObject></g></g><g class="node default default flowchart-label" id="flowchart-E1-8" data-node="true" data-id="E1" transform="translate(1010.171875, 227.08984375)"><rect class="basic label-container" style="" rx="0" ry="0" x="-83.15625" y="-26.5" width="166.3125" height="53"></rect><g class="label" style="" transform="translate(-75.65625, -19)"><rect></rect><foreignObject width="151.3125" height="38"><div xmlns="http://www.w3.org/1999/xhtml" style="display: inline-block; white-space: nowrap;"><span class="nodeLabel">Attacker exploits<br>modified permissions</span></div></foreignObject></g></g><g class="node default default flowchart-label" id="flowchart-E2-10" data-node="true" data-id="E2" transform="translate(1245.1015625, 227.08984375)"><rect class="basic label-container" style="" rx="0" ry="0" x="-101.7734375" y="-26.5" width="203.546875" height="53"></rect><g class="label" style="" transform="translate(-94.2734375, -19)"><rect></rect><foreignObject width="188.546875" height="38"><div xmlns="http://www.w3.org/1999/xhtml" style="display: inline-block; white-space: nowrap;"><span class="nodeLabel">Password reset or<br>group membership change</span></div></foreignObject></g></g><g class="node default default flowchart-label" id="flowchart-T60-12" data-node="true" data-id="T60" transform="translate(1480.7421875, 227.08984375)"><rect class="basic label-container" style="fill:#ff9999;" rx="0" ry="0" x="-83.8671875" y="-26.5" width="167.734375" height="53"></rect><g class="label" style="" transform="translate(-76.3671875, -19)"><rect></rect><foreignObject width="152.734375" height="38"><div xmlns="http://www.w3.org/1999/xhtml" style="display: inline-block; white-space: nowrap;"><span class="nodeLabel">Time: T+60 minutes<br>SDProp runs (default)</span></div></foreignObject></g></g><g class="node default default flowchart-label" id="flowchart-SDProp-14" data-node="true" data-id="SDProp" transform="translate(1730.0234375, 227.08984375)"><polygon points="115.4140625,0 230.828125,-115.4140625 115.4140625,-230.828125 0,-115.4140625" class="label-container" transform="translate(-115.4140625,115.4140625)" style=""></polygon><g class="label" style="" transform="translate(-90.9140625, -9.5)"><rect></rect><foreignObject width="181.828125" height="19"><div xmlns="http://www.w3.org/1999/xhtml" style="display: inline-block; white-space: nowrap;"><span class="nodeLabel">SDProp Process Execution</span></div></foreignObject></g></g><g class="node default default flowchart-label" id="flowchart-S1-16" data-node="true" data-id="S1" transform="translate(2016.328125, 160.70703125)"><rect class="basic label-container" style="" rx="0" ry="0" x="-120.890625" y="-17" width="241.78125" height="34"></rect><g class="label" style="" transform="translate(-113.390625, -9.5)"><rect></rect><foreignObject width="226.78125" height="19"><div xmlns="http://www.w3.org/1999/xhtml" style="display: inline-block; white-space: nowrap;"><span class="nodeLabel">1. Query AdminCount=1 objects</span></div></foreignObject></g></g><g class="node default default flowchart-label" id="flowchart-S2-18" data-node="true" data-id="S2" transform="translate(2328.9921875, 160.70703125)"><rect class="basic label-container" style="" rx="0" ry="0" x="-141.7734375" y="-17" width="283.546875" height="34"></rect><g class="label" style="" transform="translate(-134.2734375, -9.5)"><rect></rect><foreignObject width="268.546875" height="19"><div xmlns="http://www.w3.org/1999/xhtml" style="display: inline-block; white-space: nowrap;"><span class="nodeLabel">2. Read AdminSDHolder ACL template</span></div></foreignObject></g></g><g class="node default default flowchart-label" id="flowchart-S3-20" data-node="true" data-id="S3" transform="translate(2617.2890625, 160.70703125)"><rect class="basic label-container" style="" rx="0" ry="0" x="-96.5234375" y="-26.5" width="193.046875" height="53"></rect><g class="label" style="" transform="translate(-89.0234375, -19)"><rect></rect><foreignObject width="178.046875" height="38"><div xmlns="http://www.w3.org/1999/xhtml" style="display: inline-block; white-space: nowrap;"><span class="nodeLabel">3. Compare current ACLs<br>vs template</span></div></foreignObject></g></g><g class="node default default flowchart-label" id="flowchart-S4-22" data-node="true" data-id="S4" transform="translate(2861.578125, 160.70703125)"><polygon points="97.765625,0 195.53125,-97.765625 97.765625,-195.53125 0,-97.765625" class="label-container" transform="translate(-97.765625,97.765625)" style=""></polygon><g class="label" style="" transform="translate(-73.265625, -9.5)"><rect></rect><foreignObject width="146.53125" height="19"><div xmlns="http://www.w3.org/1999/xhtml" style="display: inline-block; white-space: nowrap;"><span class="nodeLabel">Modifications found?</span></div></foreignObject></g></g><g class="node default default flowchart-label" id="flowchart-S5-24" data-node="true" data-id="S5" transform="translate(3151.8515625, 113.95703125)"><rect class="basic label-container" style="fill:#ffcccc;" rx="0" ry="0" x="-119.8515625" y="-26.5" width="239.703125" height="53"></rect><g class="label" style="" transform="translate(-112.3515625, -19)"><rect></rect><foreignObject width="224.703125" height="38"><div xmlns="http://www.w3.org/1999/xhtml" style="display: inline-block; white-space: nowrap;"><span class="nodeLabel">5. Restore ACL from template<br>(removes attacker permissions)</span></div></foreignObject></g></g><g class="node default default flowchart-label" id="flowchart-S6-26" data-node="true" data-id="S6" transform="translate(3151.8515625, 207.45703125)"><rect class="basic label-container" style="" rx="0" ry="0" x="-70.375" y="-17" width="140.75" height="34"></rect><g class="label" style="" transform="translate(-62.875, -9.5)"><rect></rect><foreignObject width="125.75" height="19"><div xmlns="http://www.w3.org/1999/xhtml" style="display: inline-block; white-space: nowrap;"><span class="nodeLabel">No action needed</span></div></foreignObject></g></g><g class="node default default flowchart-label" id="flowchart-S7-28" data-node="true" data-id="S7" transform="translate(3447.4296875, 113.95703125)"><rect class="basic label-container" style="" rx="0" ry="0" x="-125.7265625" y="-17" width="251.453125" height="34"></rect><g class="label" style="" transform="translate(-118.2265625, -9.5)"><rect></rect><foreignObject width="236.453125" height="19"><div xmlns="http://www.w3.org/1999/xhtml" style="display: inline-block; white-space: nowrap;"><span class="nodeLabel">6. Set ACL inheritance: DISABLED</span></div></foreignObject></g></g><g class="node default default flowchart-label" id="flowchart-S8-30" data-node="true" data-id="S8" transform="translate(3705.4140625, 113.95703125)"><rect class="basic label-container" style="" rx="0" ry="0" x="-82.2578125" y="-26.5" width="164.515625" height="53"></rect><g class="label" style="" transform="translate(-74.7578125, -19)"><rect></rect><foreignObject width="149.515625" height="38"><div xmlns="http://www.w3.org/1999/xhtml" style="display: inline-block; white-space: nowrap;"><span class="nodeLabel">Event ID 4780 logged<br>ACL restored</span></div></foreignObject></g></g><g class="node default default flowchart-label" id="flowchart-T120-32" data-node="true" data-id="T120" transform="translate(3920.25, 227.08984375)"><rect class="basic label-container" style="" rx="0" ry="0" x="-82.578125" y="-26.5" width="165.15625" height="53"></rect><g class="label" style="" transform="translate(-75.078125, -19)"><rect></rect><foreignObject width="150.15625" height="38"><div xmlns="http://www.w3.org/1999/xhtml" style="display: inline-block; white-space: nowrap;"><span class="nodeLabel">Time: T+120 minutes<br>Next SDProp cycle</span></div></foreignObject></g></g></g></g></g></g></g></svg>