<svg id="mermaid-1772557703992" width="100%" xmlns="http://www.w3.org/2000/svg" xmlns:xlink="http://www.w3.org/1999/xlink" style="max-width: 1623.4765625px;" viewBox="-8 -8 1623.4765625 671" role="graphics-document document" aria-roledescription="flowchart-v2"><style>#mermaid-1772557703992{font-family:"trebuchet ms",verdana,arial,sans-serif;font-size:16px;fill:#000000;}#mermaid-1772557703992 .error-icon{fill:#552222;}#mermaid-1772557703992 .error-text{fill:#552222;stroke:#552222;}#mermaid-1772557703992 .edge-thickness-normal{stroke-width:2px;}#mermaid-1772557703992 .edge-thickness-thick{stroke-width:3.5px;}#mermaid-1772557703992 .edge-pattern-solid{stroke-dasharray:0;}#mermaid-1772557703992 .edge-pattern-dashed{stroke-dasharray:3;}#mermaid-1772557703992 .edge-pattern-dotted{stroke-dasharray:2;}#mermaid-1772557703992 .marker{fill:#666;stroke:#666;}#mermaid-1772557703992 .marker.cross{stroke:#666;}#mermaid-1772557703992 svg{font-family:"trebuchet ms",verdana,arial,sans-serif;font-size:16px;}#mermaid-1772557703992 .label{font-family:"trebuchet ms",verdana,arial,sans-serif;color:#000000;}#mermaid-1772557703992 .cluster-label text{fill:#333;}#mermaid-1772557703992 .cluster-label span,#mermaid-1772557703992 p{color:#333;}#mermaid-1772557703992 .label text,#mermaid-1772557703992 span,#mermaid-1772557703992 p{fill:#000000;color:#000000;}#mermaid-1772557703992 .node rect,#mermaid-1772557703992 .node circle,#mermaid-1772557703992 .node ellipse,#mermaid-1772557703992 .node polygon,#mermaid-1772557703992 .node path{fill:#eee;stroke:#999;stroke-width:1px;}#mermaid-1772557703992 .flowchart-label text{text-anchor:middle;}#mermaid-1772557703992 .node .katex path{fill:#000;stroke:#000;stroke-width:1px;}#mermaid-1772557703992 .node .label{text-align:center;}#mermaid-1772557703992 .node.clickable{cursor:pointer;}#mermaid-1772557703992 .arrowheadPath{fill:#333333;}#mermaid-1772557703992 .edgePath .path{stroke:#666;stroke-width:2.0px;}#mermaid-1772557703992 .flowchart-link{stroke:#666;fill:none;}#mermaid-1772557703992 .edgeLabel{background-color:white;text-align:center;}#mermaid-1772557703992 .edgeLabel rect{opacity:0.5;background-color:white;fill:white;}#mermaid-1772557703992 .labelBkg{background-color:rgba(255, 255, 255, 0.5);}#mermaid-1772557703992 .cluster rect{fill:hsl(0, 0%, 98.9215686275%);stroke:#707070;stroke-width:1px;}#mermaid-1772557703992 .cluster text{fill:#333;}#mermaid-1772557703992 .cluster span,#mermaid-1772557703992 p{color:#333;}#mermaid-1772557703992 div.mermaidTooltip{position:absolute;text-align:center;max-width:200px;padding:2px;font-family:"trebuchet ms",verdana,arial,sans-serif;font-size:12px;background:hsl(-160, 0%, 93.3333333333%);border:1px solid #707070;border-radius:2px;pointer-events:none;z-index:100;}#mermaid-1772557703992 .flowchartTitleText{text-anchor:middle;font-size:18px;fill:#000000;}#mermaid-1772557703992 :root{--mermaid-font-family:"trebuchet ms",verdana,arial,sans-serif;}</style><g><marker id="mermaid-1772557703992_flowchart-pointEnd" class="marker flowchart" viewBox="0 0 10 10" refX="6" refY="5" markerUnits="userSpaceOnUse" markerWidth="12" markerHeight="12" orient="auto"><path d="M 0 0 L 10 5 L 0 10 z" class="arrowMarkerPath" style="stroke-width: 1; stroke-dasharray: 1, 0;"></path></marker><marker id="mermaid-1772557703992_flowchart-pointStart" class="marker flowchart" viewBox="0 0 10 10" refX="4.5" refY="5" markerUnits="userSpaceOnUse" markerWidth="12" markerHeight="12" orient="auto"><path d="M 0 5 L 10 10 L 10 0 z" class="arrowMarkerPath" style="stroke-width: 1; stroke-dasharray: 1, 0;"></path></marker><marker id="mermaid-1772557703992_flowchart-circleEnd" class="marker flowchart" viewBox="0 0 10 10" refX="11" refY="5" markerUnits="userSpaceOnUse" markerWidth="11" markerHeight="11" orient="auto"><circle cx="5" cy="5" r="5" class="arrowMarkerPath" style="stroke-width: 1; stroke-dasharray: 1, 0;"></circle></marker><marker id="mermaid-1772557703992_flowchart-circleStart" class="marker flowchart" viewBox="0 0 10 10" refX="-1" refY="5" markerUnits="userSpaceOnUse" markerWidth="11" markerHeight="11" orient="auto"><circle cx="5" cy="5" r="5" class="arrowMarkerPath" style="stroke-width: 1; stroke-dasharray: 1, 0;"></circle></marker><marker id="mermaid-1772557703992_flowchart-crossEnd" class="marker cross flowchart" viewBox="0 0 11 11" refX="12" refY="5.2" markerUnits="userSpaceOnUse" markerWidth="11" markerHeight="11" orient="auto"><path d="M 1,1 l 9,9 M 10,1 l -9,9" class="arrowMarkerPath" style="stroke-width: 2; stroke-dasharray: 1, 0;"></path></marker><marker id="mermaid-1772557703992_flowchart-crossStart" class="marker cross flowchart" viewBox="0 0 11 11" refX="-1" refY="5.2" markerUnits="userSpaceOnUse" markerWidth="11" markerHeight="11" orient="auto"><path d="M 1,1 l 9,9 M 10,1 l -9,9" class="arrowMarkerPath" style="stroke-width: 2; stroke-dasharray: 1, 0;"></path></marker><g class="root"><g class="clusters"><g class="cluster default flowchart-label" id="subGraph5"><rect style="" rx="0" ry="0" x="0" y="188" width="243.921875" height="123"></rect><g class="cluster-label" transform="translate(73.671875, 188)"><foreignObject width="96.578125" height="19"><div xmlns="http://www.w3.org/1999/xhtml" style="display: inline-block; white-space: nowrap;"><span class="nodeLabel">Public IP Pool</span></div></foreignObject></g></g><g class="cluster default flowchart-label" id="subGraph4"><rect style="" rx="0" ry="0" x="1413.1796875" y="0" width="194.296875" height="150.75"></rect><g class="cluster-label" transform="translate(1413.1796875, 0)"><foreignObject width="194.296875" height="19"><div xmlns="http://www.w3.org/1999/xhtml" style="display: inline-block; white-space: nowrap;"><span class="nodeLabel">Outside Network (Internet)</span></div></foreignObject></g></g><g class="cluster default flowchart-label" id="subGraph3"><rect style="" rx="0" ry="0" x="436.140625" y="4.75" width="763.921875" height="650.25"></rect><g class="cluster-label" transform="translate(778.5, 4.75)"><foreignObject width="79.203125" height="19"><div xmlns="http://www.w3.org/1999/xhtml" style="display: inline-block; white-space: nowrap;"><span class="nodeLabel">NAT Router</span></div></foreignObject></g></g><g class="cluster default flowchart-label" id="subGraph0"><rect style="" rx="0" ry="0" x="1419.1875" y="170.75" width="182.28125" height="394.75"></rect><g class="cluster-label" transform="translate(1423.53125, 170.75)"><foreignObject width="173.59375" height="19"><div xmlns="http://www.w3.org/1999/xhtml" style="display: inline-block; white-space: nowrap;"><span class="nodeLabel">Inside Network (Private)</span></div></foreignObject></g></g></g><g class="edgePaths"><path d="M1454.734,265.292L1448.81,266.868C1442.885,268.445,1431.036,271.597,1406.852,273.174C1382.667,274.75,1346.146,274.75,1309.625,274.75C1273.104,274.75,1236.583,274.75,1165.991,271.291C1095.398,267.831,990.734,260.912,938.402,257.453L886.07,253.993" id="L-H1-NATFunc-0" class=" edge-thickness-normal edge-pattern-solid flowchart-link LS-H1 LE-NATFunc" style="fill:none;" marker-end="url(#mermaid-1772557703992_flowchart-pointEnd)"></path><path d="M1454.734,394.917L1448.81,397.306C1442.885,399.694,1431.036,404.472,1406.852,406.861C1382.667,409.25,1346.146,409.25,1309.625,409.25C1273.104,409.25,1236.583,409.25,1165.924,387.335C1095.265,365.42,990.468,321.59,938.069,299.675L885.671,277.76" id="L-H2-NATFunc-0" class=" edge-thickness-normal edge-pattern-solid flowchart-link LS-H2 LE-NATFunc" style="fill:none;" marker-end="url(#mermaid-1772557703992_flowchart-pointEnd)"></path><path d="M1454.734,509.292L1448.81,510.868C1442.885,512.445,1431.036,515.597,1406.852,517.174C1382.667,518.75,1346.146,518.75,1309.625,518.75C1273.104,518.75,1236.583,518.75,1161.65,478.801C1086.717,438.851,973.372,358.952,916.699,319.003L860.027,279.054" id="L-H3-NATFunc-0" class=" edge-thickness-normal edge-pattern-solid flowchart-link LS-H3 LE-NATFunc" style="fill:none;" marker-end="url(#mermaid-1772557703992_flowchart-pointEnd)"></path><path d="M870.277,223L925.241,195.083C980.205,167.167,1090.134,111.333,1163.359,83.417C1236.583,55.5,1273.104,55.5,1309.625,55.5C1346.146,55.5,1382.667,55.5,1404.24,56.382C1425.814,57.263,1432.44,59.026,1435.753,59.908L1439.066,60.789" id="L-NATFunc-Server-0" class=" edge-thickness-normal edge-pattern-solid flowchart-link LS-NATFunc LE-Server" style="fill:none;" marker-end="url(#mermaid-1772557703992_flowchart-pointEnd)"></path><path d="M218.922,249.5L223.089,249.5C227.255,249.5,235.589,249.5,255.773,249.5C275.958,249.5,307.995,249.5,340.031,249.5C372.068,249.5,404.104,249.5,472.453,249.5C540.801,249.5,645.461,249.5,697.792,249.5L750.122,249.5" id="L-Pool-NATFunc-0" class=" edge-thickness-normal edge-pattern-dotted flowchart-link LS-Pool LE-NATFunc" style="fill:none;stroke-width:2px;stroke-dasharray:3;" marker-end="url(#mermaid-1772557703992_flowchart-pointEnd)"></path><path d="M1444.188,98.255L1440.021,99.421C1435.854,100.587,1427.521,102.918,1405.094,104.084C1382.667,105.25,1346.146,105.25,1309.625,105.25C1273.104,105.25,1236.583,105.25,1165.936,125.034C1095.288,144.819,990.514,184.387,938.127,204.172L885.739,223.956" id="L-Server-NATFunc-0" class=" edge-thickness-normal edge-pattern-solid flowchart-link LS-Server LE-NATFunc" style="fill:none;" marker-end="url(#mermaid-1772557703992_flowchart-pointEnd)"></path><path d="M880.781,245.685L933.995,242.446C987.208,239.206,1093.635,232.728,1165.109,229.489C1236.583,226.25,1273.104,226.25,1309.625,226.25C1346.146,226.25,1382.667,226.25,1405.998,227.599C1429.329,228.948,1439.471,231.647,1444.542,232.996L1449.613,234.345" id="L-NATFunc-H1-0" class=" edge-thickness-normal edge-pattern-solid flowchart-link LS-NATFunc LE-H1" style="fill:none;" marker-end="url(#mermaid-1772557703992_flowchart-pointEnd)"></path><path d="M880.781,263.654L933.995,275.67C987.208,287.686,1093.635,311.718,1165.109,323.734C1236.583,335.75,1273.104,335.75,1309.625,335.75C1346.146,335.75,1382.667,335.75,1406.032,337.809C1429.398,339.867,1439.608,343.984,1444.714,346.043L1449.819,348.101" id="L-NATFunc-H2-0" class=" edge-thickness-normal edge-pattern-solid flowchart-link LS-NATFunc LE-H2" style="fill:none;" marker-end="url(#mermaid-1772557703992_flowchart-pointEnd)"></path><path d="M866.706,276L922.266,306.292C977.825,336.583,1088.944,397.167,1162.764,427.458C1236.583,457.75,1273.104,457.75,1309.625,457.75C1346.146,457.75,1382.667,457.75,1406.032,459.809C1429.398,461.867,1439.608,465.984,1444.714,468.043L1449.819,470.101" id="L-NATFunc-H3-0" class=" edge-thickness-normal edge-pattern-solid flowchart-link LS-NATFunc LE-H3" style="fill:none;" marker-end="url(#mermaid-1772557703992_flowchart-pointEnd)"></path></g><g class="edgeLabels"><g class="edgeLabel" transform="translate(1309.625, 274.75)"><g class="label" transform="translate(-37.46875, -9.5)"><foreignObject width="74.9375" height="19"><div xmlns="http://www.w3.org/1999/xhtml" style="display: inline-block; white-space: nowrap;"><span class="edgeLabel">Private IPs</span></div></foreignObject></g></g><g class="edgeLabel" transform="translate(1309.625, 409.25)"><g class="label" transform="translate(-37.46875, -9.5)"><foreignObject width="74.9375" height="19"><div xmlns="http://www.w3.org/1999/xhtml" style="display: inline-block; white-space: nowrap;"><span class="edgeLabel">Private IPs</span></div></foreignObject></g></g><g class="edgeLabel" transform="translate(1309.625, 518.75)"><g class="label" transform="translate(-37.46875, -9.5)"><foreignObject width="74.9375" height="19"><div xmlns="http://www.w3.org/1999/xhtml" style="display: inline-block; white-space: nowrap;"><span class="edgeLabel">Private IPs</span></div></foreignObject></g></g><g class="edgeLabel" transform="translate(1309.625, 55.5)"><g class="label" transform="translate(-34.2265625, -9.5)"><foreignObject width="68.453125" height="19"><div xmlns="http://www.w3.org/1999/xhtml" style="display: inline-block; white-space: nowrap;"><span class="edgeLabel">Public IPs</span></div></foreignObject></g></g><g class="edgeLabel" transform="translate(340.03125, 249.5)"><g class="label" transform="translate(-71.109375, -9.5)"><foreignObject width="142.21875" height="19"><div xmlns="http://www.w3.org/1999/xhtml" style="display: inline-block; white-space: nowrap;"><span class="edgeLabel">Allocated from pool</span></div></foreignObject></g></g><g class="edgeLabel" transform="translate(1309.625, 105.25)"><g class="label" transform="translate(-84.5625, -19)"><foreignObject width="169.125" height="38"><div xmlns="http://www.w3.org/1999/xhtml" style="display: inline-block; white-space: nowrap;"><span class="edgeLabel">Return Traffic<br>Uses translated address</span></div></foreignObject></g></g><g class="edgeLabel" transform="translate(1309.625, 226.25)"><g class="label" transform="translate(-48.859375, -19)"><foreignObject width="97.71875" height="38"><div xmlns="http://www.w3.org/1999/xhtml" style="display: inline-block; white-space: nowrap;"><span class="edgeLabel">De-translated<br>to private IP</span></div></foreignObject></g></g><g class="edgeLabel" transform="translate(1309.625, 335.75)"><g class="label" transform="translate(-48.859375, -19)"><foreignObject width="97.71875" height="38"><div xmlns="http://www.w3.org/1999/xhtml" style="display: inline-block; white-space: nowrap;"><span class="edgeLabel">De-translated<br>to private IP</span></div></foreignObject></g></g><g class="edgeLabel" transform="translate(1309.625, 457.75)"><g class="label" transform="translate(-48.859375, -19)"><foreignObject width="97.71875" height="38"><div xmlns="http://www.w3.org/1999/xhtml" style="display: inline-block; white-space: nowrap;"><span class="edgeLabel">De-translated<br>to private IP</span></div></foreignObject></g></g></g><g class="nodes"><g class="node default default flowchart-label" id="flowchart-Pool-9" data-node="true" data-id="Pool" transform="translate(121.9609375, 249.5)"><rect class="basic label-container" style="fill:#e8f5e9;" rx="0" ry="0" x="-96.9609375" y="-26.5" width="193.921875" height="53"></rect><g class="label" style="" transform="translate(-89.4609375, -19)"><rect></rect><foreignObject width="178.921875" height="38"><div xmlns="http://www.w3.org/1999/xhtml" style="display: inline-block; white-space: nowrap;"><span class="nodeLabel">200.1.1.1 - 200.1.1.5<br>(Inside Global Addresses)</span></div></foreignObject></g></g><g class="node default default flowchart-label" id="flowchart-Server-8" data-node="true" data-id="Server" transform="translate(1510.328125, 79.75)"><rect class="basic label-container" style="fill:#f3e5f5;" rx="0" ry="0" x="-66.140625" y="-36" width="132.28125" height="72"></rect><g class="label" style="" transform="translate(-58.640625, -28.5)"><rect></rect><foreignObject width="117.28125" height="57"><div xmlns="http://www.w3.org/1999/xhtml" style="display: inline-block; white-space: nowrap;"><span class="nodeLabel">Internet Server<br>8.8.8.8<br>(Outside Global)</span></div></foreignObject></g></g><g class="node default default flowchart-label" id="flowchart-NATFunc-3" data-node="true" data-id="NATFunc" transform="translate(818.1015625, 249.5)"><rect class="basic label-container" style="fill:#fff4e6;" rx="0" ry="0" x="-62.6796875" y="-26.5" width="125.359375" height="53"></rect><g class="label" style="" transform="translate(-55.1796875, -19)"><rect></rect><foreignObject width="110.359375" height="38"><div xmlns="http://www.w3.org/1999/xhtml" style="display: inline-block; white-space: nowrap;"><span class="nodeLabel">NAT Translation<br>Process</span></div></foreignObject></g></g><g class="root" transform="translate(453.640625, 318)"><g class="clusters"><g class="cluster default flowchart-label" id="subGraph1"><rect style="" rx="0" ry="0" x="8" y="8" width="713.921875" height="103"></rect><g class="cluster-label" transform="translate(303.6015625, 8)"><foreignObject width="122.71875" height="19"><div xmlns="http://www.w3.org/1999/xhtml" style="display: inline-block; white-space: nowrap;"><span class="nodeLabel">Translation Types</span></div></foreignObject></g></g></g><g class="edgePaths"></g><g class="edgeLabels"></g><g class="nodes"><g class="node default default flowchart-label" id="flowchart-StaticNAT-4" data-node="true" data-id="StaticNAT" transform="translate(134.7890625, 59.5)"><rect class="basic label-container" style="fill:#ffebee;" rx="0" ry="0" x="-91.7890625" y="-26.5" width="183.578125" height="53"></rect><g class="label" style="" transform="translate(-84.2890625, -19)"><rect></rect><foreignObject width="168.578125" height="38"><div xmlns="http://www.w3.org/1999/xhtml" style="display: inline-block; white-space: nowrap;"><span class="nodeLabel">Static NAT<br>Permanent 1:1 Mapping</span></div></foreignObject></g></g><g class="node default default flowchart-label" id="flowchart-DynamicNAT-5" data-node="true" data-id="DynamicNAT" transform="translate(368.375, 59.5)"><rect class="basic label-container" style="fill:#e3f2fd;" rx="0" ry="0" x="-91.796875" y="-26.5" width="183.59375" height="53"></rect><g class="label" style="" transform="translate(-84.296875, -19)"><rect></rect><foreignObject width="168.59375" height="38"><div xmlns="http://www.w3.org/1999/xhtml" style="display: inline-block; white-space: nowrap;"><span class="nodeLabel">Dynamic NAT<br>Pool-based 1:1 Mapping</span></div></foreignObject></g></g><g class="node default default flowchart-label" id="flowchart-PAT-6" data-node="true" data-id="PAT" transform="translate(598.546875, 59.5)"><rect class="basic label-container" style="fill:#f1f8e9;" rx="0" ry="0" x="-88.375" y="-26.5" width="176.75" height="53"></rect><g class="label" style="" transform="translate(-80.875, -19)"><rect></rect><foreignObject width="161.75" height="38"><div xmlns="http://www.w3.org/1999/xhtml" style="display: inline-block; white-space: nowrap;"><span class="nodeLabel">PAT/Overload<br>Many:1 + Port Mapping</span></div></foreignObject></g></g></g></g><g class="root" transform="translate(614.84375, 471)"><g class="clusters"><g class="cluster default flowchart-label" id="subGraph2"><rect style="" rx="0" ry="0" x="8" y="8" width="391.515625" height="141"></rect><g class="cluster-label" transform="translate(136.1875, 8)"><foreignObject width="135.140625" height="19"><div xmlns="http://www.w3.org/1999/xhtml" style="display: inline-block; white-space: nowrap;"><span class="nodeLabel">NAT Table Example</span></div></foreignObject></g></g></g><g class="edgePaths"></g><g class="edgeLabels"></g><g class="nodes"><g class="node default default flowchart-label" id="flowchart-Table-7" data-node="true" data-id="Table" transform="translate(203.7578125, 78.5)"><rect class="basic label-container" style="fill:#fff9c4;" rx="0" ry="0" x="-160.7578125" y="-45.5" width="321.515625" height="91"></rect><g class="label" style="" transform="translate(-153.2578125, -38)"><rect></rect><foreignObject width="306.515625" height="76"><div xmlns="http://www.w3.org/1999/xhtml" style="display: inline-block; white-space: nowrap;"><span class="nodeLabel">Inside Local → Inside Global<br>192.168.1.10 ↔ 200.1.1.1 (Static)<br>192.168.1.20:5001 ↔ 200.1.1.2:5001 (PAT)<br>192.168.1.30:5002 ↔ 200.1.1.2:5002 (PAT)</span></div></foreignObject></g></g></g></g><g class="node default default flowchart-label" id="flowchart-H1-0" data-node="true" data-id="H1" transform="translate(1510.328125, 250.5)"><rect class="basic label-container" style="fill:#e1f5ff;" rx="0" ry="0" x="-55.59375" y="-36" width="111.1875" height="72"></rect><g class="label" style="" transform="translate(-48.09375, -28.5)"><rect></rect><foreignObject width="96.1875" height="57"><div xmlns="http://www.w3.org/1999/xhtml" style="display: inline-block; white-space: nowrap;"><span class="nodeLabel">Host A<br>192.168.1.10<br>(Inside Local)</span></div></foreignObject></g></g><g class="node default default flowchart-label" id="flowchart-H2-1" data-node="true" data-id="H2" transform="translate(1510.328125, 372.5)"><rect class="basic label-container" style="fill:#e1f5ff;" rx="0" ry="0" x="-55.59375" y="-36" width="111.1875" height="72"></rect><g class="label" style="" transform="translate(-48.09375, -28.5)"><rect></rect><foreignObject width="96.1875" height="57"><div xmlns="http://www.w3.org/1999/xhtml" style="display: inline-block; white-space: nowrap;"><span class="nodeLabel">Host B<br>192.168.1.20<br>(Inside Local)</span></div></foreignObject></g></g><g class="node default default flowchart-label" id="flowchart-H3-2" data-node="true" data-id="H3" transform="translate(1510.328125, 494.5)"><rect class="basic label-container" style="fill:#e1f5ff;" rx="0" ry="0" x="-55.59375" y="-36" width="111.1875" height="72"></rect><g class="label" style="" transform="translate(-48.09375, -28.5)"><rect></rect><foreignObject width="96.1875" height="57"><div xmlns="http://www.w3.org/1999/xhtml" style="display: inline-block; white-space: nowrap;"><span class="nodeLabel">Host C<br>192.168.1.30<br>(Inside Local)</span></div></foreignObject></g></g></g></g></g></svg>