<svg id="mermaid-1772557704577" width="100%" xmlns="http://www.w3.org/2000/svg" xmlns:xlink="http://www.w3.org/1999/xlink" style="max-width: 757.04296875px;" viewBox="-8 -8 757.04296875 1278.9375" role="graphics-document document" aria-roledescription="flowchart-v2"><style>#mermaid-1772557704577{font-family:"trebuchet ms",verdana,arial,sans-serif;font-size:16px;fill:#000000;}#mermaid-1772557704577 .error-icon{fill:#552222;}#mermaid-1772557704577 .error-text{fill:#552222;stroke:#552222;}#mermaid-1772557704577 .edge-thickness-normal{stroke-width:2px;}#mermaid-1772557704577 .edge-thickness-thick{stroke-width:3.5px;}#mermaid-1772557704577 .edge-pattern-solid{stroke-dasharray:0;}#mermaid-1772557704577 .edge-pattern-dashed{stroke-dasharray:3;}#mermaid-1772557704577 .edge-pattern-dotted{stroke-dasharray:2;}#mermaid-1772557704577 .marker{fill:#666;stroke:#666;}#mermaid-1772557704577 .marker.cross{stroke:#666;}#mermaid-1772557704577 svg{font-family:"trebuchet ms",verdana,arial,sans-serif;font-size:16px;}#mermaid-1772557704577 .label{font-family:"trebuchet ms",verdana,arial,sans-serif;color:#000000;}#mermaid-1772557704577 .cluster-label text{fill:#333;}#mermaid-1772557704577 .cluster-label span,#mermaid-1772557704577 p{color:#333;}#mermaid-1772557704577 .label text,#mermaid-1772557704577 span,#mermaid-1772557704577 p{fill:#000000;color:#000000;}#mermaid-1772557704577 .node rect,#mermaid-1772557704577 .node circle,#mermaid-1772557704577 .node ellipse,#mermaid-1772557704577 .node polygon,#mermaid-1772557704577 .node path{fill:#eee;stroke:#999;stroke-width:1px;}#mermaid-1772557704577 .flowchart-label text{text-anchor:middle;}#mermaid-1772557704577 .node .katex path{fill:#000;stroke:#000;stroke-width:1px;}#mermaid-1772557704577 .node .label{text-align:center;}#mermaid-1772557704577 .node.clickable{cursor:pointer;}#mermaid-1772557704577 .arrowheadPath{fill:#333333;}#mermaid-1772557704577 .edgePath .path{stroke:#666;stroke-width:2.0px;}#mermaid-1772557704577 .flowchart-link{stroke:#666;fill:none;}#mermaid-1772557704577 .edgeLabel{background-color:white;text-align:center;}#mermaid-1772557704577 .edgeLabel rect{opacity:0.5;background-color:white;fill:white;}#mermaid-1772557704577 .labelBkg{background-color:rgba(255, 255, 255, 0.5);}#mermaid-1772557704577 .cluster rect{fill:hsl(0, 0%, 98.9215686275%);stroke:#707070;stroke-width:1px;}#mermaid-1772557704577 .cluster text{fill:#333;}#mermaid-1772557704577 .cluster span,#mermaid-1772557704577 p{color:#333;}#mermaid-1772557704577 div.mermaidTooltip{position:absolute;text-align:center;max-width:200px;padding:2px;font-family:"trebuchet ms",verdana,arial,sans-serif;font-size:12px;background:hsl(-160, 0%, 93.3333333333%);border:1px solid #707070;border-radius:2px;pointer-events:none;z-index:100;}#mermaid-1772557704577 .flowchartTitleText{text-anchor:middle;font-size:18px;fill:#000000;}#mermaid-1772557704577 :root{--mermaid-font-family:"trebuchet ms",verdana,arial,sans-serif;}</style><g><marker id="mermaid-1772557704577_flowchart-pointEnd" class="marker flowchart" viewBox="0 0 10 10" refX="6" refY="5" markerUnits="userSpaceOnUse" markerWidth="12" markerHeight="12" orient="auto"><path d="M 0 0 L 10 5 L 0 10 z" class="arrowMarkerPath" style="stroke-width: 1; stroke-dasharray: 1, 0;"></path></marker><marker id="mermaid-1772557704577_flowchart-pointStart" class="marker flowchart" viewBox="0 0 10 10" refX="4.5" refY="5" markerUnits="userSpaceOnUse" markerWidth="12" markerHeight="12" orient="auto"><path d="M 0 5 L 10 10 L 10 0 z" class="arrowMarkerPath" style="stroke-width: 1; stroke-dasharray: 1, 0;"></path></marker><marker id="mermaid-1772557704577_flowchart-circleEnd" class="marker flowchart" viewBox="0 0 10 10" refX="11" refY="5" markerUnits="userSpaceOnUse" markerWidth="11" markerHeight="11" orient="auto"><circle cx="5" cy="5" r="5" class="arrowMarkerPath" style="stroke-width: 1; stroke-dasharray: 1, 0;"></circle></marker><marker id="mermaid-1772557704577_flowchart-circleStart" class="marker flowchart" viewBox="0 0 10 10" refX="-1" refY="5" markerUnits="userSpaceOnUse" markerWidth="11" markerHeight="11" orient="auto"><circle cx="5" cy="5" r="5" class="arrowMarkerPath" style="stroke-width: 1; stroke-dasharray: 1, 0;"></circle></marker><marker id="mermaid-1772557704577_flowchart-crossEnd" class="marker cross flowchart" viewBox="0 0 11 11" refX="12" refY="5.2" markerUnits="userSpaceOnUse" markerWidth="11" markerHeight="11" orient="auto"><path d="M 1,1 l 9,9 M 10,1 l -9,9" class="arrowMarkerPath" style="stroke-width: 2; stroke-dasharray: 1, 0;"></path></marker><marker id="mermaid-1772557704577_flowchart-crossStart" class="marker cross flowchart" viewBox="0 0 11 11" refX="-1" refY="5.2" markerUnits="userSpaceOnUse" markerWidth="11" markerHeight="11" orient="auto"><path d="M 1,1 l 9,9 M 10,1 l -9,9" class="arrowMarkerPath" style="stroke-width: 2; stroke-dasharray: 1, 0;"></path></marker><g class="root"><g class="clusters"></g><g class="edgePaths"><path d="M150.477,34L150.477,38.167C150.477,42.333,150.477,50.667,150.477,58.117C150.477,65.567,150.477,72.133,150.477,75.417L150.477,78.7" id="L-Start-ID-0" class=" edge-thickness-normal edge-pattern-solid flowchart-link LS-Start LE-ID" style="fill:none;" marker-end="url(#mermaid-1772557704577_flowchart-pointEnd)"></path><path d="M150.477,137L150.477,141.167C150.477,145.333,150.477,153.667,150.477,161.117C150.477,168.567,150.477,175.133,150.477,178.417L150.477,181.7" id="L-ID-Auth-0" class=" edge-thickness-normal edge-pattern-solid flowchart-link LS-ID LE-Auth" style="fill:none;" marker-end="url(#mermaid-1772557704577_flowchart-pointEnd)"></path><path d="M116.72,240L111.413,244.167C106.105,248.333,95.49,256.667,90.249,264.2C85.007,271.734,85.139,278.467,85.205,281.834L85.271,285.201" id="L-Auth-VerifyFactor-0" class=" edge-thickness-normal edge-pattern-solid flowchart-link LS-Auth LE-VerifyFactor" style="fill:none;" marker-end="url(#mermaid-1772557704577_flowchart-pointEnd)"></path><path d="M85.375,439.906L85.292,445.573C85.208,451.24,85.042,462.573,84.958,474.69C84.875,486.806,84.875,499.706,84.875,506.156L84.875,512.606" id="L-VerifyFactor-Fail-0" class=" edge-thickness-normal edge-pattern-solid flowchart-link LS-VerifyFactor LE-Fail" style="fill:none;" marker-end="url(#mermaid-1772557704577_flowchart-pointEnd)"></path><path d="M84.875,551.906L84.875,557.656C84.875,563.406,84.875,574.906,84.875,594.576C84.875,614.246,84.875,642.086,84.875,656.007L84.875,669.927" id="L-Fail-Log1-0" class=" edge-thickness-normal edge-pattern-solid flowchart-link LS-Fail LE-Log1" style="fill:none;" marker-end="url(#mermaid-1772557704577_flowchart-pointEnd)"></path><path d="M84.875,709.227L84.875,725.613C84.875,742,84.875,774.773,91.083,800.578C97.292,826.383,109.709,845.22,115.917,854.638L122.125,864.056" id="L-Log1-Retry-0" class=" edge-thickness-normal edge-pattern-solid flowchart-link LS-Log1 LE-Retry" style="fill:none;" marker-end="url(#mermaid-1772557704577_flowchart-pointEnd)"></path><path d="M176.911,868.481L183.439,858.325C189.967,848.17,203.022,827.858,209.55,798.483C216.078,769.107,216.078,730.667,216.078,693.81C216.078,656.953,216.078,621.68,216.078,595.46C216.078,569.24,216.078,552.073,216.078,533.323C216.078,514.573,216.078,494.24,216.078,465.872C216.078,437.505,216.078,401.104,216.078,366.286C216.078,331.469,216.078,298.234,211.465,277.996C206.853,257.758,197.627,250.515,193.014,246.894L188.402,243.273" id="L-Retry-Auth-0" class=" edge-thickness-normal edge-pattern-solid flowchart-link LS-Retry LE-Auth" style="fill:none;" marker-end="url(#mermaid-1772557704577_flowchart-pointEnd)"></path><path d="M150.977,973.438L150.893,979.104C150.81,984.771,150.643,996.104,150.56,1008.221C150.477,1020.338,150.477,1033.238,150.477,1039.688L150.477,1046.138" id="L-Retry-Block-0" class=" edge-thickness-normal edge-pattern-solid flowchart-link LS-Retry LE-Block" style="fill:none;" marker-end="url(#mermaid-1772557704577_flowchart-pointEnd)"></path><path d="M150.477,1085.438L150.477,1091.188C150.477,1096.938,150.477,1108.438,161.728,1118.066C172.98,1127.695,195.484,1135.453,206.736,1139.331L217.987,1143.21" id="L-Block-End-0" class=" edge-thickness-normal edge-pattern-solid flowchart-link LS-Block LE-End" style="fill:none;" marker-end="url(#mermaid-1772557704577_flowchart-pointEnd)"></path><path d="M145.471,379.81L210.255,395.493C275.038,411.175,404.605,442.541,469.388,463.09C534.172,483.64,534.172,493.373,534.172,498.24L534.172,503.106" id="L-VerifyFactor-Authz-0" class=" edge-thickness-normal edge-pattern-solid flowchart-link LS-VerifyFactor LE-Authz" style="fill:none;" marker-end="url(#mermaid-1772557704577_flowchart-pointEnd)"></path><path d="M534.172,561.406L534.172,565.573C534.172,569.74,534.172,578.073,534.238,585.606C534.304,593.14,534.436,599.874,534.502,603.24L534.568,606.607" id="L-Authz-PermCheck-0" class=" edge-thickness-normal edge-pattern-solid flowchart-link LS-Authz LE-PermCheck" style="fill:none;" marker-end="url(#mermaid-1772557704577_flowchart-pointEnd)"></path><path d="M493.773,732.648L480.815,745.131C467.858,757.614,441.943,782.581,428.985,808.005C416.027,833.429,416.027,859.31,416.027,872.251L416.027,885.192" id="L-PermCheck-Deny-0" class=" edge-thickness-normal edge-pattern-solid flowchart-link LS-PermCheck LE-Deny" style="fill:none;" marker-end="url(#mermaid-1772557704577_flowchart-pointEnd)"></path><path d="M416.027,924.492L416.027,938.316C416.027,952.141,416.027,979.789,416.027,1000.063C416.027,1020.338,416.027,1033.238,416.027,1039.688L416.027,1046.138" id="L-Deny-Log2-0" class=" edge-thickness-normal edge-pattern-solid flowchart-link LS-Deny LE-Log2" style="fill:none;" marker-end="url(#mermaid-1772557704577_flowchart-pointEnd)"></path><path d="M416.027,1085.438L416.027,1091.188C416.027,1096.938,416.027,1108.438,402.618,1118.106C389.208,1127.775,362.389,1135.613,348.98,1139.532L335.57,1143.451" id="L-Log2-End-0" class=" edge-thickness-normal edge-pattern-solid flowchart-link LS-Log2 LE-End" style="fill:none;" marker-end="url(#mermaid-1772557704577_flowchart-pointEnd)"></path><path d="M575.571,732.648L588.362,745.131C601.153,757.614,626.735,782.581,639.525,808.005C652.316,833.429,652.316,859.31,652.316,872.251L652.316,885.192" id="L-PermCheck-Grant-0" class=" edge-thickness-normal edge-pattern-solid flowchart-link LS-PermCheck LE-Grant" style="fill:none;" marker-end="url(#mermaid-1772557704577_flowchart-pointEnd)"></path><path d="M652.316,924.492L652.316,938.316C652.316,952.141,652.316,979.789,652.316,998.48C652.316,1017.171,652.316,1026.904,652.316,1031.771L652.316,1036.638" id="L-Grant-Acct-0" class=" edge-thickness-normal edge-pattern-solid flowchart-link LS-Grant LE-Acct" style="fill:none;" marker-end="url(#mermaid-1772557704577_flowchart-pointEnd)"></path><path d="M652.316,1094.938L652.316,1099.104C652.316,1103.271,652.316,1111.604,652.316,1119.054C652.316,1126.504,652.316,1133.071,652.316,1136.354L652.316,1139.638" id="L-Acct-Monitor-0" class=" edge-thickness-normal edge-pattern-solid flowchart-link LS-Acct LE-Monitor" style="fill:none;" marker-end="url(#mermaid-1772557704577_flowchart-pointEnd)"></path><path d="M652.316,1178.938L652.316,1183.104C652.316,1187.271,652.316,1195.604,652.316,1203.054C652.316,1210.504,652.316,1217.071,652.316,1220.354L652.316,1223.638" id="L-Monitor-Success-0" class=" edge-thickness-normal edge-pattern-solid flowchart-link LS-Monitor LE-Success" style="fill:none;" marker-end="url(#mermaid-1772557704577_flowchart-pointEnd)"></path></g><g class="edgeLabels"><g class="edgeLabel"><g class="label" transform="translate(0, 0)"><foreignObject width="0" height="0"><div xmlns="http://www.w3.org/1999/xhtml" style="display: inline-block; white-space: nowrap;"><span class="edgeLabel"></span></div></foreignObject></g></g><g class="edgeLabel"><g class="label" transform="translate(0, 0)"><foreignObject width="0" height="0"><div xmlns="http://www.w3.org/1999/xhtml" style="display: inline-block; white-space: nowrap;"><span class="edgeLabel"></span></div></foreignObject></g></g><g class="edgeLabel"><g class="label" transform="translate(0, 0)"><foreignObject width="0" height="0"><div xmlns="http://www.w3.org/1999/xhtml" style="display: inline-block; white-space: nowrap;"><span class="edgeLabel"></span></div></foreignObject></g></g><g class="edgeLabel" transform="translate(84.875, 473.90625)"><g class="label" transform="translate(-23.8203125, -9.5)"><foreignObject width="47.640625" height="19"><div xmlns="http://www.w3.org/1999/xhtml" style="display: inline-block; white-space: nowrap;"><span class="edgeLabel">Invalid</span></div></foreignObject></g></g><g class="edgeLabel"><g class="label" transform="translate(0, 0)"><foreignObject width="0" height="0"><div xmlns="http://www.w3.org/1999/xhtml" style="display: inline-block; white-space: nowrap;"><span class="edgeLabel"></span></div></foreignObject></g></g><g class="edgeLabel"><g class="label" transform="translate(0, 0)"><foreignObject width="0" height="0"><div xmlns="http://www.w3.org/1999/xhtml" style="display: inline-block; white-space: nowrap;"><span class="edgeLabel"></span></div></foreignObject></g></g><g class="edgeLabel" transform="translate(216.078125, 534.90625)"><g class="label" transform="translate(-11.328125, -9.5)"><foreignObject width="22.65625" height="19"><div xmlns="http://www.w3.org/1999/xhtml" style="display: inline-block; white-space: nowrap;"><span class="edgeLabel">Yes</span></div></foreignObject></g></g><g class="edgeLabel" transform="translate(150.4765625, 1007.4375)"><g class="label" transform="translate(-9.3984375, -9.5)"><foreignObject width="18.796875" height="19"><div xmlns="http://www.w3.org/1999/xhtml" style="display: inline-block; white-space: nowrap;"><span class="edgeLabel">No</span></div></foreignObject></g></g><g class="edgeLabel"><g class="label" transform="translate(0, 0)"><foreignObject width="0" height="0"><div xmlns="http://www.w3.org/1999/xhtml" style="display: inline-block; white-space: nowrap;"><span class="edgeLabel"></span></div></foreignObject></g></g><g class="edgeLabel" transform="translate(534.171875, 473.90625)"><g class="label" transform="translate(-17.375, -9.5)"><foreignObject width="34.75" height="19"><div xmlns="http://www.w3.org/1999/xhtml" style="display: inline-block; white-space: nowrap;"><span class="edgeLabel">Valid</span></div></foreignObject></g></g><g class="edgeLabel"><g class="label" transform="translate(0, 0)"><foreignObject width="0" height="0"><div xmlns="http://www.w3.org/1999/xhtml" style="display: inline-block; white-space: nowrap;"><span class="edgeLabel"></span></div></foreignObject></g></g><g class="edgeLabel" transform="translate(416.02734375, 807.546875)"><g class="label" transform="translate(-9.3984375, -9.5)"><foreignObject width="18.796875" height="19"><div xmlns="http://www.w3.org/1999/xhtml" style="display: inline-block; white-space: nowrap;"><span class="edgeLabel">No</span></div></foreignObject></g></g><g class="edgeLabel"><g class="label" transform="translate(0, 0)"><foreignObject width="0" height="0"><div xmlns="http://www.w3.org/1999/xhtml" style="display: inline-block; white-space: nowrap;"><span class="edgeLabel"></span></div></foreignObject></g></g><g class="edgeLabel"><g class="label" transform="translate(0, 0)"><foreignObject width="0" height="0"><div xmlns="http://www.w3.org/1999/xhtml" style="display: inline-block; white-space: nowrap;"><span class="edgeLabel"></span></div></foreignObject></g></g><g class="edgeLabel" transform="translate(652.31640625, 807.546875)"><g class="label" transform="translate(-11.328125, -9.5)"><foreignObject width="22.65625" height="19"><div xmlns="http://www.w3.org/1999/xhtml" style="display: inline-block; white-space: nowrap;"><span class="edgeLabel">Yes</span></div></foreignObject></g></g><g class="edgeLabel"><g class="label" transform="translate(0, 0)"><foreignObject width="0" height="0"><div xmlns="http://www.w3.org/1999/xhtml" style="display: inline-block; white-space: nowrap;"><span class="edgeLabel"></span></div></foreignObject></g></g><g class="edgeLabel"><g class="label" transform="translate(0, 0)"><foreignObject width="0" height="0"><div xmlns="http://www.w3.org/1999/xhtml" style="display: inline-block; white-space: nowrap;"><span class="edgeLabel"></span></div></foreignObject></g></g><g class="edgeLabel"><g class="label" transform="translate(0, 0)"><foreignObject width="0" height="0"><div xmlns="http://www.w3.org/1999/xhtml" style="display: inline-block; white-space: nowrap;"><span class="edgeLabel"></span></div></foreignObject></g></g></g><g class="nodes"><g class="node default default flowchart-label" id="flowchart-Start-0" data-node="true" data-id="Start" transform="translate(150.4765625, 17)"><rect style="" rx="17" ry="17" x="-83.8046875" y="-17" width="167.609375" height="34"></rect><g class="label" style="" transform="translate(-72.0546875, -9.5)"><rect></rect><foreignObject width="144.109375" height="19"><div xmlns="http://www.w3.org/1999/xhtml" style="display: inline-block; white-space: nowrap;"><span class="nodeLabel">User Access Request</span></div></foreignObject></g></g><g class="node default default flowchart-label" id="flowchart-ID-1" data-node="true" data-id="ID" transform="translate(150.4765625, 110.5)"><rect class="basic label-container" style="fill:#e3f2fd;" rx="0" ry="0" x="-95.1015625" y="-26.5" width="190.203125" height="53"></rect><g class="label" style="" transform="translate(-87.6015625, -19)"><rect></rect><foreignObject width="175.203125" height="38"><div xmlns="http://www.w3.org/1999/xhtml" style="display: inline-block; white-space: nowrap;"><span class="nodeLabel">1. IDENTIFICATION<br>Present User ID/Account</span></div></foreignObject></g></g><g class="node default default flowchart-label" id="flowchart-Auth-3" data-node="true" data-id="Auth" transform="translate(150.4765625, 213.5)"><rect class="basic label-container" style="fill:#bbdefb;" rx="0" ry="0" x="-78.7421875" y="-26.5" width="157.484375" height="53"></rect><g class="label" style="" transform="translate(-71.2421875, -19)"><rect></rect><foreignObject width="142.484375" height="38"><div xmlns="http://www.w3.org/1999/xhtml" style="display: inline-block; white-space: nowrap;"><span class="nodeLabel">2. AUTHENTICATION<br>Verify Credentials</span></div></foreignObject></g></g><g class="node default default flowchart-label" id="flowchart-VerifyFactor-5" data-node="true" data-id="VerifyFactor" transform="translate(84.875, 364.703125)"><polygon points="74.703125,0 149.40625,-74.703125 74.703125,-149.40625 0,-74.703125" class="label-container" transform="translate(-74.703125,74.703125)" style=""></polygon><g class="label" style="" transform="translate(-40.703125, -19)"><rect></rect><foreignObject width="81.40625" height="38"><div xmlns="http://www.w3.org/1999/xhtml" style="display: inline-block; white-space: nowrap;"><span class="nodeLabel">Credentials<br>Valid?</span></div></foreignObject></g></g><g class="node default default flowchart-label" id="flowchart-Fail-7" data-node="true" data-id="Fail" transform="translate(84.875, 534.90625)"><rect class="basic label-container" style="fill:#ffcdd2;" rx="0" ry="0" x="-84.875" y="-17" width="169.75" height="34"></rect><g class="label" style="" transform="translate(-77.375, -9.5)"><rect></rect><foreignObject width="154.75" height="19"><div xmlns="http://www.w3.org/1999/xhtml" style="display: inline-block; white-space: nowrap;"><span class="nodeLabel">Authentication Failed</span></div></foreignObject></g></g><g class="node default default flowchart-label" id="flowchart-Log1-9" data-node="true" data-id="Log1" transform="translate(84.875, 692.2265625)"><rect class="basic label-container" style="" rx="0" ry="0" x="-75.796875" y="-17" width="151.59375" height="34"></rect><g class="label" style="" transform="translate(-68.296875, -9.5)"><rect></rect><foreignObject width="136.59375" height="19"><div xmlns="http://www.w3.org/1999/xhtml" style="display: inline-block; white-space: nowrap;"><span class="nodeLabel">Log Failed Attempt</span></div></foreignObject></g></g><g class="node default default flowchart-label" id="flowchart-Retry-11" data-node="true" data-id="Retry" transform="translate(150.4765625, 907.4921875)"><polygon points="65.4453125,0 130.890625,-65.4453125 65.4453125,-130.890625 0,-65.4453125" class="label-container" transform="translate(-65.4453125,65.4453125)" style=""></polygon><g class="label" style="" transform="translate(-31.4453125, -19)"><rect></rect><foreignObject width="62.890625" height="38"><div xmlns="http://www.w3.org/1999/xhtml" style="display: inline-block; white-space: nowrap;"><span class="nodeLabel">Retry<br>Allowed?</span></div></foreignObject></g></g><g class="node default default flowchart-label" id="flowchart-Block-15" data-node="true" data-id="Block" transform="translate(150.4765625, 1068.4375)"><rect class="basic label-container" style="" rx="0" ry="0" x="-96.109375" y="-17" width="192.21875" height="34"></rect><g class="label" style="" transform="translate(-88.609375, -9.5)"><rect></rect><foreignObject width="177.21875" height="19"><div xmlns="http://www.w3.org/1999/xhtml" style="display: inline-block; white-space: nowrap;"><span class="nodeLabel">Account Locked/Blocked</span></div></foreignObject></g></g><g class="node default default flowchart-label" id="flowchart-End-17" data-node="true" data-id="End" transform="translate(272.3125, 1161.9375)"><rect style="" rx="17" ry="17" x="-62.3828125" y="-17" width="124.765625" height="34"></rect><g class="label" style="" transform="translate(-50.6328125, -9.5)"><rect></rect><foreignObject width="101.265625" height="19"><div xmlns="http://www.w3.org/1999/xhtml" style="display: inline-block; white-space: nowrap;"><span class="nodeLabel">Access Denied</span></div></foreignObject></g></g><g class="node default default flowchart-label" id="flowchart-Authz-19" data-node="true" data-id="Authz" transform="translate(534.171875, 534.90625)"><rect class="basic label-container" style="fill:#90caf9;" rx="0" ry="0" x="-109.8984375" y="-26.5" width="219.796875" height="53"></rect><g class="label" style="" transform="translate(-102.3984375, -19)"><rect></rect><foreignObject width="204.796875" height="38"><div xmlns="http://www.w3.org/1999/xhtml" style="display: inline-block; white-space: nowrap;"><span class="nodeLabel">3. AUTHORIZATION<br>Check Permissions &amp; Policies</span></div></foreignObject></g></g><g class="node default default flowchart-label" id="flowchart-PermCheck-21" data-node="true" data-id="PermCheck" transform="translate(534.171875, 692.2265625)"><polygon points="80.8203125,0 161.640625,-80.8203125 80.8203125,-161.640625 0,-80.8203125" class="label-container" transform="translate(-80.8203125,80.8203125)" style=""></polygon><g class="label" style="" transform="translate(-46.8203125, -19)"><rect></rect><foreignObject width="93.640625" height="38"><div xmlns="http://www.w3.org/1999/xhtml" style="display: inline-block; white-space: nowrap;"><span class="nodeLabel">Has Required<br>Permissions?</span></div></foreignObject></g></g><g class="node default default flowchart-label" id="flowchart-Deny-23" data-node="true" data-id="Deny" transform="translate(416.02734375, 907.4921875)"><rect class="basic label-container" style="fill:#ffcdd2;" rx="0" ry="0" x="-58.1328125" y="-17" width="116.265625" height="34"></rect><g class="label" style="" transform="translate(-50.6328125, -9.5)"><rect></rect><foreignObject width="101.265625" height="19"><div xmlns="http://www.w3.org/1999/xhtml" style="display: inline-block; white-space: nowrap;"><span class="nodeLabel">Access Denied</span></div></foreignObject></g></g><g class="node default default flowchart-label" id="flowchart-Log2-25" data-node="true" data-id="Log2" transform="translate(416.02734375, 1068.4375)"><rect class="basic label-container" style="" rx="0" ry="0" x="-97.5625" y="-17" width="195.125" height="34"></rect><g class="label" style="" transform="translate(-90.0625, -9.5)"><rect></rect><foreignObject width="180.125" height="19"><div xmlns="http://www.w3.org/1999/xhtml" style="display: inline-block; white-space: nowrap;"><span class="nodeLabel">Log Authorization Failure</span></div></foreignObject></g></g><g class="node default default flowchart-label" id="flowchart-Grant-29" data-node="true" data-id="Grant" transform="translate(652.31640625, 907.4921875)"><rect class="basic label-container" style="fill:#c8e6c9;" rx="0" ry="0" x="-62.4765625" y="-17" width="124.953125" height="34"></rect><g class="label" style="" transform="translate(-54.9765625, -9.5)"><rect></rect><foreignObject width="109.953125" height="19"><div xmlns="http://www.w3.org/1999/xhtml" style="display: inline-block; white-space: nowrap;"><span class="nodeLabel">Access Granted</span></div></foreignObject></g></g><g class="node default default flowchart-label" id="flowchart-Acct-31" data-node="true" data-id="Acct" transform="translate(652.31640625, 1068.4375)"><rect class="basic label-container" style="fill:#64b5f6;" rx="0" ry="0" x="-88.7265625" y="-26.5" width="177.453125" height="53"></rect><g class="label" style="" transform="translate(-81.2265625, -19)"><rect></rect><foreignObject width="162.453125" height="38"><div xmlns="http://www.w3.org/1999/xhtml" style="display: inline-block; white-space: nowrap;"><span class="nodeLabel">4. ACCOUNTING<br>Log Access &amp; Activities</span></div></foreignObject></g></g><g class="node default default flowchart-label" id="flowchart-Monitor-33" data-node="true" data-id="Monitor" transform="translate(652.31640625, 1161.9375)"><rect class="basic label-container" style="" rx="0" ry="0" x="-87.3203125" y="-17" width="174.640625" height="34"></rect><g class="label" style="" transform="translate(-79.8203125, -9.5)"><rect></rect><foreignObject width="159.640625" height="19"><div xmlns="http://www.w3.org/1999/xhtml" style="display: inline-block; white-space: nowrap;"><span class="nodeLabel">Continuous Monitoring</span></div></foreignObject></g></g><g class="node default default flowchart-label" id="flowchart-Success-35" data-node="true" data-id="Success" transform="translate(652.31640625, 1245.9375)"><rect style="" rx="17" ry="17" x="-78.7265625" y="-17" width="157.453125" height="34"></rect><g class="label" style="" transform="translate(-66.9765625, -9.5)"><rect></rect><foreignObject width="133.953125" height="19"><div xmlns="http://www.w3.org/1999/xhtml" style="display: inline-block; white-space: nowrap;"><span class="nodeLabel">Authorized Session</span></div></foreignObject></g></g></g></g></g></svg>