<svg id="mermaid-1772557668940" width="100%" xmlns="http://www.w3.org/2000/svg" xmlns:xlink="http://www.w3.org/1999/xlink" style="max-width: 917.25390625px;" viewBox="-8 -8 917.25390625 1276.03125" role="graphics-document document" aria-roledescription="flowchart-v2"><style>#mermaid-1772557668940{font-family:"trebuchet ms",verdana,arial,sans-serif;font-size:16px;fill:#000000;}#mermaid-1772557668940 .error-icon{fill:#552222;}#mermaid-1772557668940 .error-text{fill:#552222;stroke:#552222;}#mermaid-1772557668940 .edge-thickness-normal{stroke-width:2px;}#mermaid-1772557668940 .edge-thickness-thick{stroke-width:3.5px;}#mermaid-1772557668940 .edge-pattern-solid{stroke-dasharray:0;}#mermaid-1772557668940 .edge-pattern-dashed{stroke-dasharray:3;}#mermaid-1772557668940 .edge-pattern-dotted{stroke-dasharray:2;}#mermaid-1772557668940 .marker{fill:#666;stroke:#666;}#mermaid-1772557668940 .marker.cross{stroke:#666;}#mermaid-1772557668940 svg{font-family:"trebuchet ms",verdana,arial,sans-serif;font-size:16px;}#mermaid-1772557668940 .label{font-family:"trebuchet ms",verdana,arial,sans-serif;color:#000000;}#mermaid-1772557668940 .cluster-label text{fill:#333;}#mermaid-1772557668940 .cluster-label span,#mermaid-1772557668940 p{color:#333;}#mermaid-1772557668940 .label text,#mermaid-1772557668940 span,#mermaid-1772557668940 p{fill:#000000;color:#000000;}#mermaid-1772557668940 .node rect,#mermaid-1772557668940 .node circle,#mermaid-1772557668940 .node ellipse,#mermaid-1772557668940 .node polygon,#mermaid-1772557668940 .node path{fill:#eee;stroke:#999;stroke-width:1px;}#mermaid-1772557668940 .flowchart-label text{text-anchor:middle;}#mermaid-1772557668940 .node .katex path{fill:#000;stroke:#000;stroke-width:1px;}#mermaid-1772557668940 .node .label{text-align:center;}#mermaid-1772557668940 .node.clickable{cursor:pointer;}#mermaid-1772557668940 .arrowheadPath{fill:#333333;}#mermaid-1772557668940 .edgePath .path{stroke:#666;stroke-width:2.0px;}#mermaid-1772557668940 .flowchart-link{stroke:#666;fill:none;}#mermaid-1772557668940 .edgeLabel{background-color:white;text-align:center;}#mermaid-1772557668940 .edgeLabel rect{opacity:0.5;background-color:white;fill:white;}#mermaid-1772557668940 .labelBkg{background-color:rgba(255, 255, 255, 0.5);}#mermaid-1772557668940 .cluster rect{fill:hsl(0, 0%, 98.9215686275%);stroke:#707070;stroke-width:1px;}#mermaid-1772557668940 .cluster text{fill:#333;}#mermaid-1772557668940 .cluster span,#mermaid-1772557668940 p{color:#333;}#mermaid-1772557668940 div.mermaidTooltip{position:absolute;text-align:center;max-width:200px;padding:2px;font-family:"trebuchet ms",verdana,arial,sans-serif;font-size:12px;background:hsl(-160, 0%, 93.3333333333%);border:1px solid #707070;border-radius:2px;pointer-events:none;z-index:100;}#mermaid-1772557668940 .flowchartTitleText{text-anchor:middle;font-size:18px;fill:#000000;}#mermaid-1772557668940 :root{--mermaid-font-family:"trebuchet ms",verdana,arial,sans-serif;}</style><g><marker id="mermaid-1772557668940_flowchart-pointEnd" class="marker flowchart" viewBox="0 0 10 10" refX="6" refY="5" markerUnits="userSpaceOnUse" markerWidth="12" markerHeight="12" orient="auto"><path d="M 0 0 L 10 5 L 0 10 z" class="arrowMarkerPath" style="stroke-width: 1; stroke-dasharray: 1, 0;"></path></marker><marker id="mermaid-1772557668940_flowchart-pointStart" class="marker flowchart" viewBox="0 0 10 10" refX="4.5" refY="5" markerUnits="userSpaceOnUse" markerWidth="12" markerHeight="12" orient="auto"><path d="M 0 5 L 10 10 L 10 0 z" class="arrowMarkerPath" style="stroke-width: 1; stroke-dasharray: 1, 0;"></path></marker><marker id="mermaid-1772557668940_flowchart-circleEnd" class="marker flowchart" viewBox="0 0 10 10" refX="11" refY="5" markerUnits="userSpaceOnUse" markerWidth="11" markerHeight="11" orient="auto"><circle cx="5" cy="5" r="5" class="arrowMarkerPath" style="stroke-width: 1; stroke-dasharray: 1, 0;"></circle></marker><marker id="mermaid-1772557668940_flowchart-circleStart" class="marker flowchart" viewBox="0 0 10 10" refX="-1" refY="5" markerUnits="userSpaceOnUse" markerWidth="11" markerHeight="11" orient="auto"><circle cx="5" cy="5" r="5" class="arrowMarkerPath" style="stroke-width: 1; stroke-dasharray: 1, 0;"></circle></marker><marker id="mermaid-1772557668940_flowchart-crossEnd" class="marker cross flowchart" viewBox="0 0 11 11" refX="12" refY="5.2" markerUnits="userSpaceOnUse" markerWidth="11" markerHeight="11" orient="auto"><path d="M 1,1 l 9,9 M 10,1 l -9,9" class="arrowMarkerPath" style="stroke-width: 2; stroke-dasharray: 1, 0;"></path></marker><marker id="mermaid-1772557668940_flowchart-crossStart" class="marker cross flowchart" viewBox="0 0 11 11" refX="-1" refY="5.2" markerUnits="userSpaceOnUse" markerWidth="11" markerHeight="11" orient="auto"><path d="M 1,1 l 9,9 M 10,1 l -9,9" class="arrowMarkerPath" style="stroke-width: 2; stroke-dasharray: 1, 0;"></path></marker><g class="root"><g class="clusters"></g><g class="edgePaths"><path d="M375.999,153.28L335.047,172.155C294.095,191.03,212.192,228.781,171.241,256.239C130.289,283.698,130.289,300.865,130.289,318.031C130.289,335.198,130.289,352.365,130.289,365.815C130.289,379.265,130.289,388.998,130.289,393.865L130.289,398.731" id="L-Start-Method1-0" class=" edge-thickness-normal edge-pattern-solid flowchart-link LS-Start LE-Method1" style="fill:none;" marker-end="url(#mermaid-1772557668940_flowchart-pointEnd)"></path><path d="M455.25,232.531L455.167,238.198C455.083,243.865,454.917,255.198,454.833,269.448C454.75,283.698,454.75,300.865,454.75,318.031C454.75,335.198,454.75,352.365,454.75,369.531C454.75,386.698,454.75,403.865,454.75,419.448C454.75,435.031,454.75,449.031,454.75,459.315C454.75,469.598,454.75,476.165,454.75,479.448L454.75,482.731" id="L-Start-Method2-0" class=" edge-thickness-normal edge-pattern-solid flowchart-link LS-Start LE-Method2" style="fill:none;" marker-end="url(#mermaid-1772557668940_flowchart-pointEnd)"></path><path d="M535.604,152.177L578.652,171.236C621.701,190.295,707.798,228.413,750.846,252.339C793.895,276.265,793.895,285.998,793.895,290.865L793.895,295.731" id="L-Start-Method3-0" class=" edge-thickness-normal edge-pattern-solid flowchart-link LS-Start LE-Method3" style="fill:none;" marker-end="url(#mermaid-1772557668940_flowchart-pointEnd)"></path><path d="M130.289,438.031L130.289,442.198C130.289,446.365,130.289,454.698,130.289,462.148C130.289,469.598,130.289,476.165,130.289,479.448L130.289,482.731" id="L-Method1-TM1-0" class=" edge-thickness-normal edge-pattern-solid flowchart-link LS-Method1 LE-TM1" style="fill:none;" marker-end="url(#mermaid-1772557668940_flowchart-pointEnd)"></path><path d="M130.289,522.031L130.289,526.198C130.289,530.365,130.289,538.698,130.289,556.148C130.289,573.598,130.289,600.165,130.289,613.448L130.289,626.731" id="L-TM1-TM2-0" class=" edge-thickness-normal edge-pattern-solid flowchart-link LS-TM1 LE-TM2" style="fill:none;" marker-end="url(#mermaid-1772557668940_flowchart-pointEnd)"></path><path d="M130.289,666.031L130.289,681.781C130.289,697.531,130.289,729.031,130.289,749.648C130.289,770.265,130.289,779.998,130.289,784.865L130.289,789.731" id="L-TM2-TM3-0" class=" edge-thickness-normal edge-pattern-solid flowchart-link LS-TM2 LE-TM3" style="fill:none;" marker-end="url(#mermaid-1772557668940_flowchart-pointEnd)"></path><path d="M130.289,829.031L130.289,834.781C130.289,840.531,130.289,852.031,130.289,864.231C130.289,876.431,130.289,889.331,130.289,895.781L130.289,902.231" id="L-TM3-TM4-0" class=" edge-thickness-normal edge-pattern-solid flowchart-link LS-TM3 LE-TM4" style="fill:none;" marker-end="url(#mermaid-1772557668940_flowchart-pointEnd)"></path><path d="M130.289,941.531L130.289,947.281C130.289,953.031,130.289,964.531,130.289,973.565C130.289,982.598,130.289,989.165,130.289,992.448L130.289,995.731" id="L-TM4-TM5-0" class=" edge-thickness-normal edge-pattern-solid flowchart-link LS-TM4 LE-TM5" style="fill:none;" marker-end="url(#mermaid-1772557668940_flowchart-pointEnd)"></path><path d="M130.289,1035.031L130.289,1039.198C130.289,1043.365,130.289,1051.698,130.289,1060.731C130.289,1069.765,130.289,1079.498,130.289,1084.365L130.289,1089.231" id="L-TM5-Extract1-0" class=" edge-thickness-normal edge-pattern-solid flowchart-link LS-TM5 LE-Extract1" style="fill:none;" marker-end="url(#mermaid-1772557668940_flowchart-pointEnd)"></path><path d="M454.75,522.031L454.75,526.198C454.75,530.365,454.75,538.698,454.75,556.148C454.75,573.598,454.75,600.165,454.75,613.448L454.75,626.731" id="L-Method2-PD1-0" class=" edge-thickness-normal edge-pattern-solid flowchart-link LS-Method2 LE-PD1" style="fill:none;" marker-end="url(#mermaid-1772557668940_flowchart-pointEnd)"></path><path d="M454.75,666.031L454.75,681.781C454.75,697.531,454.75,729.031,454.75,749.648C454.75,770.265,454.75,779.998,454.75,784.865L454.75,789.731" id="L-PD1-PD2-0" class=" edge-thickness-normal edge-pattern-solid flowchart-link LS-PD1 LE-PD2" style="fill:none;" marker-end="url(#mermaid-1772557668940_flowchart-pointEnd)"></path><path d="M454.75,829.031L454.75,834.781C454.75,840.531,454.75,852.031,454.75,864.231C454.75,876.431,454.75,889.331,454.75,895.781L454.75,902.231" id="L-PD2-PD3-0" class=" edge-thickness-normal edge-pattern-solid flowchart-link LS-PD2 LE-PD3" style="fill:none;" marker-end="url(#mermaid-1772557668940_flowchart-pointEnd)"></path><path d="M454.75,941.531L454.75,947.281C454.75,953.031,454.75,964.531,454.75,973.565C454.75,982.598,454.75,989.165,454.75,992.448L454.75,995.731" id="L-PD3-PD4-0" class=" edge-thickness-normal edge-pattern-solid flowchart-link LS-PD3 LE-PD4" style="fill:none;" marker-end="url(#mermaid-1772557668940_flowchart-pointEnd)"></path><path d="M454.75,1035.031L454.75,1039.198C454.75,1043.365,454.75,1051.698,454.75,1060.731C454.75,1069.765,454.75,1079.498,454.75,1084.365L454.75,1089.231" id="L-PD4-Extract2-0" class=" edge-thickness-normal edge-pattern-solid flowchart-link LS-PD4 LE-Extract2" style="fill:none;" marker-end="url(#mermaid-1772557668940_flowchart-pointEnd)"></path><path d="M793.895,335.031L793.895,340.781C793.895,346.531,793.895,358.031,793.895,368.648C793.895,379.265,793.895,388.998,793.895,393.865L793.895,398.731" id="L-Method3-M1-0" class=" edge-thickness-normal edge-pattern-solid flowchart-link LS-Method3 LE-M1" style="fill:none;" marker-end="url(#mermaid-1772557668940_flowchart-pointEnd)"></path><path d="M793.895,438.031L793.895,442.198C793.895,446.365,793.895,454.698,793.895,462.148C793.895,469.598,793.895,476.165,793.895,479.448L793.895,482.731" id="L-M1-M2-0" class=" edge-thickness-normal edge-pattern-solid flowchart-link LS-M1 LE-M2" style="fill:none;" marker-end="url(#mermaid-1772557668940_flowchart-pointEnd)"></path><path d="M793.895,522.031L793.895,526.198C793.895,530.365,793.895,538.698,793.961,546.231C794.027,553.765,794.159,560.499,794.225,563.865L794.291,567.232" id="L-M2-M3-0" class=" edge-thickness-normal edge-pattern-solid flowchart-link LS-M2 LE-M3" style="fill:none;" marker-end="url(#mermaid-1772557668940_flowchart-pointEnd)"></path><path d="M765.774,697.911L759.467,708.348C753.161,718.784,740.547,739.658,734.24,754.961C727.934,770.265,727.934,779.998,727.934,784.865L727.934,789.731" id="L-M3-M4-0" class=" edge-thickness-normal edge-pattern-solid flowchart-link LS-M3 LE-M4" style="fill:none;" marker-end="url(#mermaid-1772557668940_flowchart-pointEnd)"></path><path d="M727.934,829.031L727.934,834.781C727.934,840.531,727.934,852.031,727.934,862.648C727.934,873.265,727.934,882.998,727.934,887.865L727.934,892.731" id="L-M4-M5-0" class=" edge-thickness-normal edge-pattern-solid flowchart-link LS-M4 LE-M5" style="fill:none;" marker-end="url(#mermaid-1772557668940_flowchart-pointEnd)"></path><path d="M727.934,951.031L727.934,955.198C727.934,959.365,727.934,967.698,733.732,975.557C739.531,983.416,751.128,990.8,756.927,994.492L762.725,998.185" id="L-M5-M6-0" class=" edge-thickness-normal edge-pattern-solid flowchart-link LS-M5 LE-M6" style="fill:none;" marker-end="url(#mermaid-1772557668940_flowchart-pointEnd)"></path><path d="M823.015,697.911L829.155,708.348C835.295,718.784,847.575,739.658,853.715,758.678C859.855,777.698,859.855,794.865,859.855,812.031C859.855,829.198,859.855,846.365,859.855,865.115C859.855,883.865,859.855,904.198,859.855,922.948C859.855,941.698,859.855,958.865,854.057,971.14C848.258,983.416,836.661,990.8,830.862,994.492L825.064,998.185" id="L-M3-M6-0" class=" edge-thickness-normal edge-pattern-solid flowchart-link LS-M3 LE-M6" style="fill:none;" marker-end="url(#mermaid-1772557668940_flowchart-pointEnd)"></path><path d="M793.895,1035.031L793.895,1039.198C793.895,1043.365,793.895,1051.698,793.895,1059.148C793.895,1066.598,793.895,1073.165,793.895,1076.448L793.895,1079.731" id="L-M6-Extract3-0" class=" edge-thickness-normal edge-pattern-solid flowchart-link LS-M6 LE-Extract3" style="fill:none;" marker-end="url(#mermaid-1772557668940_flowchart-pointEnd)"></path><path d="M130.289,1128.531L130.289,1134.281C130.289,1140.031,130.289,1151.531,170.478,1164.837C210.667,1178.143,291.046,1193.254,331.235,1200.81L371.424,1208.366" id="L-Extract1-Results-0" class=" edge-thickness-normal edge-pattern-solid flowchart-link LS-Extract1 LE-Results" style="fill:none;" marker-end="url(#mermaid-1772557668940_flowchart-pointEnd)"></path><path d="M454.75,1128.531L454.75,1134.281C454.75,1140.031,454.75,1151.531,454.75,1160.565C454.75,1169.598,454.75,1176.165,454.75,1179.448L454.75,1182.731" id="L-Extract2-Results-0" class=" edge-thickness-normal edge-pattern-solid flowchart-link LS-Extract2 LE-Results" style="fill:none;" marker-end="url(#mermaid-1772557668940_flowchart-pointEnd)"></path><path d="M793.895,1138.031L793.895,1142.198C793.895,1146.365,793.895,1154.698,751.259,1166.533C708.624,1178.368,623.354,1193.705,580.719,1201.374L538.083,1209.043" id="L-Extract3-Results-0" class=" edge-thickness-normal edge-pattern-solid flowchart-link LS-Extract3 LE-Results" style="fill:none;" marker-end="url(#mermaid-1772557668940_flowchart-pointEnd)"></path></g><g class="edgeLabels"><g class="edgeLabel" transform="translate(130.2890625, 318.03125)"><g class="label" transform="translate(-38.2734375, -9.5)"><foreignObject width="76.546875" height="19"><div xmlns="http://www.w3.org/1999/xhtml" style="display: inline-block; white-space: nowrap;"><span class="edgeLabel">GUI Access</span></div></foreignObject></g></g><g class="edgeLabel" transform="translate(454.75, 369.53125)"><g class="label" transform="translate(-52.8671875, -9.5)"><foreignObject width="105.734375" height="19"><div xmlns="http://www.w3.org/1999/xhtml" style="display: inline-block; white-space: nowrap;"><span class="edgeLabel">Command Line</span></div></foreignObject></g></g><g class="edgeLabel" transform="translate(793.89453125, 266.53125)"><g class="label" transform="translate(-66.4765625, -9.5)"><foreignObject width="132.953125" height="19"><div xmlns="http://www.w3.org/1999/xhtml" style="display: inline-block; white-space: nowrap;"><span class="edgeLabel">Mimikatz Available</span></div></foreignObject></g></g><g class="edgeLabel"><g class="label" transform="translate(0, 0)"><foreignObject width="0" height="0"><div xmlns="http://www.w3.org/1999/xhtml" style="display: inline-block; white-space: nowrap;"><span class="edgeLabel"></span></div></foreignObject></g></g><g class="edgeLabel"><g class="label" transform="translate(0, 0)"><foreignObject width="0" height="0"><div xmlns="http://www.w3.org/1999/xhtml" style="display: inline-block; white-space: nowrap;"><span class="edgeLabel"></span></div></foreignObject></g></g><g class="edgeLabel"><g class="label" transform="translate(0, 0)"><foreignObject width="0" height="0"><div xmlns="http://www.w3.org/1999/xhtml" style="display: inline-block; white-space: nowrap;"><span class="edgeLabel"></span></div></foreignObject></g></g><g class="edgeLabel"><g class="label" transform="translate(0, 0)"><foreignObject width="0" height="0"><div xmlns="http://www.w3.org/1999/xhtml" style="display: inline-block; white-space: nowrap;"><span class="edgeLabel"></span></div></foreignObject></g></g><g class="edgeLabel"><g class="label" transform="translate(0, 0)"><foreignObject width="0" height="0"><div xmlns="http://www.w3.org/1999/xhtml" style="display: inline-block; white-space: nowrap;"><span class="edgeLabel"></span></div></foreignObject></g></g><g class="edgeLabel"><g class="label" transform="translate(0, 0)"><foreignObject width="0" height="0"><div xmlns="http://www.w3.org/1999/xhtml" style="display: inline-block; white-space: nowrap;"><span class="edgeLabel"></span></div></foreignObject></g></g><g class="edgeLabel"><g class="label" transform="translate(0, 0)"><foreignObject width="0" height="0"><div xmlns="http://www.w3.org/1999/xhtml" style="display: inline-block; white-space: nowrap;"><span class="edgeLabel"></span></div></foreignObject></g></g><g class="edgeLabel"><g class="label" transform="translate(0, 0)"><foreignObject width="0" height="0"><div xmlns="http://www.w3.org/1999/xhtml" style="display: inline-block; white-space: nowrap;"><span class="edgeLabel"></span></div></foreignObject></g></g><g class="edgeLabel"><g class="label" transform="translate(0, 0)"><foreignObject width="0" height="0"><div xmlns="http://www.w3.org/1999/xhtml" style="display: inline-block; white-space: nowrap;"><span class="edgeLabel"></span></div></foreignObject></g></g><g class="edgeLabel"><g class="label" transform="translate(0, 0)"><foreignObject width="0" height="0"><div xmlns="http://www.w3.org/1999/xhtml" style="display: inline-block; white-space: nowrap;"><span class="edgeLabel"></span></div></foreignObject></g></g><g class="edgeLabel"><g class="label" transform="translate(0, 0)"><foreignObject width="0" height="0"><div xmlns="http://www.w3.org/1999/xhtml" style="display: inline-block; white-space: nowrap;"><span class="edgeLabel"></span></div></foreignObject></g></g><g class="edgeLabel"><g class="label" transform="translate(0, 0)"><foreignObject width="0" height="0"><div xmlns="http://www.w3.org/1999/xhtml" style="display: inline-block; white-space: nowrap;"><span class="edgeLabel"></span></div></foreignObject></g></g><g class="edgeLabel"><g class="label" transform="translate(0, 0)"><foreignObject width="0" height="0"><div xmlns="http://www.w3.org/1999/xhtml" style="display: inline-block; white-space: nowrap;"><span class="edgeLabel"></span></div></foreignObject></g></g><g class="edgeLabel"><g class="label" transform="translate(0, 0)"><foreignObject width="0" height="0"><div xmlns="http://www.w3.org/1999/xhtml" style="display: inline-block; white-space: nowrap;"><span class="edgeLabel"></span></div></foreignObject></g></g><g class="edgeLabel" transform="translate(727.93359375, 760.53125)"><g class="label" transform="translate(-11.328125, -9.5)"><foreignObject width="22.65625" height="19"><div xmlns="http://www.w3.org/1999/xhtml" style="display: inline-block; white-space: nowrap;"><span class="edgeLabel">Yes</span></div></foreignObject></g></g><g class="edgeLabel"><g class="label" transform="translate(0, 0)"><foreignObject width="0" height="0"><div xmlns="http://www.w3.org/1999/xhtml" style="display: inline-block; white-space: nowrap;"><span class="edgeLabel"></span></div></foreignObject></g></g><g class="edgeLabel"><g class="label" transform="translate(0, 0)"><foreignObject width="0" height="0"><div xmlns="http://www.w3.org/1999/xhtml" style="display: inline-block; white-space: nowrap;"><span class="edgeLabel"></span></div></foreignObject></g></g><g class="edgeLabel" transform="translate(859.85546875, 863.53125)"><g class="label" transform="translate(-9.3984375, -9.5)"><foreignObject width="18.796875" height="19"><div xmlns="http://www.w3.org/1999/xhtml" style="display: inline-block; white-space: nowrap;"><span class="edgeLabel">No</span></div></foreignObject></g></g><g class="edgeLabel"><g class="label" transform="translate(0, 0)"><foreignObject width="0" height="0"><div xmlns="http://www.w3.org/1999/xhtml" style="display: inline-block; white-space: nowrap;"><span class="edgeLabel"></span></div></foreignObject></g></g><g class="edgeLabel"><g class="label" transform="translate(0, 0)"><foreignObject width="0" height="0"><div xmlns="http://www.w3.org/1999/xhtml" style="display: inline-block; white-space: nowrap;"><span class="edgeLabel"></span></div></foreignObject></g></g><g class="edgeLabel"><g class="label" transform="translate(0, 0)"><foreignObject width="0" height="0"><div xmlns="http://www.w3.org/1999/xhtml" style="display: inline-block; white-space: nowrap;"><span class="edgeLabel"></span></div></foreignObject></g></g><g class="edgeLabel"><g class="label" transform="translate(0, 0)"><foreignObject width="0" height="0"><div xmlns="http://www.w3.org/1999/xhtml" style="display: inline-block; white-space: nowrap;"><span class="edgeLabel"></span></div></foreignObject></g></g></g><g class="nodes"><g class="node default default flowchart-label" id="flowchart-Start-0" data-node="true" data-id="Start" transform="translate(454.75, 116.015625)"><polygon points="116.015625,0 232.03125,-116.015625 116.015625,-232.03125 0,-116.015625" class="label-container" transform="translate(-116.015625,116.015625)" style=""></polygon><g class="label" style="" transform="translate(-82.015625, -19)"><rect></rect><foreignObject width="164.03125" height="38"><div xmlns="http://www.w3.org/1999/xhtml" style="display: inline-block; white-space: nowrap;"><span class="nodeLabel">Need to extract<br>credentials from LSASS</span></div></foreignObject></g></g><g class="node default default flowchart-label" id="flowchart-Method1-2" data-node="true" data-id="Method1" transform="translate(130.2890625, 421.03125)"><rect class="basic label-container" style="fill:#e6ffe6;" rx="0" ry="0" x="-83.71875" y="-17" width="167.4375" height="34"></rect><g class="label" style="" transform="translate(-76.21875, -9.5)"><rect></rect><foreignObject width="152.4375" height="19"><div xmlns="http://www.w3.org/1999/xhtml" style="display: inline-block; white-space: nowrap;"><span class="nodeLabel">Task Manager Method</span></div></foreignObject></g></g><g class="node default default flowchart-label" id="flowchart-Method2-4" data-node="true" data-id="Method2" transform="translate(454.75, 505.03125)"><rect class="basic label-container" style="fill:#ffe6e6;" rx="0" ry="0" x="-72.0703125" y="-17" width="144.140625" height="34"></rect><g class="label" style="" transform="translate(-64.5703125, -9.5)"><rect></rect><foreignObject width="129.140625" height="19"><div xmlns="http://www.w3.org/1999/xhtml" style="display: inline-block; white-space: nowrap;"><span class="nodeLabel">ProcDump Method</span></div></foreignObject></g></g><g class="node default default flowchart-label" id="flowchart-Method3-6" data-node="true" data-id="Method3" transform="translate(793.89453125, 318.03125)"><rect class="basic label-container" style="fill:#e6e6ff;" rx="0" ry="0" x="-85.1796875" y="-17" width="170.359375" height="34"></rect><g class="label" style="" transform="translate(-77.6796875, -9.5)"><rect></rect><foreignObject width="155.359375" height="19"><div xmlns="http://www.w3.org/1999/xhtml" style="display: inline-block; white-space: nowrap;"><span class="nodeLabel">Direct Memory Access</span></div></foreignObject></g></g><g class="node default default flowchart-label" id="flowchart-TM1-8" data-node="true" data-id="TM1" transform="translate(130.2890625, 505.03125)"><rect class="basic label-container" style="" rx="0" ry="0" x="-85.3671875" y="-17" width="170.734375" height="34"></rect><g class="label" style="" transform="translate(-77.8671875, -9.5)"><rect></rect><foreignObject width="155.734375" height="19"><div xmlns="http://www.w3.org/1999/xhtml" style="display: inline-block; white-space: nowrap;"><span class="nodeLabel">1. Open Task Manager</span></div></foreignObject></g></g><g class="node default default flowchart-label" id="flowchart-TM2-10" data-node="true" data-id="TM2" transform="translate(130.2890625, 649.03125)"><rect class="basic label-container" style="" rx="0" ry="0" x="-102.7109375" y="-17" width="205.421875" height="34"></rect><g class="label" style="" transform="translate(-95.2109375, -9.5)"><rect></rect><foreignObject width="190.421875" height="19"><div xmlns="http://www.w3.org/1999/xhtml" style="display: inline-block; white-space: nowrap;"><span class="nodeLabel">2. Find lsass.exe in Details</span></div></foreignObject></g></g><g class="node default default flowchart-label" id="flowchart-TM3-12" data-node="true" data-id="TM3" transform="translate(130.2890625, 812.03125)"><rect class="basic label-container" style="" rx="0" ry="0" x="-130.2890625" y="-17" width="260.578125" height="34"></rect><g class="label" style="" transform="translate(-122.7890625, -9.5)"><rect></rect><foreignObject width="245.578125" height="19"><div xmlns="http://www.w3.org/1999/xhtml" style="display: inline-block; white-space: nowrap;"><span class="nodeLabel">3. Right-click → Create Dump File</span></div></foreignObject></g></g><g class="node default default flowchart-label" id="flowchart-TM4-14" data-node="true" data-id="TM4" transform="translate(130.2890625, 924.53125)"><rect class="basic label-container" style="" rx="0" ry="0" x="-125.046875" y="-17" width="250.09375" height="34"></rect><g class="label" style="" transform="translate(-117.546875, -9.5)"><rect></rect><foreignObject width="235.09375" height="19"><div xmlns="http://www.w3.org/1999/xhtml" style="display: inline-block; white-space: nowrap;"><span class="nodeLabel">4. Transfer lsass.DMP to attacker</span></div></foreignObject></g></g><g class="node default default flowchart-label" id="flowchart-TM5-16" data-node="true" data-id="TM5" transform="translate(130.2890625, 1018.03125)"><rect class="basic label-container" style="" rx="0" ry="0" x="-117.3671875" y="-17" width="234.734375" height="34"></rect><g class="label" style="" transform="translate(-109.8671875, -9.5)"><rect></rect><foreignObject width="219.734375" height="19"><div xmlns="http://www.w3.org/1999/xhtml" style="display: inline-block; white-space: nowrap;"><span class="nodeLabel">5. Offline: sekurlsa::minidump</span></div></foreignObject></g></g><g class="node default default flowchart-label" id="flowchart-Extract1-18" data-node="true" data-id="Extract1" transform="translate(130.2890625, 1111.53125)"><rect class="basic label-container" style="" rx="0" ry="0" x="-85.34375" y="-17" width="170.6875" height="34"></rect><g class="label" style="" transform="translate(-77.84375, -9.5)"><rect></rect><foreignObject width="155.6875" height="19"><div xmlns="http://www.w3.org/1999/xhtml" style="display: inline-block; white-space: nowrap;"><span class="nodeLabel">Credentials Extracted</span></div></foreignObject></g></g><g class="node default default flowchart-label" id="flowchart-PD1-20" data-node="true" data-id="PD1" transform="translate(454.75, 649.03125)"><rect class="basic label-container" style="" rx="0" ry="0" x="-95.828125" y="-17" width="191.65625" height="34"></rect><g class="label" style="" transform="translate(-88.328125, -9.5)"><rect></rect><foreignObject width="176.65625" height="19"><div xmlns="http://www.w3.org/1999/xhtml" style="display: inline-block; white-space: nowrap;"><span class="nodeLabel">1. Upload procdump.exe</span></div></foreignObject></g></g><g class="node default default flowchart-label" id="flowchart-PD2-22" data-node="true" data-id="PD2" transform="translate(454.75, 812.03125)"><rect class="basic label-container" style="" rx="0" ry="0" x="-144.171875" y="-17" width="288.34375" height="34"></rect><g class="label" style="" transform="translate(-136.671875, -9.5)"><rect></rect><foreignObject width="273.34375" height="19"><div xmlns="http://www.w3.org/1999/xhtml" style="display: inline-block; white-space: nowrap;"><span class="nodeLabel">2. procdump -ma lsass.exe dump.dmp</span></div></foreignObject></g></g><g class="node default default flowchart-label" id="flowchart-PD3-24" data-node="true" data-id="PD3" transform="translate(454.75, 924.53125)"><rect class="basic label-container" style="" rx="0" ry="0" x="-110.859375" y="-17" width="221.71875" height="34"></rect><g class="label" style="" transform="translate(-103.359375, -9.5)"><rect></rect><foreignObject width="206.71875" height="19"><div xmlns="http://www.w3.org/1999/xhtml" style="display: inline-block; white-space: nowrap;"><span class="nodeLabel">3. Transfer dump to attacker</span></div></foreignObject></g></g><g class="node default default flowchart-label" id="flowchart-PD4-26" data-node="true" data-id="PD4" transform="translate(454.75, 1018.03125)"><rect class="basic label-container" style="" rx="0" ry="0" x="-124.65625" y="-17" width="249.3125" height="34"></rect><g class="label" style="" transform="translate(-117.15625, -9.5)"><rect></rect><foreignObject width="234.3125" height="19"><div xmlns="http://www.w3.org/1999/xhtml" style="display: inline-block; white-space: nowrap;"><span class="nodeLabel">4. Offline analysis with Mimikatz</span></div></foreignObject></g></g><g class="node default default flowchart-label" id="flowchart-Extract2-28" data-node="true" data-id="Extract2" transform="translate(454.75, 1111.53125)"><rect class="basic label-container" style="" rx="0" ry="0" x="-85.34375" y="-17" width="170.6875" height="34"></rect><g class="label" style="" transform="translate(-77.84375, -9.5)"><rect></rect><foreignObject width="155.6875" height="19"><div xmlns="http://www.w3.org/1999/xhtml" style="display: inline-block; white-space: nowrap;"><span class="nodeLabel">Credentials Extracted</span></div></foreignObject></g></g><g class="node default default flowchart-label" id="flowchart-M1-30" data-node="true" data-id="M1" transform="translate(793.89453125, 421.03125)"><rect class="basic label-container" style="" rx="0" ry="0" x="-99.9609375" y="-17" width="199.921875" height="34"></rect><g class="label" style="" transform="translate(-92.4609375, -9.5)"><rect></rect><foreignObject width="184.921875" height="19"><div xmlns="http://www.w3.org/1999/xhtml" style="display: inline-block; white-space: nowrap;"><span class="nodeLabel">1. Run mimikatz as Admin</span></div></foreignObject></g></g><g class="node default default flowchart-label" id="flowchart-M2-32" data-node="true" data-id="M2" transform="translate(793.89453125, 505.03125)"><rect class="basic label-container" style="" rx="0" ry="0" x="-75.734375" y="-17" width="151.46875" height="34"></rect><g class="label" style="" transform="translate(-68.234375, -9.5)"><rect></rect><foreignObject width="136.46875" height="19"><div xmlns="http://www.w3.org/1999/xhtml" style="display: inline-block; white-space: nowrap;"><span class="nodeLabel">2. privilege::debug</span></div></foreignObject></g></g><g class="node default default flowchart-label" id="flowchart-M3-34" data-node="true" data-id="M3" transform="translate(793.89453125, 649.03125)"><polygon points="77,0 154,-77 77,-154 0,-77" class="label-container" transform="translate(-77,77)" style=""></polygon><g class="label" style="" transform="translate(-52.5, -9.5)"><rect></rect><foreignObject width="105" height="19"><div xmlns="http://www.w3.org/1999/xhtml" style="display: inline-block; white-space: nowrap;"><span class="nodeLabel">LSA Protected?</span></div></foreignObject></g></g><g class="node default default flowchart-label" id="flowchart-M4-36" data-node="true" data-id="M4" transform="translate(727.93359375, 812.03125)"><rect class="basic label-container" style="" rx="0" ry="0" x="-70.1796875" y="-17" width="140.359375" height="34"></rect><g class="label" style="" transform="translate(-62.6796875, -9.5)"><rect></rect><foreignObject width="125.359375" height="19"><div xmlns="http://www.w3.org/1999/xhtml" style="display: inline-block; white-space: nowrap;"><span class="nodeLabel">3. Load driver: !+</span></div></foreignObject></g></g><g class="node default default flowchart-label" id="flowchart-M5-38" data-node="true" data-id="M5" transform="translate(727.93359375, 924.53125)"><rect class="basic label-container" style="" rx="0" ry="0" x="-96.921875" y="-26.5" width="193.84375" height="53"></rect><g class="label" style="" transform="translate(-89.421875, -19)"><rect></rect><foreignObject width="178.84375" height="38"><div xmlns="http://www.w3.org/1999/xhtml" style="display: inline-block; white-space: nowrap;"><span class="nodeLabel">4. Disable protection:<br>!processprotect /remove</span></div></foreignObject></g></g><g class="node default default flowchart-label" id="flowchart-M6-40" data-node="true" data-id="M6" transform="translate(793.89453125, 1018.03125)"><rect class="basic label-container" style="" rx="0" ry="0" x="-107.359375" y="-17" width="214.71875" height="34"></rect><g class="label" style="" transform="translate(-99.859375, -9.5)"><rect></rect><foreignObject width="199.71875" height="19"><div xmlns="http://www.w3.org/1999/xhtml" style="display: inline-block; white-space: nowrap;"><span class="nodeLabel">5. sekurlsa::logonpasswords</span></div></foreignObject></g></g><g class="node default default flowchart-label" id="flowchart-Extract3-44" data-node="true" data-id="Extract3" transform="translate(793.89453125, 1111.53125)"><rect class="basic label-container" style="" rx="0" ry="0" x="-85.34375" y="-26.5" width="170.6875" height="53"></rect><g class="label" style="" transform="translate(-77.84375, -19)"><rect></rect><foreignObject width="155.6875" height="38"><div xmlns="http://www.w3.org/1999/xhtml" style="display: inline-block; white-space: nowrap;"><span class="nodeLabel">Credentials Extracted<br>Real-time</span></div></foreignObject></g></g><g class="node default default flowchart-label" id="flowchart-Results-46" data-node="true" data-id="Results" transform="translate(454.75, 1224.03125)"><rect class="basic label-container" style="fill:#ffffcc;" rx="0" ry="0" x="-78.1171875" y="-36" width="156.234375" height="72"></rect><g class="label" style="" transform="translate(-70.6171875, -28.5)"><rect></rect><foreignObject width="141.234375" height="57"><div xmlns="http://www.w3.org/1999/xhtml" style="display: inline-block; white-space: nowrap;"><span class="nodeLabel">NTLM Hashes<br>Plaintext Passwords<br>Kerberos Tickets</span></div></foreignObject></g></g></g></g></g></svg>