<svg id="mermaid-1772557710709" width="100%" xmlns="http://www.w3.org/2000/svg" xmlns:xlink="http://www.w3.org/1999/xlink" style="max-width: 1284.203125px;" viewBox="-8 -8 1284.203125 1143" role="graphics-document document" aria-roledescription="flowchart-v2"><style>#mermaid-1772557710709{font-family:"trebuchet ms",verdana,arial,sans-serif;font-size:16px;fill:#000000;}#mermaid-1772557710709 .error-icon{fill:#552222;}#mermaid-1772557710709 .error-text{fill:#552222;stroke:#552222;}#mermaid-1772557710709 .edge-thickness-normal{stroke-width:2px;}#mermaid-1772557710709 .edge-thickness-thick{stroke-width:3.5px;}#mermaid-1772557710709 .edge-pattern-solid{stroke-dasharray:0;}#mermaid-1772557710709 .edge-pattern-dashed{stroke-dasharray:3;}#mermaid-1772557710709 .edge-pattern-dotted{stroke-dasharray:2;}#mermaid-1772557710709 .marker{fill:#666;stroke:#666;}#mermaid-1772557710709 .marker.cross{stroke:#666;}#mermaid-1772557710709 svg{font-family:"trebuchet ms",verdana,arial,sans-serif;font-size:16px;}#mermaid-1772557710709 .label{font-family:"trebuchet ms",verdana,arial,sans-serif;color:#000000;}#mermaid-1772557710709 .cluster-label text{fill:#333;}#mermaid-1772557710709 .cluster-label span,#mermaid-1772557710709 p{color:#333;}#mermaid-1772557710709 .label text,#mermaid-1772557710709 span,#mermaid-1772557710709 p{fill:#000000;color:#000000;}#mermaid-1772557710709 .node rect,#mermaid-1772557710709 .node circle,#mermaid-1772557710709 .node ellipse,#mermaid-1772557710709 .node polygon,#mermaid-1772557710709 .node path{fill:#eee;stroke:#999;stroke-width:1px;}#mermaid-1772557710709 .flowchart-label text{text-anchor:middle;}#mermaid-1772557710709 .node .katex path{fill:#000;stroke:#000;stroke-width:1px;}#mermaid-1772557710709 .node .label{text-align:center;}#mermaid-1772557710709 .node.clickable{cursor:pointer;}#mermaid-1772557710709 .arrowheadPath{fill:#333333;}#mermaid-1772557710709 .edgePath .path{stroke:#666;stroke-width:2.0px;}#mermaid-1772557710709 .flowchart-link{stroke:#666;fill:none;}#mermaid-1772557710709 .edgeLabel{background-color:white;text-align:center;}#mermaid-1772557710709 .edgeLabel rect{opacity:0.5;background-color:white;fill:white;}#mermaid-1772557710709 .labelBkg{background-color:rgba(255, 255, 255, 0.5);}#mermaid-1772557710709 .cluster rect{fill:hsl(0, 0%, 98.9215686275%);stroke:#707070;stroke-width:1px;}#mermaid-1772557710709 .cluster text{fill:#333;}#mermaid-1772557710709 .cluster span,#mermaid-1772557710709 p{color:#333;}#mermaid-1772557710709 div.mermaidTooltip{position:absolute;text-align:center;max-width:200px;padding:2px;font-family:"trebuchet ms",verdana,arial,sans-serif;font-size:12px;background:hsl(-160, 0%, 93.3333333333%);border:1px solid #707070;border-radius:2px;pointer-events:none;z-index:100;}#mermaid-1772557710709 .flowchartTitleText{text-anchor:middle;font-size:18px;fill:#000000;}#mermaid-1772557710709 :root{--mermaid-font-family:"trebuchet ms",verdana,arial,sans-serif;}</style><g><marker id="mermaid-1772557710709_flowchart-pointEnd" class="marker flowchart" viewBox="0 0 10 10" refX="6" refY="5" markerUnits="userSpaceOnUse" markerWidth="12" markerHeight="12" orient="auto"><path d="M 0 0 L 10 5 L 0 10 z" class="arrowMarkerPath" style="stroke-width: 1; stroke-dasharray: 1, 0;"></path></marker><marker id="mermaid-1772557710709_flowchart-pointStart" class="marker flowchart" viewBox="0 0 10 10" refX="4.5" refY="5" markerUnits="userSpaceOnUse" markerWidth="12" markerHeight="12" orient="auto"><path d="M 0 5 L 10 10 L 10 0 z" class="arrowMarkerPath" style="stroke-width: 1; stroke-dasharray: 1, 0;"></path></marker><marker id="mermaid-1772557710709_flowchart-circleEnd" class="marker flowchart" viewBox="0 0 10 10" refX="11" refY="5" markerUnits="userSpaceOnUse" markerWidth="11" markerHeight="11" orient="auto"><circle cx="5" cy="5" r="5" class="arrowMarkerPath" style="stroke-width: 1; stroke-dasharray: 1, 0;"></circle></marker><marker id="mermaid-1772557710709_flowchart-circleStart" class="marker flowchart" viewBox="0 0 10 10" refX="-1" refY="5" markerUnits="userSpaceOnUse" markerWidth="11" markerHeight="11" orient="auto"><circle cx="5" cy="5" r="5" class="arrowMarkerPath" style="stroke-width: 1; stroke-dasharray: 1, 0;"></circle></marker><marker id="mermaid-1772557710709_flowchart-crossEnd" class="marker cross flowchart" viewBox="0 0 11 11" refX="12" refY="5.2" markerUnits="userSpaceOnUse" markerWidth="11" markerHeight="11" orient="auto"><path d="M 1,1 l 9,9 M 10,1 l -9,9" class="arrowMarkerPath" style="stroke-width: 2; stroke-dasharray: 1, 0;"></path></marker><marker id="mermaid-1772557710709_flowchart-crossStart" class="marker cross flowchart" viewBox="0 0 11 11" refX="-1" refY="5.2" markerUnits="userSpaceOnUse" markerWidth="11" markerHeight="11" orient="auto"><path d="M 1,1 l 9,9 M 10,1 l -9,9" class="arrowMarkerPath" style="stroke-width: 2; stroke-dasharray: 1, 0;"></path></marker><g class="root"><g class="clusters"><g class="cluster default flowchart-label" id="Output"><rect style="fill:#81c784;" rx="0" ry="0" x="35.3515625" y="921" width="1101.546875" height="206"></rect><g class="cluster-label" transform="translate(518.0625, 921)"><foreignObject width="136.125" height="19"><div xmlns="http://www.w3.org/1999/xhtml" style="display: inline-block; white-space: nowrap;"><span class="nodeLabel">Output &amp; Response</span></div></foreignObject></g></g><g class="cluster default flowchart-label" id="Analysis"><rect style="fill:#ffd54f;" rx="0" ry="0" x="0" y="768" width="819.34375" height="103"></rect><g class="cluster-label" transform="translate(330.5078125, 768)"><foreignObject width="158.328125" height="19"><div xmlns="http://www.w3.org/1999/xhtml" style="display: inline-block; white-space: nowrap;"><span class="nodeLabel">Analysis &amp; Correlation</span></div></foreignObject></g></g><g class="cluster default flowchart-label" id="Processing"><rect style="fill:#90caf9;" rx="0" ry="0" x="64.0078125" y="306" width="1204.1953125" height="412"></rect><g class="cluster-label" transform="translate(584.60546875, 306)"><foreignObject width="163" height="19"><div xmlns="http://www.w3.org/1999/xhtml" style="display: inline-block; white-space: nowrap;"><span class="nodeLabel">SIEM Processing Engine</span></div></foreignObject></g></g><g class="cluster default flowchart-label" id="Collection"><rect style="fill:#bbdefb;" rx="0" ry="0" x="143.171875" y="153" width="1017.2734375" height="103"></rect><g class="cluster-label" transform="translate(593.48828125, 153)"><foreignObject width="116.640625" height="19"><div xmlns="http://www.w3.org/1999/xhtml" style="display: inline-block; white-space: nowrap;"><span class="nodeLabel">Collection Layer</span></div></foreignObject></g></g><g class="cluster default flowchart-label" id="Sources"><rect style="fill:#e3f2fd;" rx="0" ry="0" x="114.71875" y="0" width="1035.2265625" height="84"></rect><g class="cluster-label" transform="translate(590.37890625, 0)"><foreignObject width="83.90625" height="19"><div xmlns="http://www.w3.org/1999/xhtml" style="display: inline-block; white-space: nowrap;"><span class="nodeLabel">Log Sources</span></div></foreignObject></g></g></g><g class="edgePaths"><path d="M593.648,59L593.648,63.167C593.648,67.333,593.648,75.667,593.648,85.583C593.648,95.5,593.648,107,593.648,118.5C593.648,130,593.648,141.5,602.768,151.075C611.887,160.65,630.125,168.3,639.244,172.125L648.364,175.95" id="L-FW-Syslog-0" class=" edge-thickness-normal edge-pattern-solid flowchart-link LS-FW LE-Syslog" style="fill:none;" marker-end="url(#mermaid-1772557710709_flowchart-pointEnd)"></path><path d="M716.43,59L716.43,63.167C716.43,67.333,716.43,75.667,716.43,85.583C716.43,95.5,716.43,107,716.43,118.5C716.43,130,716.43,141.5,716.43,150.533C716.43,159.567,716.43,166.133,716.43,169.417L716.43,172.7" id="L-IDS-Syslog-0" class=" edge-thickness-normal edge-pattern-solid flowchart-link LS-IDS LE-Syslog" style="fill:none;" marker-end="url(#mermaid-1772557710709_flowchart-pointEnd)"></path><path d="M183.172,59L183.172,63.167C183.172,67.333,183.172,75.667,183.172,85.583C183.172,95.5,183.172,107,183.172,118.5C183.172,130,183.172,141.5,203.456,152.533C223.74,163.565,264.307,174.13,284.591,179.413L304.875,184.696" id="L-Servers-Agent1-0" class=" edge-thickness-normal edge-pattern-solid flowchart-link LS-Servers LE-Agent1" style="fill:none;" marker-end="url(#mermaid-1772557710709_flowchart-pointEnd)"></path><path d="M309.055,59L309.055,63.167C309.055,67.333,309.055,75.667,309.055,85.583C309.055,95.5,309.055,107,309.055,118.5C309.055,130,309.055,141.5,314.151,150.902C319.247,160.304,329.439,167.608,334.536,171.261L339.632,174.913" id="L-Endpoints-Agent1-0" class=" edge-thickness-normal edge-pattern-solid flowchart-link LS-Endpoints LE-Agent1" style="fill:none;" marker-end="url(#mermaid-1772557710709_flowchart-pointEnd)"></path><path d="M452.781,59L452.781,63.167C452.781,67.333,452.781,75.667,452.781,85.583C452.781,95.5,452.781,107,452.781,118.5C452.781,130,452.781,141.5,447.685,150.902C442.589,160.304,432.397,167.608,427.3,171.261L422.204,174.913" id="L-Apps-Agent1-0" class=" edge-thickness-normal edge-pattern-solid flowchart-link LS-Apps LE-Agent1" style="fill:none;" marker-end="url(#mermaid-1772557710709_flowchart-pointEnd)"></path><path d="M1055.688,59L1055.688,63.167C1055.688,67.333,1055.688,75.667,1055.688,85.583C1055.688,95.5,1055.688,107,1055.688,118.5C1055.688,130,1055.688,141.5,1055.688,150.533C1055.688,159.567,1055.688,166.133,1055.688,169.417L1055.688,172.7" id="L-Cloud-API-0" class=" edge-thickness-normal edge-pattern-solid flowchart-link LS-Cloud LE-API" style="fill:none;" marker-end="url(#mermaid-1772557710709_flowchart-pointEnd)"></path><path d="M879.453,59L879.453,63.167C879.453,67.333,879.453,75.667,879.453,85.583C879.453,95.5,879.453,107,879.453,118.5C879.453,130,879.453,141.5,879.453,150.533C879.453,159.567,879.453,166.133,879.453,169.417L879.453,172.7" id="L-NetDev-SNMP-0" class=" edge-thickness-normal edge-pattern-solid flowchart-link LS-NetDev LE-SNMP" style="fill:none;" marker-end="url(#mermaid-1772557710709_flowchart-pointEnd)"></path><path d="M380.918,231L380.918,235.167C380.918,239.333,380.918,247.667,380.918,256C380.918,264.333,380.918,272.667,380.918,281C380.918,289.333,380.918,297.667,420.587,308.278C460.256,318.889,539.594,331.778,579.264,338.223L618.933,344.668" id="L-Agent1-Agg-0" class=" edge-thickness-normal edge-pattern-solid flowchart-link LS-Agent1 LE-Agg" style="fill:none;" marker-end="url(#mermaid-1772557710709_flowchart-pointEnd)"></path><path d="M716.43,231L716.43,235.167C716.43,239.333,716.43,247.667,716.43,256C716.43,264.333,716.43,272.667,716.43,281C716.43,289.333,716.43,297.667,715.231,305.169C714.032,312.671,711.635,319.342,710.436,322.677L709.238,326.012" id="L-Syslog-Agg-0" class=" edge-thickness-normal edge-pattern-solid flowchart-link LS-Syslog LE-Agg" style="fill:none;" marker-end="url(#mermaid-1772557710709_flowchart-pointEnd)"></path><path d="M879.453,231L879.453,235.167C879.453,239.333,879.453,247.667,879.453,256C879.453,264.333,879.453,272.667,879.453,281C879.453,289.333,879.453,297.667,862.341,306.688C845.228,315.71,811.003,325.419,793.891,330.274L776.778,335.129" id="L-SNMP-Agg-0" class=" edge-thickness-normal edge-pattern-solid flowchart-link LS-SNMP LE-Agg" style="fill:none;" marker-end="url(#mermaid-1772557710709_flowchart-pointEnd)"></path><path d="M1055.688,231L1055.688,235.167C1055.688,239.333,1055.688,247.667,1055.688,256C1055.688,264.333,1055.688,272.667,1055.688,281C1055.688,289.333,1055.688,297.667,1009.227,308.521C962.767,319.376,869.846,332.752,823.386,339.44L776.926,346.127" id="L-API-Agg-0" class=" edge-thickness-normal edge-pattern-solid flowchart-link LS-API LE-Agg" style="fill:none;" marker-end="url(#mermaid-1772557710709_flowchart-pointEnd)"></path><path d="M624.164,377.122L604.193,382.435C584.221,387.748,544.279,398.374,524.307,406.97C504.336,415.567,504.336,422.133,504.336,425.417L504.336,428.7" id="L-Agg-Norm-0" class=" edge-thickness-normal edge-pattern-solid flowchart-link LS-Agg LE-Norm" style="fill:none;" marker-end="url(#mermaid-1772557710709_flowchart-pointEnd)"></path><path d="M504.336,487L504.336,491.167C504.336,495.333,504.336,503.667,504.336,511.117C504.336,518.567,504.336,525.133,504.336,528.417L504.336,531.7" id="L-Norm-Parse-0" class=" edge-thickness-normal edge-pattern-solid flowchart-link LS-Norm LE-Parse" style="fill:none;" marker-end="url(#mermaid-1772557710709_flowchart-pointEnd)"></path><path d="M504.336,590L504.336,594.167C504.336,598.333,504.336,606.667,504.336,614.117C504.336,621.567,504.336,628.133,504.336,631.417L504.336,634.7" id="L-Parse-Enrich-0" class=" edge-thickness-normal edge-pattern-solid flowchart-link LS-Parse LE-Enrich" style="fill:none;" marker-end="url(#mermaid-1772557710709_flowchart-pointEnd)"></path><path d="M452.625,673.152L394.522,680.627C336.419,688.102,220.214,703.051,162.111,714.692C104.008,726.333,104.008,734.667,104.008,743C104.008,751.333,104.008,759.667,104.008,767.117C104.008,774.567,104.008,781.133,104.008,784.417L104.008,787.7" id="L-Enrich-Rules-0" class=" edge-thickness-normal edge-pattern-solid flowchart-link LS-Enrich LE-Rules" style="fill:none;" marker-end="url(#mermaid-1772557710709_flowchart-pointEnd)"></path><path d="M452.625,679.47L427.021,685.891C401.417,692.313,350.208,705.157,324.604,715.745C299,726.333,299,734.667,299,743C299,751.333,299,759.667,299,767.117C299,774.567,299,781.133,299,784.417L299,787.7" id="L-Enrich-CTI-0" class=" edge-thickness-normal edge-pattern-solid flowchart-link LS-Enrich LE-CTI" style="fill:none;" marker-end="url(#mermaid-1772557710709_flowchart-pointEnd)"></path><path d="M504.336,693L504.336,697.167C504.336,701.333,504.336,709.667,504.336,718C504.336,726.333,504.336,734.667,504.336,743C504.336,751.333,504.336,759.667,504.336,767.117C504.336,774.567,504.336,781.133,504.336,784.417L504.336,787.7" id="L-Enrich-UEBA-0" class=" edge-thickness-normal edge-pattern-solid flowchart-link LS-Enrich LE-UEBA" style="fill:none;" marker-end="url(#mermaid-1772557710709_flowchart-pointEnd)"></path><path d="M556.047,679.511L581.542,685.926C607.036,692.341,658.026,705.17,683.521,715.752C709.016,726.333,709.016,734.667,709.016,743C709.016,751.333,709.016,759.667,709.016,767.117C709.016,774.567,709.016,781.133,709.016,784.417L709.016,787.7" id="L-Enrich-ML-0" class=" edge-thickness-normal edge-pattern-solid flowchart-link LS-Enrich LE-ML" style="fill:none;" marker-end="url(#mermaid-1772557710709_flowchart-pointEnd)"></path><path d="M104.008,846L104.008,850.167C104.008,854.333,104.008,862.667,104.008,871C104.008,879.333,104.008,887.667,104.008,896C104.008,904.333,104.008,912.667,163.522,924.051C223.037,935.435,342.065,949.87,401.58,957.088L461.094,964.305" id="L-Rules-Alerts-0" class=" edge-thickness-normal edge-pattern-solid flowchart-link LS-Rules LE-Alerts" style="fill:none;" marker-end="url(#mermaid-1772557710709_flowchart-pointEnd)"></path><path d="M299,846L299,850.167C299,854.333,299,862.667,299,871C299,879.333,299,887.667,299,896C299,904.333,299,912.667,326.031,922.895C353.061,933.123,407.123,945.245,434.153,951.306L461.184,957.368" id="L-CTI-Alerts-0" class=" edge-thickness-normal edge-pattern-solid flowchart-link LS-CTI LE-Alerts" style="fill:none;" marker-end="url(#mermaid-1772557710709_flowchart-pointEnd)"></path><path d="M504.336,846L504.336,850.167C504.336,854.333,504.336,862.667,504.336,871C504.336,879.333,504.336,887.667,504.336,896C504.336,904.333,504.336,912.667,505.927,920.201C507.518,927.736,510.701,934.472,512.292,937.84L513.884,941.208" id="L-UEBA-Alerts-0" class=" edge-thickness-normal edge-pattern-solid flowchart-link LS-UEBA LE-Alerts" style="fill:none;" marker-end="url(#mermaid-1772557710709_flowchart-pointEnd)"></path><path d="M709.016,846L709.016,850.167C709.016,854.333,709.016,862.667,709.016,871C709.016,879.333,709.016,887.667,709.016,896C709.016,904.333,709.016,912.667,690.192,922.208C671.369,931.75,633.723,942.501,614.9,947.876L596.077,953.251" id="L-ML-Alerts-0" class=" edge-thickness-normal edge-pattern-solid flowchart-link LS-ML LE-Alerts" style="fill:none;" marker-end="url(#mermaid-1772557710709_flowchart-pointEnd)"></path><path d="M466.355,980.509L409.956,987.757C353.557,995.006,240.759,1009.503,184.36,1020.035C127.961,1030.567,127.961,1037.133,127.961,1040.417L127.961,1043.7" id="L-Alerts-Dashboard-0" class=" edge-thickness-normal edge-pattern-solid flowchart-link LS-Alerts LE-Dashboard" style="fill:none;" marker-end="url(#mermaid-1772557710709_flowchart-pointEnd)"></path><path d="M590.98,982.284L635.263,989.236C679.546,996.189,768.111,1010.095,812.393,1020.331C856.676,1030.567,856.676,1037.133,856.676,1040.417L856.676,1043.7" id="L-Alerts-SOAR-0" class=" edge-thickness-normal edge-pattern-solid flowchart-link LS-Alerts LE-SOAR" style="fill:none;" marker-end="url(#mermaid-1772557710709_flowchart-pointEnd)"></path><path d="M556.047,674.096L605.863,681.413C655.68,688.73,755.313,703.365,805.129,714.849C854.945,726.333,854.945,734.667,854.945,743C854.945,751.333,854.945,759.667,854.945,772.417C854.945,785.167,854.945,802.333,854.945,819.5C854.945,836.667,854.945,853.833,854.945,866.583C854.945,879.333,854.945,887.667,854.945,896C854.945,904.333,854.945,912.667,854.945,920.117C854.945,927.567,854.945,934.133,854.945,937.417L854.945,940.7" id="L-Enrich-Reports-0" class=" edge-thickness-normal edge-pattern-solid flowchart-link LS-Enrich LE-Reports" style="fill:none;" marker-end="url(#mermaid-1772557710709_flowchart-pointEnd)"></path><path d="M771.68,369.007L814.405,375.672C857.13,382.338,942.581,395.669,985.306,410.918C1028.031,426.167,1028.031,443.333,1028.031,460.5C1028.031,477.667,1028.031,494.833,1028.031,512C1028.031,529.167,1028.031,546.333,1028.031,563.5C1028.031,580.667,1028.031,597.833,1028.031,615C1028.031,632.167,1028.031,649.333,1028.031,666.5C1028.031,683.667,1028.031,700.833,1028.031,713.583C1028.031,726.333,1028.031,734.667,1028.031,743C1028.031,751.333,1028.031,759.667,1028.031,772.417C1028.031,785.167,1028.031,802.333,1028.031,819.5C1028.031,836.667,1028.031,853.833,1028.031,866.583C1028.031,879.333,1028.031,887.667,1028.031,896C1028.031,904.333,1028.031,912.667,1028.031,920.117C1028.031,927.567,1028.031,934.133,1028.031,937.417L1028.031,940.7" id="L-Agg-Archive-0" class=" edge-thickness-normal edge-pattern-solid flowchart-link LS-Agg LE-Archive" style="fill:none;" marker-end="url(#mermaid-1772557710709_flowchart-pointEnd)"></path></g><g class="edgeLabels"><g class="edgeLabel" transform="translate(593.6484375, 118.5)"><g class="label" transform="translate(-21.703125, -9.5)"><foreignObject width="43.40625" height="19"><div xmlns="http://www.w3.org/1999/xhtml" style="display: inline-block; white-space: nowrap;"><span class="edgeLabel">Syslog</span></div></foreignObject></g></g><g class="edgeLabel" transform="translate(716.4296875, 118.5)"><g class="label" transform="translate(-21.703125, -9.5)"><foreignObject width="43.40625" height="19"><div xmlns="http://www.w3.org/1999/xhtml" style="display: inline-block; white-space: nowrap;"><span class="edgeLabel">Syslog</span></div></foreignObject></g></g><g class="edgeLabel" transform="translate(183.171875, 118.5)"><g class="label" transform="translate(-20.640625, -9.5)"><foreignObject width="41.28125" height="19"><div xmlns="http://www.w3.org/1999/xhtml" style="display: inline-block; white-space: nowrap;"><span class="edgeLabel">Agent</span></div></foreignObject></g></g><g class="edgeLabel" transform="translate(309.0546875, 118.5)"><g class="label" transform="translate(-20.640625, -9.5)"><foreignObject width="41.28125" height="19"><div xmlns="http://www.w3.org/1999/xhtml" style="display: inline-block; white-space: nowrap;"><span class="edgeLabel">Agent</span></div></foreignObject></g></g><g class="edgeLabel" transform="translate(452.78125, 118.5)"><g class="label" transform="translate(-46.5390625, -9.5)"><foreignObject width="93.078125" height="19"><div xmlns="http://www.w3.org/1999/xhtml" style="display: inline-block; white-space: nowrap;"><span class="edgeLabel">Syslog/Agent</span></div></foreignObject></g></g><g class="edgeLabel" transform="translate(1055.6875, 118.5)"><g class="label" transform="translate(-11.40625, -9.5)"><foreignObject width="22.8125" height="19"><div xmlns="http://www.w3.org/1999/xhtml" style="display: inline-block; white-space: nowrap;"><span class="edgeLabel">API</span></div></foreignObject></g></g><g class="edgeLabel" transform="translate(879.453125, 118.5)"><g class="label" transform="translate(-19.09375, -9.5)"><foreignObject width="38.1875" height="19"><div xmlns="http://www.w3.org/1999/xhtml" style="display: inline-block; white-space: nowrap;"><span class="edgeLabel">SNMP</span></div></foreignObject></g></g><g class="edgeLabel"><g class="label" transform="translate(0, 0)"><foreignObject width="0" height="0"><div xmlns="http://www.w3.org/1999/xhtml" style="display: inline-block; white-space: nowrap;"><span class="edgeLabel"></span></div></foreignObject></g></g><g class="edgeLabel"><g class="label" transform="translate(0, 0)"><foreignObject width="0" height="0"><div xmlns="http://www.w3.org/1999/xhtml" style="display: inline-block; white-space: nowrap;"><span class="edgeLabel"></span></div></foreignObject></g></g><g class="edgeLabel"><g class="label" transform="translate(0, 0)"><foreignObject width="0" height="0"><div xmlns="http://www.w3.org/1999/xhtml" style="display: inline-block; white-space: nowrap;"><span class="edgeLabel"></span></div></foreignObject></g></g><g class="edgeLabel"><g class="label" transform="translate(0, 0)"><foreignObject width="0" height="0"><div xmlns="http://www.w3.org/1999/xhtml" style="display: inline-block; white-space: nowrap;"><span class="edgeLabel"></span></div></foreignObject></g></g><g class="edgeLabel"><g class="label" transform="translate(0, 0)"><foreignObject width="0" height="0"><div xmlns="http://www.w3.org/1999/xhtml" style="display: inline-block; white-space: nowrap;"><span class="edgeLabel"></span></div></foreignObject></g></g><g class="edgeLabel"><g class="label" transform="translate(0, 0)"><foreignObject width="0" height="0"><div xmlns="http://www.w3.org/1999/xhtml" style="display: inline-block; white-space: nowrap;"><span class="edgeLabel"></span></div></foreignObject></g></g><g class="edgeLabel"><g class="label" transform="translate(0, 0)"><foreignObject width="0" height="0"><div xmlns="http://www.w3.org/1999/xhtml" style="display: inline-block; white-space: nowrap;"><span class="edgeLabel"></span></div></foreignObject></g></g><g class="edgeLabel"><g class="label" transform="translate(0, 0)"><foreignObject width="0" height="0"><div xmlns="http://www.w3.org/1999/xhtml" style="display: inline-block; white-space: nowrap;"><span class="edgeLabel"></span></div></foreignObject></g></g><g class="edgeLabel"><g class="label" transform="translate(0, 0)"><foreignObject width="0" height="0"><div xmlns="http://www.w3.org/1999/xhtml" style="display: inline-block; white-space: nowrap;"><span class="edgeLabel"></span></div></foreignObject></g></g><g class="edgeLabel"><g class="label" transform="translate(0, 0)"><foreignObject width="0" height="0"><div xmlns="http://www.w3.org/1999/xhtml" style="display: inline-block; white-space: nowrap;"><span class="edgeLabel"></span></div></foreignObject></g></g><g class="edgeLabel"><g class="label" transform="translate(0, 0)"><foreignObject width="0" height="0"><div xmlns="http://www.w3.org/1999/xhtml" style="display: inline-block; white-space: nowrap;"><span class="edgeLabel"></span></div></foreignObject></g></g><g class="edgeLabel"><g class="label" transform="translate(0, 0)"><foreignObject width="0" height="0"><div xmlns="http://www.w3.org/1999/xhtml" style="display: inline-block; white-space: nowrap;"><span class="edgeLabel"></span></div></foreignObject></g></g><g class="edgeLabel"><g class="label" transform="translate(0, 0)"><foreignObject width="0" height="0"><div xmlns="http://www.w3.org/1999/xhtml" style="display: inline-block; white-space: nowrap;"><span class="edgeLabel"></span></div></foreignObject></g></g><g class="edgeLabel"><g class="label" transform="translate(0, 0)"><foreignObject width="0" height="0"><div xmlns="http://www.w3.org/1999/xhtml" style="display: inline-block; white-space: nowrap;"><span class="edgeLabel"></span></div></foreignObject></g></g><g class="edgeLabel"><g class="label" transform="translate(0, 0)"><foreignObject width="0" height="0"><div xmlns="http://www.w3.org/1999/xhtml" style="display: inline-block; white-space: nowrap;"><span class="edgeLabel"></span></div></foreignObject></g></g><g class="edgeLabel"><g class="label" transform="translate(0, 0)"><foreignObject width="0" height="0"><div xmlns="http://www.w3.org/1999/xhtml" style="display: inline-block; white-space: nowrap;"><span class="edgeLabel"></span></div></foreignObject></g></g><g class="edgeLabel"><g class="label" transform="translate(0, 0)"><foreignObject width="0" height="0"><div xmlns="http://www.w3.org/1999/xhtml" style="display: inline-block; white-space: nowrap;"><span class="edgeLabel"></span></div></foreignObject></g></g><g class="edgeLabel"><g class="label" transform="translate(0, 0)"><foreignObject width="0" height="0"><div xmlns="http://www.w3.org/1999/xhtml" style="display: inline-block; white-space: nowrap;"><span class="edgeLabel"></span></div></foreignObject></g></g><g class="edgeLabel"><g class="label" transform="translate(0, 0)"><foreignObject width="0" height="0"><div xmlns="http://www.w3.org/1999/xhtml" style="display: inline-block; white-space: nowrap;"><span class="edgeLabel"></span></div></foreignObject></g></g></g><g class="nodes"><g class="node default default flowchart-label" id="flowchart-Alerts-55" data-node="true" data-id="Alerts" transform="translate(528.66796875, 972.5)"><rect class="basic label-container" style="" rx="0" ry="0" x="-62.3125" y="-26.5" width="124.625" height="53"></rect><g class="label" style="" transform="translate(-54.8125, -19)"><rect></rect><foreignObject width="109.625" height="38"><div xmlns="http://www.w3.org/1999/xhtml" style="display: inline-block; white-space: nowrap;"><span class="nodeLabel">Alerts<br>Security Events</span></div></foreignObject></g></g><g class="node default default flowchart-label" id="flowchart-Dashboard-56" data-node="true" data-id="Dashboard" transform="translate(127.9609375, 1075.5)"><rect class="basic label-container" style="" rx="0" ry="0" x="-52.90625" y="-26.5" width="105.8125" height="53"></rect><g class="label" style="" transform="translate(-45.40625, -19)"><rect></rect><foreignObject width="90.8125" height="38"><div xmlns="http://www.w3.org/1999/xhtml" style="display: inline-block; white-space: nowrap;"><span class="nodeLabel">Dashboards<br>Visualization</span></div></foreignObject></g></g><g class="node default default flowchart-label" id="flowchart-Reports-57" data-node="true" data-id="Reports" transform="translate(854.9453125, 972.5)"><rect class="basic label-container" style="" rx="0" ry="0" x="-49.21875" y="-26.5" width="98.4375" height="53"></rect><g class="label" style="" transform="translate(-41.71875, -19)"><rect></rect><foreignObject width="83.4375" height="38"><div xmlns="http://www.w3.org/1999/xhtml" style="display: inline-block; white-space: nowrap;"><span class="nodeLabel">Reports<br>Compliance</span></div></foreignObject></g></g><g class="node default default flowchart-label" id="flowchart-SOAR-58" data-node="true" data-id="SOAR" transform="translate(856.67578125, 1075.5)"><rect class="basic label-container" style="" rx="0" ry="0" x="-81.9609375" y="-26.5" width="163.921875" height="53"></rect><g class="label" style="" transform="translate(-74.4609375, -19)"><rect></rect><foreignObject width="148.921875" height="38"><div xmlns="http://www.w3.org/1999/xhtml" style="display: inline-block; white-space: nowrap;"><span class="nodeLabel">SOAR Integration<br>Automated Response</span></div></foreignObject></g></g><g class="node default default flowchart-label" id="flowchart-Archive-59" data-node="true" data-id="Archive" transform="translate(1028.03125, 972.5)"><rect class="basic label-container" style="" rx="0" ry="0" x="-73.8671875" y="-26.5" width="147.734375" height="53"></rect><g class="label" style="" transform="translate(-66.3671875, -19)"><rect></rect><foreignObject width="132.734375" height="38"><div xmlns="http://www.w3.org/1999/xhtml" style="display: inline-block; white-space: nowrap;"><span class="nodeLabel">Long-term Storage<br>Retention</span></div></foreignObject></g></g><g class="node default default flowchart-label" id="flowchart-Rules-43" data-node="true" data-id="Rules" transform="translate(104.0078125, 819.5)"><rect class="basic label-container" style="" rx="0" ry="0" x="-69.0078125" y="-26.5" width="138.015625" height="53"></rect><g class="label" style="" transform="translate(-61.5078125, -19)"><rect></rect><foreignObject width="123.015625" height="38"><div xmlns="http://www.w3.org/1999/xhtml" style="display: inline-block; white-space: nowrap;"><span class="nodeLabel">Correlation Rules<br>Pattern Matching</span></div></foreignObject></g></g><g class="node default default flowchart-label" id="flowchart-CTI-44" data-node="true" data-id="CTI" transform="translate(299, 819.5)"><rect class="basic label-container" style="" rx="0" ry="0" x="-75.984375" y="-26.5" width="151.96875" height="53"></rect><g class="label" style="" transform="translate(-68.484375, -19)"><rect></rect><foreignObject width="136.96875" height="38"><div xmlns="http://www.w3.org/1999/xhtml" style="display: inline-block; white-space: nowrap;"><span class="nodeLabel">Threat Intelligence<br>IoC Matching</span></div></foreignObject></g></g><g class="node default default flowchart-label" id="flowchart-UEBA-45" data-node="true" data-id="UEBA" transform="translate(504.3359375, 819.5)"><rect class="basic label-container" style="" rx="0" ry="0" x="-79.3515625" y="-26.5" width="158.703125" height="53"></rect><g class="label" style="" transform="translate(-71.8515625, -19)"><rect></rect><foreignObject width="143.703125" height="38"><div xmlns="http://www.w3.org/1999/xhtml" style="display: inline-block; white-space: nowrap;"><span class="nodeLabel">UEBA<br>Behavioral Analytics</span></div></foreignObject></g></g><g class="node default default flowchart-label" id="flowchart-ML-46" data-node="true" data-id="ML" transform="translate(709.015625, 819.5)"><rect class="basic label-container" style="" rx="0" ry="0" x="-75.328125" y="-26.5" width="150.65625" height="53"></rect><g class="label" style="" transform="translate(-67.828125, -19)"><rect></rect><foreignObject width="135.65625" height="38"><div xmlns="http://www.w3.org/1999/xhtml" style="display: inline-block; white-space: nowrap;"><span class="nodeLabel">Machine Learning<br>Anomaly Detection</span></div></foreignObject></g></g><g class="node default default flowchart-label" id="flowchart-Agg-25" data-node="true" data-id="Agg" transform="translate(697.921875, 357.5)"><rect class="basic label-container" style="" rx="0" ry="0" x="-73.7578125" y="-26.5" width="147.515625" height="53"></rect><g class="label" style="" transform="translate(-66.2578125, -19)"><rect></rect><foreignObject width="132.515625" height="38"><div xmlns="http://www.w3.org/1999/xhtml" style="display: inline-block; white-space: nowrap;"><span class="nodeLabel">Log Aggregation<br>Central Repository</span></div></foreignObject></g></g><g class="node default default flowchart-label" id="flowchart-Norm-26" data-node="true" data-id="Norm" transform="translate(504.3359375, 460.5)"><rect class="basic label-container" style="" rx="0" ry="0" x="-91.75" y="-26.5" width="183.5" height="53"></rect><g class="label" style="" transform="translate(-84.25, -19)"><rect></rect><foreignObject width="168.5" height="38"><div xmlns="http://www.w3.org/1999/xhtml" style="display: inline-block; white-space: nowrap;"><span class="nodeLabel">Normalization<br>Format Standardization</span></div></foreignObject></g></g><g class="node default default flowchart-label" id="flowchart-Parse-27" data-node="true" data-id="Parse" transform="translate(504.3359375, 563.5)"><rect class="basic label-container" style="" rx="0" ry="0" x="-64.4296875" y="-26.5" width="128.859375" height="53"></rect><g class="label" style="" transform="translate(-56.9296875, -19)"><rect></rect><foreignObject width="113.859375" height="38"><div xmlns="http://www.w3.org/1999/xhtml" style="display: inline-block; white-space: nowrap;"><span class="nodeLabel">Parsing<br>Field Extraction</span></div></foreignObject></g></g><g class="node default default flowchart-label" id="flowchart-Enrich-28" data-node="true" data-id="Enrich" transform="translate(504.3359375, 666.5)"><rect class="basic label-container" style="" rx="0" ry="0" x="-51.7109375" y="-26.5" width="103.421875" height="53"></rect><g class="label" style="" transform="translate(-44.2109375, -19)"><rect></rect><foreignObject width="88.421875" height="38"><div xmlns="http://www.w3.org/1999/xhtml" style="display: inline-block; white-space: nowrap;"><span class="nodeLabel">Enrichment<br>Add Context</span></div></foreignObject></g></g><g class="node default default flowchart-label" id="flowchart-Agent1-7" data-node="true" data-id="Agent1" transform="translate(380.91796875, 204.5)"><rect class="basic label-container" style="" rx="0" ry="0" x="-70.9140625" y="-26.5" width="141.828125" height="53"></rect><g class="label" style="" transform="translate(-63.4140625, -19)"><rect></rect><foreignObject width="126.828125" height="38"><div xmlns="http://www.w3.org/1999/xhtml" style="display: inline-block; white-space: nowrap;"><span class="nodeLabel">SIEM Agents<br>Installed on Hosts</span></div></foreignObject></g></g><g class="node default default flowchart-label" id="flowchart-Syslog-8" data-node="true" data-id="Syslog" transform="translate(716.4296875, 204.5)"><rect class="basic label-container" style="" rx="0" ry="0" x="-65.5390625" y="-26.5" width="131.078125" height="53"></rect><g class="label" style="" transform="translate(-58.0390625, -19)"><rect></rect><foreignObject width="116.078125" height="38"><div xmlns="http://www.w3.org/1999/xhtml" style="display: inline-block; white-space: nowrap;"><span class="nodeLabel">Syslog Receivers<br>Port 514</span></div></foreignObject></g></g><g class="node default default flowchart-label" id="flowchart-SNMP-9" data-node="true" data-id="SNMP" transform="translate(879.453125, 204.5)"><rect class="basic label-container" style="" rx="0" ry="0" x="-47.484375" y="-26.5" width="94.96875" height="53"></rect><g class="label" style="" transform="translate(-39.984375, -19)"><rect></rect><foreignObject width="79.96875" height="38"><div xmlns="http://www.w3.org/1999/xhtml" style="display: inline-block; white-space: nowrap;"><span class="nodeLabel">SNMP Traps<br>Port 162</span></div></foreignObject></g></g><g class="node default default flowchart-label" id="flowchart-API-10" data-node="true" data-id="API" transform="translate(1055.6875, 204.5)"><rect class="basic label-container" style="" rx="0" ry="0" x="-69.7578125" y="-26.5" width="139.515625" height="53"></rect><g class="label" style="" transform="translate(-62.2578125, -19)"><rect></rect><foreignObject width="124.515625" height="38"><div xmlns="http://www.w3.org/1999/xhtml" style="display: inline-block; white-space: nowrap;"><span class="nodeLabel">API Connectors<br>Cloud Integration</span></div></foreignObject></g></g><g class="node default default flowchart-label" id="flowchart-FW-0" data-node="true" data-id="FW" transform="translate(593.6484375, 42)"><rect class="basic label-container" style="" rx="0" ry="0" x="-39.5703125" y="-17" width="79.140625" height="34"></rect><g class="label" style="" transform="translate(-32.0703125, -9.5)"><rect></rect><foreignObject width="64.140625" height="19"><div xmlns="http://www.w3.org/1999/xhtml" style="display: inline-block; white-space: nowrap;"><span class="nodeLabel">Firewalls</span></div></foreignObject></g></g><g class="node default default flowchart-label" id="flowchart-IDS-1" data-node="true" data-id="IDS" transform="translate(716.4296875, 42)"><rect class="basic label-container" style="" rx="0" ry="0" x="-33.2109375" y="-17" width="66.421875" height="34"></rect><g class="label" style="" transform="translate(-25.7109375, -9.5)"><rect></rect><foreignObject width="51.421875" height="19"><div xmlns="http://www.w3.org/1999/xhtml" style="display: inline-block; white-space: nowrap;"><span class="nodeLabel">IDS/IPS</span></div></foreignObject></g></g><g class="node default default flowchart-label" id="flowchart-Servers-2" data-node="true" data-id="Servers" transform="translate(183.171875, 42)"><rect class="basic label-container" style="" rx="0" ry="0" x="-33.453125" y="-17" width="66.90625" height="34"></rect><g class="label" style="" transform="translate(-25.953125, -9.5)"><rect></rect><foreignObject width="51.90625" height="19"><div xmlns="http://www.w3.org/1999/xhtml" style="display: inline-block; white-space: nowrap;"><span class="nodeLabel">Servers</span></div></foreignObject></g></g><g class="node default default flowchart-label" id="flowchart-Endpoints-3" data-node="true" data-id="Endpoints" transform="translate(309.0546875, 42)"><rect class="basic label-container" style="" rx="0" ry="0" x="-42.4296875" y="-17" width="84.859375" height="34"></rect><g class="label" style="" transform="translate(-34.9296875, -9.5)"><rect></rect><foreignObject width="69.859375" height="19"><div xmlns="http://www.w3.org/1999/xhtml" style="display: inline-block; white-space: nowrap;"><span class="nodeLabel">Endpoints</span></div></foreignObject></g></g><g class="node default default flowchart-label" id="flowchart-Apps-4" data-node="true" data-id="Apps" transform="translate(452.78125, 42)"><rect class="basic label-container" style="" rx="0" ry="0" x="-51.296875" y="-17" width="102.59375" height="34"></rect><g class="label" style="" transform="translate(-43.796875, -9.5)"><rect></rect><foreignObject width="87.59375" height="19"><div xmlns="http://www.w3.org/1999/xhtml" style="display: inline-block; white-space: nowrap;"><span class="nodeLabel">Applications</span></div></foreignObject></g></g><g class="node default default flowchart-label" id="flowchart-Cloud-5" data-node="true" data-id="Cloud" transform="translate(1055.6875, 42)"><rect class="basic label-container" style="" rx="0" ry="0" x="-59.2578125" y="-17" width="118.515625" height="34"></rect><g class="label" style="" transform="translate(-51.7578125, -9.5)"><rect></rect><foreignObject width="103.515625" height="19"><div xmlns="http://www.w3.org/1999/xhtml" style="display: inline-block; white-space: nowrap;"><span class="nodeLabel">Cloud Services</span></div></foreignObject></g></g><g class="node default default flowchart-label" id="flowchart-NetDev-6" data-node="true" data-id="NetDev" transform="translate(879.453125, 42)"><rect class="basic label-container" style="" rx="0" ry="0" x="-66.9765625" y="-17" width="133.953125" height="34"></rect><g class="label" style="" transform="translate(-59.4765625, -9.5)"><rect></rect><foreignObject width="118.953125" height="19"><div xmlns="http://www.w3.org/1999/xhtml" style="display: inline-block; white-space: nowrap;"><span class="nodeLabel">Network Devices</span></div></foreignObject></g></g></g></g></g></svg>