<svg id="mermaid-1772557727101" width="100%" xmlns="http://www.w3.org/2000/svg" xmlns:xlink="http://www.w3.org/1999/xlink" style="max-width: 1972.51171875px;" viewBox="-8 -8 1972.51171875 1041" role="graphics-document document" aria-roledescription="flowchart-v2"><style>#mermaid-1772557727101{font-family:"trebuchet ms",verdana,arial,sans-serif;font-size:16px;fill:#000000;}#mermaid-1772557727101 .error-icon{fill:#552222;}#mermaid-1772557727101 .error-text{fill:#552222;stroke:#552222;}#mermaid-1772557727101 .edge-thickness-normal{stroke-width:2px;}#mermaid-1772557727101 .edge-thickness-thick{stroke-width:3.5px;}#mermaid-1772557727101 .edge-pattern-solid{stroke-dasharray:0;}#mermaid-1772557727101 .edge-pattern-dashed{stroke-dasharray:3;}#mermaid-1772557727101 .edge-pattern-dotted{stroke-dasharray:2;}#mermaid-1772557727101 .marker{fill:#666;stroke:#666;}#mermaid-1772557727101 .marker.cross{stroke:#666;}#mermaid-1772557727101 svg{font-family:"trebuchet ms",verdana,arial,sans-serif;font-size:16px;}#mermaid-1772557727101 .label{font-family:"trebuchet ms",verdana,arial,sans-serif;color:#000000;}#mermaid-1772557727101 .cluster-label text{fill:#333;}#mermaid-1772557727101 .cluster-label span,#mermaid-1772557727101 p{color:#333;}#mermaid-1772557727101 .label text,#mermaid-1772557727101 span,#mermaid-1772557727101 p{fill:#000000;color:#000000;}#mermaid-1772557727101 .node rect,#mermaid-1772557727101 .node circle,#mermaid-1772557727101 .node ellipse,#mermaid-1772557727101 .node polygon,#mermaid-1772557727101 .node path{fill:#eee;stroke:#999;stroke-width:1px;}#mermaid-1772557727101 .flowchart-label text{text-anchor:middle;}#mermaid-1772557727101 .node .katex path{fill:#000;stroke:#000;stroke-width:1px;}#mermaid-1772557727101 .node .label{text-align:center;}#mermaid-1772557727101 .node.clickable{cursor:pointer;}#mermaid-1772557727101 .arrowheadPath{fill:#333333;}#mermaid-1772557727101 .edgePath .path{stroke:#666;stroke-width:2.0px;}#mermaid-1772557727101 .flowchart-link{stroke:#666;fill:none;}#mermaid-1772557727101 .edgeLabel{background-color:white;text-align:center;}#mermaid-1772557727101 .edgeLabel rect{opacity:0.5;background-color:white;fill:white;}#mermaid-1772557727101 .labelBkg{background-color:rgba(255, 255, 255, 0.5);}#mermaid-1772557727101 .cluster rect{fill:hsl(0, 0%, 98.9215686275%);stroke:#707070;stroke-width:1px;}#mermaid-1772557727101 .cluster text{fill:#333;}#mermaid-1772557727101 .cluster span,#mermaid-1772557727101 p{color:#333;}#mermaid-1772557727101 div.mermaidTooltip{position:absolute;text-align:center;max-width:200px;padding:2px;font-family:"trebuchet ms",verdana,arial,sans-serif;font-size:12px;background:hsl(-160, 0%, 93.3333333333%);border:1px solid #707070;border-radius:2px;pointer-events:none;z-index:100;}#mermaid-1772557727101 .flowchartTitleText{text-anchor:middle;font-size:18px;fill:#000000;}#mermaid-1772557727101 :root{--mermaid-font-family:"trebuchet ms",verdana,arial,sans-serif;}</style><g><marker id="mermaid-1772557727101_flowchart-pointEnd" class="marker flowchart" viewBox="0 0 10 10" refX="6" refY="5" markerUnits="userSpaceOnUse" markerWidth="12" markerHeight="12" orient="auto"><path d="M 0 0 L 10 5 L 0 10 z" class="arrowMarkerPath" style="stroke-width: 1; stroke-dasharray: 1, 0;"></path></marker><marker id="mermaid-1772557727101_flowchart-pointStart" class="marker flowchart" viewBox="0 0 10 10" refX="4.5" refY="5" markerUnits="userSpaceOnUse" markerWidth="12" markerHeight="12" orient="auto"><path d="M 0 5 L 10 10 L 10 0 z" class="arrowMarkerPath" style="stroke-width: 1; stroke-dasharray: 1, 0;"></path></marker><marker id="mermaid-1772557727101_flowchart-circleEnd" class="marker flowchart" viewBox="0 0 10 10" refX="11" refY="5" markerUnits="userSpaceOnUse" markerWidth="11" markerHeight="11" orient="auto"><circle cx="5" cy="5" r="5" class="arrowMarkerPath" style="stroke-width: 1; stroke-dasharray: 1, 0;"></circle></marker><marker id="mermaid-1772557727101_flowchart-circleStart" class="marker flowchart" viewBox="0 0 10 10" refX="-1" refY="5" markerUnits="userSpaceOnUse" markerWidth="11" markerHeight="11" orient="auto"><circle cx="5" cy="5" r="5" class="arrowMarkerPath" style="stroke-width: 1; stroke-dasharray: 1, 0;"></circle></marker><marker id="mermaid-1772557727101_flowchart-crossEnd" class="marker cross flowchart" viewBox="0 0 11 11" refX="12" refY="5.2" markerUnits="userSpaceOnUse" markerWidth="11" markerHeight="11" orient="auto"><path d="M 1,1 l 9,9 M 10,1 l -9,9" class="arrowMarkerPath" style="stroke-width: 2; stroke-dasharray: 1, 0;"></path></marker><marker id="mermaid-1772557727101_flowchart-crossStart" class="marker cross flowchart" viewBox="0 0 11 11" refX="-1" refY="5.2" markerUnits="userSpaceOnUse" markerWidth="11" markerHeight="11" orient="auto"><path d="M 1,1 l 9,9 M 10,1 l -9,9" class="arrowMarkerPath" style="stroke-width: 2; stroke-dasharray: 1, 0;"></path></marker><g class="root"><g class="clusters"><g class="cluster default flowchart-label" id="subGraph7"><rect style="" rx="0" ry="0" x="1011.1796875" y="903" width="553.9140625" height="122"></rect><g class="cluster-label" transform="translate(1154.78515625, 903)"><foreignObject width="266.703125" height="19"><div xmlns="http://www.w3.org/1999/xhtml" style="display: inline-block; white-space: nowrap;"><span class="nodeLabel">End Devices - VLAN 30 (Management)</span></div></foreignObject></g></g><g class="cluster default flowchart-label" id="subGraph6"><rect style="" rx="0" ry="0" x="585.1796875" y="903" width="406" height="122"></rect><g class="cluster-label" transform="translate(658.375, 903)"><foreignObject width="259.609375" height="19"><div xmlns="http://www.w3.org/1999/xhtml" style="display: inline-block; white-space: nowrap;"><span class="nodeLabel">End Devices - VLAN 20 (Engineering)</span></div></foreignObject></g></g><g class="cluster default flowchart-label" id="subGraph5"><rect style="" rx="0" ry="0" x="11.265625" y="903" width="553.9140625" height="122"></rect><g class="cluster-label" transform="translate(182.23828125, 903)"><foreignObject width="211.96875" height="19"><div xmlns="http://www.w3.org/1999/xhtml" style="display: inline-block; white-space: nowrap;"><span class="nodeLabel">End Devices - VLAN 10 (Sales)</span></div></foreignObject></g></g><g class="cluster default flowchart-label" id="subGraph4"><rect style="" rx="0" ry="0" x="649.0390625" y="681" width="1277.9375" height="172"></rect><g class="cluster-label" transform="translate(1257.484375, 681)"><foreignObject width="61.046875" height="19"><div xmlns="http://www.w3.org/1999/xhtml" style="display: inline-block; white-space: nowrap;"><span class="nodeLabel">Switch B</span></div></foreignObject></g></g><g class="cluster default flowchart-label" id="subGraph2"><rect style="" rx="0" ry="0" x="0" y="421" width="1753.23828125" height="172"></rect><g class="cluster-label" transform="translate(846.345703125, 421)"><foreignObject width="60.546875" height="19"><div xmlns="http://www.w3.org/1999/xhtml" style="display: inline-block; white-space: nowrap;"><span class="nodeLabel">Switch A</span></div></foreignObject></g></g><g class="cluster default flowchart-label" id="subGraph0"><rect style="" rx="0" ry="0" x="1346.30859375" y="0" width="610.203125" height="352"></rect><g class="cluster-label" transform="translate(1566.48046875, 0)"><foreignObject width="169.859375" height="19"><div xmlns="http://www.w3.org/1999/xhtml" style="display: inline-block; white-space: nowrap;"><span class="nodeLabel">Layer 3 Switch / Router</span></div></foreignObject></g></g><g class="cluster default flowchart-label" id="subGraph3"><rect style="" rx="0" ry="0" x="669.0390625" y="706" width="887.3203125" height="122"></rect><g class="cluster-label" transform="translate(1026.83984375, 706)"><foreignObject width="171.71875" height="19"><div xmlns="http://www.w3.org/1999/xhtml" style="display: inline-block; white-space: nowrap;"><span class="nodeLabel">Access Ports (Untagged)</span></div></foreignObject></g></g><g class="cluster default flowchart-label" id="subGraph1"><rect style="" rx="0" ry="0" x="20" y="446" width="706.8046875" height="122"></rect><g class="cluster-label" transform="translate(287.54296875, 446)"><foreignObject width="171.71875" height="19"><div xmlns="http://www.w3.org/1999/xhtml" style="display: inline-block; white-space: nowrap;"><span class="nodeLabel">Access Ports (Untagged)</span></div></foreignObject></g></g></g><g class="edgePaths"><path d="M1454.676,160.5L1454.676,175.25C1454.676,190,1454.676,219.5,1478.829,239.747C1502.983,259.995,1551.29,270.99,1575.444,276.487L1599.598,281.985" id="L-SVI10-Router-0" class=" edge-thickness-normal edge-pattern-dotted flowchart-link LS-SVI10 LE-Router" style="fill:none;stroke-width:2px;stroke-dasharray:3;" marker-end="url(#mermaid-1772557727101_flowchart-pointEnd)"></path><path d="M1651.41,160.5L1651.41,175.25C1651.41,190,1651.41,219.5,1653.36,237.65C1655.31,255.801,1659.211,262.602,1661.161,266.002L1663.111,269.402" id="L-SVI20-Router-0" class=" edge-thickness-normal edge-pattern-dotted flowchart-link LS-SVI20 LE-Router" style="fill:none;stroke-width:2px;stroke-dasharray:3;" marker-end="url(#mermaid-1772557727101_flowchart-pointEnd)"></path><path d="M1848.145,160.5L1848.145,175.25C1848.145,190,1848.145,219.5,1833.819,238.663C1819.493,257.825,1790.842,266.65,1776.516,271.063L1762.19,275.475" id="L-SVI30-Router-0" class=" edge-thickness-normal edge-pattern-dotted flowchart-link LS-SVI30 LE-Router" style="fill:none;stroke-width:2px;stroke-dasharray:3;" marker-end="url(#mermaid-1772557727101_flowchart-pointEnd)"></path><path d="M1654.037,327L1649.806,331.167C1645.576,335.333,1637.114,343.667,1632.883,353.583C1628.652,363.5,1628.652,375,1628.652,386.5C1628.652,398,1628.652,409.5,1628.652,419.417C1628.652,429.333,1628.652,437.667,1628.652,445.117C1628.652,452.567,1628.652,459.133,1628.652,462.417L1628.652,465.7" id="L-Router-TrunkA-0" class=" edge-thickness-normal edge-pattern-dotted flowchart-link LS-Router LE-TrunkA" style="fill:none;stroke-width:2px;stroke-dasharray:3;" marker-end="url(#mermaid-1772557727101_flowchart-pointEnd)"></path><path d="M1757.125,323.081L1773.385,327.901C1789.645,332.721,1822.164,342.36,1838.424,352.93C1854.684,363.5,1854.684,375,1854.684,386.5C1854.684,398,1854.684,409.5,1854.684,419.417C1854.684,429.333,1854.684,437.667,1854.684,452C1854.684,466.333,1854.684,486.667,1854.684,507C1854.684,527.333,1854.684,547.667,1854.684,562C1854.684,576.333,1854.684,584.667,1854.684,596.167C1854.684,607.667,1854.684,622.333,1854.684,637C1854.684,651.667,1854.684,666.333,1854.684,677.833C1854.684,689.333,1854.684,697.667,1841.492,706.465C1828.3,715.263,1801.916,724.527,1788.724,729.159L1775.532,733.79" id="L-Router-TrunkB-0" class=" edge-thickness-normal edge-pattern-dotted flowchart-link LS-Router LE-TrunkB" style="fill:none;stroke-width:2px;stroke-dasharray:3;" marker-end="url(#mermaid-1772557727101_flowchart-pointEnd)"></path><path d="M1628.652,548.3L1628.652,551.583C1628.652,554.867,1628.652,561.433,1628.652,568.883C1628.652,576.333,1628.652,584.667,1628.652,596.167C1628.652,607.667,1628.652,622.333,1628.652,637C1628.652,651.667,1628.652,666.333,1628.652,677.833C1628.652,689.333,1628.652,697.667,1631.649,705.329C1634.646,712.992,1640.64,719.984,1643.637,723.48L1646.634,726.976" id="L-TrunkA-TrunkB-0" class=" edge-thickness-normal edge-pattern-solid flowchart-link LS-TrunkA LE-TrunkB" style="fill:none;" marker-start="url(#mermaid-1772557727101_flowchart-pointStart)" marker-end="url(#mermaid-1772557727101_flowchart-pointEnd)"></path><path d="M117.766,543L117.766,547.167C117.766,551.333,117.766,559.667,117.766,568C117.766,576.333,117.766,584.667,117.766,596.167C117.766,607.667,117.766,622.333,117.766,637C117.766,651.667,117.766,666.333,117.766,677.833C117.766,689.333,117.766,697.667,117.766,712C117.766,726.333,117.766,746.667,117.766,767C117.766,787.333,117.766,807.667,117.766,822C117.766,836.333,117.766,844.667,117.766,853C117.766,861.333,117.766,869.667,117.766,878C117.766,886.333,117.766,894.667,117.766,902.117C117.766,909.567,117.766,916.133,117.766,919.417L117.766,922.7" id="L-PortA1-PC1-0" class=" edge-thickness-normal edge-pattern-solid flowchart-link LS-PortA1 LE-PC1" style="fill:none;" marker-end="url(#mermaid-1772557727101_flowchart-pointEnd)"></path><path d="M766.805,803L766.805,807.167C766.805,811.333,766.805,819.667,766.805,828C766.805,836.333,766.805,844.667,766.805,853C766.805,861.333,766.805,869.667,715.451,878C664.096,886.333,561.388,894.667,510.034,902.117C458.68,909.567,458.68,916.133,458.68,919.417L458.68,922.7" id="L-PortB1-PC2-0" class=" edge-thickness-normal edge-pattern-solid flowchart-link LS-PortB1 LE-PC2" style="fill:none;" marker-end="url(#mermaid-1772557727101_flowchart-pointEnd)"></path><path d="M328.273,543L328.273,547.167C328.273,551.333,328.273,559.667,328.273,568C328.273,576.333,328.273,584.667,328.273,596.167C328.273,607.667,328.273,622.333,328.273,637C328.273,651.667,328.273,666.333,328.273,677.833C328.273,689.333,328.273,697.667,328.273,712C328.273,726.333,328.273,746.667,328.273,767C328.273,787.333,328.273,807.667,328.273,822C328.273,836.333,328.273,844.667,328.273,853C328.273,861.333,328.273,869.667,388.841,878C449.409,886.333,570.544,894.667,631.112,902.117C691.68,909.567,691.68,916.133,691.68,919.417L691.68,922.7" id="L-PortA2-PC3-0" class=" edge-thickness-normal edge-pattern-solid flowchart-link LS-PortA2 LE-PC3" style="fill:none;" marker-end="url(#mermaid-1772557727101_flowchart-pointEnd)"></path><path d="M1067.57,803L1067.57,807.167C1067.57,811.333,1067.57,819.667,1067.57,828C1067.57,836.333,1067.57,844.667,1067.57,853C1067.57,861.333,1067.57,869.667,1037.089,878C1006.607,886.333,945.643,894.667,915.161,902.117C884.68,909.567,884.68,916.133,884.68,919.417L884.68,922.7" id="L-PortB2-PC4-0" class=" edge-thickness-normal edge-pattern-solid flowchart-link LS-PortB2 LE-PC4" style="fill:none;" marker-end="url(#mermaid-1772557727101_flowchart-pointEnd)"></path><path d="M629.039,543L629.039,547.167C629.039,551.333,629.039,559.667,629.039,568C629.039,576.333,629.039,584.667,629.039,596.167C629.039,607.667,629.039,622.333,629.039,637C629.039,651.667,629.039,666.333,629.039,677.833C629.039,689.333,629.039,697.667,629.039,712C629.039,726.333,629.039,746.667,629.039,767C629.039,787.333,629.039,807.667,629.039,822C629.039,836.333,629.039,844.667,629.039,853C629.039,861.333,629.039,869.667,710.479,878C791.919,886.333,954.799,894.667,1036.24,902.117C1117.68,909.567,1117.68,916.133,1117.68,919.417L1117.68,922.7" id="L-PortA3-PC5-0" class=" edge-thickness-normal edge-pattern-solid flowchart-link LS-PortA3 LE-PC5" style="fill:none;" marker-end="url(#mermaid-1772557727101_flowchart-pointEnd)"></path><path d="M1458.594,803L1458.594,807.167C1458.594,811.333,1458.594,819.667,1458.594,828C1458.594,836.333,1458.594,844.667,1458.594,853C1458.594,861.333,1458.594,869.667,1458.594,878C1458.594,886.333,1458.594,894.667,1458.594,902.117C1458.594,909.567,1458.594,916.133,1458.594,919.417L1458.594,922.7" id="L-PortB3-PC6-0" class=" edge-thickness-normal edge-pattern-solid flowchart-link LS-PortB3 LE-PC6" style="fill:none;" marker-end="url(#mermaid-1772557727101_flowchart-pointEnd)"></path></g><g class="edgeLabels"><g class="edgeLabel"><g class="label" transform="translate(0, 0)"><foreignObject width="0" height="0"><div xmlns="http://www.w3.org/1999/xhtml" style="display: inline-block; white-space: nowrap;"><span class="edgeLabel"></span></div></foreignObject></g></g><g class="edgeLabel"><g class="label" transform="translate(0, 0)"><foreignObject width="0" height="0"><div xmlns="http://www.w3.org/1999/xhtml" style="display: inline-block; white-space: nowrap;"><span class="edgeLabel"></span></div></foreignObject></g></g><g class="edgeLabel"><g class="label" transform="translate(0, 0)"><foreignObject width="0" height="0"><div xmlns="http://www.w3.org/1999/xhtml" style="display: inline-block; white-space: nowrap;"><span class="edgeLabel"></span></div></foreignObject></g></g><g class="edgeLabel" transform="translate(1628.65234375, 386.5)"><g class="label" transform="translate(-81.4453125, -9.5)"><foreignObject width="162.890625" height="19"><div xmlns="http://www.w3.org/1999/xhtml" style="display: inline-block; white-space: nowrap;"><span class="edgeLabel">Routes between VLANs</span></div></foreignObject></g></g><g class="edgeLabel" transform="translate(1854.68359375, 507)"><g class="label" transform="translate(-81.4453125, -9.5)"><foreignObject width="162.890625" height="19"><div xmlns="http://www.w3.org/1999/xhtml" style="display: inline-block; white-space: nowrap;"><span class="edgeLabel">Routes between VLANs</span></div></foreignObject></g></g><g class="edgeLabel" transform="translate(1628.65234375, 637)"><g class="label" transform="translate(-52.03125, -19)"><foreignObject width="104.0625" height="38"><div xmlns="http://www.w3.org/1999/xhtml" style="display: inline-block; white-space: nowrap;"><span class="edgeLabel">Tagged frames<br>VLAN 10,20,30</span></div></foreignObject></g></g><g class="edgeLabel"><g class="label" transform="translate(0, 0)"><foreignObject width="0" height="0"><div xmlns="http://www.w3.org/1999/xhtml" style="display: inline-block; white-space: nowrap;"><span class="edgeLabel"></span></div></foreignObject></g></g><g class="edgeLabel"><g class="label" transform="translate(0, 0)"><foreignObject width="0" height="0"><div xmlns="http://www.w3.org/1999/xhtml" style="display: inline-block; white-space: nowrap;"><span class="edgeLabel"></span></div></foreignObject></g></g><g class="edgeLabel"><g class="label" transform="translate(0, 0)"><foreignObject width="0" height="0"><div xmlns="http://www.w3.org/1999/xhtml" style="display: inline-block; white-space: nowrap;"><span class="edgeLabel"></span></div></foreignObject></g></g><g class="edgeLabel"><g class="label" transform="translate(0, 0)"><foreignObject width="0" height="0"><div xmlns="http://www.w3.org/1999/xhtml" style="display: inline-block; white-space: nowrap;"><span class="edgeLabel"></span></div></foreignObject></g></g><g class="edgeLabel"><g class="label" transform="translate(0, 0)"><foreignObject width="0" height="0"><div xmlns="http://www.w3.org/1999/xhtml" style="display: inline-block; white-space: nowrap;"><span class="edgeLabel"></span></div></foreignObject></g></g><g class="edgeLabel"><g class="label" transform="translate(0, 0)"><foreignObject width="0" height="0"><div xmlns="http://www.w3.org/1999/xhtml" style="display: inline-block; white-space: nowrap;"><span class="edgeLabel"></span></div></foreignObject></g></g></g><g class="nodes"><g class="root" transform="translate(904.41796875, 17)"><g class="clusters"><g class="cluster default flowchart-label" id="subGraph8"><rect style="" rx="0" ry="0" x="8" y="8" width="399.390625" height="199"></rect><g class="cluster-label" transform="translate(128.828125, 8)"><foreignObject width="157.734375" height="19"><div xmlns="http://www.w3.org/1999/xhtml" style="display: inline-block; white-space: nowrap;"><span class="nodeLabel">802.1Q Frame Tagging</span></div></foreignObject></g></g></g><g class="edgePaths"></g><g class="edgeLabels"></g><g class="nodes"><g class="node default default flowchart-label" id="flowchart-Frame-22" data-node="true" data-id="Frame" transform="translate(207.6953125, 107.5)"><rect class="basic label-container" style="fill:#f3e5f5;" rx="0" ry="0" x="-174.6953125" y="-64.5" width="349.390625" height="129"></rect><g class="label" style="" transform="translate(-167.1953125, -57)"><rect></rect><foreignObject width="334.390625" height="114"><div xmlns="http://www.w3.org/1999/xhtml" style="display: inline-block; white-space: nowrap;"><span class="nodeLabel">Ethernet Frame with 802.1Q Tag:<br>----------------------------------------------<br>-Dest MAC-Src MAC- TPID - TCI -Payload - FCS -<br>----------------------------------------------<br>TPID: 0x8100 (identifies 802.1Q)<br>TCI: Priority(3b) + DEI(1b) + VLAN ID(12b)</span></div></foreignObject></g></g></g></g><g class="node default default flowchart-label" id="flowchart-PC5-20" data-node="true" data-id="PC5" transform="translate(1117.6796875, 964)"><rect class="basic label-container" style="fill:#fff9c4;" rx="0" ry="0" x="-71.5" y="-36" width="143" height="72"></rect><g class="label" style="" transform="translate(-64, -28.5)"><rect></rect><foreignObject width="128" height="57"><div xmlns="http://www.w3.org/1999/xhtml" style="display: inline-block; white-space: nowrap;"><span class="nodeLabel">PC-E<br>192.168.30.10<br>GW: 192.168.30.1</span></div></foreignObject></g></g><g class="node default default flowchart-label" id="flowchart-PC6-21" data-node="true" data-id="PC6" transform="translate(1458.59375, 964)"><rect class="basic label-container" style="fill:#fff9c4;" rx="0" ry="0" x="-71.5" y="-36" width="143" height="72"></rect><g class="label" style="" transform="translate(-64, -28.5)"><rect></rect><foreignObject width="128" height="57"><div xmlns="http://www.w3.org/1999/xhtml" style="display: inline-block; white-space: nowrap;"><span class="nodeLabel">PC-F<br>192.168.30.20<br>GW: 192.168.30.1</span></div></foreignObject></g></g><g class="node default default flowchart-label" id="flowchart-PC3-18" data-node="true" data-id="PC3" transform="translate(691.6796875, 964)"><rect class="basic label-container" style="fill:#e8f5e9;" rx="0" ry="0" x="-71.5" y="-36" width="143" height="72"></rect><g class="label" style="" transform="translate(-64, -28.5)"><rect></rect><foreignObject width="128" height="57"><div xmlns="http://www.w3.org/1999/xhtml" style="display: inline-block; white-space: nowrap;"><span class="nodeLabel">PC-C<br>192.168.20.10<br>GW: 192.168.20.1</span></div></foreignObject></g></g><g class="node default default flowchart-label" id="flowchart-PC4-19" data-node="true" data-id="PC4" transform="translate(884.6796875, 964)"><rect class="basic label-container" style="fill:#e8f5e9;" rx="0" ry="0" x="-71.5" y="-36" width="143" height="72"></rect><g class="label" style="" transform="translate(-64, -28.5)"><rect></rect><foreignObject width="128" height="57"><div xmlns="http://www.w3.org/1999/xhtml" style="display: inline-block; white-space: nowrap;"><span class="nodeLabel">PC-D<br>192.168.20.20<br>GW: 192.168.20.1</span></div></foreignObject></g></g><g class="node default default flowchart-label" id="flowchart-PC1-16" data-node="true" data-id="PC1" transform="translate(117.765625, 964)"><rect class="basic label-container" style="fill:#e1f5ff;" rx="0" ry="0" x="-71.5" y="-36" width="143" height="72"></rect><g class="label" style="" transform="translate(-64, -28.5)"><rect></rect><foreignObject width="128" height="57"><div xmlns="http://www.w3.org/1999/xhtml" style="display: inline-block; white-space: nowrap;"><span class="nodeLabel">PC-A<br>192.168.10.10<br>GW: 192.168.10.1</span></div></foreignObject></g></g><g class="node default default flowchart-label" id="flowchart-PC2-17" data-node="true" data-id="PC2" transform="translate(458.6796875, 964)"><rect class="basic label-container" style="fill:#e1f5ff;" rx="0" ry="0" x="-71.5" y="-36" width="143" height="72"></rect><g class="label" style="" transform="translate(-64, -28.5)"><rect></rect><foreignObject width="128" height="57"><div xmlns="http://www.w3.org/1999/xhtml" style="display: inline-block; white-space: nowrap;"><span class="nodeLabel">PC-B<br>192.168.10.20<br>GW: 192.168.10.1</span></div></foreignObject></g></g><g class="node default default flowchart-label" id="flowchart-TrunkB-12" data-node="true" data-id="TrunkB" transform="translate(1680.9453125, 767)"><rect class="basic label-container" style="fill:#fff4e6;" rx="0" ry="0" x="-89.5859375" y="-36" width="179.171875" height="72"></rect><g class="label" style="" transform="translate(-82.0859375, -28.5)"><rect></rect><foreignObject width="164.171875" height="57"><div xmlns="http://www.w3.org/1999/xhtml" style="display: inline-block; white-space: nowrap;"><span class="nodeLabel">Trunk Port Gi0/1<br>Tagged: VLAN 10,20,30<br>Native: VLAN 99</span></div></foreignObject></g></g><g class="node default default flowchart-label" id="flowchart-PortB1-13" data-node="true" data-id="PortB1" transform="translate(766.8046875, 767)"><rect class="basic label-container" style="fill:#e1f5ff;" rx="0" ry="0" x="-62.765625" y="-36" width="125.53125" height="72"></rect><g class="label" style="" transform="translate(-55.265625, -28.5)"><rect></rect><foreignObject width="110.53125" height="57"><div xmlns="http://www.w3.org/1999/xhtml" style="display: inline-block; white-space: nowrap;"><span class="nodeLabel">Fa0/1<br>Access VLAN 10<br>Untagged</span></div></foreignObject></g></g><g class="node default default flowchart-label" id="flowchart-PortB2-14" data-node="true" data-id="PortB2" transform="translate(1067.5703125, 767)"><rect class="basic label-container" style="fill:#e8f5e9;" rx="0" ry="0" x="-62.765625" y="-36" width="125.53125" height="72"></rect><g class="label" style="" transform="translate(-55.265625, -28.5)"><rect></rect><foreignObject width="110.53125" height="57"><div xmlns="http://www.w3.org/1999/xhtml" style="display: inline-block; white-space: nowrap;"><span class="nodeLabel">Fa0/2<br>Access VLAN 20<br>Untagged</span></div></foreignObject></g></g><g class="node default default flowchart-label" id="flowchart-PortB3-15" data-node="true" data-id="PortB3" transform="translate(1458.59375, 767)"><rect class="basic label-container" style="fill:#fff9c4;" rx="0" ry="0" x="-62.765625" y="-36" width="125.53125" height="72"></rect><g class="label" style="" transform="translate(-55.265625, -28.5)"><rect></rect><foreignObject width="110.53125" height="57"><div xmlns="http://www.w3.org/1999/xhtml" style="display: inline-block; white-space: nowrap;"><span class="nodeLabel">Fa0/3<br>Access VLAN 30<br>Untagged</span></div></foreignObject></g></g><g class="node default default flowchart-label" id="flowchart-TrunkA-8" data-node="true" data-id="TrunkA" transform="translate(1628.65234375, 507)"><rect class="basic label-container" style="fill:#fff4e6;" rx="0" ry="0" x="-89.5859375" y="-36" width="179.171875" height="72"></rect><g class="label" style="" transform="translate(-82.0859375, -28.5)"><rect></rect><foreignObject width="164.171875" height="57"><div xmlns="http://www.w3.org/1999/xhtml" style="display: inline-block; white-space: nowrap;"><span class="nodeLabel">Trunk Port Gi0/1<br>Tagged: VLAN 10,20,30<br>Native: VLAN 99</span></div></foreignObject></g></g><g class="node default default flowchart-label" id="flowchart-PortA1-9" data-node="true" data-id="PortA1" transform="translate(117.765625, 507)"><rect class="basic label-container" style="fill:#e1f5ff;" rx="0" ry="0" x="-62.765625" y="-36" width="125.53125" height="72"></rect><g class="label" style="" transform="translate(-55.265625, -28.5)"><rect></rect><foreignObject width="110.53125" height="57"><div xmlns="http://www.w3.org/1999/xhtml" style="display: inline-block; white-space: nowrap;"><span class="nodeLabel">Fa0/1<br>Access VLAN 10<br>Untagged</span></div></foreignObject></g></g><g class="node default default flowchart-label" id="flowchart-PortA2-10" data-node="true" data-id="PortA2" transform="translate(328.2734375, 507)"><rect class="basic label-container" style="fill:#e8f5e9;" rx="0" ry="0" x="-62.765625" y="-36" width="125.53125" height="72"></rect><g class="label" style="" transform="translate(-55.265625, -28.5)"><rect></rect><foreignObject width="110.53125" height="57"><div xmlns="http://www.w3.org/1999/xhtml" style="display: inline-block; white-space: nowrap;"><span class="nodeLabel">Fa0/2<br>Access VLAN 20<br>Untagged</span></div></foreignObject></g></g><g class="node default default flowchart-label" id="flowchart-PortA3-11" data-node="true" data-id="PortA3" transform="translate(629.0390625, 507)"><rect class="basic label-container" style="fill:#fff9c4;" rx="0" ry="0" x="-62.765625" y="-36" width="125.53125" height="72"></rect><g class="label" style="" transform="translate(-55.265625, -28.5)"><rect></rect><foreignObject width="110.53125" height="57"><div xmlns="http://www.w3.org/1999/xhtml" style="display: inline-block; white-space: nowrap;"><span class="nodeLabel">Fa0/3<br>Access VLAN 30<br>Untagged</span></div></foreignObject></g></g><g class="node default default flowchart-label" id="flowchart-SVI10-0" data-node="true" data-id="SVI10" transform="translate(1454.67578125, 124.5)"><rect class="basic label-container" style="fill:#e3f2fd;" rx="0" ry="0" x="-73.3671875" y="-36" width="146.734375" height="72"></rect><g class="label" style="" transform="translate(-65.8671875, -28.5)"><rect></rect><foreignObject width="131.734375" height="57"><div xmlns="http://www.w3.org/1999/xhtml" style="display: inline-block; white-space: nowrap;"><span class="nodeLabel">SVI VLAN 10<br>192.168.10.1/24<br>(Default Gateway)</span></div></foreignObject></g></g><g class="node default default flowchart-label" id="flowchart-SVI20-1" data-node="true" data-id="SVI20" transform="translate(1651.41015625, 124.5)"><rect class="basic label-container" style="fill:#f1f8e9;" rx="0" ry="0" x="-73.3671875" y="-36" width="146.734375" height="72"></rect><g class="label" style="" transform="translate(-65.8671875, -28.5)"><rect></rect><foreignObject width="131.734375" height="57"><div xmlns="http://www.w3.org/1999/xhtml" style="display: inline-block; white-space: nowrap;"><span class="nodeLabel">SVI VLAN 20<br>192.168.20.1/24<br>(Default Gateway)</span></div></foreignObject></g></g><g class="node default default flowchart-label" id="flowchart-SVI30-2" data-node="true" data-id="SVI30" transform="translate(1848.14453125, 124.5)"><rect class="basic label-container" style="fill:#fff9c4;" rx="0" ry="0" x="-73.3671875" y="-36" width="146.734375" height="72"></rect><g class="label" style="" transform="translate(-65.8671875, -28.5)"><rect></rect><foreignObject width="131.734375" height="57"><div xmlns="http://www.w3.org/1999/xhtml" style="display: inline-block; white-space: nowrap;"><span class="nodeLabel">SVI VLAN 30<br>192.168.30.1/24<br>(Default Gateway)</span></div></foreignObject></g></g><g class="node default default flowchart-label" id="flowchart-Router-3" data-node="true" data-id="Router" transform="translate(1680.9453125, 300.5)"><rect class="basic label-container" style="fill:#ffebee;" rx="0" ry="0" x="-76.1796875" y="-26.5" width="152.359375" height="53"></rect><g class="label" style="" transform="translate(-68.6796875, -19)"><rect></rect><foreignObject width="137.359375" height="38"><div xmlns="http://www.w3.org/1999/xhtml" style="display: inline-block; white-space: nowrap;"><span class="nodeLabel">Inter-VLAN Routing<br>Layer 3 Forwarding</span></div></foreignObject></g></g></g></g></g></svg>