<svg id="mermaid-1772557642396" width="100%" xmlns="http://www.w3.org/2000/svg" xmlns:xlink="http://www.w3.org/1999/xlink" style="max-width: 1661.1953125px;" viewBox="-8 -8 1661.1953125 1230" role="graphics-document document" aria-roledescription="flowchart-v2"><style>#mermaid-1772557642396{font-family:"trebuchet ms",verdana,arial,sans-serif;font-size:16px;fill:#000000;}#mermaid-1772557642396 .error-icon{fill:#552222;}#mermaid-1772557642396 .error-text{fill:#552222;stroke:#552222;}#mermaid-1772557642396 .edge-thickness-normal{stroke-width:2px;}#mermaid-1772557642396 .edge-thickness-thick{stroke-width:3.5px;}#mermaid-1772557642396 .edge-pattern-solid{stroke-dasharray:0;}#mermaid-1772557642396 .edge-pattern-dashed{stroke-dasharray:3;}#mermaid-1772557642396 .edge-pattern-dotted{stroke-dasharray:2;}#mermaid-1772557642396 .marker{fill:#666;stroke:#666;}#mermaid-1772557642396 .marker.cross{stroke:#666;}#mermaid-1772557642396 svg{font-family:"trebuchet ms",verdana,arial,sans-serif;font-size:16px;}#mermaid-1772557642396 .label{font-family:"trebuchet ms",verdana,arial,sans-serif;color:#000000;}#mermaid-1772557642396 .cluster-label text{fill:#333;}#mermaid-1772557642396 .cluster-label span,#mermaid-1772557642396 p{color:#333;}#mermaid-1772557642396 .label text,#mermaid-1772557642396 span,#mermaid-1772557642396 p{fill:#000000;color:#000000;}#mermaid-1772557642396 .node rect,#mermaid-1772557642396 .node circle,#mermaid-1772557642396 .node ellipse,#mermaid-1772557642396 .node polygon,#mermaid-1772557642396 .node path{fill:#eee;stroke:#999;stroke-width:1px;}#mermaid-1772557642396 .flowchart-label text{text-anchor:middle;}#mermaid-1772557642396 .node .katex path{fill:#000;stroke:#000;stroke-width:1px;}#mermaid-1772557642396 .node .label{text-align:center;}#mermaid-1772557642396 .node.clickable{cursor:pointer;}#mermaid-1772557642396 .arrowheadPath{fill:#333333;}#mermaid-1772557642396 .edgePath .path{stroke:#666;stroke-width:2.0px;}#mermaid-1772557642396 .flowchart-link{stroke:#666;fill:none;}#mermaid-1772557642396 .edgeLabel{background-color:white;text-align:center;}#mermaid-1772557642396 .edgeLabel rect{opacity:0.5;background-color:white;fill:white;}#mermaid-1772557642396 .labelBkg{background-color:rgba(255, 255, 255, 0.5);}#mermaid-1772557642396 .cluster rect{fill:hsl(0, 0%, 98.9215686275%);stroke:#707070;stroke-width:1px;}#mermaid-1772557642396 .cluster text{fill:#333;}#mermaid-1772557642396 .cluster span,#mermaid-1772557642396 p{color:#333;}#mermaid-1772557642396 div.mermaidTooltip{position:absolute;text-align:center;max-width:200px;padding:2px;font-family:"trebuchet ms",verdana,arial,sans-serif;font-size:12px;background:hsl(-160, 0%, 93.3333333333%);border:1px solid #707070;border-radius:2px;pointer-events:none;z-index:100;}#mermaid-1772557642396 .flowchartTitleText{text-anchor:middle;font-size:18px;fill:#000000;}#mermaid-1772557642396 :root{--mermaid-font-family:"trebuchet ms",verdana,arial,sans-serif;}</style><g><marker id="mermaid-1772557642396_flowchart-pointEnd" class="marker flowchart" viewBox="0 0 10 10" refX="6" refY="5" markerUnits="userSpaceOnUse" markerWidth="12" markerHeight="12" orient="auto"><path d="M 0 0 L 10 5 L 0 10 z" class="arrowMarkerPath" style="stroke-width: 1; stroke-dasharray: 1, 0;"></path></marker><marker id="mermaid-1772557642396_flowchart-pointStart" class="marker flowchart" viewBox="0 0 10 10" refX="4.5" refY="5" markerUnits="userSpaceOnUse" markerWidth="12" markerHeight="12" orient="auto"><path d="M 0 5 L 10 10 L 10 0 z" class="arrowMarkerPath" style="stroke-width: 1; stroke-dasharray: 1, 0;"></path></marker><marker id="mermaid-1772557642396_flowchart-circleEnd" class="marker flowchart" viewBox="0 0 10 10" refX="11" refY="5" markerUnits="userSpaceOnUse" markerWidth="11" markerHeight="11" orient="auto"><circle cx="5" cy="5" r="5" class="arrowMarkerPath" style="stroke-width: 1; stroke-dasharray: 1, 0;"></circle></marker><marker id="mermaid-1772557642396_flowchart-circleStart" class="marker flowchart" viewBox="0 0 10 10" refX="-1" refY="5" markerUnits="userSpaceOnUse" markerWidth="11" markerHeight="11" orient="auto"><circle cx="5" cy="5" r="5" class="arrowMarkerPath" style="stroke-width: 1; stroke-dasharray: 1, 0;"></circle></marker><marker id="mermaid-1772557642396_flowchart-crossEnd" class="marker cross flowchart" viewBox="0 0 11 11" refX="12" refY="5.2" markerUnits="userSpaceOnUse" markerWidth="11" markerHeight="11" orient="auto"><path d="M 1,1 l 9,9 M 10,1 l -9,9" class="arrowMarkerPath" style="stroke-width: 2; stroke-dasharray: 1, 0;"></path></marker><marker id="mermaid-1772557642396_flowchart-crossStart" class="marker cross flowchart" viewBox="0 0 11 11" refX="-1" refY="5.2" markerUnits="userSpaceOnUse" markerWidth="11" markerHeight="11" orient="auto"><path d="M 1,1 l 9,9 M 10,1 l -9,9" class="arrowMarkerPath" style="stroke-width: 2; stroke-dasharray: 1, 0;"></path></marker><g class="root"><g class="clusters"><g class="cluster default flowchart-label" id="Persistence"><rect style="fill:#ffcccc;" rx="0" ry="0" x="0" y="821" width="1645.1953125" height="393"></rect><g class="cluster-label" transform="translate(728.22265625, 821)"><foreignObject width="188.75" height="19"><div xmlns="http://www.w3.org/1999/xhtml" style="display: inline-block; white-space: nowrap;"><span class="nodeLabel">Persistent Elevated Access</span></div></foreignObject></g></g><g class="cluster default flowchart-label" id="Attack"><rect style="fill:#ffe6e6;" rx="0" ry="0" x="428.42578125" y="0" width="334.71875" height="771"></rect><g class="cluster-label" transform="translate(531.88671875, 0)"><foreignObject width="127.796875" height="19"><div xmlns="http://www.w3.org/1999/xhtml" style="display: inline-block; white-space: nowrap;"><span class="nodeLabel">SID History Attack</span></div></foreignObject></g></g></g><g class="edgePaths"><path d="M595.785,206L595.785,231.5C595.785,257,595.785,308,595.785,336.783C595.785,365.567,595.785,372.133,595.785,375.417L595.785,378.7" id="L-A1-A2-0" class=" edge-thickness-normal edge-pattern-solid flowchart-link LS-A1 LE-A2" style="fill:none;" marker-end="url(#mermaid-1772557642396_flowchart-pointEnd)"></path><path d="M595.785,437L595.785,441.167C595.785,445.333,595.785,453.667,595.785,461.117C595.785,468.567,595.785,475.133,595.785,478.417L595.785,481.7" id="L-A2-A3-0" class=" edge-thickness-normal edge-pattern-solid flowchart-link LS-A2 LE-A3" style="fill:none;" marker-end="url(#mermaid-1772557642396_flowchart-pointEnd)"></path><path d="M595.785,540L595.785,544.167C595.785,548.333,595.785,556.667,595.785,564.117C595.785,571.567,595.785,578.133,595.785,581.417L595.785,584.7" id="L-A3-A4-0" class=" edge-thickness-normal edge-pattern-solid flowchart-link LS-A3 LE-A4" style="fill:none;" marker-end="url(#mermaid-1772557642396_flowchart-pointEnd)"></path><path d="M595.785,624L595.785,628.167C595.785,632.333,595.785,640.667,595.785,648.117C595.785,655.567,595.785,662.133,595.785,665.417L595.785,668.7" id="L-A4-A5-0" class=" edge-thickness-normal edge-pattern-solid flowchart-link LS-A4 LE-A5" style="fill:none;" marker-end="url(#mermaid-1772557642396_flowchart-pointEnd)"></path><path d="M595.785,746L595.785,750.167C595.785,754.333,595.785,762.667,595.785,771C595.785,779.333,595.785,787.667,595.785,796C595.785,804.333,595.785,812.667,595.785,820.117C595.785,827.567,595.785,834.133,595.785,837.417L595.785,840.7" id="L-A5-L1-0" class=" edge-thickness-normal edge-pattern-solid flowchart-link LS-A5 LE-L1" style="fill:none;" marker-end="url(#mermaid-1772557642396_flowchart-pointEnd)"></path><path d="M595.785,880L595.785,884.167C595.785,888.333,595.785,896.667,595.785,904.117C595.785,911.567,595.785,918.133,595.785,921.417L595.785,924.7" id="L-L1-T2-0" class=" edge-thickness-normal edge-pattern-solid flowchart-link LS-L1 LE-T2" style="fill:none;" marker-end="url(#mermaid-1772557642396_flowchart-pointEnd)"></path><path d="M510.965,954.861L449.57,960.551C388.174,966.241,265.384,977.62,203.989,988.177C142.594,998.733,142.594,1008.467,142.594,1013.333L142.594,1018.2" id="L-T2-T2a-0" class=" edge-thickness-normal edge-pattern-solid flowchart-link LS-T2 LE-T2a" style="fill:none;" marker-end="url(#mermaid-1772557642396_flowchart-pointEnd)"></path><path d="M529.713,964L513.518,968.167C497.324,972.333,464.935,980.667,448.741,988.117C432.547,995.567,432.547,1002.133,432.547,1005.417L432.547,1008.7" id="L-T2-T2b-0" class=" edge-thickness-normal edge-pattern-solid flowchart-link LS-T2 LE-T2b" style="fill:none;" marker-end="url(#mermaid-1772557642396_flowchart-pointEnd)"></path><path d="M661.858,964L678.052,968.167C694.246,972.333,726.635,980.667,742.829,989.7C759.023,998.733,759.023,1008.467,759.023,1013.333L759.023,1018.2" id="L-T2-T2c-0" class=" edge-thickness-normal edge-pattern-solid flowchart-link LS-T2 LE-T2c" style="fill:none;" marker-end="url(#mermaid-1772557642396_flowchart-pointEnd)"></path><path d="M680.605,954.498L745.657,960.248C810.708,965.999,940.811,977.499,1005.863,988.116C1070.914,998.733,1070.914,1008.467,1070.914,1013.333L1070.914,1018.2" id="L-T2-T2d-0" class=" edge-thickness-normal edge-pattern-solid flowchart-link LS-T2 LE-T2d" style="fill:none;" marker-end="url(#mermaid-1772557642396_flowchart-pointEnd)"></path><path d="M1070.914,1057.5L1070.914,1063.25C1070.914,1069,1070.914,1080.5,1070.914,1089.533C1070.914,1098.567,1070.914,1105.133,1070.914,1108.417L1070.914,1111.7" id="L-T2d-Result-0" class=" edge-thickness-normal edge-pattern-solid flowchart-link LS-T2d LE-Result" style="fill:none;" marker-end="url(#mermaid-1772557642396_flowchart-pointEnd)"></path><path d="M1188.898,1132.5L1203.766,1129.917C1218.635,1127.333,1248.371,1122.167,1266.956,1119.583C1285.541,1117,1292.975,1117,1300.409,1123C1307.843,1129,1315.277,1141,1315.277,1153C1315.277,1165,1307.843,1177,1300.409,1183C1292.975,1189,1285.541,1189,1267.826,1186.568C1250.111,1184.136,1222.116,1179.271,1208.118,1176.839L1194.12,1174.407" id="L-Result-Result-0" class=" edge-thickness-normal edge-pattern-dotted flowchart-link LS-Result LE-Result" style="fill:none;stroke-width:2px;stroke-dasharray:3;" marker-end="url(#mermaid-1772557642396_flowchart-pointEnd)"></path><path d="M1188.898,1140.782L1227.172,1136.818C1265.445,1132.854,1341.992,1124.927,1389.834,1120.964C1437.676,1117,1456.813,1117,1475.949,1123C1495.086,1129,1514.223,1141,1514.223,1153C1514.223,1165,1495.086,1177,1475.949,1183C1456.813,1189,1437.676,1189,1390.713,1185.127C1343.749,1181.255,1268.96,1173.51,1231.565,1169.637L1194.17,1165.764" id="L-Result-Result-1" class=" edge-thickness-normal edge-pattern-dotted flowchart-link LS-Result LE-Result" style="fill:none;stroke-width:2px;stroke-dasharray:3;" marker-end="url(#mermaid-1772557642396_flowchart-pointEnd)"></path></g><g class="edgeLabels"><g class="edgeLabel"><g class="label" transform="translate(0, 0)"><foreignObject width="0" height="0"><div xmlns="http://www.w3.org/1999/xhtml" style="display: inline-block; white-space: nowrap;"><span class="edgeLabel"></span></div></foreignObject></g></g><g class="edgeLabel"><g class="label" transform="translate(0, 0)"><foreignObject width="0" height="0"><div xmlns="http://www.w3.org/1999/xhtml" style="display: inline-block; white-space: nowrap;"><span class="edgeLabel"></span></div></foreignObject></g></g><g class="edgeLabel"><g class="label" transform="translate(0, 0)"><foreignObject width="0" height="0"><div xmlns="http://www.w3.org/1999/xhtml" style="display: inline-block; white-space: nowrap;"><span class="edgeLabel"></span></div></foreignObject></g></g><g class="edgeLabel"><g class="label" transform="translate(0, 0)"><foreignObject width="0" height="0"><div xmlns="http://www.w3.org/1999/xhtml" style="display: inline-block; white-space: nowrap;"><span class="edgeLabel"></span></div></foreignObject></g></g><g class="edgeLabel"><g class="label" transform="translate(0, 0)"><foreignObject width="0" height="0"><div xmlns="http://www.w3.org/1999/xhtml" style="display: inline-block; white-space: nowrap;"><span class="edgeLabel"></span></div></foreignObject></g></g><g class="edgeLabel"><g class="label" transform="translate(0, 0)"><foreignObject width="0" height="0"><div xmlns="http://www.w3.org/1999/xhtml" style="display: inline-block; white-space: nowrap;"><span class="edgeLabel"></span></div></foreignObject></g></g><g class="edgeLabel"><g class="label" transform="translate(0, 0)"><foreignObject width="0" height="0"><div xmlns="http://www.w3.org/1999/xhtml" style="display: inline-block; white-space: nowrap;"><span class="edgeLabel"></span></div></foreignObject></g></g><g class="edgeLabel"><g class="label" transform="translate(0, 0)"><foreignObject width="0" height="0"><div xmlns="http://www.w3.org/1999/xhtml" style="display: inline-block; white-space: nowrap;"><span class="edgeLabel"></span></div></foreignObject></g></g><g class="edgeLabel"><g class="label" transform="translate(0, 0)"><foreignObject width="0" height="0"><div xmlns="http://www.w3.org/1999/xhtml" style="display: inline-block; white-space: nowrap;"><span class="edgeLabel"></span></div></foreignObject></g></g><g class="edgeLabel"><g class="label" transform="translate(0, 0)"><foreignObject width="0" height="0"><div xmlns="http://www.w3.org/1999/xhtml" style="display: inline-block; white-space: nowrap;"><span class="edgeLabel"></span></div></foreignObject></g></g><g class="edgeLabel"><g class="label" transform="translate(0, 0)"><foreignObject width="0" height="0"><div xmlns="http://www.w3.org/1999/xhtml" style="display: inline-block; white-space: nowrap;"><span class="edgeLabel"></span></div></foreignObject></g></g><g class="edgeLabel" transform="translate(1322.7109375, 1153)"><g class="label" transform="translate(-98.8125, -19)"><foreignObject width="197.625" height="38"><div xmlns="http://www.w3.org/1999/xhtml" style="display: inline-block; white-space: nowrap;"><span class="edgeLabel">Stealth: Group membership<br>appears normal</span></div></foreignObject></g></g><g class="edgeLabel" transform="translate(1533.359375, 1153)"><g class="label" transform="translate(-91.8359375, -9.5)"><foreignObject width="183.671875" height="19"><div xmlns="http://www.w3.org/1999/xhtml" style="display: inline-block; white-space: nowrap;"><span class="edgeLabel">Works across forest trusts</span></div></foreignObject></g></g></g><g class="nodes"><g class="node default default flowchart-label" id="flowchart-L1-19" data-node="true" data-id="L1" transform="translate(595.78515625, 863)"><rect class="basic label-container" style="" rx="0" ry="0" x="-63.2890625" y="-17" width="126.578125" height="34"></rect><g class="label" style="" transform="translate(-55.7890625, -9.5)"><rect></rect><foreignObject width="111.578125" height="19"><div xmlns="http://www.w3.org/1999/xhtml" style="display: inline-block; white-space: nowrap;"><span class="nodeLabel">JohnDoe logs in</span></div></foreignObject></g></g><g class="node default default flowchart-label" id="flowchart-T2-21" data-node="true" data-id="T2" transform="translate(595.78515625, 947)"><rect class="basic label-container" style="" rx="0" ry="0" x="-84.8203125" y="-17" width="169.640625" height="34"></rect><g class="label" style="" transform="translate(-77.3203125, -9.5)"><rect></rect><foreignObject width="154.640625" height="19"><div xmlns="http://www.w3.org/1999/xhtml" style="display: inline-block; white-space: nowrap;"><span class="nodeLabel">Access Token Created</span></div></foreignObject></g></g><g class="node default default flowchart-label" id="flowchart-T2a-23" data-node="true" data-id="T2a" transform="translate(142.59375, 1040.5)"><rect class="basic label-container" style="" rx="0" ry="0" x="-107.59375" y="-17" width="215.1875" height="34"></rect><g class="label" style="" transform="translate(-100.09375, -9.5)"><rect></rect><foreignObject width="200.1875" height="19"><div xmlns="http://www.w3.org/1999/xhtml" style="display: inline-block; white-space: nowrap;"><span class="nodeLabel">User SID: S-1-5-21-XXX-1001</span></div></foreignObject></g></g><g class="node default default flowchart-label" id="flowchart-T2b-25" data-node="true" data-id="T2b" transform="translate(432.546875, 1040.5)"><rect class="basic label-container" style="" rx="0" ry="0" x="-132.359375" y="-26.5" width="264.71875" height="53"></rect><g class="label" style="" transform="translate(-124.859375, -19)"><rect></rect><foreignObject width="249.71875" height="38"><div xmlns="http://www.w3.org/1999/xhtml" style="display: inline-block; white-space: nowrap;"><span class="nodeLabel">SID History:<br>S-1-5-21-XXX-519 Enterprise Admin</span></div></foreignObject></g></g><g class="node default default flowchart-label" id="flowchart-T2c-27" data-node="true" data-id="T2c" transform="translate(759.0234375, 1040.5)"><rect class="basic label-container" style="" rx="0" ry="0" x="-144.1171875" y="-17" width="288.234375" height="34"></rect><g class="label" style="" transform="translate(-136.6171875, -9.5)"><rect></rect><foreignObject width="273.234375" height="19"><div xmlns="http://www.w3.org/1999/xhtml" style="display: inline-block; white-space: nowrap;"><span class="nodeLabel">Group SIDs: includes Enterprise Admin</span></div></foreignObject></g></g><g class="node default default flowchart-label" id="flowchart-T2d-29" data-node="true" data-id="T2d" transform="translate(1070.9140625, 1040.5)"><rect class="basic label-container" style="" rx="0" ry="0" x="-117.7734375" y="-17" width="235.546875" height="34"></rect><g class="label" style="" transform="translate(-110.2734375, -9.5)"><rect></rect><foreignObject width="220.546875" height="19"><div xmlns="http://www.w3.org/1999/xhtml" style="display: inline-block; white-space: nowrap;"><span class="nodeLabel">Privileges: Domain Admin level</span></div></foreignObject></g></g><g class="node default default flowchart-label" id="flowchart-Result-31" data-node="true" data-id="Result" transform="translate(1070.9140625, 1153)"><rect class="basic label-container" style="fill:#ff9999;" rx="0" ry="0" x="-117.984375" y="-36" width="235.96875" height="72"></rect><g class="label" style="" transform="translate(-110.484375, -28.5)"><rect></rect><foreignObject width="220.96875" height="57"><div xmlns="http://www.w3.org/1999/xhtml" style="display: inline-block; white-space: nowrap;"><span class="nodeLabel">JohnDoe has Enterprise Admin<br>rights WITHOUT being member<br>of Enterprise Admins group</span></div></foreignObject></g></g><g class="node default default flowchart-label" id="flowchart-A1-9" data-node="true" data-id="A1" transform="translate(595.78515625, 179.5)"><rect class="basic label-container" style="" rx="0" ry="0" x="-87.1640625" y="-26.5" width="174.328125" height="53"></rect><g class="label" style="" transform="translate(-79.6640625, -19)"><rect></rect><foreignObject width="159.328125" height="38"><div xmlns="http://www.w3.org/1999/xhtml" style="display: inline-block; white-space: nowrap;"><span class="nodeLabel">Attacker compromises<br>Domain Admin</span></div></foreignObject></g></g><g class="node default default flowchart-label" id="flowchart-A2-11" data-node="true" data-id="A2" transform="translate(595.78515625, 410.5)"><rect class="basic label-container" style="" rx="0" ry="0" x="-98.125" y="-26.5" width="196.25" height="53"></rect><g class="label" style="" transform="translate(-90.625, -19)"><rect></rect><foreignObject width="181.25" height="38"><div xmlns="http://www.w3.org/1999/xhtml" style="display: inline-block; white-space: nowrap;"><span class="nodeLabel">Add Enterprise Admin SID<br>to JohnDoe's SID History</span></div></foreignObject></g></g><g class="node default default flowchart-label" id="flowchart-A3-13" data-node="true" data-id="A3" transform="translate(595.78515625, 513.5)"><rect class="basic label-container" style="" rx="0" ry="0" x="-94.8203125" y="-26.5" width="189.640625" height="53"></rect><g class="label" style="" transform="translate(-87.3203125, -19)"><rect></rect><foreignObject width="174.640625" height="38"><div xmlns="http://www.w3.org/1999/xhtml" style="display: inline-block; white-space: nowrap;"><span class="nodeLabel">mimikatz or PowerShell:<br>Add-ADDBSidHistory</span></div></foreignObject></g></g><g class="node default default flowchart-label" id="flowchart-A4-15" data-node="true" data-id="A4" transform="translate(595.78515625, 607)"><rect class="basic label-container" style="" rx="0" ry="0" x="-107.3125" y="-17" width="214.625" height="34"></rect><g class="label" style="" transform="translate(-99.8125, -9.5)"><rect></rect><foreignObject width="199.625" height="19"><div xmlns="http://www.w3.org/1999/xhtml" style="display: inline-block; white-space: nowrap;"><span class="nodeLabel">JohnDoe's account modified</span></div></foreignObject></g></g><g class="node default default flowchart-label" id="flowchart-A5-17" data-node="true" data-id="A5" transform="translate(595.78515625, 710)"><rect class="basic label-container" style="" rx="0" ry="0" x="-132.359375" y="-36" width="264.71875" height="72"></rect><g class="label" style="" transform="translate(-124.859375, -28.5)"><rect></rect><foreignObject width="249.71875" height="57"><div xmlns="http://www.w3.org/1999/xhtml" style="display: inline-block; white-space: nowrap;"><span class="nodeLabel">SID: S-1-5-21-XXX-1001<br>SID History:<br>S-1-5-21-XXX-519 Enterprise Admin</span></div></foreignObject></g></g><g class="root" transform="translate(790.64453125, 17)"><g class="clusters"><g class="cluster default flowchart-label" id="Normal"><rect style="fill:#e6f3ff;" rx="0" ry="0" x="8" y="8" width="693.453125" height="309"></rect><g class="cluster-label" transform="translate(287.2734375, 8)"><foreignObject width="134.90625" height="19"><div xmlns="http://www.w3.org/1999/xhtml" style="display: inline-block; white-space: nowrap;"><span class="nodeLabel">Normal User Logon</span></div></foreignObject></g></g></g><g class="edgePaths"><path d="M388.211,86L388.211,90.167C388.211,94.333,388.211,102.667,388.211,110.117C388.211,117.567,388.211,124.133,388.211,127.417L388.211,130.7" id="L-U1-T1-0" class=" edge-thickness-normal edge-pattern-solid flowchart-link LS-U1 LE-T1" style="fill:none;" marker-end="url(#mermaid-1772557642396_flowchart-pointEnd)"></path><path d="M334.25,162.538L303.641,167.948C273.031,173.359,211.813,184.179,181.203,196.04C150.594,207.9,150.594,220.8,150.594,227.25L150.594,233.7" id="L-T1-T1a-0" class=" edge-thickness-normal edge-pattern-solid flowchart-link LS-T1 LE-T1a" style="fill:none;" marker-end="url(#mermaid-1772557642396_flowchart-pointEnd)"></path><path d="M388.211,170L388.211,174.167C388.211,178.333,388.211,186.667,388.211,194.117C388.211,201.567,388.211,208.133,388.211,211.417L388.211,214.7" id="L-T1-T1b-0" class=" edge-thickness-normal edge-pattern-solid flowchart-link LS-T1 LE-T1b" style="fill:none;" marker-end="url(#mermaid-1772557642396_flowchart-pointEnd)"></path><path d="M442.172,164.102L467.201,169.252C492.229,174.402,542.286,184.701,567.315,196.3C592.344,207.9,592.344,220.8,592.344,227.25L592.344,233.7" id="L-T1-T1c-0" class=" edge-thickness-normal edge-pattern-solid flowchart-link LS-T1 LE-T1c" style="fill:none;" marker-end="url(#mermaid-1772557642396_flowchart-pointEnd)"></path></g><g class="edgeLabels"><g class="edgeLabel"><g class="label" transform="translate(0, 0)"><foreignObject width="0" height="0"><div xmlns="http://www.w3.org/1999/xhtml" style="display: inline-block; white-space: nowrap;"><span class="edgeLabel"></span></div></foreignObject></g></g><g class="edgeLabel"><g class="label" transform="translate(0, 0)"><foreignObject width="0" height="0"><div xmlns="http://www.w3.org/1999/xhtml" style="display: inline-block; white-space: nowrap;"><span class="edgeLabel"></span></div></foreignObject></g></g><g class="edgeLabel"><g class="label" transform="translate(0, 0)"><foreignObject width="0" height="0"><div xmlns="http://www.w3.org/1999/xhtml" style="display: inline-block; white-space: nowrap;"><span class="edgeLabel"></span></div></foreignObject></g></g><g class="edgeLabel"><g class="label" transform="translate(0, 0)"><foreignObject width="0" height="0"><div xmlns="http://www.w3.org/1999/xhtml" style="display: inline-block; white-space: nowrap;"><span class="edgeLabel"></span></div></foreignObject></g></g></g><g class="nodes"><g class="node default default flowchart-label" id="flowchart-U1-0" data-node="true" data-id="U1" transform="translate(388.2109375, 59.5)"><rect class="basic label-container" style="" rx="0" ry="0" x="-89.2890625" y="-26.5" width="178.578125" height="53"></rect><g class="label" style="" transform="translate(-81.7890625, -19)"><rect></rect><foreignObject width="163.578125" height="38"><div xmlns="http://www.w3.org/1999/xhtml" style="display: inline-block; white-space: nowrap;"><span class="nodeLabel">User: JohnDoe<br>SID: S-1-5-21-XXX-1001</span></div></foreignObject></g></g><g class="node default default flowchart-label" id="flowchart-T1-2" data-node="true" data-id="T1" transform="translate(388.2109375, 153)"><rect class="basic label-container" style="" rx="0" ry="0" x="-53.9609375" y="-17" width="107.921875" height="34"></rect><g class="label" style="" transform="translate(-46.4609375, -9.5)"><rect></rect><foreignObject width="92.921875" height="19"><div xmlns="http://www.w3.org/1999/xhtml" style="display: inline-block; white-space: nowrap;"><span class="nodeLabel">Access Token</span></div></foreignObject></g></g><g class="node default default flowchart-label" id="flowchart-T1a-4" data-node="true" data-id="T1a" transform="translate(150.59375, 256)"><rect class="basic label-container" style="" rx="0" ry="0" x="-107.59375" y="-17" width="215.1875" height="34"></rect><g class="label" style="" transform="translate(-100.09375, -9.5)"><rect></rect><foreignObject width="200.1875" height="19"><div xmlns="http://www.w3.org/1999/xhtml" style="display: inline-block; white-space: nowrap;"><span class="nodeLabel">User SID: S-1-5-21-XXX-1001</span></div></foreignObject></g></g><g class="node default default flowchart-label" id="flowchart-T1b-6" data-node="true" data-id="T1b" transform="translate(388.2109375, 256)"><rect class="basic label-container" style="" rx="0" ry="0" x="-80.0234375" y="-36" width="160.046875" height="72"></rect><g class="label" style="" transform="translate(-72.5234375, -28.5)"><rect></rect><foreignObject width="145.046875" height="57"><div xmlns="http://www.w3.org/1999/xhtml" style="display: inline-block; white-space: nowrap;"><span class="nodeLabel">Group SIDs:<br>Domain Users<br>Authenticated Users</span></div></foreignObject></g></g><g class="node default default flowchart-label" id="flowchart-T1c-8" data-node="true" data-id="T1c" transform="translate(592.34375, 256)"><rect class="basic label-container" style="" rx="0" ry="0" x="-74.109375" y="-17" width="148.21875" height="34"></rect><g class="label" style="" transform="translate(-66.609375, -9.5)"><rect></rect><foreignObject width="133.21875" height="19"><div xmlns="http://www.w3.org/1999/xhtml" style="display: inline-block; white-space: nowrap;"><span class="nodeLabel">Privileges: Limited</span></div></foreignObject></g></g></g></g></g></g></g></svg>