<svg id="mermaid-1772557705380" width="100%" xmlns="http://www.w3.org/2000/svg" xmlns:xlink="http://www.w3.org/1999/xlink" style="max-width: 2345.5px;" viewBox="-167 -10 2345.5 2049" role="graphics-document document" aria-roledescription="sequence"><rect x="922.5" y="1874" fill="rgb(255, 255, 230)" width="937" height="69" class="rect"></rect><rect x="768.5" y="1795" fill="rgb(240, 240, 255)" width="1245" height="69" class="rect"></rect><rect x="48" y="1716" fill="rgb(255, 240, 240)" width="1378" height="69" class="rect"></rect><rect x="471.5" y="1361" fill="rgb(230, 255, 230)" width="514" height="69" class="rect"></rect><rect x="507.5" y="789" fill="rgb(255, 230, 230)" width="442" height="69" class="rect"></rect><g><rect x="1978.5" y="1963" fill="#eaeaea" stroke="#666" width="150" height="65" name="DC" rx="3" ry="3" class="actor actor-bottom"></rect><text x="2053.5" y="1995.5" dominant-baseline="central" alignment-baseline="central" class="actor" style="text-anchor: middle; font-size: 16px; font-weight: 400;"><tspan x="2053.5" dy="0">Domain Controller</tspan></text></g><g><rect x="1265" y="1963" fill="#eaeaea" stroke="#666" width="252" height="65" name="Target" rx="3" ry="3" class="actor actor-bottom"></rect><text x="1391" y="1995.5" dominant-baseline="central" alignment-baseline="central" class="actor" style="text-anchor: middle; font-size: 16px; font-weight: 400;"><tspan x="1391" dy="0">"Target Server (High-Value Target)"</tspan></text></g><g><rect x="606" y="1963" fill="#eaeaea" stroke="#666" width="245" height="65" name="Attacker" rx="3" ry="3" class="actor actor-bottom"></rect><text x="728.5" y="1995.5" dominant-baseline="central" alignment-baseline="central" class="actor" style="text-anchor: middle; font-size: 16px; font-weight: 400;"><tspan x="728.5" dy="0">"Attacker (ntlmrelayx/Responder)"</tspan></text></g><g><rect x="0" y="1963" fill="#eaeaea" stroke="#666" width="166" height="65" name="Victim" rx="3" ry="3" class="actor actor-bottom"></rect><text x="83" y="1995.5" dominant-baseline="central" alignment-baseline="central" class="actor" style="text-anchor: middle; font-size: 16px; font-weight: 400;"><tspan x="83" dy="0">Victim User/Computer</tspan></text></g><g><line id="actor3" x1="2053.5" y1="5" x2="2053.5" y2="1963" class="200" stroke-width="0.5px" stroke="#999"></line><g id="root-3"><rect x="1978.5" y="0" fill="#eaeaea" stroke="#666" width="150" height="65" name="DC" rx="3" ry="3" class="actor actor-top"></rect><text x="2053.5" y="32.5" dominant-baseline="central" alignment-baseline="central" class="actor" style="text-anchor: middle; font-size: 16px; font-weight: 400;"><tspan x="2053.5" dy="0">Domain Controller</tspan></text></g></g><g><line id="actor2" x1="1391" y1="5" x2="1391" y2="1963" class="200" stroke-width="0.5px" stroke="#999"></line><g id="root-2"><rect x="1265" y="0" fill="#eaeaea" stroke="#666" width="252" height="65" name="Target" rx="3" ry="3" class="actor actor-top"></rect><text x="1391" y="32.5" dominant-baseline="central" alignment-baseline="central" class="actor" style="text-anchor: middle; font-size: 16px; font-weight: 400;"><tspan x="1391" dy="0">"Target Server (High-Value Target)"</tspan></text></g></g><g><line id="actor1" x1="728.5" y1="5" x2="728.5" y2="1963" class="200" stroke-width="0.5px" stroke="#999"></line><g id="root-1"><rect x="606" y="0" fill="#eaeaea" stroke="#666" width="245" height="65" name="Attacker" rx="3" ry="3" class="actor actor-top"></rect><text x="728.5" y="32.5" dominant-baseline="central" alignment-baseline="central" class="actor" style="text-anchor: middle; font-size: 16px; font-weight: 400;"><tspan x="728.5" dy="0">"Attacker (ntlmrelayx/Responder)"</tspan></text></g></g><g><line id="actor0" x1="83" y1="5" x2="83" y2="1963" class="200" stroke-width="0.5px" stroke="#999"></line><g id="root-0"><rect x="0" y="0" fill="#eaeaea" stroke="#666" width="166" height="65" name="Victim" rx="3" ry="3" class="actor actor-top"></rect><text x="83" y="32.5" dominant-baseline="central" alignment-baseline="central" class="actor" style="text-anchor: middle; font-size: 16px; font-weight: 400;"><tspan x="83" dy="0">Victim User/Computer</tspan></text></g></g><style>#mermaid-1772557705380{font-family:"trebuchet ms",verdana,arial,sans-serif;font-size:16px;fill:#000000;}#mermaid-1772557705380 .error-icon{fill:#552222;}#mermaid-1772557705380 .error-text{fill:#552222;stroke:#552222;}#mermaid-1772557705380 .edge-thickness-normal{stroke-width:2px;}#mermaid-1772557705380 .edge-thickness-thick{stroke-width:3.5px;}#mermaid-1772557705380 .edge-pattern-solid{stroke-dasharray:0;}#mermaid-1772557705380 .edge-pattern-dashed{stroke-dasharray:3;}#mermaid-1772557705380 .edge-pattern-dotted{stroke-dasharray:2;}#mermaid-1772557705380 .marker{fill:#666;stroke:#666;}#mermaid-1772557705380 .marker.cross{stroke:#666;}#mermaid-1772557705380 svg{font-family:"trebuchet ms",verdana,arial,sans-serif;font-size:16px;}#mermaid-1772557705380 .actor{stroke:hsl(0, 0%, 83%);fill:#eee;}#mermaid-1772557705380 text.actor&gt;tspan{fill:#333;stroke:none;}#mermaid-1772557705380 .actor-line{stroke:#666;}#mermaid-1772557705380 .messageLine0{stroke-width:1.5;stroke-dasharray:none;stroke:#333;}#mermaid-1772557705380 .messageLine1{stroke-width:1.5;stroke-dasharray:2,2;stroke:#333;}#mermaid-1772557705380 #arrowhead path{fill:#333;stroke:#333;}#mermaid-1772557705380 .sequenceNumber{fill:white;}#mermaid-1772557705380 #sequencenumber{fill:#333;}#mermaid-1772557705380 #crosshead path{fill:#333;stroke:#333;}#mermaid-1772557705380 .messageText{fill:#333;stroke:none;}#mermaid-1772557705380 .labelBox{stroke:hsl(0, 0%, 83%);fill:#eee;}#mermaid-1772557705380 .labelText,#mermaid-1772557705380 .labelText&gt;tspan{fill:#333;stroke:none;}#mermaid-1772557705380 .loopText,#mermaid-1772557705380 .loopText&gt;tspan{fill:#333;stroke:none;}#mermaid-1772557705380 .loopLine{stroke-width:2px;stroke-dasharray:2,2;stroke:hsl(0, 0%, 83%);fill:hsl(0, 0%, 83%);}#mermaid-1772557705380 .note{stroke:#999;fill:#666;}#mermaid-1772557705380 .noteText,#mermaid-1772557705380 .noteText&gt;tspan{fill:#fff;stroke:none;}#mermaid-1772557705380 .activation0{fill:#f4f4f4;stroke:#666;}#mermaid-1772557705380 .activation1{fill:#f4f4f4;stroke:#666;}#mermaid-1772557705380 .activation2{fill:#f4f4f4;stroke:#666;}#mermaid-1772557705380 .actorPopupMenu{position:absolute;}#mermaid-1772557705380 .actorPopupMenuPanel{position:absolute;fill:#eee;box-shadow:0px 8px 16px 0px rgba(0,0,0,0.2);filter:drop-shadow(3px 5px 2px rgb(0 0 0 / 0.4));}#mermaid-1772557705380 .actor-man line{stroke:hsl(0, 0%, 83%);fill:#eee;}#mermaid-1772557705380 .actor-man circle,#mermaid-1772557705380 line{stroke:hsl(0, 0%, 83%);fill:#eee;stroke-width:2px;}#mermaid-1772557705380 :root{--mermaid-font-family:"trebuchet ms",verdana,arial,sans-serif;}</style><g></g><defs><symbol id="computer" width="24" height="24"><path transform="scale(.5)" d="M2 2v13h20v-13h-20zm18 11h-16v-9h16v9zm-10.228 6l.466-1h3.524l.467 1h-4.457zm14.228 3h-24l2-6h2.104l-1.33 4h18.45l-1.297-4h2.073l2 6zm-5-10h-14v-7h14v7z"></path></symbol></defs><defs><symbol id="database" fill-rule="evenodd" clip-rule="evenodd"><path transform="scale(.5)" d="M12.258.001l.256.004.255.005.253.008.251.01.249.012.247.015.246.016.242.019.241.02.239.023.236.024.233.027.231.028.229.031.225.032.223.034.22.036.217.038.214.04.211.041.208.043.205.045.201.046.198.048.194.05.191.051.187.053.183.054.18.056.175.057.172.059.168.06.163.061.16.063.155.064.15.066.074.033.073.033.071.034.07.034.069.035.068.035.067.035.066.035.064.036.064.036.062.036.06.036.06.037.058.037.058.037.055.038.055.038.053.038.052.038.051.039.05.039.048.039.047.039.045.04.044.04.043.04.041.04.04.041.039.041.037.041.036.041.034.041.033.042.032.042.03.042.029.042.027.042.026.043.024.043.023.043.021.043.02.043.018.044.017.043.015.044.013.044.012.044.011.045.009.044.007.045.006.045.004.045.002.045.001.045v17l-.001.045-.002.045-.004.045-.006.045-.007.045-.009.044-.011.045-.012.044-.013.044-.015.044-.017.043-.018.044-.02.043-.021.043-.023.043-.024.043-.026.043-.027.042-.029.042-.03.042-.032.042-.033.042-.034.041-.036.041-.037.041-.039.041-.04.041-.041.04-.043.04-.044.04-.045.04-.047.039-.048.039-.05.039-.051.039-.052.038-.053.038-.055.038-.055.038-.058.037-.058.037-.06.037-.06.036-.062.036-.064.036-.064.036-.066.035-.067.035-.068.035-.069.035-.07.034-.071.034-.073.033-.074.033-.15.066-.155.064-.16.063-.163.061-.168.06-.172.059-.175.057-.18.056-.183.054-.187.053-.191.051-.194.05-.198.048-.201.046-.205.045-.208.043-.211.041-.214.04-.217.038-.22.036-.223.034-.225.032-.229.031-.231.028-.233.027-.236.024-.239.023-.241.02-.242.019-.246.016-.247.015-.249.012-.251.01-.253.008-.255.005-.256.004-.258.001-.258-.001-.256-.004-.255-.005-.253-.008-.251-.01-.249-.012-.247-.015-.245-.016-.243-.019-.241-.02-.238-.023-.236-.024-.234-.027-.231-.028-.228-.031-.226-.032-.223-.034-.22-.036-.217-.038-.214-.04-.211-.041-.208-.043-.204-.045-.201-.046-.198-.048-.195-.05-.19-.051-.187-.053-.184-.054-.179-.056-.176-.057-.172-.059-.167-.06-.164-.061-.159-.063-.155-.064-.151-.066-.074-.033-.072-.033-.072-.034-.07-.034-.069-.035-.068-.035-.067-.035-.066-.035-.064-.036-.063-.036-.062-.036-.061-.036-.06-.037-.058-.037-.057-.037-.056-.038-.055-.038-.053-.038-.052-.038-.051-.039-.049-.039-.049-.039-.046-.039-.046-.04-.044-.04-.043-.04-.041-.04-.04-.041-.039-.041-.037-.041-.036-.041-.034-.041-.033-.042-.032-.042-.03-.042-.029-.042-.027-.042-.026-.043-.024-.043-.023-.043-.021-.043-.02-.043-.018-.044-.017-.043-.015-.044-.013-.044-.012-.044-.011-.045-.009-.044-.007-.045-.006-.045-.004-.045-.002-.045-.001-.045v-17l.001-.045.002-.045.004-.045.006-.045.007-.045.009-.044.011-.045.012-.044.013-.044.015-.044.017-.043.018-.044.02-.043.021-.043.023-.043.024-.043.026-.043.027-.042.029-.042.03-.042.032-.042.033-.042.034-.041.036-.041.037-.041.039-.041.04-.041.041-.04.043-.04.044-.04.046-.04.046-.039.049-.039.049-.039.051-.039.052-.038.053-.038.055-.038.056-.038.057-.037.058-.037.06-.037.061-.036.062-.036.063-.036.064-.036.066-.035.067-.035.068-.035.069-.035.07-.034.072-.034.072-.033.074-.033.151-.066.155-.064.159-.063.164-.061.167-.06.172-.059.176-.057.179-.056.184-.054.187-.053.19-.051.195-.05.198-.048.201-.046.204-.045.208-.043.211-.041.214-.04.217-.038.22-.036.223-.034.226-.032.228-.031.231-.028.234-.027.236-.024.238-.023.241-.02.243-.019.245-.016.247-.015.249-.012.251-.01.253-.008.255-.005.256-.004.258-.001.258.001zm-9.258 20.499v.01l.001.021.003.021.004.022.005.021.006.022.007.022.009.023.01.022.011.023.012.023.013.023.015.023.016.024.017.023.018.024.019.024.021.024.022.025.023.024.024.025.052.049.056.05.061.051.066.051.07.051.075.051.079.052.084.052.088.052.092.052.097.052.102.051.105.052.11.052.114.051.119.051.123.051.127.05.131.05.135.05.139.048.144.049.147.047.152.047.155.047.16.045.163.045.167.043.171.043.176.041.178.041.183.039.187.039.19.037.194.035.197.035.202.033.204.031.209.03.212.029.216.027.219.025.222.024.226.021.23.02.233.018.236.016.24.015.243.012.246.01.249.008.253.005.256.004.259.001.26-.001.257-.004.254-.005.25-.008.247-.011.244-.012.241-.014.237-.016.233-.018.231-.021.226-.021.224-.024.22-.026.216-.027.212-.028.21-.031.205-.031.202-.034.198-.034.194-.036.191-.037.187-.039.183-.04.179-.04.175-.042.172-.043.168-.044.163-.045.16-.046.155-.046.152-.047.148-.048.143-.049.139-.049.136-.05.131-.05.126-.05.123-.051.118-.052.114-.051.11-.052.106-.052.101-.052.096-.052.092-.052.088-.053.083-.051.079-.052.074-.052.07-.051.065-.051.06-.051.056-.05.051-.05.023-.024.023-.025.021-.024.02-.024.019-.024.018-.024.017-.024.015-.023.014-.024.013-.023.012-.023.01-.023.01-.022.008-.022.006-.022.006-.022.004-.022.004-.021.001-.021.001-.021v-4.127l-.077.055-.08.053-.083.054-.085.053-.087.052-.09.052-.093.051-.095.05-.097.05-.1.049-.102.049-.105.048-.106.047-.109.047-.111.046-.114.045-.115.045-.118.044-.12.043-.122.042-.124.042-.126.041-.128.04-.13.04-.132.038-.134.038-.135.037-.138.037-.139.035-.142.035-.143.034-.144.033-.147.032-.148.031-.15.03-.151.03-.153.029-.154.027-.156.027-.158.026-.159.025-.161.024-.162.023-.163.022-.165.021-.166.02-.167.019-.169.018-.169.017-.171.016-.173.015-.173.014-.175.013-.175.012-.177.011-.178.01-.179.008-.179.008-.181.006-.182.005-.182.004-.184.003-.184.002h-.37l-.184-.002-.184-.003-.182-.004-.182-.005-.181-.006-.179-.008-.179-.008-.178-.01-.176-.011-.176-.012-.175-.013-.173-.014-.172-.015-.171-.016-.17-.017-.169-.018-.167-.019-.166-.02-.165-.021-.163-.022-.162-.023-.161-.024-.159-.025-.157-.026-.156-.027-.155-.027-.153-.029-.151-.03-.15-.03-.148-.031-.146-.032-.145-.033-.143-.034-.141-.035-.14-.035-.137-.037-.136-.037-.134-.038-.132-.038-.13-.04-.128-.04-.126-.041-.124-.042-.122-.042-.12-.044-.117-.043-.116-.045-.113-.045-.112-.046-.109-.047-.106-.047-.105-.048-.102-.049-.1-.049-.097-.05-.095-.05-.093-.052-.09-.051-.087-.052-.085-.053-.083-.054-.08-.054-.077-.054v4.127zm0-5.654v.011l.001.021.003.021.004.021.005.022.006.022.007.022.009.022.01.022.011.023.012.023.013.023.015.024.016.023.017.024.018.024.019.024.021.024.022.024.023.025.024.024.052.05.056.05.061.05.066.051.07.051.075.052.079.051.084.052.088.052.092.052.097.052.102.052.105.052.11.051.114.051.119.052.123.05.127.051.131.05.135.049.139.049.144.048.147.048.152.047.155.046.16.045.163.045.167.044.171.042.176.042.178.04.183.04.187.038.19.037.194.036.197.034.202.033.204.032.209.03.212.028.216.027.219.025.222.024.226.022.23.02.233.018.236.016.24.014.243.012.246.01.249.008.253.006.256.003.259.001.26-.001.257-.003.254-.006.25-.008.247-.01.244-.012.241-.015.237-.016.233-.018.231-.02.226-.022.224-.024.22-.025.216-.027.212-.029.21-.03.205-.032.202-.033.198-.035.194-.036.191-.037.187-.039.183-.039.179-.041.175-.042.172-.043.168-.044.163-.045.16-.045.155-.047.152-.047.148-.048.143-.048.139-.05.136-.049.131-.05.126-.051.123-.051.118-.051.114-.052.11-.052.106-.052.101-.052.096-.052.092-.052.088-.052.083-.052.079-.052.074-.051.07-.052.065-.051.06-.05.056-.051.051-.049.023-.025.023-.024.021-.025.02-.024.019-.024.018-.024.017-.024.015-.023.014-.023.013-.024.012-.022.01-.023.01-.023.008-.022.006-.022.006-.022.004-.021.004-.022.001-.021.001-.021v-4.139l-.077.054-.08.054-.083.054-.085.052-.087.053-.09.051-.093.051-.095.051-.097.05-.1.049-.102.049-.105.048-.106.047-.109.047-.111.046-.114.045-.115.044-.118.044-.12.044-.122.042-.124.042-.126.041-.128.04-.13.039-.132.039-.134.038-.135.037-.138.036-.139.036-.142.035-.143.033-.144.033-.147.033-.148.031-.15.03-.151.03-.153.028-.154.028-.156.027-.158.026-.159.025-.161.024-.162.023-.163.022-.165.021-.166.02-.167.019-.169.018-.169.017-.171.016-.173.015-.173.014-.175.013-.175.012-.177.011-.178.009-.179.009-.179.007-.181.007-.182.005-.182.004-.184.003-.184.002h-.37l-.184-.002-.184-.003-.182-.004-.182-.005-.181-.007-.179-.007-.179-.009-.178-.009-.176-.011-.176-.012-.175-.013-.173-.014-.172-.015-.171-.016-.17-.017-.169-.018-.167-.019-.166-.02-.165-.021-.163-.022-.162-.023-.161-.024-.159-.025-.157-.026-.156-.027-.155-.028-.153-.028-.151-.03-.15-.03-.148-.031-.146-.033-.145-.033-.143-.033-.141-.035-.14-.036-.137-.036-.136-.037-.134-.038-.132-.039-.13-.039-.128-.04-.126-.041-.124-.042-.122-.043-.12-.043-.117-.044-.116-.044-.113-.046-.112-.046-.109-.046-.106-.047-.105-.048-.102-.049-.1-.049-.097-.05-.095-.051-.093-.051-.09-.051-.087-.053-.085-.052-.083-.054-.08-.054-.077-.054v4.139zm0-5.666v.011l.001.02.003.022.004.021.005.022.006.021.007.022.009.023.01.022.011.023.012.023.013.023.015.023.016.024.017.024.018.023.019.024.021.025.022.024.023.024.024.025.052.05.056.05.061.05.066.051.07.051.075.052.079.051.084.052.088.052.092.052.097.052.102.052.105.051.11.052.114.051.119.051.123.051.127.05.131.05.135.05.139.049.144.048.147.048.152.047.155.046.16.045.163.045.167.043.171.043.176.042.178.04.183.04.187.038.19.037.194.036.197.034.202.033.204.032.209.03.212.028.216.027.219.025.222.024.226.021.23.02.233.018.236.017.24.014.243.012.246.01.249.008.253.006.256.003.259.001.26-.001.257-.003.254-.006.25-.008.247-.01.244-.013.241-.014.237-.016.233-.018.231-.02.226-.022.224-.024.22-.025.216-.027.212-.029.21-.03.205-.032.202-.033.198-.035.194-.036.191-.037.187-.039.183-.039.179-.041.175-.042.172-.043.168-.044.163-.045.16-.045.155-.047.152-.047.148-.048.143-.049.139-.049.136-.049.131-.051.126-.05.123-.051.118-.052.114-.051.11-.052.106-.052.101-.052.096-.052.092-.052.088-.052.083-.052.079-.052.074-.052.07-.051.065-.051.06-.051.056-.05.051-.049.023-.025.023-.025.021-.024.02-.024.019-.024.018-.024.017-.024.015-.023.014-.024.013-.023.012-.023.01-.022.01-.023.008-.022.006-.022.006-.022.004-.022.004-.021.001-.021.001-.021v-4.153l-.077.054-.08.054-.083.053-.085.053-.087.053-.09.051-.093.051-.095.051-.097.05-.1.049-.102.048-.105.048-.106.048-.109.046-.111.046-.114.046-.115.044-.118.044-.12.043-.122.043-.124.042-.126.041-.128.04-.13.039-.132.039-.134.038-.135.037-.138.036-.139.036-.142.034-.143.034-.144.033-.147.032-.148.032-.15.03-.151.03-.153.028-.154.028-.156.027-.158.026-.159.024-.161.024-.162.023-.163.023-.165.021-.166.02-.167.019-.169.018-.169.017-.171.016-.173.015-.173.014-.175.013-.175.012-.177.01-.178.01-.179.009-.179.007-.181.006-.182.006-.182.004-.184.003-.184.001-.185.001-.185-.001-.184-.001-.184-.003-.182-.004-.182-.006-.181-.006-.179-.007-.179-.009-.178-.01-.176-.01-.176-.012-.175-.013-.173-.014-.172-.015-.171-.016-.17-.017-.169-.018-.167-.019-.166-.02-.165-.021-.163-.023-.162-.023-.161-.024-.159-.024-.157-.026-.156-.027-.155-.028-.153-.028-.151-.03-.15-.03-.148-.032-.146-.032-.145-.033-.143-.034-.141-.034-.14-.036-.137-.036-.136-.037-.134-.038-.132-.039-.13-.039-.128-.041-.126-.041-.124-.041-.122-.043-.12-.043-.117-.044-.116-.044-.113-.046-.112-.046-.109-.046-.106-.048-.105-.048-.102-.048-.1-.05-.097-.049-.095-.051-.093-.051-.09-.052-.087-.052-.085-.053-.083-.053-.08-.054-.077-.054v4.153zm8.74-8.179l-.257.004-.254.005-.25.008-.247.011-.244.012-.241.014-.237.016-.233.018-.231.021-.226.022-.224.023-.22.026-.216.027-.212.028-.21.031-.205.032-.202.033-.198.034-.194.036-.191.038-.187.038-.183.04-.179.041-.175.042-.172.043-.168.043-.163.045-.16.046-.155.046-.152.048-.148.048-.143.048-.139.049-.136.05-.131.05-.126.051-.123.051-.118.051-.114.052-.11.052-.106.052-.101.052-.096.052-.092.052-.088.052-.083.052-.079.052-.074.051-.07.052-.065.051-.06.05-.056.05-.051.05-.023.025-.023.024-.021.024-.02.025-.019.024-.018.024-.017.023-.015.024-.014.023-.013.023-.012.023-.01.023-.01.022-.008.022-.006.023-.006.021-.004.022-.004.021-.001.021-.001.021.001.021.001.021.004.021.004.022.006.021.006.023.008.022.01.022.01.023.012.023.013.023.014.023.015.024.017.023.018.024.019.024.02.025.021.024.023.024.023.025.051.05.056.05.06.05.065.051.07.052.074.051.079.052.083.052.088.052.092.052.096.052.101.052.106.052.11.052.114.052.118.051.123.051.126.051.131.05.136.05.139.049.143.048.148.048.152.048.155.046.16.046.163.045.168.043.172.043.175.042.179.041.183.04.187.038.191.038.194.036.198.034.202.033.205.032.21.031.212.028.216.027.22.026.224.023.226.022.231.021.233.018.237.016.241.014.244.012.247.011.25.008.254.005.257.004.26.001.26-.001.257-.004.254-.005.25-.008.247-.011.244-.012.241-.014.237-.016.233-.018.231-.021.226-.022.224-.023.22-.026.216-.027.212-.028.21-.031.205-.032.202-.033.198-.034.194-.036.191-.038.187-.038.183-.04.179-.041.175-.042.172-.043.168-.043.163-.045.16-.046.155-.046.152-.048.148-.048.143-.048.139-.049.136-.05.131-.05.126-.051.123-.051.118-.051.114-.052.11-.052.106-.052.101-.052.096-.052.092-.052.088-.052.083-.052.079-.052.074-.051.07-.052.065-.051.06-.05.056-.05.051-.05.023-.025.023-.024.021-.024.02-.025.019-.024.018-.024.017-.023.015-.024.014-.023.013-.023.012-.023.01-.023.01-.022.008-.022.006-.023.006-.021.004-.022.004-.021.001-.021.001-.021-.001-.021-.001-.021-.004-.021-.004-.022-.006-.021-.006-.023-.008-.022-.01-.022-.01-.023-.012-.023-.013-.023-.014-.023-.015-.024-.017-.023-.018-.024-.019-.024-.02-.025-.021-.024-.023-.024-.023-.025-.051-.05-.056-.05-.06-.05-.065-.051-.07-.052-.074-.051-.079-.052-.083-.052-.088-.052-.092-.052-.096-.052-.101-.052-.106-.052-.11-.052-.114-.052-.118-.051-.123-.051-.126-.051-.131-.05-.136-.05-.139-.049-.143-.048-.148-.048-.152-.048-.155-.046-.16-.046-.163-.045-.168-.043-.172-.043-.175-.042-.179-.041-.183-.04-.187-.038-.191-.038-.194-.036-.198-.034-.202-.033-.205-.032-.21-.031-.212-.028-.216-.027-.22-.026-.224-.023-.226-.022-.231-.021-.233-.018-.237-.016-.241-.014-.244-.012-.247-.011-.25-.008-.254-.005-.257-.004-.26-.001-.26.001z"></path></symbol></defs><defs><symbol id="clock" width="24" height="24"><path transform="scale(.5)" d="M12 2c5.514 0 10 4.486 10 10s-4.486 10-10 10-10-4.486-10-10 4.486-10 10-10zm0-2c-6.627 0-12 5.373-12 12s5.373 12 12 12 12-5.373 12-12-5.373-12-12-12zm5.848 12.459c.202.038.202.333.001.372-1.907.361-6.045 1.111-6.547 1.111-.719 0-1.301-.582-1.301-1.301 0-.512.77-5.447 1.125-7.445.034-.192.312-.181.343.014l.985 6.238 5.394 1.011z"></path></symbol></defs><defs><marker id="arrowhead" refX="7.9" refY="5" markerUnits="userSpaceOnUse" markerWidth="12" markerHeight="12" orient="auto"><path d="M 0 0 L 10 5 L 0 10 z"></path></marker></defs><defs><marker id="crosshead" markerWidth="15" markerHeight="8" orient="auto" refX="4" refY="4.5"><path fill="none" stroke="#000000" stroke-width="1pt" d="M 1,2 L 6,7 M 6,2 L 1,7" style="stroke-dasharray: 0, 0;"></path></marker></defs><defs><marker id="filled-head" refX="15.5" refY="7" markerWidth="20" markerHeight="28" orient="auto"><path d="M 18,7 L9,13 L14,7 L9,1 Z"></path></marker></defs><defs><marker id="sequencenumber" refX="15" refY="15" markerWidth="60" markerHeight="40" orient="auto"><circle cx="15" cy="15" r="6"></circle></marker></defs><g><rect x="58" y="75" fill="#EDF2AE" stroke="#666" width="1358" height="39" rx="0" ry="0" class="note"></rect><text x="737" y="80" text-anchor="middle" dominant-baseline="middle" alignment-baseline="middle" class="noteText" dy="1em" style="font-size: 16px; font-weight: 400;"><tspan x="737">Phase 1: Setup &amp; Poisoning</tspan></text></g><g><rect x="-44" y="276" fill="#EDF2AE" stroke="#666" width="254" height="39" rx="0" ry="0" class="note"></rect><text x="83" y="281" text-anchor="middle" dominant-baseline="middle" alignment-baseline="middle" class="noteText" dy="1em" style="font-size: 16px; font-weight: 400;"><tspan x="83">Phase 2: Victim Connection Attempt</tspan></text></g><g><rect x="606" y="553" fill="#EDF2AE" stroke="#666" width="245" height="39" rx="0" ry="0" class="note"></rect><text x="729" y="558" text-anchor="middle" dominant-baseline="middle" alignment-baseline="middle" class="noteText" dy="1em" style="font-size: 16px; font-weight: 400;"><tspan x="729">Phase 3: Poisoning Response</tspan></text></g><g><rect x="58" y="694" fill="#EDF2AE" stroke="#666" width="1358" height="39" rx="0" ry="0" class="note"></rect><text x="737" y="699" text-anchor="middle" dominant-baseline="middle" alignment-baseline="middle" class="noteText" dy="1em" style="font-size: 16px; font-weight: 400;"><tspan x="737">Phase 4: NTLM Authentication (Relayed)</tspan></text></g><g><rect x="517.5" y="809" fill="#EDF2AE" stroke="#666" width="422" height="39" rx="0" ry="0" class="note"></rect><text x="729" y="814" text-anchor="middle" dominant-baseline="middle" alignment-baseline="middle" class="noteText" dy="1em" style="font-size: 16px; font-weight: 400;"><tspan x="729">Attacker does NOT respond to victim,\ninstead relays to target</tspan></text></g><g><rect x="703.5" y="1312" fill="#EDF2AE" stroke="#666" width="712.5" height="39" rx="0" ry="0" class="note"></rect><text x="1060" y="1317" text-anchor="middle" dominant-baseline="middle" alignment-baseline="middle" class="noteText" dy="1em" style="font-size: 16px; font-weight: 400;"><tspan x="1060">Phase 5: Post-Exploitation</tspan></text></g><g><rect x="481.5" y="1381" fill="#EDF2AE" stroke="#666" width="494" height="39" rx="0" ry="0" class="note"></rect><text x="729" y="1386" text-anchor="middle" dominant-baseline="middle" alignment-baseline="middle" class="noteText" dy="1em" style="font-size: 16px; font-weight: 400;"><tspan x="729">Attacker now has authenticated session\nwith victim's privileges on target</tspan></text></g><g><rect x="58" y="1736" fill="#EDF2AE" stroke="#666" width="1358" height="39" rx="0" ry="0" class="note"></rect><text x="737" y="1741" text-anchor="middle" dominant-baseline="middle" alignment-baseline="middle" class="noteText" dy="1em" style="font-size: 16px; font-weight: 400;"><tspan x="737">Requirements for Success:\n• SMB signing disabled on target\n• Victim must have admin rights on target\n• Victim must attempt authentication\n• Cannot relay back to same machine</tspan></text></g><g><rect x="778.5" y="1815" fill="#EDF2AE" stroke="#666" width="1225" height="39" rx="0" ry="0" class="note"></rect><text x="1391" y="1820" text-anchor="middle" dominant-baseline="middle" alignment-baseline="middle" class="noteText" dy="1em" style="font-size: 16px; font-weight: 400;"><tspan x="1391">Detection:\nEvent 4624 Logon Type 3\nEvent 4648 (Explicit credentials)\nUnusual source IP for authentication\nSMB connections from non-standard hosts\nMultiple failed relay attempts</tspan></text></g><g><rect x="932.5" y="1894" fill="#EDF2AE" stroke="#666" width="917" height="39" rx="0" ry="0" class="note"></rect><text x="1391" y="1899" text-anchor="middle" dominant-baseline="middle" alignment-baseline="middle" class="noteText" dy="1em" style="font-size: 16px; font-weight: 400;"><tspan x="1391">Mitigation:\nEnable SMB signing (Require)\nDisable LLMNR/NBT-NS\nLocal Admin Password Solution (LAPS)\nNetwork segmentation</tspan></text></g><text x="730" y="129" text-anchor="middle" dominant-baseline="middle" alignment-baseline="middle" class="messageText" dy="1em" style="font-size: 16px; font-weight: 400;">Start Responder:\n-I eth0 -dPv\nPoison LLMNR/NBT-NS/WPAD</text><path d="M 729.5,160 C 789.5,150 789.5,190 729.5,180" class="messageLine0" stroke-width="2" stroke="none" marker-end="url(#arrowhead)" style="fill: none;"></path><text x="730" y="205" text-anchor="middle" dominant-baseline="middle" alignment-baseline="middle" class="messageText" dy="1em" style="font-size: 16px; font-weight: 400;">Start ntlmrelayx.py:\n-tf targets.txt -smb2support</text><path d="M 729.5,236 C 789.5,226 789.5,266 729.5,256" class="messageLine0" stroke-width="2" stroke="none" marker-end="url(#arrowhead)" style="fill: none;"></path><text x="84" y="330" text-anchor="middle" dominant-baseline="middle" alignment-baseline="middle" class="messageText" dy="1em" style="font-size: 16px; font-weight: 400;">User types incorrect share:\n\\fileserverr\share\n(typo in name)</text><path d="M 84,361 C 144,351 144,391 84,381" class="messageLine0" stroke-width="2" stroke="none" marker-end="url(#arrowhead)" style="fill: none;"></path><text x="84" y="406" text-anchor="middle" dominant-baseline="middle" alignment-baseline="middle" class="messageText" dy="1em" style="font-size: 16px; font-weight: 400;">DNS lookup fails</text><path d="M 84,437 C 144,427 144,467 84,457" class="messageLine0" stroke-width="2" stroke="none" marker-end="url(#arrowhead)" style="fill: none;"></path><text x="84" y="482" text-anchor="middle" dominant-baseline="middle" alignment-baseline="middle" class="messageText" dy="1em" style="font-size: 16px; font-weight: 400;">Fall back to LLMNR/NBT-NS\nbroadcast query</text><path d="M 84,513 C 144,503 144,543 84,533" class="messageLine0" stroke-width="2" stroke="none" marker-end="url(#arrowhead)" style="fill: none;"></path><text x="404" y="607" text-anchor="middle" dominant-baseline="middle" alignment-baseline="middle" class="messageText" dy="1em" style="font-size: 16px; font-weight: 400;">LLMNR/NBT-NS query:\n"Who is fileserverr?"</text><line x1="84" y1="638" x2="724.5" y2="638" class="messageLine0" stroke-width="2" stroke="none" marker-end="url(#arrowhead)" style="fill: none;"></line><text x="407" y="653" text-anchor="middle" dominant-baseline="middle" alignment-baseline="middle" class="messageText" dy="1em" style="font-size: 16px; font-weight: 400;">Poisoned response:\n"I am fileserverr at 192.168.1.50"</text><line x1="727.5" y1="684" x2="87" y2="684" class="messageLine1" stroke-width="2" stroke="none" marker-end="url(#arrowhead)" style="stroke-dasharray: 3, 3; fill: none;"></line><text x="404" y="748" text-anchor="middle" dominant-baseline="middle" alignment-baseline="middle" class="messageText" dy="1em" style="font-size: 16px; font-weight: 400;">SMB connection attempt\nNTLM Type 1: NEGOTIATE</text><line x1="84" y1="779" x2="724.5" y2="779" class="messageLine0" stroke-width="2" stroke="none" marker-end="url(#arrowhead)" style="fill: none;"></line><text x="1058" y="873" text-anchor="middle" dominant-baseline="middle" alignment-baseline="middle" class="messageText" dy="1em" style="font-size: 16px; font-weight: 400;">Relay NTLM Type 1 NEGOTIATE\nto high-value target</text><line x1="729.5" y1="904" x2="1387" y2="904" class="messageLine0" stroke-width="2" stroke="none" marker-end="url(#arrowhead)" style="fill: none;"></line><text x="1061" y="919" text-anchor="middle" dominant-baseline="middle" alignment-baseline="middle" class="messageText" dy="1em" style="font-size: 16px; font-weight: 400;">NTLM Type 2: CHALLENGE\n(8-byte random challenge)</text><line x1="1390" y1="950" x2="732.5" y2="950" class="messageLine1" stroke-width="2" stroke="none" marker-end="url(#arrowhead)" style="stroke-dasharray: 3, 3; fill: none;"></line><text x="407" y="965" text-anchor="middle" dominant-baseline="middle" alignment-baseline="middle" class="messageText" dy="1em" style="font-size: 16px; font-weight: 400;">Forward Type 2 CHALLENGE\nto victim</text><line x1="727.5" y1="996" x2="87" y2="996" class="messageLine1" stroke-width="2" stroke="none" marker-end="url(#arrowhead)" style="stroke-dasharray: 3, 3; fill: none;"></line><text x="84" y="1011" text-anchor="middle" dominant-baseline="middle" alignment-baseline="middle" class="messageText" dy="1em" style="font-size: 16px; font-weight: 400;">Encrypt challenge with\nuser's NTLM hash</text><path d="M 84,1042 C 144,1032 144,1072 84,1062" class="messageLine0" stroke-width="2" stroke="none" marker-end="url(#arrowhead)" style="fill: none;"></path><text x="404" y="1087" text-anchor="middle" dominant-baseline="middle" alignment-baseline="middle" class="messageText" dy="1em" style="font-size: 16px; font-weight: 400;">NTLM Type 3: RESPONSE\n(challenge encrypted with hash)</text><line x1="84" y1="1118" x2="724.5" y2="1118" class="messageLine0" stroke-width="2" stroke="none" marker-end="url(#arrowhead)" style="fill: none;"></line><text x="1058" y="1133" text-anchor="middle" dominant-baseline="middle" alignment-baseline="middle" class="messageText" dy="1em" style="font-size: 16px; font-weight: 400;">Relay Type 3 RESPONSE\nto target server</text><line x1="729.5" y1="1164" x2="1387" y2="1164" class="messageLine0" stroke-width="2" stroke="none" marker-end="url(#arrowhead)" style="fill: none;"></line><text x="1721" y="1179" text-anchor="middle" dominant-baseline="middle" alignment-baseline="middle" class="messageText" dy="1em" style="font-size: 16px; font-weight: 400;">Validate NTLM response</text><line x1="1392" y1="1210" x2="2049.5" y2="1210" class="messageLine0" stroke-width="2" stroke="none" marker-end="url(#arrowhead)" style="fill: none;"></line><text x="1724" y="1225" text-anchor="middle" dominant-baseline="middle" alignment-baseline="middle" class="messageText" dy="1em" style="font-size: 16px; font-weight: 400;">Authentication successful</text><line x1="2052.5" y1="1256" x2="1395" y2="1256" class="messageLine1" stroke-width="2" stroke="none" marker-end="url(#arrowhead)" style="stroke-dasharray: 3, 3; fill: none;"></line><text x="1061" y="1271" text-anchor="middle" dominant-baseline="middle" alignment-baseline="middle" class="messageText" dy="1em" style="font-size: 16px; font-weight: 400;">Access granted as victim user</text><line x1="1390" y1="1302" x2="732.5" y2="1302" class="messageLine1" stroke-width="2" stroke="none" marker-end="url(#arrowhead)" style="stroke-dasharray: 3, 3; fill: none;"></line><text x="1058" y="1445" text-anchor="middle" dominant-baseline="middle" alignment-baseline="middle" class="messageText" dy="1em" style="font-size: 16px; font-weight: 400;">Dump SAM database\nsecretsdump.py</text><line x1="729.5" y1="1476" x2="1387" y2="1476" class="messageLine0" stroke-width="2" stroke="none" marker-end="url(#arrowhead)" style="fill: none;"></line><text x="1061" y="1491" text-anchor="middle" dominant-baseline="middle" alignment-baseline="middle" class="messageText" dy="1em" style="font-size: 16px; font-weight: 400;">Local account hashes</text><line x1="1390" y1="1522" x2="732.5" y2="1522" class="messageLine1" stroke-width="2" stroke="none" marker-end="url(#arrowhead)" style="stroke-dasharray: 3, 3; fill: none;"></line><text x="1058" y="1537" text-anchor="middle" dominant-baseline="middle" alignment-baseline="middle" class="messageText" dy="1em" style="font-size: 16px; font-weight: 400;">Execute commands\nvia SMB/WMI/WinRM</text><line x1="729.5" y1="1568" x2="1387" y2="1568" class="messageLine0" stroke-width="2" stroke="none" marker-end="url(#arrowhead)" style="fill: none;"></line><text x="1061" y="1583" text-anchor="middle" dominant-baseline="middle" alignment-baseline="middle" class="messageText" dy="1em" style="font-size: 16px; font-weight: 400;">Command output</text><line x1="1390" y1="1614" x2="732.5" y2="1614" class="messageLine1" stroke-width="2" stroke="none" marker-end="url(#arrowhead)" style="stroke-dasharray: 3, 3; fill: none;"></line><text x="1058" y="1629" text-anchor="middle" dominant-baseline="middle" alignment-baseline="middle" class="messageText" dy="1em" style="font-size: 16px; font-weight: 400;">Create persistence:\nNew admin user, scheduled task</text><line x1="729.5" y1="1660" x2="1387" y2="1660" class="messageLine0" stroke-width="2" stroke="none" marker-end="url(#arrowhead)" style="fill: none;"></line><text x="1061" y="1675" text-anchor="middle" dominant-baseline="middle" alignment-baseline="middle" class="messageText" dy="1em" style="font-size: 16px; font-weight: 400;">Persistence established</text><line x1="1390" y1="1706" x2="732.5" y2="1706" class="messageLine1" stroke-width="2" stroke="none" marker-end="url(#arrowhead)" style="stroke-dasharray: 3, 3; fill: none;"></line></svg>